<svg xmlns="http://www.w3.org/2000/svg" preserveAspectRatio="xMidYMid" width="193.24" height="41" viewBox="0 0 193.24 41"><defs><style>.cls-1 { fill: #fff; fill-rule: evenodd; }</style></defs><path d="M193.078 35.758c-.185.07-.337-.01-.473-.145-.505-.498-.883-1.096-1.302-1.66-1.478-1.995-2.95-3.99-4.423-5.99-.224-.304-.43-.622-.645-.933-.067-.097-.094-.275-.26-.22-.135.045-.075.19-.075.296l.01 8.203c0 .217.077.48-.28.482-.36.002-.324-.247-.323-.5.008-1.6.004-3.2.005-4.8v-4.795c0-.165-.098-.36.156-.437.222-.065.38.053.498.204.352.447.695.9 1.03 1.36.726.994 1.45 1.99 2.166 2.993.74 1.04 1.548 2.028 2.262 3.09.275.41.598.802.896 1.206.052.07.103.18.222.132.11-.044.088-.155.087-.25-.006-2.765-.01-5.53-.02-8.297 0-.23-.06-.465.298-.457.336.008.305.22.305.463-.008 3.214-.005 6.428-.004 9.642 0 .153.072.338-.132.413zm-.316-29.21c-1.375-.013-2.75.005-4.126-.018-.38-.006-.49.096-.486.482.02 2.175.01 4.35.008 6.525 0 2.192-.01 4.383.01 6.574 0 .333-.092.42-.404.405-.43-.022-.864-.015-1.295 0-.295.01-.413-.054-.41-.4.017-4.383.01-8.766.026-13.148 0-.4-.193-.435-.504-.433-1.424.008-2.848-.007-4.27.014-.337.005-.47-.068-.436-.42.03-.334.02-.673 0-1.007-.017-.285.058-.387.373-.386 3.837.013 7.676.012 11.514.003.324 0 .478.07.442.43-.03.316-.034.64 0 .957.04.368-.13.426-.444.423zm-20.44 12.217c2.206-.012 4.412.003 6.62-.018.418-.003.592.083.52.53-.044.265-.04.547-.004.814.055.373-.116.426-.432.425-2.926-.008-5.853-.006-8.78-.003-.265 0-.444-.003-.442-.374.018-2.51.01-5.02.01-7.53 0-2.496.007-4.99-.007-7.486-.002-.308.107-.386.387-.386 2.958.004 5.917.004 8.874 0 .273 0 .42.068.394.382-.026.334-.037.674 0 1.006.04.353-.123.4-.413.398-2.192-.008-4.383.004-6.573-.018-.445-.004-.597.086-.582.576.043 1.358.03 2.718.003 4.077-.008.442.085.604.57.595 1.696-.033 3.392-.006 5.086-.02.393-.004.522.096.494.52-.077 1.163-.054 1.165-1.213 1.165-1.47 0-2.943.016-4.414-.01-.444-.01-.526.15-.52.557.026 1.454.027 2.91 0 4.365-.005.352.088.437.42.435zm-.297 6.42c1.247-.027 2.388.21 3.357 1.04.802.686 1.304 1.542 1.555 2.573.137.563.246 1.118.223 1.66.04 1.363-.313 2.582-1.088 3.65-.492.68-1.17 1.14-1.97 1.443-1.03.388-2.09.384-3.11.183-1.442-.285-2.6-1.125-3.176-2.51-.657-1.58-.73-3.263-.166-4.876.695-1.98 2.183-3.118 4.375-3.163zm-3.886 5.406c-.09.705.054 1.49.384 2.222.537 1.195 1.417 1.985 2.74 2.276 1.524.338 2.86.014 3.923-1.114 1.483-1.574 1.526-4.37.594-6.094-1.286-2.384-4.38-2.71-6.227-1.09-1.093.96-1.492 2.252-1.414 3.8zm-1.38-10.086c-.32.022-.643-.016-.96.012-.48.042-.84-.184-1.13-.51-1.34-1.523-2.683-3.044-3.985-4.6-.57-.678-1.135-1.35-1.81-1.927-.182-.157-1.448-.283-1.618-.153-.137.105-.095.26-.095.4 0 2.112-.012 4.225.01 6.336.003.37-.086.48-.45.454-.43-.03-.864-.013-1.296 0-.29.01-.375-.097-.374-.397.014-2.496.008-4.99.01-7.487 0-2.496.006-4.992-.01-7.488 0-.33.11-.42.416-.41.43.017.864.027 1.294 0 .325-.02.407.092.405.41-.014 2 .004 4-.02 6-.005.452.14.56.577.558.53-.002.958-.16 1.304-.54.98-1.07 1.982-2.12 2.863-3.28.324-.424.768-.742 1.12-1.155.427-.503.836-1.028 1.322-1.485.323-.304.663-.49 1.1-.498.45-.008.897-.01 1.345-.01.107 0 .237-.033.287.106.042.116-.067.16-.128.23-.696.782-1.39 1.567-2.083 2.353-.772.877-1.518 1.778-2.32 2.625-.628.663-1.126 1.446-1.858 2.005-.21.16-.2.27-.013.398.824.564 1.346 1.406 1.986 2.138.794.91 1.57 1.835 2.345 2.76.705.843 1.395 1.698 2.092 2.547.01.012.02.026.025.04.076.208.493.257.368.485-.13.234-.473.068-.72.084zm-17.824-8.68c1.108.428 2.192.94 2.756 2.065.39.783.55 1.622.36 2.534-.172.822-.374 1.604-.873 2.29-.52.714-1.18 1.21-2.006 1.54-1.345.54-2.72.523-4.08.233-1.174-.25-2.235-.82-3.124-1.662-.11-.104-.115-.233-.06-.35.068-.15.154-.298.26-.422.72-.83.705-.8 1.68-.188.814.51 1.67.962 2.652 1.056 1.662.158 3.52-.9 3.602-2.752.05-1.107-.41-1.5-1.35-2.083-1.07-.664-2.33-.824-3.484-1.258-1.44-.538-2.588-1.637-2.678-3.444-.047-.933.053-1.825.533-2.614.47-.774 1.106-1.417 1.978-1.76.764-.298 1.557-.45 2.388-.394 1.322-.083 2.508.358 3.634 1.004.202.116.297.366.545.45.107.037.06.216.02.303-.138.296-.28.594-.46.865-.29.436-.484.452-.947.164-.934-.58-1.864-1.183-3.04-1.065-1.08.108-2.037.496-2.496 1.53-.445 1.002-.245 2.036.924 2.707 1.028.588 2.178.832 3.266 1.25zm-8.064 8.7c-.224-.002-.447-.002-.67-.002v-.012c-.097 0-.195-.014-.29.002-.626.107-1.04-.208-1.223-.748-.33-.958-.834-1.846-1.085-2.832-.178-.7-.264-.76-.965-.76-1.967 0-3.935 0-5.903-.01-.376 0-.53.152-.653.527-.3.912-.686 1.796-1.037 2.692-.06.147-.105.3-.17.444-.168.367-.407.662-.844.68-.448.018-.896.005-1.344.008-.245.003-.31-.084-.213-.32.328-.796.575-1.627.992-2.38.257-.468.33-.995.562-1.47.257-.526.428-1.094.678-1.624.342-.727.528-1.51.84-2.248.213-.5.46-.985.67-1.483.127-.297.117-.617.298-.914.303-.494.478-1.068.693-1.614.293-.743.594-1.484.85-2.24.154-.46.417-.878.51-1.366.03-.155.232-.12.375-.12.528.004 1.056.017 1.583-.005.255-.01.372.085.462.31.377.954.767 1.9 1.155 2.85.29.71.592 1.42.875 2.134.37.93.72 1.87 1.085 2.8.36.914.722 1.825 1.09 2.735.39.97.788 1.938 1.183 2.906.232.568.454 1.14.703 1.698.116.256.07.36-.208.36zm-4.28-6.272c-.347-.916-.723-1.82-1.077-2.733-.485-1.254-.95-2.514-1.444-3.763-.088-.226-.07-.62-.313-.637-.232-.015-.074.385-.21.56-.018.024-.034.053-.044.083-.32.94-.683 1.865-1.06 2.785-.5 1.228-.94 2.48-1.428 3.712-.13.332-.06.436.284.432.83-.01 1.66-.002 2.49-.002v.003c.832 0 1.663-.017 2.493.008.393.013.404-.2.31-.448zm-16.688 6.254c-1.807.01-3.614-.007-5.42.013-.42.003-.53-.112-.525-.542.023-2.446.01-4.893.01-7.34h-.003c0-2.493.006-4.988-.008-7.482-.002-.33.122-.42.417-.418 1.92.012 3.842-.066 5.753.053 1.346.083 2.657.457 3.63 1.544.5.557.67 1.227.785 1.926.18 1.094-.13 2.072-.808 2.912-.37.46-.874.798-1.45 1.007-.12.043-.34.02-.342.2-.002.214.214.116.334.155 1.096.35 2.072.888 2.556 1.99.24.546.362 1.158.298 1.776-.17 1.625-.922 2.882-2.416 3.588-.877.414-1.835.612-2.814.618zm2.484-11.816c-.17-1.247-1.005-2.05-2.248-2.166-1.178-.11-2.356-.072-3.534-.097-.36-.008-.47.117-.458.474.025.735.008 1.47.008 2.204h-.005c0 .766.013 1.532-.005 2.298-.007.276.082.37.35.367 1.1-.013 2.203-.01 3.305-.02.47-.005.907-.185 1.306-.4 1.063-.565 1.443-1.476 1.282-2.66zm.27 6c-.54-.996-1.528-1.27-2.544-1.342-1.16-.084-2.33-.035-3.495-.066-.348-.01-.486.082-.473.454.026.765.007 1.532.007 2.3h.006c0 .767.026 1.535-.01 2.3-.02.365.102.43.426.427 1.038-.017 2.076-.012 3.115-.007.56.003 1.098-.05 1.637-.253 1.67-.63 2.012-2.556 1.33-3.813zm-5.7 10.575c1.86.077 3.285.96 4.077 2.635.57 1.21.645 2.534.4 3.874-.22 1.195-.71 2.223-1.66 2.986-.92.74-2.01 1.023-3.18 1.02-1.12-.002-2.238-.01-3.356.01-.336.005-.396-.123-.393-.426.014-1.63.006-3.26.006-4.89 0-1.615.008-3.23-.01-4.843 0-.3.083-.388.377-.385 1.246.014 2.495-.033 3.74.02zm-3.33 1.102c.014 1.392.005 2.784.005 4.176 0 1.39-.002 2.783 0 4.174.002.216-.053.488.307.464 1.242-.08 2.49.1 3.73-.167 1.644-.356 2.557-1.575 2.902-2.883.333-1.265.3-2.545-.2-3.783-.522-1.297-1.466-2.098-2.842-2.332-1.14-.195-2.3-.024-3.447-.095-.393-.024-.46.1-.456.447zm-4.562-6.318c0 .516-.173.62-.634.348-.57-.336-.873-.92-1.23-1.438-.414-.605-.87-1.175-1.31-1.757-.576-.757-1.092-1.562-1.703-2.294-.918-1.1-1.71-2.293-2.58-3.426-1.067-1.387-2.11-2.796-3.122-4.225-.12-.17-.22-.348-.434-.296-.243.058-.138.288-.138.448 0 4.24-.002 8.48.014 12.72 0 .39-.244.282-.442.316-.272.046-.31-.086-.31-.328.008-4.896.006-9.79.008-14.686 0-.132-.083-.34.12-.36.273-.024.563-.077.78.218.764 1.037 1.55 2.056 2.32 3.088 1.908 2.56 3.8 5.128 5.723 7.677.534.71 1.074 1.418 1.585 2.146.08.114.137.34.345.267.19-.067.134-.267.134-.42l-.008-7.967c0-1.535 0-3.07.003-4.607 0-.185-.103-.487.26-.4.23.056.643-.253.632.383-.04 2.447-.016 4.894-.016 7.342v7.247zm-7.58 11.733c.544.744 1.138 1.45 1.61 2.245.047.077.067.193.205.124.097-.048.14-.112.132-.225-.118-1.355-.034-2.713-.05-4.07-.015-1.406.003-2.813-.01-4.22-.002-.265.006-.417.343-.395.273.018.436.015.432.378-.022 1.615-.01 3.23-.01 4.845h-.004v4.843c0 .18.092.4-.185.474-.237.064-.39-.064-.53-.227-.812-.938-1.5-1.968-2.22-2.975-.883-1.23-1.852-2.402-2.7-3.656-.45-.667-1.088-1.197-1.398-1.96-.03-.076-.11-.13-.194-.106-.177.05-.112.204-.112.322 0 1.087.007 2.174.01 3.26 0 1.647-.008 3.294.01 4.94.003.305-.11.394-.38.412-.322.02-.306-.18-.306-.405.004-3.23.003-6.46.006-9.688 0-.162-.103-.394.147-.44.192-.036.39.024.53.203.402.526.822 1.038 1.214 1.572 1.16 1.578 2.304 3.167 3.46 4.748zM91.63 20.448c-.676-.05-.678-.025-.678-.703v-7.097c0-2.494.005-4.988-.007-7.48 0-.27.045-.353.336-.343.787.023.788.005.788.81 0 4.795-.005 9.59.01 14.385 0 .367-.083.456-.448.428zm-4.725-.256c-.332-.504-.465-1.096-.705-1.64-.394-.894-.724-1.817-1.092-2.724-.087-.214-.28-.278-.512-.278-2.318.004-4.637.002-6.956 0-.25 0-.397.103-.505.348-.534 1.198-.854 2.485-1.493 3.64-.1.178-.1.382-.206.573-.23.412-.576.335-.916.328-.227-.005-.127-.15-.1-.272.155-.71.503-1.342.792-2 .404-.923.83-1.84 1.188-2.782.284-.753.624-1.486.888-2.24.435-1.24 1.123-2.376 1.462-3.653.228-.855.71-1.606 1.04-2.42.2-.496.32-1.014.6-1.488.28-.47.21-.51.824-.51.72-.198.644.527.802.89.744 1.706 1.43 3.437 2.13 5.16.49 1.213.94 2.442 1.466 3.637.674 1.527 1.212 3.112 1.937 4.618.065.137.054.304.137.452.098.174.306.375.136.58-.133.163-.78-.01-.918-.218zm-2.34-5.66c-.413-1.04-.845-2.073-1.27-3.108-.282-.683-.556-1.368-.85-2.047-.392-.91-.71-1.855-1.06-2.785-.048-.13-.137-.216-.288-.2-.127.012-.196.1-.23.213-.046.168-.07.335-.144.5-.575 1.28-1.07 2.594-1.604 3.89-.467 1.137-.938 2.275-1.372 3.425-.167.44-.122.533.363.536.993.006 1.985.002 2.977 0h3.07c.284 0 .565-.03.41-.423zM71.62 18.156c.587.723 1.155 1.463 1.784 2.263-.67.07-1.13.026-1.602-.57-1.003-1.27-2.058-2.505-3.038-3.795-.518-.683-1.032-1.368-1.557-2.046-.3-.39-.655-.613-1.182-.573-.556.043-1.12.026-1.678.004-.38-.016-.534.086-.53.508.022 2.03-.017 4.062.026 6.09.012.562-.31.362-.57.41-.406.074-.342-.184-.342-.43.004-4.844.007-9.688-.004-14.533 0-.326.05-.432.41-.424 1.247.028 2.495.04 3.74 0 1.074-.034 2.105.16 3.06.593.89.404 1.49 1.125 1.734 2.127.122.5.24.987.193 1.498-.14 1.505-.784 2.693-2.18 3.39-.57.283-1.18.45-1.81.527-.113.013-.23.002-.28.132-.046.126.034.208.113.292 1.347 1.422 2.48 3.018 3.713 4.535zm-2.816-5.83c1.083-.44 1.817-1.124 2.177-2.278.422-1.35-.112-3.06-1.487-3.76-.51-.258-1.077-.367-1.64-.457-1.14-.183-2.295-.023-3.44-.09-.45-.025-.6.154-.593.58.014.975.005 1.95.005 2.924 0 .944.02 1.888-.007 2.83-.012.45.126.64.6.62.717-.03 1.437-.008 2.156-.008.763 0 1.503-.064 2.23-.36zm-1.49 12.878c2.072.172 3.377 1.356 4.022 3.27.22.65.42 1.344.31 1.914.006 1.433-.286 2.643-1.063 3.67-.485.644-1.098 1.145-1.895 1.466-1.09.438-2.192.38-3.262.198-1.183-.2-2.12-.87-2.797-1.947-.933-1.48-.933-3.077-.716-4.675.183-1.344.912-2.45 2.082-3.225 1.02-.675 2.157-.765 3.318-.67zm-4.7 5.823c.1 2.146 1.335 3.71 3.195 4.093 1.316.27 2.538.033 3.568-.87 1.12-.98 1.453-2.293 1.472-3.02.015-3.02-1.128-4.83-3.175-5.317-1.54-.368-3.42.272-4.287 1.603-.697 1.07-.832 2.25-.774 3.51zM56.12 19.97c-2.252.776-4.58.373-6.876.463-.797.032-.798.005-.798-.81V12.76c0-2.43.006-4.863-.01-7.294 0-.343.08-.412.425-.407 1.664.024 3.33-.03 4.99.024 1.126.037 2.228.316 3.09 1.09.718.647.956 1.544 1.002 2.498.077 1.622-.726 2.7-2.075 3.462-.15.086-.315.048-.463.097-.16.052-.284.16-.27.35.015.192.168.222.315.222.79 0 1.42.392 2.02.838.74.552 1.027 1.34 1.107 2.23.1 1.106-.155 2.115-.833 2.997-.416.54-.977.882-1.625 1.104zm-.873-8.167c1.86-.834 2.17-3.172 1.264-4.594-.73-1.15-1.96-1.35-3.166-1.444-1.096-.087-2.205-.002-3.307-.025-.45-.008-.59.182-.583.6.015.896.005 1.79.006 2.686 0 .91.016 1.823-.007 2.732-.01.426.152.557.563.548.975-.022 1.95-.026 2.925-.002.816.02 1.57-.172 2.307-.5zm2.288 3.578c-.487-1.573-1.74-2.173-3.233-2.354-1.428-.173-2.87-.032-4.307-.07-.39-.012-.546.134-.54.53.017.942.005 1.884.005 2.827 0 .926.02 1.854-.008 2.78-.014.47.17.613.62.6.943-.023 1.885 0 2.828-.008.905-.006 1.79-.072 2.67-.372 1.64-.56 2.433-2.42 1.965-3.932zm-8.758 9.866c1.76.016 3.52.005 5.28.01.217 0 .52-.094.51.31-.01.374-.262.36-.535.36-1.456-.008-2.912.006-4.368-.013-.386-.006-.534.083-.523.507.033 1.136.03 2.272.002 3.407-.01.36.11.434.433.43 1.296-.012 2.59.005 3.887-.01.3-.004.43.045.435.385.005.348-.132.382-.428.378-1.28-.017-2.56.002-3.84-.014-.357-.005-.5.056-.49.473.04 1.31.006 2.622.025 3.934.006.35-.155.376-.436.388-.33.014-.36-.142-.36-.408.008-1.632.004-3.264.005-4.895 0-1.618.01-3.233-.008-4.848-.003-.33.097-.398.41-.396zm-13.276.436c-.496.757-1.105 1.45-1.56 2.233-.27.46-.415 1.026-.488 1.56-.134.977-.28 1.972-.227 2.948.083 1.54.015 3.106.42 4.606.244.898.423 1.812.7 2.7.103.335.03.704.205 1.03.036.066-.007.165-.093.194-.295.1-.602.03-.904.046-.466.025-.392-.336-.458-.626-.248-1.097-.487-2.2-.796-3.282-.198-.692-.16-1.392-.224-2.088-.073-.79-.097-1.59-.218-2.373-.093-.604.07-1.175.125-1.755.123-1.27.143-2.56.806-3.73.48-.856 1.166-1.55 1.68-2.38.815-1.31 1.474-2.678 1.944-4.152.603-1.893.848-3.835.787-5.797-.052-1.727-.384-3.406-1.242-4.974-.692-1.264-1.46-2.45-2.508-3.43-.986-.92-1.987-1.863-3.213-2.436-1.355-.634-2.675-1.345-4.147-1.746-2.21-.604-4.445-.927-6.725-.924-1.89.003-3.745.327-5.5 1.028-2.163.865-4.002 2.24-5.47 4.043-1.107 1.36-2 2.865-2.542 4.57-.315.99-.54 1.99-.682 3.014-.082.6.093 1.173.147 1.757.115 1.245.077 2.485-.213 3.688-.277 1.15-1.022 2.07-1.86 2.874-.656.63-1.222 1.323-1.745 2.055-.27.375-.164.638.332.885.63.315 1.233.685 1.732 1.17.737.718 1.01 1.62.666 2.62-.173.502.02.764.42.984.245.137.466.29.583.574.11.268.018.46-.155.642-.053.056-.125.093-.18.146-.53.503-.517.486.075.94.555.427 1.07.897 1.153 1.667.036.325.03.61-.154.91-.214.347-.36.737-.516 1.117-.167.41.102.818.546 1.01.64.273 1.32.223 1.977.324 1.6.246 3.223.275 4.825.123 1.546-.146 3.004-.69 4.202-1.73.916-.793 1.69-1.74 2.038-2.912.227-.763.456-1.53.437-2.377-.063-2.654-.024-5.31-.022-7.967 0-.158.014-.318.022-.476-.78 0-1.52.344-2.31.272-1.533-.138-2.865-.67-3.775-1.98-.187-.27-.36-.296-.642-.202-1.14.38-2.245.236-3.347-.198-1.648-.65-2.438-1.935-2.883-3.578-.564-2.086.687-4.61 2.545-5.492.253-.12.31-.267.313-.513.02-2.24 1.2-3.75 3.13-4.67.777-.367 1.69-.476 2.576-.337.272.043.443-.03.63-.217 1.357-1.364 3.036-1.566 4.82-1.252.468.083.948.28 1.33.6.3.256.57.203.866.026 1.162-.69 2.375-.818 3.7-.512 1.584.367 2.722 1.277 3.328 2.714.33.783.79.954 1.525 1.155 1.386.38 2.487 1.245 3.087 2.62.32.728.546 1.477.516 2.297-.035.932-.315 1.78-.778 2.57-.14.24-.157.384.024.62.638.83.946 1.82.96 2.836.018 1.542-.577 2.876-1.723 3.95-.747.697-1.652 1-2.633 1.117-.35.042-.604.19-.796.46-.37.523-.81.975-1.354 1.31-.932.57-1.96.81-3.043.724-1.926-.154-3.38-1.128-4.46-2.695-.076-.114-.183-.11-.273-.165-.007 2.126-.03 4.253-.015 6.38.006 1.06-.03 2.102-.393 3.113-.477 1.324-1.145 2.53-2.174 3.5-.88.83-1.905 1.47-3.05 1.832-.933.296-1.89.516-2.89.577-1.758.107-3.484-.128-5.22-.306-.662-.068-1.304-.194-1.917-.46-.8-.346-1.456-1.572-.95-2.47.233-.415.415-.88.543-1.33.123-.438-.31-.745-.64-.933-.975-.56-1.2-1.088-.754-2.092.113-.256.158-.45-.12-.634-.54-.357-.522-.92-.333-1.41.356-.918.045-1.665-.778-2.182-.657-.412-1.412-.698-1.867-1.4-.208-.323-.333-.62-.252-1.003.175-.837.634-1.52 1.17-2.154.422-.496.878-.968 1.352-1.415.89-.843 1.315-1.86 1.458-3.082.137-1.177-.043-2.315-.12-3.47-.068-1.01.16-1.99.41-2.96.15-.576.252-1.165.482-1.714.914-2.184 2.158-4.15 3.896-5.776 1.065-.997 2.256-1.846 3.567-2.47C13.903.787 15.7.325 17.552.115c1.797-.204 3.588-.18 5.384.08 2.41.35 4.733.945 6.9 2.084.844.442 1.678.888 2.458 1.452 1.16.84 2.262 1.745 3.157 2.853.882 1.09 1.62 2.274 2.16 3.598.762 1.87 1.007 3.806.92 5.778-.073 1.68-.33 3.346-.82 4.98-.513 1.696-1.246 3.277-2.21 4.744zM13.12 13.808c-.503-.8-1.18-1.272-2.105-1.382-.176-.02-.355.078-.375.294-.018.2.106.29.295.294.2.004.367.102.546.17 1.034.385 1.29 1.063 1.177 2.17-.064.633-.865 1.318-1.63 1.384-.257.023-.554.077-.523.36.036.333.36.364.645.3.665-.154 1.26-.46 1.673-1.01.252-.335.35-.238.547.035.48.672 1.08 1.21 1.876 1.494.215.076.543-.105.537-.315-.06-.14-.156-.266-.32-.31-.938-.256-1.447-.933-1.88-1.753-.292-.557-.123-1.19-.464-1.732zm5.287-7.503c-.375-.108-.39.367-.475.63-.205.64-.59 1.086-1.21 1.378-.844.396-1.617.092-2.4-.155-.176-.056-.315-.106-.4.077-.085.18-.105.408.13.487.298.102.574.253.905.29.597.07 1.186.22 1.774-.04.22-.032.347.05.457.255.553 1.034.33 2.073.04 3.11-.076.27-.144.54.168.645.32.107.41-.206.456-.426.105-.494.26-.977.28-1.494.03-.803.07-1.595-.456-2.282-.117-.152-.03-.25.072-.37.318-.38.633-.764.793-1.24.103-.313.295-.743-.133-.865zm11.625 3c-.18-.062-.345.01-.51.07-.464.168-.92.186-1.4.025-.687-.232-1.115-.716-1.428-1.328-.196-.383-.503-.57-.9-.435-1.033.353-2.404-.295-2.653-1.29-.053-.214-.155-.372-.39-.308-.28.075-.227.304-.178.512.322 1.372 1.918 1.936 3.05 1.767.32-.05.452-.036.633.267.564.95 1.43 1.462 2.616 1.547.286-.05.65-.098 1.005-.186.17-.042.315-.164.316-.376 0-.117-.034-.226-.158-.268zm-4.023 7.673c.482-1.008 1.267-1.394 2.377-1.218.708.113.74.1.743.848.032.243-.007.524.144.798.564 1.02 1.52 1.328 2.577 1.456.163.02.38-.06.39-.274.006-.183-.108-.308-.326-.343-.358-.058-.713-.144-1.062-.243-.363-.102-.678-.313-.875-.628-.193-.307-.36-.683-.218-1.04.14-.352.52-.21.812-.23.047-.003.096.002.143-.002 1.28-.103 1.957-.836 2.14-1.75.058-.284-.076-.51-.32-.562-.263-.054-.317.232-.366.42-.258.99-.702 1.335-1.722 1.335-.584 0-1.16-.157-1.672-.354-1.336-.51-2.68.263-3.33 1.482-.092.17-.203.417.04.555.25.144.414-.02.523-.25zm-4.13 4.08c.56.247 1.142.38 1.746.24.347-.08.578-.016.76.302.302.533.515 1.08.496 1.71-.01.34.2.615.52.63.256.014.48-.25.425-.53-.148-.777-.258-1.585-.747-2.236-.203-.27-.148-.386.05-.583.387-.385.666-.84.754-1.39.036-.267-.074-.46-.328-.508-.225-.043-.387.078-.456.317-.038.135-.125.256-.175.39-.267.692-.82 1.085-1.56 1.113-.406.017-.783-.07-1.16-.222-.192-.074-.473-.13-.565.17-.074.24-.042.472.24.597zm-1.338-5.58c.43.084.713-.126.843-.508.31-.907.995-1.616 2.206-1.486.434.046.76-.09 1.09-.356.458-.37.94-.672 1.596-.63.5.033.922.177 1.33.438.24.154.5.158.683-.094.192-.27.007-.428-.207-.58-1.13-.812-2.616-.812-3.68.04-.258.205-.51.287-.83.28-1.238-.026-2.182.465-2.747 1.604-.133.268-.292.404-.668.353-1.484-.204-2.776.898-2.79 2.315 0 .048.002.096-.002.144-.02.277.005.53.365.544.383.015.41-.223.414-.54.012-.83.556-1.41 1.366-1.6.367-.088.69.006 1.032.074zm59.484 9.763c.328.002.393.107.39.422-.017 2.096-.042 4.192 0 6.287.04 2.104 1.62 3.514 3.622 3.24 1.026-.142 1.736-.783 2.26-1.714.457-.808.412-1.638.416-2.483.01-1.792.008-3.584-.012-5.375-.003-.338.166-.364.41-.372.228-.007.353.055.35.325-.023 2.32.032 4.64-.075 6.956-.064 1.383-.82 2.455-2.138 3.01-1.275.54-2.53.49-3.765-.197-.907-.504-1.41-1.235-1.663-2.23-.176-.698-.188-1.388-.19-2.09v-2.112c0-1.087.014-2.176-.01-3.263-.007-.328.09-.404.404-.404zm49.28 7.063c.21-.72.585-1.394.888-2.087.408-.932.766-1.882 1.11-2.84.24-.67.533-1.33.86-1.964.116-.223.438-.06.663-.085.165-.018.23.078.292.238.473 1.216.967 2.423 1.452 3.634.525 1.307 1.05 2.615 1.573 3.923.308.77.62 1.537.927 2.307.09.228.137.445-.382.45-.296.035-.48-.308-.547-.622-.173-.812-.623-1.512-.844-2.302-.08-.285-.277-.455-.674-.443-1.373.044-2.75.024-4.125.007-.34-.004-.506.107-.624.438-.313.867-.675 1.717-1.013 2.575-.137.35-.453.302-.67.213-.247-.1-.13-.334-.05-.554.36-.974.872-1.882 1.163-2.89zm1.407-.316c.62-.023 1.243-.006 1.865-.006v-.005c.638 0 1.276.002 1.914 0 .176 0 .44-.01.308-.256-.123-.23-.173-.473-.268-.705-.395-.964-.783-1.93-1.17-2.898-.2-.498-.388-1.002-.592-1.498-.046-.112-.102-.25-.253-.254-.106-.004-.1.103-.118.176-.28 1.035-.767 1.99-1.143 2.99-.26.69-.566 1.36-.837 2.046-.1.255-.06.422.293.41zm12.088-6.732c2.4 0 4.8 0 7.2-.002.212 0 .435-.044.423.288-.01.298-.123.403-.447.392-.91-.03-1.823-.002-2.734-.02-.335-.005-.45.11-.446.447.013 1.502.006 3.007.006 4.51h.008c0 1.504-.01 3.007.008 4.512.003.303-.108.397-.38.407-.284.01-.392-.093-.39-.394.01-2.992 0-5.983.02-8.974.002-.39-.124-.515-.49-.51-.927.013-1.856-.013-2.783.022-.343.013-.418-.126-.426-.406-.01-.34.227-.273.43-.273zm15.772-.004c.284.026.59-.116.577.418-.04 1.66-.015 3.322-.015 4.983h.002c0 1.662-.012 3.323.01 4.983.004.358-.14.41-.428.37-.26-.037-.605.17-.6-.39.023-3.32.018-6.643 0-9.965-.002-.382.145-.424.452-.397z" class="cls-1"/></svg>