<svg xmlns="http://www.w3.org/2000/svg" xmlns:xlink="http://www.w3.org/1999/xlink" preserveAspectRatio="xMidYMid" width="109" height="8.563" viewBox="0 0 109 8.563">
  <defs>
    <style>
      .cls-1 {
        fill: #fff;
        fill-rule: evenodd;
      }
    </style>
  </defs>
  <path d="M105.658,6.071 L103.991,6.071 L103.991,8.469 L102.096,8.469 L102.096,0.074 L105.658,0.074 C107.793,0.074 109.017,1.129 109.017,2.988 C109.017,4.943 107.793,6.071 105.658,6.071 ZM105.562,1.645 L103.991,1.645 L103.991,4.487 L105.562,4.487 C106.618,4.487 107.218,4.007 107.218,3.048 C107.218,2.112 106.618,1.645 105.562,1.645 ZM89.434,8.553 C87.108,8.553 85.621,7.174 85.621,4.955 L85.621,0.074 L87.515,0.074 L87.515,4.955 C87.515,6.166 88.307,6.898 89.434,6.898 C90.562,6.898 91.305,6.166 91.305,4.955 L91.305,0.074 L93.200,0.074 L93.200,4.955 C93.200,7.174 91.749,8.553 89.434,8.553 ZM64.895,8.469 L63.000,8.469 L63.000,1.680 L60.445,1.680 L60.445,0.074 L67.461,0.074 L67.461,1.680 L64.895,1.680 L64.895,8.469 ZM50.542,8.469 L49.211,6.071 L49.031,6.071 L47.280,6.071 L47.280,8.469 L45.384,8.469 L45.384,0.074 L49.031,0.074 C51.225,0.074 52.473,1.129 52.473,2.988 C52.473,4.284 51.921,5.219 50.902,5.699 L52.688,8.469 L50.542,8.469 ZM49.031,1.645 L47.280,1.645 L47.280,4.487 L49.031,4.487 C50.074,4.487 50.674,4.007 50.674,3.048 C50.674,2.112 50.074,1.645 49.031,1.645 ZM32.687,2.053 L30.072,8.469 L28.117,8.469 L31.763,0.074 L33.718,0.074 L37.304,8.469 L35.277,8.469 L32.687,2.053 ZM19.163,8.469 L17.268,8.469 L17.268,1.680 L14.713,1.680 L14.713,0.074 L21.729,0.074 L21.729,1.680 L19.163,1.680 L19.163,8.469 ZM3.719,8.530 C2.340,8.530 0.961,8.001 0.013,7.197 L0.769,5.650 C1.632,6.418 2.856,6.910 3.743,6.910 C4.523,6.910 4.991,6.622 4.991,6.107 C4.991,4.523 0.517,5.447 0.517,2.473 C0.517,0.949 1.824,-0.010 3.767,-0.010 C4.942,-0.010 6.118,0.349 6.957,0.901 L6.226,2.473 C5.338,1.944 4.283,1.609 3.611,1.609 C2.975,1.609 2.544,1.837 2.544,2.292 C2.544,3.840 7.017,2.976 7.005,5.998 C7.005,7.641 5.578,8.530 3.719,8.530 Z" class="cls-1"/>
</svg>
