<svg xmlns="http://www.w3.org/2000/svg" preserveAspectRatio="xMidYMid" width="133.15" height="47.2" viewBox="0 0 133.15 47.2"><defs><style>.cls-1 { fill: #fff; fill-rule: evenodd; }</style></defs><path d="M133.058 21.707v-5.15l.086-.003v5.152h-.086zm-.615.49c-4.05 3.797-8.082 7.61-12.123 11.415-.143.136-.322.237-.608.443 0-2.252-.022-4.327.025-6.4.006-.312.275-.68.523-.917 2.623-2.487 5.266-4.95 7.902-7.425.066-.06.12-.14.215-.25-.104-.123-.192-.248-.3-.352-2.63-2.515-5.268-5.02-7.875-7.555-.262-.256-.452-.713-.46-1.08-.046-1.957-.022-3.915-.022-6.013.234.16.423.258.57.4 4.02 3.828 8.028 7.667 12.054 11.487.44.416.654.833.626 1.456-.053 1.19-.04 2.383-.003 3.574.015.515-.15.866-.524 1.217zM112.57 37.53c-1.282-.046-2.57-.05-3.852.002-.618.026-.74-.193-.738-.755.014-9.414.014-18.828.003-28.243 0-.6-.09-1.207-.203-1.8-.166-.885-.79-1.443-1.672-1.53-1.87-.183-3.463.538-4.934 1.585-.175.124-.252.488-.252.74-.013 9.718-.02 19.435.005 29.153 0 .7-.215.875-.877.85-1.236-.05-2.477-.048-3.713 0-.64.026-.846-.16-.84-.817.033-3.13.017-6.26.017-9.39 0-6.47-.048-12.943.024-19.41.027-2.365-1.29-2.936-3.202-2.684-1.305.17-2.42.804-3.492 1.502-.2.13-.344.5-.344.76-.018 9.718-.022 19.436.003 29.153.002.705-.157.93-.883.89-1.234-.07-2.476-.052-3.714-.006-.6.024-.745-.183-.744-.755.016-9.18.012-18.36.013-27.542 0-2.686.016-5.372-.013-8.058-.007-.537.15-.692.67-.68 1.355.03 2.71.026 4.064.002.455-.008.637.12.597.595-.04.478-.01.962-.01 1.45 1.136-.672 2.12-1.39 3.21-1.87 2.162-.953 6.007-.83 7.622 1.157.29.357.56.736.807 1.066 1.025-.645 1.972-1.375 3.03-1.877 2.322-1.104 4.755-1.352 7.14-.236 1.99.93 2.87 2.73 2.888 4.815.067 7.964.036 15.93.042 23.896.002 2.452-.01 4.905.01 7.357.004.503-.104.698-.66.678zm-33.393 0c-1.306-.043-2.616-.032-3.923 0-.506.012-.667-.18-.642-.653.024-.453.006-.908.006-1.33-1.16.653-2.168 1.41-3.3 1.82-2.243.81-4.536.866-6.652-.448-1.414-.88-2.184-2.274-2.25-3.9-.128-3.145-.167-6.3-.127-9.448.024-1.95.474-3.87 2.152-5.087 1.088-.79 2.367-1.362 3.63-1.854 1.964-.764 3.985-1.38 5.984-2.052.432-.146.59-.39.58-.88-.04-1.82-.062-3.645-.002-5.465.055-1.676-.964-3.265-2.97-3.194-.85.03-1.72.07-2.537.28-1.038.265-1.543 1.105-1.59 2.138-.084 1.77-.115 3.544-.12 5.316-.002.568-.15.802-.752.784-1.238-.035-2.476-.02-3.714-.002-.475.006-.754-.106-.736-.662.072-2.145.03-4.297.198-6.432.228-2.88 2.055-5.308 5.012-5.962 2.486-.55 5-.593 7.47.033 2.842.72 4.382 2.764 4.846 5.515.197 1.163.247 2.362.25 3.544.02 9.042.002 18.084.025 27.125.002.668-.205.836-.838.814zM74.62 20.117v-.924c-1.61.594-3.096 1.115-4.56 1.69-1.42.557-2.427 1.508-2.458 3.137-.042 2.19-.026 4.386-.006 6.58.012 1.29.872 2.1 2.154 2.175 1.605.094 2.993-.464 4.33-1.28.417-.26.553-.54.55-1.016-.018-3.456-.01-6.91-.01-10.364zM69.576-.09h3.147v.017h-3.116l-.03-.016zm-17.74 37.947c-1.922-.16-3.64-.87-5.073-2.2-.05-.047-.105-.094-.165-.125-.036-.02-.088-.012-.223-.024v11.46H42.39c-1.43 0-1.43 0-1.43-1.43 0-14.738.002-29.476-.017-44.214 0-.657.198-.85.837-.832 1.33.04 2.663.03 3.993.005.463-.01.628.134.586.603-.042.473-.01.95-.01 1.394 1.123-.652 2.077-1.413 3.16-1.8 2.643-.937 5.303-.99 7.604.888 1.372 1.12 2 2.745 2.075 4.504.092 2.12.087 4.246.09 6.37.012 6.026.015 12.05 0 18.077-.003 2.146-.403 4.16-2.066 5.723-1.53 1.438-3.398 1.764-5.38 1.6zm2.155-29.76c-.02-1.597-.64-2.616-2.03-2.832-2.056-.322-3.858.293-5.407 1.652-.14.122-.194.403-.194.61-.013 3.806-.01 7.61-.01 11.416v9.944c0 2.318-.002 2.322 2.063 3.36.288.143.603.304.914.322 1.014.056 2.06.207 3.04.024 1.07-.2 1.634-1.36 1.636-2.788.004-3.618 0-7.236 0-10.854 0-3.618.034-7.237-.013-10.855zM33.355 25.353c1.283.032 2.57.025 3.854 0 .436-.01.596.166.587.57-.046 1.983.1 3.995-.182 5.944-.41 2.836-2.018 4.94-5.327 5.71-1.927.446-3.867.423-5.778.197-2.766-.328-5.025-1.585-6.007-4.386-.33-.946-.477-2-.493-3.008-.056-3.76-.022-7.523-.022-11.286h.062c0-3.9-.114-7.806.04-11.7.107-2.65 1.063-5.06 3.647-6.322.994-.486 2.148-.76 3.256-.87 1.41-.14 2.855-.114 4.27.018 3.61.337 6.193 2.624 6.368 6.3.227 4.71.108 9.433.153 14.15.005.515-.287.485-.636.485-3.692-.005-7.382.012-11.074-.02-.617-.003-.794.144-.786.774.036 2.59.006 5.186.017 7.78.006 1.536.73 2.73 1.812 3.006 1.22.314 2.444.323 3.665-.004.916-.246 1.694-1.134 1.77-2.05.048-.58.072-1.164.08-1.747.01-.934.017-1.87-.008-2.804-.014-.535.17-.75.733-.737zm-7.46-9.346c2.032-.012 4.064-.016 6.096 0 .43.004.566-.128.556-.564-.03-1.285-.01-2.57-.01-3.855h-.042c0-1.283.032-2.57-.012-3.852-.028-.844-.376-1.58-1.088-2.087-1.093-.78-3.684-.822-4.827-.108-1.05.654-1.24 1.707-1.255 2.794-.035 2.36.008 4.72-.022 7.078-.006.496.172.597.604.593zm1.36-16.092H30.5v.007h-3.245v-.007zm-14.25 26.918c.226.216.44.578.446.876.04 2.05.022 4.102.022 6.31-.254-.166-.448-.255-.595-.395C8.75 29.74 4.644 25.835.484 21.987c-.412-.38-.48-.698-.478-1.16.01-1.213 0-2.43.004-3.644 0-.31.057-.52.35-.79 3.035-2.83 6.023-5.712 9.02-8.58 1.182-1.13 2.358-2.262 3.542-3.387.13-.123.295-.21.546-.384 0 2.19.023 4.24-.024 6.288-.008.31-.29.67-.538.91-2.602 2.51-5.22 5.002-7.836 7.498-.08.08-.157.164-.277.29.136.15.248.29.376.412 2.612 2.462 5.235 4.916 7.834 7.393zM46.216 47.21H41.13c0-.026 0-.05-.002-.076h5.11l-.02.076z" class="cls-1"/></svg>