<svg xmlns="http://www.w3.org/2000/svg" preserveAspectRatio="xMidYMid" width="116.1" height="77.6" viewBox="0 0 116.1 77.6"><defs><style>.cls-1 { fill: #fff; fill-rule: evenodd; }</style></defs><path d="M116.096 71.396v2.38c-.276-.82-.333-1.57 0-2.38zm-3.232 3.082c-.765-.243-1.472-.584-2.055-1.204-.657-.697-.467-2.157.38-2.677 1.484-.913 3.32-.46 4.44.744.314.337.185.83.23 1.252.03.617-.024 1.216-.636 1.54-.737.39-1.537.608-2.36.346zm1.843-16.292c-.286 1.75-.568 3.502-.644 5.28-.04.93-.193 1.853.06 2.778.075.276-.16.475-.345.608-.933.675-1.95.164-2.13-.954-.45-2.826-.416-5.68-.578-8.52-.055-.956.004-1.92.034-2.88.016-.517.288-.893.7-1.22.79-.624 1.69-.9 2.674-.954.155.007.312.002.465.024.628.09.87.424.743 1.04-.327 1.6-.716 3.19-.98 4.798zm-4.9 12.76C109.11 72.51 108.31 74 106.848 75c-.812.554-1.7.45-2.55.18-1.298-.416-2.277-1.318-3.168-2.312-.38-.423-.45-.416-.814.006-.868 1.007-1.675 2.07-2.664 2.973-.39.355-.854.38-1.315.252-.318-.09-.49-.358-.523-.708-.023-.255 0-.513.157-.695 1.043-1.208 2.053-2.44 3.035-3.697.31-.396.333-.716.11-1.078-.166-.27-.33-.527-.43-.827-.048-.147-.145-.313-.327-.293-.21.023-.218.223-.27.39-.61 1.93-1.343 3.786-2.824 5.255-1.608 1.594-3.712.952-4.724-.587-.138-.21-.01-.652-.407-.61-.243.025-.358.355-.538.537-.758.77-1.59 1.386-2.757 1.363-.8-.016-1.64-.398-1.983-1.382-.557-1.6-.416-3.203-.022-4.808.06-.242.304-.573.04-.716-.328-.178-.376.26-.504.446-.75 1.1-1.468 2.216-2.04 3.422-.444.933-1.1 1.656-2.11 2.024-.682.25-1.335-.108-1.414-.867-.102-.99-.107-1.987-.06-2.983.01-.192.02-.384.025-.576.003-.12-.075-.197-.18-.228-.122-.036-.203.05-.243.15-.25.604-.507 1.208-.74 1.82-.37.97-.65 1.963-.886 2.977-.203.873-1.05 1.308-2.075 1.266-.863-.035-1.468-.44-1.578-1-.06-.306.06-.587.038-.885-.084-1.203-.173-2.407-.223-3.613-.057-1.378-.065-2.756-.024-4.136.034-1.14.648-1.866 1.576-2.38.63-.348 1.322-.533 2.055-.464.682.063.845.31.68.966-.358 1.41-.61 2.842-.76 4.29-.038.365-.093.722-.21 1.072-.078.236-.096.48.155.672.49-.768.805-1.615 1.24-2.402.763-1.385 1.872-2.16 3.445-2.177.332-.005.75.078 1.03.39.228.255.336.457.103.814-.27.415-.15.952-.245 1.43-.017.087.027.218.163.226.11.005.213-.043.267-.14.612-1.107 1.47-2.035 2.21-3.05.746-1.025 1.716-1.64 3.018-1.623 1.065.014 1.5.477 1.372 1.51-.13 1.05-.39 2.076-.612 3.11-.22 1.018-.343 2.06-.5 3.092-.06.395-.1.793-.14 1.19-.017.175-.026.37.157.465.19.098.312-.034.446-.163.71-.68 1.26-1.49 1.645-2.372.203-.463.11-1.06.126-1.6.022-.73.027-1.46.03-2.192.007-.975.506-1.543 1.517-1.71.98-.16 1.947.34 2.233 1.128.106.293-.032.525-.075.79-.294 1.814-.65 3.625-.437 5.482.04.354.14.682.49.783.315.09.47-.213.638-.43.64-.827.992-1.8 1.416-2.737.05-.11.043-.265.122-.34.37-.35.214-.49-.183-.644-.402-.157-.463-.67-.18-1.175.28-.502.44-1.05.64-1.58.28-.74.59-1.47.856-2.214.23-.653.76-.964 1.352-1.083 1.043-.21 2.048-.047 2.895.67.234.2.343.46.314.79-.047.525.047 1.042.182 1.55.036.14-.02.34.21.362.213.02.29-.142.39-.29.376-.56.75-1.122 1.152-1.663.416-.56.958-.88 1.695-.86.708.02 1.42-.082 2.047.398.272.208.262.342.056.58-1.37 1.572-2.73 3.153-4.093 4.732-.195.225-.222.478-.077.726.463.788.868 1.612 1.47 2.312.304.352.71.575 1.122.728.45.168.702-.254.92-.544.684-.913 1.16-1.943 1.6-2.992.233-.557.436-1.123.655-1.685.155-.398.953-.626 1.325-.422.573.313.586.546.34 1.188-.303.788-.55 1.6-.894 2.374zm-15.22-8.112c-.745.388-1.553.6-2.413.516-.77-.058-1.535-.028-2.285-.374-1.017-.467-1.35-1.726-.363-2.52.556-.45 1.2-.756 1.915-.872 1.008-.167 2.01-.338 3.022.036.76.28 1.6.916 1.44 1.77-.14.737-.722 1.133-1.318 1.444zM88.66 39.42c-1.06.577-2.055 1.278-3.062 1.95-1.906 1.268-3.876 2.43-5.862 3.57-2.074 1.188-4.14 2.39-6.235 3.544-1.283.706-2.61 1.334-3.92 1.992-1.24.622-2.518 1.18-3.714 1.877-.85.494-1.722.935-2.598 1.368-.33.164-.45.496-.53.736-.343 1.005-.846 1.935-1.23 2.918-.41 1.043-.894 2.055-1.318 3.094-.434 1.066-.818 2.154-1.256 3.22-.28.687-.54 1.382-.813 2.07-.208.53-.396 1.063-.563 1.607-.04.132-.06.3-.214.33-.16.03-.234-.128-.305-.245-.517-.857-.942-1.762-1.39-2.656-.534-1.068-.912-2.198-1.34-3.307-.332-.867-.56-1.774-.836-2.662-.118-.382-.238-.763-.357-1.143-.074-.236-.27-.238-.465-.25-2.558-.18-4.747-1.25-6.757-2.773-1.008-.764-1.692-1.785-2.4-2.804-.463-.664-.942-1.318-1.39-1.994-1.035-1.56-2.09-3.1-2.987-4.752-.93-1.714-1.918-3.397-2.69-5.19-.598-1.395-1.204-2.79-1.648-4.248-.173-.57-.532-1.07-.775-1.618-.372-.84-.624-1.718-.92-2.58-.315-.913-.59-1.857-.728-2.81-.183-1.26-.196-2.543-.06-3.816.19-1.758.644-3.44 1.466-5.013.678-1.296 1.762-2.19 2.954-2.98 1.177-.782 2.335-1.596 3.518-2.37 1.424-.93 2.85-1.86 4.303-2.745 1.618-.987 3.253-1.947 4.906-2.876 1.367-.767 2.762-1.487 4.158-2.2 1.492-.76 2.978-1.54 4.508-2.216 1.497-.662 2.993-1.33 4.506-1.96C63.98 1.92 65.375 1.41 66.72.787c1.756-.814 3.597-.72 5.432-.515 1.422.16 2.703.78 3.973 1.43 1.83.94 3.34 2.25 4.625 3.825.95 1.162 1.84 2.374 2.736 3.58 1 1.34 1.93 2.732 2.812 4.148.693 1.11 1.358 2.244 1.978 3.403.568 1.06 1.136 2.12 1.673 3.195.407.818.727 1.678 1.122 2.505.54 1.13 1.05 2.28 1.472 3.457.52 1.45.917 2.944.798 4.48.11 1.662-.25 3.225-.805 4.72-.72 1.94-2.034 3.403-3.877 4.407zm-36.99 3.178c.048.4.27.596.633.483 1.29-.402 2.657-.242 3.962-.585.878-.23.9-.15.813-1.05-.012-.14-.035-.28-.034-.418 0-.333-.03-.666-.223-.94-.28-.4-.6-.025-.9 0-.408.03-.566-.104-.488-.477.152-.73.285-.864 1.03-.893.38-.014.736-.132 1.107-.18.382-.047 1.016.545 1.005.922-.006.21-.122.323-.32.345-.155.017-.314.003-.47.016-.304.026-.47.113-.386.498.1.472.107.965.14 1.45.036.526.243.68.755.54.22-.058.432-.162.653-.178 1.7-.122 3.38-.41 5.072-.615 1.363-.164 1.2-.057.972-1.41-.182-1.082-.202-1.124-1.256-.99-.566.07-.837-.19-1.057-.6-.43-.8-.824-1.62-1.257-2.418-.7-1.29-1.397-2.583-2.145-3.846-.167-.28-.214-.84-.742-.725-.957.21-1.927.252-2.895.342-.408.038-.636.28-.725.746-.252 1.31-.58 2.605-.878 3.904-.19.83-.433 1.65-.563 2.486-.19 1.21-.287 1.345-1.513 1.51-.102.015-.207.037-.302.078-.164.07-.263.236-.202.38.224.527.15 1.086.215 1.628zm-7.418-8.722c.055.518.08 1.04.12 1.562.032.456.23.604.695.487.326-.082.654-.085.984-.096.26-.01.39.115.4.37.04 1.144.306 2.26.42 3.33-.04.4.057.738-.202 1.056-.5.61-1.894 1-2.623.68-.216-.096-.353-.248-.472-.46-.322-.572-.65-1.143-1.257-1.485-.564-.315-1.35-.1-1.63.413-.53.97-.304 1.972.09 2.83.594 1.298 1.84 1.835 3.24 1.586 1.537-.274 3.086-.478 4.638-.61 1.505-.126 2.025-.95 2.196-2.277.205-1.596-.278-3.14-.45-4.703-.144-1.31-.24-1.304 1.092-1.43.354-.034.535-.134.468-.557-.088-.562-.228-1.118-.29-1.68-.04-.37-.163-.432-.487-.398-2.157.224-4.29.64-6.453.8-.373.028-.517.206-.478.58zM54.92 17.862c.444-.157.885-.293 1.353-.353.404-.054.525-.283.397-.67-.274-.82-.548-1.64-.667-2.502-.042-.3-.193-.43-.415-.41-.402-.006-.618.288-.942.31-.75.05-1.456.326-2.17.518-1.686.455-3.375.908-5.067 1.344-.413.107-.536.332-.417.675.276.804.517 1.615.665 2.453.06.34.295.584.628.4.304-.17.62-.204.934-.287.652-.172.803-.07.963.608.148.625.294 1.25.46 1.87.33 1.237.68 2.466 1.008 3.702.14.52.012.69-.53.78-.258.045-.52.073-.77.136-.43.105-.66.32-.51.826.246.83.438 1.677.663 2.514.072.266.244.327.52.248 1.317-.375 2.645-.702 3.963-1.073 1.363-.38 2.744-.7 4.102-1.108.358-.106.41-.257.34-.6-.145-.694-.46-1.342-.537-2.054-.016-.15-.103-.294-.155-.442-.103-.295-.273-.403-.602-.303-.364.112-.74.172-1.097.324-.21.09-.512.194-.615-.148-.377-1.26-.68-2.538-1.04-3.802-.233-.825-.44-1.66-.678-2.488-.065-.223-.07-.367.218-.468zm19.31-2.83c-.29-.456-.29-.992-.438-1.486-.355-1.186-.702-2.374-.937-3.59-.06-.298-.196-.476-.608-.467-.378.105-.836.25-1.302.363-1.562.377-3.11.816-4.663 1.227-1.198.318-2.4.63-3.592.98-1.763.517-3.55.948-5.327 1.415-.29.076-.38.218-.296.536.447 1.67.87 3.345 1.3 5.02.085.328.303.46.625.373.754-.204 1.5-.443 2.257-.625.412-.1.43-.313.326-.645-.15-.482-.252-.978-.424-1.45-.157-.43-.01-.614.387-.783.41-.176.894-.073 1.255-.307.453-.294.633-.097.75.297.197.664.374 1.335.554 2.005.184.684.364 1.37.544 2.057l.597 2.308c.044.166.036.388-.14.387-.447-.003-.788.34-1.238.312-.436-.025-.78.28-.693.566.224.762.5 1.51.622 2.3.032.21.143.39.28.553.082.098.146.17.302.122.794-.237 1.6-.433 2.398-.65 1.784-.486 3.565-.98 5.362-1.42.312-.076.66-.174.89-.377.25-.22-.187-.443-.15-.705.004-.034 0-.072-.008-.105-.178-.67-.36-1.342-.536-2.016-.11-.426-.378-.467-.744-.344-.406.136-.82.244-1.228.38-.314.106-.477-.002-.604-.3-.23-.546-.34-1.137-.476-1.696-.378-1.543-.853-3.06-1.21-4.607-.06-.25-.013-.384.216-.504.608-.318 1.32-.26 1.935-.564.223-.11.41.077.425.324.038.607.41 1.13.418 1.748.005.304.222.5.535.416.817-.218 1.656-.36 2.44-.69.153-.067.303-.186.192-.362zm8.512 23.666c-.09-.408-.028-.846-.21-1.232-.14-.29.08-.725-.276-.893-.316-.15-.68.023-1.023.053-.622.055-.65.003-.724-.625-.156-1.34-.335-2.68-.545-4.014-.06-.39.11-.52.412-.573.304-.053.612-.06.917-.128.315-.07.414-.25.36-.524-.077-.39-.074-.792-.22-1.178-.107-.284.03-.67-.2-.893-.3-.294-.612.09-.922.096-1.462.025-2.88.423-4.335.494-.49.024-.963.136-1.444.216-.398.066-.56.24-.588.64-.033.45-.143.895-.216 1.34-.023.133-.07.246-.213.262-.145.02-.253-.085-.265-.204-.032-.346-.287-.582-.406-.886-.32-.82-.486-.88-1.375-.756-.91.127-1.823.244-2.734.34-1.21.13-2.41.343-3.62.454-.3.028-.454.16-.394.478.1.532.143 1.07.15 1.61.004.374.208.543.565.525.31-.014.62-.058.932-.087.318-.03.556.053.57.426.05 1.46.398 2.884.51 4.336.026.328-.076.48-.426.495-.327.015-.66.037-.972.164-.23.095-.42.24-.32.512.186.505.145 1.032.194 1.548.052.537.235.7.74.522.288-.1.575-.127.866-.16 1.222-.145 2.443-.287 3.663-.437.274-.035.55-.114.433-.483-.174-.555-.198-1.13-.25-1.7-.034-.345-.203-.457-.512-.436-.157.01-.313.04-.47.055-.777.074-.774.073-.9-.682-.03-.17-.082-.337-.122-.506-.266-1.132-.08-2.336-.545-3.438-.043-.097.005-.227.11-.27.125-.054.187.06.228.153.142.314.37.57.5.903.216.564.56 1.078.85 1.612.432.792.866 1.582 1.294 2.375.354.654.69 1.315 1.054 1.963.157.282.427.14.663.122.2-.013.43-.025.455-.257.046-.415.238-.785.32-1.192.435-2.113 1.138-4.165 1.48-6.3.027-.165.055-.38.25-.487.166.23.18.5.228.767.23 1.246.172 2.53.518 3.763.157.553.016.688-.587.715-.21.01-.42.06-.625.045-.398-.03-.465.193-.473.518-.015.597.128 1.173.223 1.754.047.282.234.44.57.38 1.008-.18 2.03-.26 3.045-.394 1.132-.15 2.265-.342 3.407-.433.294-.023.473-.15.402-.467zm-26.004-2.745c.08.152.114.327.198.476.457.81.35 1-.585 1.017-.216.005-.3-.094-.307-.46.134-.294.26-.68.353-1.084.04-.173.255-.12.342.05zM67.9-.007h4.91c-1.647.092-3.28.134-4.91 0zM33.074 36.97c.208.664.437 1.332.76 1.943.223.422.343.873.48 1.306.414 1.3 1.127 2.45 1.772 3.63.533.973.986 1.992 1.593 2.926.782 1.205 1.572 2.406 2.372 3.6.643.962 1.306 1.91 1.958 2.866.143.21.14.433-.017.632-.197.25-.15.444.03.697.8 1.126 1.257 2.423 1.82 3.668.07.16.106.384-.014.502-.138.135-.262-.096-.398-.13-.813-.196-1.535-.627-2.345-.852-1.278-.357-2.515-.857-3.764-1.312-.288-.105-.512-.08-.783.07-.74.415-1.52.733-2.356.905-.505.104-.987.33-1.455.51-.775.3-1.568.537-2.354.782-1.49.465-3.002.853-4.51 1.25-1.003.263-2.01.504-3.024.72-1.582.34-2.925-.16-4.15-1.172-.88-.726-1.36-1.674-1.85-2.667-.543-1.102-.938-2.258-1.317-3.408-.4-1.212-.75-2.457-.93-3.736-.144-1.035-.37-2.06-.344-2.842-.025-2.132.665-3.684 1.998-4.964.52-.497 1.222-.652 1.844-.947 1.065-.503 2.158-.952 3.258-1.373 1.474-.563 2.95-1.124 4.465-1.58.608-.18 1.225-.327 1.82-.57.568-.228 1.2-.29 1.793-.474.812-.25 1.653-.4 2.47-.63.77-.217.936-.118 1.176.65zm-17.64 30.095c-.15.768-.27 1.543-.454 2.302-.36 1.488-.66 2.984-.82 4.508-.02.188-.032.353.155.454.168.09.31.002.418-.113.663-.714 1.386-1.368 1.42-2.48.057-1.952.708-3.724 1.878-5.29.768-1.024 1.728-1.76 3.102-1.645.837.07 1.544.452 2.16 1.03.857.806 1.383 1.75 1.382 2.963 0 .608-.2 1.07-.697 1.427-1.037.744-2.22 1.023-3.46 1.093-.98.055-1.04.08-1.07 1.05-.02.586-.06 1.183.02 1.76.207 1.542 1.182 2.15 2.67 1.36 1.434-.76 2.46-1.96 3.307-3.314.34-.544.13-1.193.283-1.78.52-1.982 1.24-3.846 3.008-5.093.902-.636 2.233-.597 3.194-.005 1.21.744 1.97 1.77 2.175 3.17.16 1.1-.214 1.593-1.242 2.15-1.022.552-2.14.755-3.294.752-.433 0-.625.173-.636.628-.02.713-.07 1.423-.007 2.138.154 1.75 1.33 2.09 2.685 1.39 1.38-.714 2.282-1.94 3.226-3.123.354-.443.394-.898.39-1.423-.007-1.55.354-3.072.408-4.62.016-.45-.076-.636-.56-.61-.645.035-1.293.013-1.827-.452-.28-.24-.372-.428-.005-.696.22-.162.436-.278.698-.302.26-.026.523-.046.784-.037 1.317.05 1.174 0 1.2-1.08.012-.53.253-.868.686-1.13.796-.48 1.89-.413 2.58.176.41.35.49.77.254 1.316-.2.465-.163.527.357.523.538-.004 1.072-.017 1.59.18.186.072.338.163.49.282.328.258.35.473-.003.74-.652.49-1.41.424-2.14.39-.524-.023-.694.208-.755.644-.12.874-.102 1.766-.218 2.638-.2 1.523-.28 3.046-.247 4.578.01.4.01.8.2 1.175.19.378.382.385.663.08.498-.54.9-1.148 1.262-1.774.566-.98 1.153-1.952 1.58-3.01.22-.54 1.074-.755 1.52-.407.38.298.255.69.11 1.054-.327.812-.62 1.64-1.013 2.42-.812 1.615-1.763 3.126-3.458 3.99-1.32.674-2.938.103-3.54-1.265-.062-.144-.157-.275-.202-.422-.052-.172.024-.42-.234-.462-.24-.04-.288.213-.42.34-1.345 1.29-2.828 2.266-4.805 2.15-.54-.032-1.082-.026-1.623-.035-.986-.015-1.61-.617-2.1-1.366-.16-.247-.366-.482-.444-.805-.08-.326-.29-.18-.46-.01-.514.516-1.076.964-1.702 1.35-.835.516-1.712.84-2.698.837-.63-.002-1.26 0-1.887-.01-1.12-.02-1.82-.695-2.347-1.573-.162-.27-.39-.517-.428-.88-.033-.313-.248-.223-.392-.042-.34.428-.746.78-1.215 1.044-1.086.608-2.33.82-3.274-.483-.328-.453-.484-.99-.53-1.547-.08-.995.018-1.976.28-2.94.04-.152.072-.304.106-.458.027-.122.053-.25-.1-.31-.152-.057-.233.07-.295.163-.375.56-.745 1.123-1.104 1.692-.485.77-.933 1.562-1.446 2.31-.442.646-1.097.97-1.882 1.05-.468.045-.705-.144-.822-.586-.237-.89-.228-1.794-.18-2.703.005-.07.03-.14.026-.208-.01-.226.175-.56-.14-.64-.38-.097-.33.303-.422.524-.25.605-.505 1.21-.757 1.815-.28.673-.496 1.368-.623 2.083-.113.637-1.196 1.137-1.87 1.102-.22-.01-.444-.052-.655-.116-.757-.23-.887-.434-.883-1.248.007-1.254.002-2.51.002-3.764H.277c0-1.205.034-2.41-.01-3.612-.035-.93.328-1.553 1.138-1.986.732-.39 1.468-.685 2.317-.542.368.06.588.39.502.74-.317 1.3-.59 2.607-.745 3.938-.034.29-.123.574-.167.864-.027.17-.05.398.145.462.236.077.247-.184.313-.322.448-.945.94-1.853 1.695-2.604.75-.75 1.684-.944 2.675-.888.653.036.92.533.757 1.166-.108.42-.117.863-.28 1.274-.043.105-.1.256.042.33.134.068.23-.058.298-.152.428-.59.822-1.203 1.31-1.747.64-.716 1.1-1.626 1.972-2.093.858-.46 1.79-.78 2.76-.26.327.177.513.464.435.865zm4.79 2.477c.966.088 1.892-.346 1.79-1.365-.02-.447.015-.8-.198-1.104-.114-.16-.087-.458-.356-.466-.277-.006-.41.24-.543.44-.447.67-.588 1.467-.912 2.188-.084.187.02.29.22.307zm9.398.038c1.01.243 1.863-.404 1.84-1.41.01-.37-.037-.726-.222-1.056-.095-.17-.05-.452-.343-.462-.246-.007-.352.195-.475.363-.487.665-.627 1.484-.978 2.21-.062.126-.05.3.178.355zM.012 67.015c.45 3.04-.09 6.08 0 9.12v-9.12zM22.365 77.53h-3.938c1.33-.12 2.633-.076 3.938 0zm9.648.005H27.78c1.422-.14 2.827-.098 4.232 0zm7.122-.028c-.733.096-1.346.05-1.946.008.616-.06 1.22-.08 1.946-.008zm11.084-9.167c.03.018.072.02.096.043.414.398.832.522 1.455.4.783-.155 1.304.627 1.108 1.406-.254 1.01-.207 2.046-.198 3.077 0 .122.015.254.16.3.138.042.23-.03.314-.134.447-.553.677-1.147.686-1.895.008-.74-.184-1.51.198-2.243.328-.63.814-.918 1.306-.943.892.003 1.156.334 1.087 1.01-.05.5-.243.944-.374 1.412-.05.18-.114.458.06.53.27.115.254-.213.33-.36.43-.836 1.015-1.452 2.03-1.453.686 0 .966.423.737 1.06-.246.685-.242 1.393-.16 2.1.048.408.255.48.548.19.436-.427.763-.86.805-1.553.133-2.144 2.262-3.835 4.35-2.857.255.12.364.066.36-.207-.024-1.33.447-2.608.4-3.945-.02-.58.686-1.115 1.267-1.053.733.078 1.15.54 1.02 1.247-.356 1.92-.417 3.875-.666 5.808-.13 1.022-.194 2.09.167 3.108.058.163.083.363.297.38.175.012.26-.13.352-.27.56-.833.974-1.73 1.238-2.697.124-.45.515-.748.86-.643.353.107.445.483.356.945-.153.792-.45 1.54-.852 2.208-.542.907-1.226 1.734-2.373 1.948-.572.108-1.41-.298-1.687-1.006-.184-.47-.266-.486-.59-.082-.982 1.224-3.01 1.202-3.883-.19-.37-.593-.41-.6-.906-.098-.6.603-1.36.574-2.005.33-.605-.227-.926-.848-.936-1.57-.003-.24.224-.663-.145-.71-.303-.037-.298.416-.38.664-.18.525-.267 1.085-.48 1.596-.29.702-1.34.9-1.91.362-.278-.26-.397-.235-.667.007-.595.534-1.347.76-2.268.04-.354-.28-.53-.19-.73.15-.5.84-1.28 1.346-2.228 1.284-.87-.056-1.51-.64-1.908-1.446-.91-1.833-.638-3.594.42-5.237.633-.98 2.16-1.654 3.338-1.01zm12.3 4.944c.123.412.366.71.784.73.33.012.6-.225.796-.502.518-.734.79-1.544.734-2.447 0-.262.014-.525-.004-.786-.028-.422-.233-.754-.646-.856-.344-.086-.646.057-.915.324-.5.496-.573 1.136-.77 1.763-.197.634-.16 1.18.02 1.774zM48.39 74.562c.23.285.463.447.82.13.334-.295.547-.636.737-1.038.516-1.094.675-2.22.435-3.396-.116-.567-.558-.904-.988-.73-.273.108-.53.304-.69.58-.504.858-.755 1.778-.71 2.696-.005 1.054.055 1.33.397 1.758zm21.97-15.435c.154-1.062.32-2.125.736-3.12.145-.35.11-.59-.16-.837-.56-.506-.93-1.156-1.262-1.817-.206-.41.02-.716.415-.866 1.427-.543 2.733-1.335 4.08-2.036 1.683-.875 3.313-1.852 4.962-2.79 1.91-1.088 3.827-2.164 5.718-3.282.922-.545 1.79-1.18 2.69-1.764.552-.36 1.116-.7 1.672-1.056.17-.11.298-.112.457.043.763.746 1.284 1.612 1.443 2.682.055.37.176.732.213 1.103.177 1.763.118 3.52-.167 5.27-.038.226-.063.45-.053.675.033.656-.14 1.267-.35 1.878-.155.452-.094.94-.335 1.403-.554 1.07-1.203 1.942-2.36 2.495-.804.385-1.562.126-2.204.267-1.255 0-2.375-.093-3.505-.245-.896-.12-1.83-.1-2.75-.16-1.336-.085-2.658-.286-3.966-.552-.472-.095-.78.168-1.07.35-1.305.81-2.565 1.694-3.84 2.555-.084.057-.147.175-.262.128-.144-.057-.122-.207-.105-.32z" class="cls-1"/></svg>