<svg xmlns="http://www.w3.org/2000/svg" preserveAspectRatio="xMidYMid" width="152.94" height="55" viewBox="0 0 152.94 55"><defs><style>.cls-1 { fill: #fff; fill-rule: evenodd; }</style></defs><path d="M152.067 54.57c-.303.19-.647.283-1.033.283-.452 0-.806-.106-1.06-.318-.256-.213-.41-.533-.468-.963-.968.854-1.838 1.28-2.607 1.28-.454 0-.83-.147-1.13-.444-.3-.297-.45-.67-.45-1.118 0-.605.26-1.15.78-1.633.52-.485 1.656-1.13 3.406-1.933v-.798c0-.6-.033-.98-.098-1.134-.065-.155-.188-.29-.37-.407-.18-.117-.384-.175-.61-.175-.37 0-.672.082-.91.247-.146.102-.22.22-.22.356 0 .12.08.267.238.442.215.244.322.478.322.705 0 .277-.103.514-.31.708-.207.196-.476.293-.81.293-.357 0-.656-.106-.897-.32-.24-.216-.36-.468-.36-.756 0-.408.162-.798.484-1.168.323-.37.773-.655 1.35-.854.58-.198 1.18-.298 1.8-.298.754 0 1.35.16 1.79.48.438.32.722.667.853 1.04.08.24.118.785.118 1.64v3.083c0 .362.014.59.043.684.028.095.07.163.128.208.056.045.12.068.195.068.148 0 .298-.104.45-.314l.256.204c-.284.418-.576.723-.88.914zm-2.56-4.277c-.686.402-1.196.833-1.53 1.29-.22.306-.33.615-.33.926 0 .26.092.49.28.688.14.152.34.228.594.228.284 0 .612-.158.986-.475v-2.657zm-8.765 3.39c-.38.45-.76.782-1.138.99-.38.204-.804.308-1.274.308-.448 0-.845-.137-1.193-.41-.35-.275-.582-.597-.7-.964-.12-.37-.18-1.01-.18-1.928v-3.152c0-.6-.055-.973-.165-1.12-.11-.148-.34-.244-.692-.29v-.314h3.235v5.427c0 .565.027.93.08 1.095.055.164.14.29.256.373.117.085.25.128.404.128.204 0 .388-.054.552-.162.227-.147.5-.443.816-.89v-4.248c0-.6-.056-.973-.166-1.12-.11-.148-.34-.244-.692-.29v-.314h3.235v6.216c0 .607.056.985.17 1.135.113.15.342.245.687.284v.306h-3.235v-1.06zm-8.05 1.272c-.392 0-.725-.136-1-.41-.274-.276-.41-.61-.41-1s.136-.724.41-1.002c.275-.277.608-.416 1-.416.395 0 .73.14 1.005.416.275.278.412.61.412 1.003 0 .39-.14.723-.418.998-.277.275-.61.41-1 .41zm-6.728-.518c.323-.028.56-.152.714-.374.102-.152.152-.503.152-1.053v-3.413c0-.708-.027-1.158-.084-1.35-.057-.193-.146-.336-.268-.43-.12-.093-.265-.14-.428-.14-.244 0-.49.09-.74.268-.25.18-.5.446-.755.803v4.262c0 .573.048.932.144 1.08.13.208.38.324.747.347v.306h-4.11v-.306c.22-.01.394-.067.52-.165.13-.1.213-.218.256-.357.043-.138.064-.44.064-.905v-3.413c0-.72-.028-1.17-.085-1.35-.057-.182-.152-.323-.285-.426-.133-.1-.276-.15-.428-.15-.228 0-.435.06-.62.177-.268.176-.55.476-.85.9v4.263c0 .562.054.93.165 1.108.11.18.34.285.692.32v.305h-4.093v-.306c.334-.034.572-.14.713-.322.096-.125.144-.493.144-1.105v-4.484c0-.6-.054-.973-.164-1.12-.11-.148-.34-.244-.692-.29v-.314h3.236v1.045c.435-.476.84-.808 1.21-.998.37-.19.777-.286 1.218-.286.51 0 .937.12 1.283.358.346.237.612.6.8 1.087.452-.51.886-.88 1.302-1.106.417-.226.85-.34 1.304-.34.55 0 .986.127 1.312.38.326.25.552.57.68.958s.19 1.007.19 1.856v3.252c0 .612.056.992.166 1.14.11.146.342.242.692.287v.306h-4.102v-.306zM75.58 34.46c-22.463 0-40.673-7.71-40.673-17.22C34.907 7.73 53.117.02 75.58.02c22.46 0 40.672 7.71 40.672 17.22 0 9.51-18.21 17.22-40.672 17.22zm-8.594-16.338c-1.04-1.1-3.047-2.264-6.027-3.5-2.13-.888-3.488-1.504-4.075-1.853-.8-.487-1.382-.977-1.747-1.473-.262-.37-.393-.792-.393-1.267 0-.75.37-1.412 1.115-1.986.747-.576 1.757-.863 3.033-.863 1.652 0 3.19.546 4.61 1.64 1.418 1.092 2.313 2.535 2.677 4.33h.768l-.208-7.158h-.56c-.165.645-.34 1.05-.528 1.22-.187.168-.443.253-.77.253-.336 0-.927-.17-1.774-.515-.843-.342-1.56-.578-2.15-.704-.776-.17-1.575-.254-2.402-.254-2.266 0-4.14.603-5.633 1.805-1.49 1.204-2.234 2.66-2.234 4.37 0 1.004.272 1.922.817 2.755.544.835 1.322 1.59 2.337 2.264 1.013.678 2.678 1.496 4.992 2.456 1.653.687 2.806 1.242 3.457 1.67.648.428 1.136.88 1.453 1.354.318.475.482.967.482 1.473 0 .853-.417 1.603-1.25 2.248-.83.644-1.95.964-3.355.964-1.81 0-3.503-.598-5.077-1.795-1.57-1.2-2.63-2.938-3.18-5.22h-.697v8.108h.695c.224-.433.522-.753.883-.965.363-.213.706-.317 1.03-.317.39 0 .885.104 1.485.317 1.076.38 1.97.64 2.685.775.712.14 1.472.207 2.27.207 2.554 0 4.663-.648 6.32-1.94 1.66-1.293 2.487-2.838 2.487-4.632 0-1.415-.513-2.67-1.54-3.768zm34 9.246h-.697c-.604 0-1.084-.103-1.442-.308-.358-.206-.598-.446-.713-.72-.117-.275-.175-.96-.175-2.06V10.126c0-1.066.058-1.726.175-1.98.158-.348.37-.595.632-.743.382-.22.888-.332 1.522-.332h.695v-.586h-8.74l-5.83 14.155-6.032-14.156h-8.77v.586h.68c.6 0 1.083.103 1.442.308.36.206.596.442.71.713.118.27.176.948.176 2.035v13.587c0 .96-.01 1.498-.033 1.615-.115.495-.276.88-.488 1.156-.215.274-.525.492-.935.657-.412.163-.857.24-1.334.228h-.218v.587h7.348v-.587c-.983 0-1.703-.166-2.162-.498-.458-.332-.757-.763-.893-1.29-.055-.243-.08-.893-.08-1.947V8.51l8.36 19.445h.38L92.8 8.367V24.28c0 1.078-.058 1.743-.174 1.996-.16.36-.37.613-.634.76-.378.222-.885.332-1.52.332h-.696v.587h11.21v-.587zm-65.918 20.48c.436-.477.84-.81 1.21-1 .37-.188.778-.284 1.22-.284.51 0 .936.12 1.28.358.347.237.614.6.8 1.087.453-.51.887-.88 1.304-1.106.416-.226.85-.34 1.304-.34.55 0 .986.127 1.31.38.327.25.553.57.68.958.128.388.192 1.007.192 1.856v3.252c0 .612.055.992.165 1.14.11.146.342.242.693.287v.306h-4.103v-.306c.324-.028.56-.152.714-.374.102-.152.153-.503.153-1.053v-3.413c0-.708-.03-1.158-.085-1.35-.057-.193-.146-.336-.267-.43-.122-.093-.265-.14-.43-.14-.243 0-.49.09-.74.268-.247.18-.5.446-.754.803v4.262c0 .573.048.932.144 1.08.13.208.38.324.748.347v.306h-4.11v-.306c.22-.01.394-.067.52-.165.13-.1.214-.218.256-.357.043-.138.064-.44.064-.905v-3.413c0-.72-.028-1.17-.085-1.35-.056-.182-.15-.323-.284-.426-.132-.1-.275-.15-.428-.15-.227 0-.434.06-.62.177-.266.176-.55.476-.85.9v4.263c0 .562.056.93.166 1.108.11.18.34.285.693.32v.305h-4.094v-.306c.333-.034.572-.14.714-.322.095-.125.143-.493.143-1.105v-4.484c0-.6-.054-.973-.165-1.12-.11-.148-.34-.244-.692-.29v-.314h3.235v1.045zM27.39 53.68c-.378.452-.758.783-1.137.99-.38.205-.804.31-1.274.31-.448 0-.846-.14-1.194-.412-.348-.275-.582-.597-.7-.964-.12-.37-.18-1.01-.18-1.928v-3.152c0-.6-.054-.973-.165-1.12-.11-.148-.34-.244-.69-.29v-.314h3.235v5.427c0 .565.027.93.08 1.095.054.164.14.29.256.373.116.085.25.128.404.128.204 0 .388-.054.55-.162.23-.147.5-.443.817-.89v-4.248c0-.6-.054-.973-.164-1.12-.11-.148-.34-.244-.693-.29v-.314h3.236v6.216c0 .607.055.985.17 1.135.112.15.342.245.687.284v.306H27.39v-1.06zm-7.082-4.798c-.3 0-.56-.097-.78-.29-.222-.192-.352-.3-.392-.322-.056-.034-.12-.052-.195-.052-.163 0-.32.064-.466.188-.232.193-.408.466-.526.824-.182.548-.273 1.155-.273 1.816v1.827l.01.475c0 .324.02.53.058.62.07.153.17.265.302.336.133.07.358.115.675.13v.307h-4.288v-.306c.344-.028.578-.123.7-.284.122-.16.183-.587.183-1.278v-4.39c0-.454-.023-.743-.068-.867-.057-.16-.14-.274-.247-.348-.107-.073-.296-.125-.568-.153v-.315h3.243v1.8c.527-.82.99-1.365 1.385-1.633.396-.27.778-.406 1.147-.406.316 0 .57.1.76.294.19.195.284.47.284.827 0 .38-.09.675-.275.884-.183.21-.406.314-.667.314zm-9.945 4.382c.312.242.68.364 1.105.364.277 0 .54-.064.79-.195.248-.13.543-.376.882-.74l.264.206c-.374.702-.84 1.225-1.397 1.567-.558.342-1.15.514-1.78.514-1.058 0-1.904-.4-2.54-1.197-.633-.798-.95-1.758-.95-2.878 0-1.082.29-2.033.866-2.854.697-.99 1.657-1.486 2.88-1.486.82 0 1.473.208 1.957.62.484.414.726.875.726 1.385 0 .322-.098.58-.293.77-.195.194-.45.29-.77.29-.333 0-.608-.11-.827-.33-.217-.222-.352-.615-.403-1.18-.034-.358-.116-.606-.246-.75-.13-.14-.283-.21-.46-.21-.27 0-.502.144-.695.433-.294.435-.442 1.104-.442 2.004 0 .748.12 1.462.356 2.144.24.683.564 1.19.977 1.526zM4.19 54.64c-.403.227-.847.34-1.334.34-.38 0-.886-.118-1.52-.355-.17-.063-.286-.094-.35-.094-.185 0-.34.142-.465.425H.24l-.135-2.853h.288c.255.747.604 1.308 1.05 1.68.444.375.864.562 1.26.562.272 0 .494-.083.667-.25.173-.168.26-.37.26-.608 0-.272-.086-.506-.256-.704-.17-.2-.55-.5-1.138-.9-.866-.6-1.427-1.06-1.68-1.377-.375-.464-.562-.976-.562-1.537 0-.61.21-1.164.633-1.66.422-.496 1.032-.744 1.83-.744.43 0 .847.105 1.248.315.154.084.278.126.374.126.1 0 .183-.02.245-.063.063-.043.162-.163.298-.36h.288l.13 2.708h-.29c-.346-.803-.704-1.353-1.074-1.646-.37-.296-.74-.442-1.11-.442-.23 0-.43.078-.594.233-.163.156-.246.336-.246.54 0 .152.057.3.17.442.182.23.688.628 1.52 1.192.833.563 1.38 1.04 1.644 1.435.263.393.395.833.395 1.32 0 .442-.11.875-.33 1.3-.222.425-.534.75-.935.976zm45.367-6.793c.436-.476.84-.808 1.21-.998.37-.19.777-.286 1.22-.286.51 0 .936.12 1.28.358.347.237.613.6.8 1.087.452-.51.887-.88 1.303-1.106.416-.226.85-.34 1.304-.34.55 0 .986.127 1.312.38.325.25.552.57.68.958.126.388.19 1.007.19 1.856v3.252c0 .612.056.992.166 1.14.11.146.34.242.692.287v.306h-4.102v-.306c.323-.028.56-.152.713-.374.102-.152.153-.503.153-1.053v-3.413c0-.708-.028-1.158-.084-1.35-.057-.193-.147-.336-.268-.43-.122-.093-.265-.14-.43-.14-.243 0-.49.09-.738.268-.25.18-.5.446-.756.803v4.262c0 .573.048.932.145 1.08.13.208.38.324.746.347v.306h-4.11v-.306c.22-.01.396-.067.522-.165.128-.1.213-.218.255-.357.043-.138.064-.44.064-.905v-3.413c0-.72-.028-1.17-.085-1.35-.057-.182-.152-.323-.285-.426-.133-.1-.277-.15-.43-.15-.226 0-.432.06-.62.177-.265.176-.55.476-.848.9v4.263c0 .562.055.93.166 1.108.11.18.34.285.69.32v.305h-4.092v-.306c.336-.034.573-.14.715-.322.096-.125.144-.493.144-1.105v-4.484c0-.6-.056-.973-.167-1.12-.11-.148-.34-.244-.692-.29v-.314h3.237v1.045zm15.575 1.877v-.798c0-.6-.032-.98-.097-1.134-.066-.155-.19-.29-.37-.407-.18-.117-.385-.175-.61-.175-.37 0-.673.082-.91.247-.147.102-.22.22-.22.356 0 .12.078.267.237.442.215.244.322.478.322.705 0 .277-.102.514-.31.708-.206.196-.476.293-.81.293-.357 0-.656-.106-.896-.32-.24-.216-.362-.468-.362-.756 0-.408.163-.798.485-1.168.324-.37.773-.655 1.35-.854.58-.198 1.18-.298 1.8-.298.754 0 1.35.16 1.79.48.438.32.723.667.853 1.04.08.24.12.785.12 1.64v3.083c0 .362.013.59.04.684.03.095.072.163.13.208.055.045.12.068.194.068.147 0 .297-.104.45-.314l.254.204c-.28.418-.575.723-.877.914-.303.19-.647.283-1.032.283-.452 0-.806-.106-1.06-.318-.255-.213-.41-.533-.468-.963-.968.854-1.837 1.28-2.607 1.28-.454 0-.83-.147-1.13-.444-.3-.297-.45-.67-.45-1.118 0-.605.26-1.15.782-1.633.52-.485 1.655-1.13 3.405-1.933zm-1.58 3.474c.142.152.34.228.595.228.283 0 .612-.158.985-.475v-2.657c-.685.402-1.195.833-1.528 1.29-.222.306-.33.615-.33.926 0 .26.092.49.278.688zm8.238-1.316c-.866-.6-1.426-1.06-1.68-1.377-.375-.464-.562-.976-.562-1.537 0-.61.21-1.164.633-1.66.423-.496 1.033-.744 1.83-.744.432 0 .848.105 1.25.315.152.084.277.126.373.126.102 0 .184-.02.246-.063s.16-.163.296-.36h.29l.127 2.708h-.29c-.345-.803-.702-1.353-1.073-1.646-.37-.296-.74-.442-1.108-.442-.233 0-.43.078-.595.233-.164.156-.246.336-.246.54 0 .152.058.3.17.442.182.23.69.628 1.52 1.192.833.563 1.38 1.04 1.645 1.435.263.393.394.833.394 1.32 0 .442-.11.875-.333 1.3-.22.425-.532.75-.933.976-.403.227-.847.34-1.333.34-.38 0-.886-.118-1.52-.355-.17-.063-.286-.094-.348-.094-.187 0-.343.142-.467.425h-.28l-.136-2.853h.288c.255.747.604 1.308 1.048 1.68.444.375.865.562 1.26.562.273 0 .495-.083.668-.25.172-.168.26-.37.26-.608 0-.272-.086-.506-.255-.704-.17-.2-.55-.5-1.14-.9zm7.295-7.984h.28v2.904h1.886v.842h-1.884v4.9c0 .46.02.755.064.887.042.134.117.242.224.324.108.082.207.123.298.123.367 0 .716-.28 1.045-.84l.254.185c-.457 1.088-1.202 1.63-2.232 1.63-.504 0-.93-.138-1.278-.418-.35-.28-.57-.594-.667-.94-.057-.192-.085-.712-.085-1.562v-4.288H75.95v-.298c.715-.504 1.322-1.033 1.823-1.588.502-.554.94-1.175 1.312-1.86zm6.6 2.666c.803 0 1.5.33 2.093.99.59.66.91 1.638.955 2.934h-4.356c.05 1.054.33 1.885.84 2.497.39.47.86.705 1.41.705.34 0 .648-.095.926-.285.277-.19.574-.53.892-1.022l.288.186c-.43.877-.906 1.498-1.426 1.864-.52.364-1.124.547-1.81.547-1.177 0-2.07-.452-2.674-1.358-.488-.73-.73-1.636-.73-2.717 0-1.325.357-2.38 1.073-3.164.717-.783 1.556-1.176 2.518-1.176zm-1.35 3.355h2.31c0-.912-.05-1.538-.15-1.878-.1-.34-.253-.597-.463-.772-.118-.102-.277-.153-.475-.153-.295 0-.535.144-.722.433-.334.504-.5 1.195-.5 2.07v.3zm8.687-1.317c.526-.82.988-1.366 1.384-1.634.396-.27.78-.406 1.147-.406.317 0 .57.1.76.294.19.195.284.47.284.827 0 .38-.092.675-.276.884-.183.21-.405.314-.665.314-.3 0-.56-.097-.782-.29-.22-.192-.35-.3-.39-.322-.057-.034-.122-.052-.196-.052-.164 0-.32.064-.467.188-.232.193-.407.466-.527.824-.18.548-.27 1.155-.27 1.816v1.827l.007.475c0 .324.02.53.06.62.068.153.168.265.3.336.134.07.36.115.676.13v.307h-4.288v-.306c.345-.028.58-.123.7-.284.122-.16.183-.587.183-1.278v-4.39c0-.454-.02-.743-.067-.867-.057-.16-.14-.274-.246-.348-.108-.073-.298-.125-.57-.153v-.315h3.245v1.8zm4.416 3.524c.396 0 .732.14 1.007.416.274.278.41.61.41 1.003 0 .39-.138.723-.415.998-.277.275-.612.41-1.002.41s-.723-.135-.998-.41c-.275-.275-.412-.608-.412-.998 0-.392.137-.725.412-1.003.275-.277.607-.416.998-.416zm6.582-5.563c.82 0 1.473.208 1.957.62.484.414.727.875.727 1.385 0 .322-.098.58-.294.77-.195.194-.45.29-.768.29-.334 0-.61-.11-.828-.33-.218-.222-.353-.615-.404-1.18-.033-.358-.116-.606-.246-.75-.13-.14-.283-.21-.458-.21-.273 0-.505.144-.696.433-.296.435-.442 1.104-.442 2.004 0 .748.12 1.462.356 2.144.238.683.564 1.19.977 1.526.312.242.68.364 1.105.364.278 0 .54-.064.79-.195.25-.13.543-.376.883-.74l.263.206c-.373.702-.838 1.225-1.396 1.567-.558.342-1.15.514-1.78.514-1.058 0-1.904-.4-2.538-1.197-.635-.798-.952-1.758-.952-2.878 0-1.082.29-2.033.866-2.854.697-.99 1.657-1.486 2.88-1.486zm7.643 0c.69 0 1.333.18 1.928.536.596.357 1.047.863 1.355 1.52.31.657.463 1.376.463 2.157 0 1.127-.286 2.07-.858 2.83-.69.916-1.644 1.374-2.86 1.374-1.196 0-2.116-.418-2.762-1.256-.645-.838-.968-1.81-.968-2.913 0-1.137.33-2.13.99-2.976.66-.846 1.564-1.27 2.713-1.27zm-1.095 6.6c.06.402.195.707.4.917.203.21.435.315.695.315.255 0 .467-.07.637-.212.22-.193.368-.462.442-.807.113-.538.17-1.626.17-3.26 0-.964-.054-1.625-.162-1.984-.107-.36-.266-.622-.475-.786-.148-.118-.34-.178-.578-.178-.29 0-.536.11-.743.326-.207.22-.342.65-.408 1.29-.065.644-.098 1.538-.098 2.68 0 .607.04 1.173.12 1.7z" class="cls-1"/></svg>