<svg xmlns="http://www.w3.org/2000/svg" preserveAspectRatio="xMidYMid" width="140.88" height="56.5" viewBox="0 0 140.88 56.5"><defs><style>.cls-1 { fill: #fff; fill-rule: evenodd; }</style></defs><path d="M140.85 39.894v-3.84c.01.005.022.008.033.012v3.828h-.034zm-.513.21c-2.146 1.122-4.308 2.214-6.47 3.307-2.237 1.135-4.453 2.314-6.685 3.46-2.245 1.15-4.5 2.285-6.747 3.43-1.765.898-3.527 1.8-5.29 2.7-2.114 1.077-4.228 2.152-6.342 3.227-.06.03-.178.064-.176.078.055.27-.152.16-.244.153-.186-.014-.116-.186-.117-.284-.01-.717-.005-1.436-.005-2.154h.007c0-.633.035-1.268-.013-1.898-.03-.402.16-.59.462-.74 1.246-.613 2.496-1.218 3.74-1.836 2.014-1.005 4.01-2.052 6.045-3.016 1.975-.935 3.915-1.94 5.876-2.9 2.345-1.15 4.675-2.33 7.014-3.49 1.293-.64 2.59-1.27 3.89-1.898.123-.06.28-.075.287-.243.008-.175-.147-.196-.27-.257-1.97-.977-3.936-1.962-5.904-2.94-1.987-.99-3.976-1.972-5.963-2.96-1.975-.983-3.947-1.973-5.923-2.953-2.004-.995-4.014-1.978-6.018-2.972-1.002-.497-1.992-1.016-2.997-1.505-.196-.096-.23-.213-.23-.398.005-1.402.008-2.805 0-4.208 0-.34.13-.387.408-.244 2.908 1.496 5.814 2.995 8.725 4.484 3.224 1.65 6.455 3.287 9.68 4.935 2.637 1.348 5.268 2.71 7.906 4.057 1.766.9 3.537 1.79 5.306 2.685.25.125.38.29.375.6-.02 1.078-.01 2.156-.006 3.233.002.254-.04.403-.317.547zm-44.37-4.17c-1.485.024-2.972.04-4.453-.11-.457-.046-.913-.103-1.37-.138-.316-.024-.327-.22-.325-.465.007-.99.004-1.983.004-2.975v-9.287h-.004c0-4.104.003-8.208-.007-12.313 0-.253.058-.353.312-.416 1.127-.283 2.28-.404 3.43-.464 1.586-.082 3.18-.122 4.763.03 2.157.206 4.108.89 5.6 2.566.69.775 1.084 1.703 1.224 2.702.284 2.02-.217 3.82-1.75 5.247-.582.544-1.227 1.012-1.988 1.29-.118.042-.238.09-.238.23 0 .18.16.185.29.226 2.166.706 3.77 2.07 4.426 4.264 1.065 3.566-.64 7.27-4.21 8.63-1.846.703-3.757.948-5.705.983zm5.738-18.54c.335-1.37-.12-3.2-1.383-4.044-.922-.617-1.945-.88-3.014-.976-1.14-.102-2.284-.09-3.424.064-.45.062-.668.21-.64.747.057 1.16.017 2.325.017 3.487 0 1.232.025 2.464-.013 3.694-.01.382.128.435.433.432 1.077-.007 2.157.044 3.23-.018 2.094-.12 4.242-1.127 4.795-3.387zm.556 9.152c-.636-1.67-2.033-2.445-3.634-2.89-1.65-.458-3.36-.262-5.045-.296-.25-.006-.34.094-.337.375.02 1.503.01 3.007.01 4.51h.008c0 1.438.03 2.875-.014 4.31-.016.51.176.646.625.69 1.435.144 2.863.153 4.28-.13 1.76-.352 3.296-1.04 4.053-2.84.52-1.238.53-2.488.058-3.73zM95.845 40.01c.533.03 1.043.15 1.56.262.314.068.414.195.33.484-.048.162-.122.318-.17.48-.084.27-.132.34-.485.202-.892-.35-1.837-.44-2.802-.24-.833.173-1.582.453-2.2 1.074-.998 1.003-1.193 2.25-1.105 3.566.053.796.268 1.567.76 2.232.93 1.255 2.233 1.59 3.702 1.497 1.646-.106 1.305-.197 1.32-1.414.006-.53-.017-1.063.01-1.59.016-.327-.1-.42-.413-.402-.443.027-.89-.008-1.332.02-.28.016-.354-.095-.368-.35-.04-.78-.04-.79.734-.79.753.002 1.506.015 2.257-.008.382-.012.52.12.51.504-.022.7-.007 1.402-.007 2.103h-.002c0 .683-.013 1.367.005 2.05.008.36-.152.504-.48.606-.807.25-1.645.375-2.468.387-1.872.03-3.664-.314-4.768-2.053-.904-1.422-1.123-2.985-.73-4.648.348-1.478 1.15-2.578 2.473-3.303 1.146-.632 2.388-.74 3.667-.67zm-7.58 10.583c-.714.08-1.03-.247-1.37-.81-1.11-1.835-2.308-3.617-3.427-5.447-.41-.672-.843-1.345-1.105-2.1-.028-.082-.044-.186-.14-.186-.135.002-.147.13-.145.227.014.53.052 1.06.053 1.59.007 2.103-.005 4.208.01 6.312.004.326-.094.407-.406.402-.89-.014-.89-.002-.89-.888 0-1.438 0-2.875-.002-4.312 0-1.59.015-3.183-.01-4.772-.008-.442.137-.587.555-.537.203.024.413.023.615-.005.266-.034.438.11.55.296 1.507 2.505 3.192 4.9 4.592 7.47.033.06.056.124.076.188.046.146.077.347.277.29.22-.06.068-.255.063-.39-.024-.615-.077-1.228-.08-1.842-.01-1.83.005-3.66-.01-5.49-.005-.382.05-.553.5-.522.792.056.794.023.794.834 0 3.062-.01 6.125.01 9.187.003.418-.116.458-.51.503zm-.632-14.895c-3.094-.01-6.19-.01-9.283 0-.298 0-.385-.075-.376-.373.023-.682.024-1.368 0-2.05-.013-.334.072-.435.424-.43 1.537.022 3.077.01 4.615.01v.002c1.522 0 3.043.012 4.565-.01.342-.004.442.074.426.423-.03.682-.024 1.368-.002 2.05.01.295-.07.38-.37.378zM82.4 20.784v.002c1.315 0 2.63.01 3.944-.005.38-.004.553.065.514.513-.055.627-.04 1.264 0 1.893.02.32-.065.442-.377.44-2.73 0-5.463-.002-8.194.005-.256.002-.313-.098-.31-.335.015-.717.02-1.435-.002-2.15-.01-.306.09-.37.38-.368 1.35.015 2.697.007 4.046.007zm4.505-8.045c-3.183-.018-6.365-.006-9.547-.022-.416-.002-.52.14-.52.54.005 7.316-.004 14.632 0 21.95.002.34-.056.495-.442.483-.855-.024-1.71-.01-2.566.002-.305.004-.444-.045-.443-.424.02-4.14.012-8.28.012-12.42h-.006c0-4.157.004-8.314-.008-12.47 0-.42.15-.517.542-.516 4.33.01 8.657.01 12.985-.002.39-.002.563.097.54.52-.03.597-.034 1.198 0 1.795.022.427-.115.566-.548.564zM73.63 49.78c-.008.152-.018.31 0 .46.037.284-.09.346-.352.345-1.693-.012-3.386-.017-5.08-.005-.356.003-.454-.094-.447-.468.028-1.59.012-3.18.012-4.772h-.012c0-1.59.01-3.182-.007-4.773-.005-.38.108-.51.495-.497 1.03.034.908-.11.908.9-.003 2.634.005 5.27-.01 7.902-.002.406.122.54.53.53 1.18-.023 2.36.006 3.54-.02.324-.006.444.088.425.397zM69 33.662c-1.26 1.645-2.93 2.634-4.952 3.11-1.642.385-3.285.445-4.93.182-2.588-.414-4.663-1.663-5.977-3.997-.23-.41-.318-.272-.492.005-1.284 2.036-3.113 3.266-5.458 3.814-1.662.39-3.323.447-4.98.165-3.237-.552-5.486-2.365-6.6-5.48-.68-1.904-1.057-3.865-1.004-5.913.058-2.207.013-4.414.013-6.62h-.002c0-2.84.006-5.68-.007-8.52 0-.412.09-.578.55-.554.835.044 1.675.03 2.51.002.41-.014.54.123.54.526-.01 5.063-.013 10.126-.01 15.19 0 1.874.192 3.725 1.03 5.43.92 1.872 2.4 3.004 4.54 3.167 1.502.116 2.934-.07 4.202-.944 1.424-.984 2.16-2.416 2.55-4.055.366-1.54.404-3.11.405-4.68.003-4.705-.002-9.408-.01-14.113 0-.346.08-.5.49-.524 1.042-.062 2.08-.057 3.12-.003.404.02.524.167.522.56-.013 3.354-.006 6.707-.007 10.06 0 1.727-.037 3.456 0 5.182.042 1.898.183 3.79 1.104 5.514.972 1.82 2.45 2.87 4.547 3.01 1.524.103 2.957-.118 4.226-1.028 1.184-.85 1.863-2.05 2.287-3.41.46-1.482.53-3.017.53-4.558-.003-4.927 0-9.854-.01-14.78 0-.39.094-.56.518-.546.837.027 1.676.017 2.513.002.36-.006.483.143.482.49-.007 5.423.045 10.846-.033 16.268-.036 2.533-.616 4.973-2.207 7.05zM32.545 2.403h-.01c0 .48-.065.97.015 1.436.143.83-.292 1.202-.955 1.53-2.73 1.342-5.446 2.718-8.17 4.075-2.136 1.062-4.282 2.102-6.412 3.173-2.805 1.41-5.597 2.844-8.4 4.26-.938.476-1.89.925-2.832 1.395-.156.078-.405.107-.397.34.007.19.238.154.367.22 3.39 1.695 6.785 3.38 10.173 5.08 3.328 1.668 6.644 3.358 9.976 5.02 2.09 1.04 4.212 2.02 6.285 3.1.255.132.337.272.335.547-.013 1.35-.017 2.702.004 4.054.007.423-.173.428-.46.278-1.874-.98-3.74-1.977-5.62-2.948-2.05-1.06-4.108-2.095-6.162-3.143-3.048-1.555-6.098-3.106-9.14-4.67-2.91-1.497-5.807-3.01-8.71-4.512-.587-.303-1.182-.588-1.77-.88-.32-.16-.51-.356-.492-.778.043-.973.025-1.95.007-2.924-.005-.318.108-.494.39-.638 1.963-1.003 3.918-2.02 5.876-3.032 2.464-1.275 4.927-2.55 7.393-3.82 2.364-1.218 4.735-2.422 7.097-3.642C23.87 4.407 26.8 2.878 29.735 1.36 30.487.973 31.25.605 32.01.23c.07-.034.1-.02.1-.145-.004-.153.214-.07.333-.068.167.002.1.146.1.233.004.718.002 1.437.002 2.154zM-.003 16.78h.027v3.597h-.027V16.78zM41.31 39.977c.487.058.983.055 1.44.293.203.104.286.127.172.394-.323.747-.293.728-1.088.542-1.77-.413-3.585-.03-4.55 1.373-.796 1.156-1.006 2.46-.716 3.84.16.76.408 1.47.96 2.04.84.867 1.883 1.17 2.944 1.12.664-.004 1.204-.038 1.725-.244.346-.137.608-.148.642.375.037.582-.01.702-.592.834-1.23.277-2.46.36-3.69.012-1.248-.355-2.273-1.077-2.828-2.243-1.043-2.192-1.02-4.408.455-6.403 1.254-1.697 3.082-2.178 5.125-1.933zm2.862.1c.118.014.24.013.36-.002.385-.047.507.123.5.502-.02 1.128.008 2.258-.023 3.387-.01.404.134.494.503.49 1.368-.018 2.737-.022 4.105-.003.4.008.534-.092.52-.518-.035-1.128-.003-2.258-.022-3.387-.006-.358.116-.49.474-.475 1.06.043.918-.154.92.932.004 3.063 0 6.125.016 9.188.002.308-.1.376-.376.388-1.02.044-1.02.05-1.02-.954 0-1.18-.014-2.362.01-3.542.005-.32-.096-.433-.4-.432-1.454.003-2.908 0-4.362-.002-.29-.002-.374.12-.37.41.018 1.368.002 2.737.027 4.104.005.294-.073.396-.357.417-1.05.076-1.05.082-1.05-.986v-4.26h-.003c0-1.574.014-3.148-.01-4.723-.006-.434.137-.593.557-.534zm9.985 4.303c.424-1.243.895-2.472 1.266-3.732.172-.58.554-.652.963-.57.94 0 .914.008 1.3 1.202.386 1.186.783 2.368 1.218 3.538.496 1.333.914 2.695 1.368 4.044.146.435.278.877.458 1.297.14.32.09.45-.272.425-.204-.013-.41-.02-.615-.007-.337.022-.504-.085-.606-.452-.24-.864-.56-1.706-.842-2.56-.09-.273-.26-.35-.54-.346-.958.017-1.916.017-2.874.002-.327-.006-.497.114-.59.43-.255.88-.538 1.753-.8 2.63-.058.2-.182.29-.37.29-.356-.002-.816.115-1.042-.062-.272-.214.102-.602.2-.882.6-1.746 1.183-3.5 1.78-5.248zm1.026 1.833c.41-.01.82-.002 1.23 0 .43 0 .856-.004 1.283 0 .262.004.33-.083.23-.344-.49-1.28-.978-2.562-1.306-3.897-.03-.13-.04-.313-.2-.322-.202-.01-.2.195-.233.335-.296 1.33-.787 2.596-1.255 3.87-.108.292-.03.364.25.358zm6.24-.87h-.007c0-1.59.01-3.18-.007-4.768-.005-.377.106-.522.494-.505 1.015.045.898-.155.9.9 0 2.633.01 5.266-.01 7.898-.004.443.13.548.558.536 1.162-.033 2.325-.002 3.487-.023.325-.004.413.12.422.417.025.776.034.773-.742.773-1.538 0-3.077-.003-4.615.01-.38.003-.516-.063-.502-.518.05-1.572.02-3.145.02-4.718zm13.255-5.275c1.573.02 3.147.02 4.72 0 .35-.003.445.11.438.44-.017.956.02.784-.753.782-1.026-.003-2.053.004-3.08-.01-.35-.005-.48.1-.46.476.033.735.034 1.472 0 2.207-.022.466.15.587.595.572 1.008-.032 2.02.003 3.027-.025.442-.01.417.253.397.534-.02.272.154.64-.4.622-1.04-.033-2.085-.003-3.128-.018-.367-.006-.51.085-.493.496.04.888.035 1.78.004 2.667-.015.444.102.607.572.594 1.18-.033 2.36.004 3.54-.023.374-.007.464.158.42.46-.045.303.25.772-.466.745-1.384-.053-2.77-.016-4.156-.016-1.287 0-1.286 0-1.284-1.304v-3.95h-.002c0-1.575.014-3.15-.01-4.722-.005-.408.112-.532.52-.526zm24.548.51c-.006-.418.12-.514.527-.508 1.54.026 3.08.035 4.62-.008.58-.017.513.298.532.67.02.402-.066.584-.525.57-1.145-.034-2.292 0-3.438-.026-.31-.007-.382.09-.377.375.014.82.013 1.644 0 2.464-.005.326.086.433.443.422 1.043-.034 2.088.008 3.13-.02.43-.012.516.153.514.54 0 .398-.03.63-.542.61-1.042-.04-2.087.003-3.13-.02-.313-.006-.422.068-.416.393.018.99.014 1.984.002 2.975-.004.318.105.395.424.388 1.232-.025 2.464.004 3.695-.018.412-.008.508.173.472.527-.03.305.16.687-.45.675-1.693-.035-3.387-.018-5.08-.005-.31.002-.406-.08-.402-.408.02-1.608.01-3.216.01-4.825 0-1.59.013-3.183-.01-4.773z" class="cls-1"/></svg>