<svg id="Layer_1" xmlns="http://www.w3.org/2000/svg" width="487.16" height="135.918" viewBox="0 0 487.16 135.918"><style>.st0{fill-rule:evenodd;clip-rule:evenodd;fill:#215FA8;} .st1{fill-rule:evenodd;clip-rule:evenodd;fill:#181819;}</style><path class="st0" d="M0 58.368c.467-1.49.673-3.05 1.303-4.495 2.23-5.115 6.26-8.32 11.185-10.566 3.795-1.73 7.89-2.536 11.864-3.698 4.474-1.31 8.976-2.524 13.462-3.79.368-.104.77-.13.767-.747-.03-4.328.303-8.67-.173-12.98-.902-8.15-4.985-12.046-13.133-12.446-6.33-.31-12.193 1.233-17.26 5.226-1.818 1.434-3.388 3.11-4.586 5.11-.21.35-.393.833-.906.592-.445-.21-.236-.66-.14-1.012 2.31-8.467 9.03-17.116 20.73-18.757C28.186.094 33.195.344 38.044 2.08 44.73 4.47 48.388 9.376 49.503 16.284c.545 3.374.352 6.787.4 10.184.113 8.278.163 16.558.252 24.837.042 3.848.106 7.694.175 11.54.02 1.068.183 2.125.477 3.15 1.33 4.65 5.612 6.633 10.282 4.798.484-.19 1.102-.78 1.488-.334.44.512-.254 1.05-.54 1.512-2.27 3.687-5.695 5.437-9.917 5.763-3.08.238-6.052-.107-8.636-2.004-2.766-2.028-4.088-4.906-4.693-8.185-.028-.157-.053-.314-.102-.6-1.367 1.093-2.623 2.138-3.92 3.13-3.95 3.03-8.144 5.61-13.073 6.735-3.673.838-7.373.97-10.993-.172C4.568 74.7 1.34 70.25.212 64.085c-.05-.26.024-.556-.212-.767v-4.95zm38.863-7.272h-.09c0-1.27.005-2.542 0-3.814-.008-1.993 0-3.987-.048-5.98-.01-.462.158-1.226-.832-.96-5.03 1.346-10.136 2.43-15.102 4.004-6.18 1.96-10.35 5.696-10.982 12.623-.495 5.42 1.773 9.592 6.685 11.64 6.768 2.82 16.286-.344 20.04-6.657.258-.435.334-.883.333-1.375-.008-3.16-.003-6.322-.003-9.482zM487.16 57.543c-.428.797-.382 1.71-.616 2.555-2.425 8.724-7.6 14.815-16.595 17.12-4.952 1.266-9.878.607-14.762-.6-2.795-.69-5.476-1.8-8.334-2.248-1.915-.3-2.933.215-3.626 2.03-.327.86-.93.503-1.44.517-.678.02-.38-.545-.37-.837.177-7.002.378-14.003.57-21.004.01-.363-.016-.72.51-.656.455.058.983-.23 1.2.57.617 2.283 1.33 4.542 2.24 6.73 1.617 3.887 3.73 7.485 7.708 9.293 6.39 2.906 12.795 3.368 18.8-1.092 6.73-4.996 5.664-13.544 1.08-18.5-2.656-2.875-5.983-4.794-9.365-6.637-3.974-2.166-8.07-4.12-11.747-6.803-4.39-3.203-7.52-7.226-8.67-12.683-2.442-11.57 5.31-23.152 16.89-25.116.12-.02.223-.118.334-.18h6.806c.04.05.077.146.12.15 3.33.262 6.566 1.065 9.84 1.66 1.37.248 2.76.233 3.745-1.073.406-.538 1.038-.34 1.534-.24.484.095.253.638.254.974.015 6.12.017 12.238-.006 18.356-.002.347.355.998-.45.995-.594 0-1.227.257-1.464-.764-.678-2.91-1.685-5.71-3.08-8.376-4.214-8.052-15.09-8.754-20.074-5.105-5.804 4.248-7.65 13.044-2.606 18.578 2.182 2.394 4.935 3.886 7.847 5.175 4.713 2.086 9.326 4.367 13.545 7.36 3.542 2.514 6.64 5.43 8.565 9.43.81 1.682 1.13 3.497 1.618 5.27v5.155z"/><path class="st1" d="M343.404 135.918c-.252-.887-.84-1.848-.662-2.638.172-.77 1.447-.806 2.15-1.34 1.57-1.187 2.737-2.67 3.582-4.44.31-.65.064-1.193-.164-1.765l-6.424-16.122c-.1-.25-.194-.505-.34-.89 1.163 0 2.24.016 3.316-.005.67-.013.637.56.77.926 1.657 4.497 3.285 9.002 4.928 13.522.352-.034.26-.396.334-.618 1.457-4.35 2.914-8.702 4.332-13.065.194-.6.462-.836 1.082-.768.903.098 1.824-.13 2.724.125-.293.833-.56 1.677-.884 2.5-2.157 5.477-4.038 11.065-6.465 16.436-1.165 2.577-2.504 5.063-4.944 6.702-.8.535-1.672.962-2.51 1.44h-.826z"/><path class="st0" d="M109.042 58.424c1.093-2.604 2.128-5.062 3.16-7.522C118.905 34.9 125.614 18.9 132.298 2.887c.268-.645.578-.847 1.27-.843 5.81.03 11.617.017 17.426.02.494 0 1.035-.167 1.005.715-.022.676-.148.914-.885.977-2.766.236-5.05 1.396-6.705 3.707-1.362 1.9-1.154 4.025-1.014 6.153.464 7.06.93 14.118 1.4 21.177.516 7.744 1.03 15.487 1.562 23.23.212 3.082.203 6.186.692 9.24.626 3.915 3.217 7.134 7.726 7.387 1.04.06.43.805.55 1.227.16.58-.228.65-.71.65-2.75-.017-5.5-.01-8.25-.01-5.773 0-11.548.01-17.322-.013-.442-.002-1.17.37-1.155-.642.01-.732-.022-1.19 1.01-1.265 3.842-.273 6.004-2.867 6.422-7.26.263-2.765-.122-5.487-.3-8.22-.333-5.175-.768-10.343-1.154-15.513-.53-7.09-1.053-14.178-1.578-21.268-.124-1.673-.243-3.348-.366-5.04-.448.023-.41.428-.513.664-8.34 19.41-16.666 38.825-24.998 58.24-.22.508-.296 1.102-1.135 1.08-.68-.016-1.032-.19-1.294-.844-5.78-14.417-11.58-28.827-17.38-43.236-2.037-5.058-4.086-10.11-6.13-15.165-.097-.24-.194-.48-.438-.693-.21 3.48-.42 6.958-.627 10.438-.466 7.85-.99 15.697-1.374 23.55-.243 4.97-.892 9.93-.67 14.914.185 4.217 2.538 7.152 6.247 8.098.63.16 1.292.32 1.928.283.923-.053.822.478.867 1.084.055.74-.29.82-.907.82-6.977-.02-13.954-.014-20.93-.008-.51 0-.992.044-.876-.712.077-.502-.27-1.097.73-1.2 3.775-.392 5.82-2.883 7.142-6.168 1-2.486.832-5.135 1.02-7.724.575-7.98 1.087-15.965 1.615-23.95.436-6.612.86-13.227 1.29-19.84.097-1.508.158-3.02.306-4.523.443-4.508-1.914-7.668-6.37-8.46-.642-.112-1.298-.235-1.942-.21-.71.03-.83-.242-.857-.885-.034-.776.34-.8.928-.8 6.118.015 12.235.025 18.353-.01.752-.005 1.058.25 1.322.923 7.006 17.875 14.035 35.742 21.062 53.61.22.565.454 1.123.75 1.85zM245.02 76.52c-6.39 0-12.783 0-19.174-.004-.45 0-1.04.175-.947-.643.06-.542-.28-1.17.78-1.274 2.453-.243 3.988-1.845 5.06-3.925 1.574-3.05 2.09-6.373 2.313-9.743.34-5.114.16-10.237.173-15.357.024-8.868.026-17.736-.005-26.603-.01-2.92-.166-5.837-1.02-8.663-.46-1.522-1.09-2.963-2.15-4.18-1.13-1.3-2.523-2.146-4.26-2.215-.952-.038-.88-.567-.9-1.222-.03-.837.536-.628.972-.628 9.864.005 19.732-.126 29.592.067 9.588.187 18.845 1.996 27.163 7.11 9.062 5.575 14.446 13.69 16.25 24.16 1.2 6.96.798 13.848-1.536 20.526-3.493 10-10.57 16.482-20.375 20.136-4.873 1.816-9.932 2.635-15.13 2.63-5.602-.006-11.202 0-16.804 0v-.175zm-.373-41.962h-.067c0 8.177.002 16.354-.002 24.53 0 1.825.143 3.635.448 5.434.713 4.208 2.653 6.334 6.863 7.098 4.22.766 8.487.675 12.71-.063 8.85-1.55 15.493-6.16 19.17-14.498 3.21-7.29 4.04-14.988 2.664-22.784-1.795-10.168-7.205-18.004-16.295-23.064-7.67-4.268-16.03-5.164-24.636-4.605-.55.036-.78.288-.782.847-.003 1.236-.07 2.47-.07 3.707-.008 7.8-.005 15.6-.005 23.398zM414.114 68.596c-1.853 1.59-3.54 2.993-5.364 4.223-5.14 3.466-10.795 4.91-16.973 4.58-4.814-.258-9.39-1.275-13.515-3.84-6.05-3.76-9.307-9.44-10.915-16.208-.67-2.818-.954-5.687-.956-8.58-.01-11.515-.002-23.03-.004-34.544 0-1.723-.13-3.43-.71-5.074-1.12-3.187-3.33-5.055-6.708-5.424-.69-.075-.712-.38-.732-.92-.023-.688.41-.572.81-.572 8.387-.002 16.774-.005 25.16.004.327 0 .847-.195.816.447-.017.39.237.895-.485 1.034-4.027.772-5.768 3.598-6.495 7.314-.186.95-.228 1.907-.228 2.87.002 11.585-.03 23.168.017 34.752.02 4.933 1.25 9.582 3.84 13.814 3.294 5.382 8.19 8.194 14.418 8.635 6 .425 11.133-1.642 15.37-5.87 2.073-2.07 3.135-4.565 3.124-7.582-.05-14.574-.022-29.15-.02-43.722 0-1.377-.064-2.75-.327-4.102-.737-3.787-2.66-5.612-6.476-6.09-.645-.08-.86-.237-.855-.908.004-.764.48-.598.892-.598 8.56-.003 17.118-.004 25.678 0 .4 0 .902-.195.91.583.005.658-.188.838-.844.923-4.576.592-7.063 3.267-7.46 7.9-.103 1.2-.143 2.4-.143 3.603.005 15.434-.018 30.867.02 46.3.007 2.847.173 5.7 1.188 8.422 1.083 2.903 3.2 4.408 6.256 4.48 1 .023.947.475.986 1.185.044.805-.318.868-.97.865-6.117-.02-12.236-.026-18.355.008-.787.004-.98-.22-.965-.982.05-2.226.02-4.45.02-6.928zM198.515 67.028c-2.033 1.68-4.073 3.35-6.247 4.848-4.728 3.256-9.82 5.46-15.663 5.568-9.56.173-15.633-5.768-16.548-14.327-1.017-9.503 4.102-15.864 11.88-19.578 3.927-1.875 8.195-2.705 12.336-3.916 4.44-1.3 8.905-2.52 13.367-3.746.688-.19.98-.455.966-1.24-.082-4.223.23-8.455-.198-12.67-.463-4.564-2.152-8.453-6.425-10.733-2.65-1.415-5.554-1.702-8.502-1.625-6.013.16-11.488 1.838-16.138 5.798-1.554 1.324-2.89 2.84-3.955 4.584-.2.327-.36.782-.81.615-.52-.192-.306-.717-.21-1.075.794-2.98 2.076-5.743 3.844-8.263C172.04 2.96 180.285-.027 190.105.536c3.914.225 7.696 1.006 11.12 3.015 5.025 2.95 7.572 7.522 8.314 13.167.512 3.89.318 7.818.374 11.73.145 9.962.165 19.927.317 29.89.033 2.224-.106 4.464.323 6.68 1.034 5.343 5.415 7.75 10.526 5.768.482-.187 1.107-.776 1.483-.303.384.483-.27 1.04-.56 1.507-2.284 3.677-5.703 5.428-9.926 5.75-1.578.12-3.162.108-4.715-.273-5.014-1.232-7.487-4.743-8.533-9.53-.052-.234-.09-.472-.146-.705-.013-.058-.08-.102-.17-.207zm.326-16.015h-.19c0-3.296-.006-6.592.004-9.888.002-.617-.062-.978-.868-.763-5.03 1.342-10.137 2.427-15.097 4.014-5.778 1.847-9.994 5.25-10.796 11.747-.75 6.064 1.087 10.367 7.136 12.685 6.61 2.534 15.655-.702 19.395-6.763.277-.447.432-.9.428-1.446-.024-3.197-.012-6.392-.012-9.587zM326.44 76.52c-7.938 0-15.878 0-23.818-.004-.48 0-1.063.19-1.015-.694.038-.677-.05-1.137.954-1.226 3.57-.316 5.623-2.57 6.8-5.766.647-1.756.924-3.587.925-5.456.004-17.39.01-34.78-.002-52.172-.003-4.08-2.792-6.945-7.02-7.286-.273-.022-.552-.073-.822-.05-.82.07-.81-.43-.835-1.04-.026-.675.248-.777.845-.777 16.052.014 32.102.016 48.15-.006.723 0 .833.256.83.89-.025 4.226-.01 8.454-.025 12.68 0 .347.252.927-.46.905-.578-.02-1.247.304-1.48-.723-.716-3.163-2.236-5.827-5.177-7.462-1.898-1.055-3.967-1.538-6.123-1.55-5.19-.03-10.38.002-15.57-.024-.707-.002-.948.192-.947.925.02 9.383.014 18.766.01 28.148 0 .48-.017.868.675.854 5.084-.103 10.174.208 15.25-.186 4.37-.34 7.577-2.873 8.57-6.68.156-.595.296-1.217.29-1.824-.01-.705.326-.74.884-.758.713-.023.653.4.653.863-.004 6.943-.004 13.886-.002 20.83 0 .425.06.84-.6.786-.474-.04-.858.088-.943-.68-.41-3.678-2.696-6.17-6.418-7.156-1.47-.39-2.97-.58-4.482-.588-4.296-.024-8.592.02-12.888-.03-.868-.01-1 .308-.998 1.062.02 6.91.008 13.817.013 20.725.004 4.617 1.79 7.143 6.265 8.313 4.96 1.297 9.985 1.448 14.93-.153 4.043-1.31 6.53-4.27 8.16-8.057.218-.504.44-1.008.633-1.52.196-.514.623-.32.97-.333.45-.018.342.308.312.58-.493 4.71-.992 9.422-1.47 14.136-.04.423-.226.517-.583.504-.276-.01-.55 0-.825 0H326.44z"/><path class="st1" d="M335.483 111.41c.048-.26.076-.35.08-.444.07-2.308.07-2.286 2.38-2.258.588.007.753.165.728.75-.222 5.043-.042 10.09-.11 15.137-.02 1.575-.11 3.144-.483 4.693-.77 3.2-2.782 5.09-5.947 5.834-2.86.672-5.643.425-8.367-.658-.725-.288-.964-.607-.647-1.444.61-1.61.532-1.616 2.08-1.01 1.685.66 3.423.955 5.236.66 2.508-.407 4.067-1.905 4.518-4.385.093-.505.17-1.018.19-1.53.033-.742.01-1.486.01-2.32-3.484 4.356-9.2 3.326-11.64.387-1.417-1.704-2.135-3.66-2.247-5.84-.168-3.252.574-6.2 3.023-8.528 2.993-2.848 8.627-3.065 11.197.956zm-.366 6.44c0-.583.005-1.166 0-1.75-.023-2.305-1.505-4.364-3.524-4.903-2.32-.62-4.61.287-5.786 2.44-1.457 2.667-1.51 5.454-.252 8.203.908 1.985 3 3.112 5.025 2.892 2.11-.23 3.753-1.632 4.33-3.707.29-1.043.198-2.113.207-3.174zM373.378 111.564c1.13-1.283 2.357-2.29 3.935-2.814 3.982-1.33 7.987.373 9.66 4.23 1.527 3.525 1.435 7.11-.29 10.543-1.9 3.785-6.482 5.382-10.283 3.725-1.026-.446-1.84-1.154-2.53-2.048-.273.282-.136.603-.137.884-.013 2.748-.023 5.495.005 8.244.006.582-.163.74-.746.75-2.744.047-2.737.066-2.744-2.672-.02-7.624-.032-15.248-.09-22.873-.004-.718.215-.83.853-.826 2.22.016 2.22-.008 2.33 2.16l.038.697zm11.11 6.17c.02-.436-.062-1.25-.25-2.056-.713-3.1-2.988-4.848-5.89-4.52-2.625.296-4.6 2.72-4.622 5.682-.008 1.063-.015 2.126.002 3.19.034 2.27 1.558 4.294 3.682 4.914 2.264.66 4.537-.165 5.837-2.13.942-1.42 1.228-3.02 1.24-5.08zM232.067 111.698c1.233-1.826 2.71-2.835 4.56-3.2 3.978-.783 7.253 1.672 7.773 5.807.382 3.045.107 6.11.176 9.164.025 1.098-.02 2.2.016 3.298.018.525-.113.746-.678.707-.685-.047-1.38-.064-2.06.004-.69.068-.768-.23-.763-.818.027-3.333.01-6.667.018-10 .002-.657-.052-1.303-.196-1.944-.36-1.603-1.116-2.884-2.815-3.342-1.79-.483-3.33.026-4.602 1.325-1.007 1.03-1.438 2.303-1.432 3.745.014 3.37-.014 6.736.02 10.104.005.668-.082 1.022-.862.925-.808-.1-1.88.334-2.376-.165-.495-.496-.144-1.56-.145-2.375-.012-7.94.006-15.878-.027-23.817-.004-.842.182-1.104 1.06-1.08 2.333.063 2.334.02 2.334 2.358v9.302zM133.552 118.047c-.003 5.443-3.256 9.288-8.286 9.793-5.472.55-9.796-3.4-9.943-9.076-.046-1.77.186-3.493.906-5.122 1.76-3.983 5.905-6.017 10.384-5.11 4.076.828 6.802 4.28 6.937 8.794.008.24.002.48.002.72zm-3.552.33c-.006-1.904-.324-3.4-1.1-4.774-1.985-3.515-6.827-3.625-8.858-.13-1.71 2.94-1.752 6.05-.13 9.03 1.99 3.664 6.69 3.694 8.885.147.873-1.412 1.203-2.97 1.203-4.273zM288.215 117.492c.04 3.577-.856 6.79-4.04 8.836-3.052 1.962-6.324 2.136-9.58.47-2.416-1.238-3.763-3.357-4.34-5.954-.525-2.366-.365-4.71.534-6.977 1.57-3.962 5.488-6.04 10.138-5.39 3.834.537 6.838 3.824 7.203 7.886.035.376.058.753.085 1.13zm-3.554.3c.034-1.137-.258-2.507-.89-3.782-.878-1.775-2.234-2.93-4.3-3.044-2.252-.125-3.954.828-4.958 2.818-1.47 2.912-1.507 5.9.083 8.77 1.933 3.486 6.358 3.654 8.66.39 1.024-1.45 1.396-3.106 1.406-5.152zM300.09 118.36c.012-5.108 2.61-8.68 6.968-9.76 5.753-1.422 10.868 2.364 11.223 8.284.147 2.45-.157 4.794-1.488 6.91-1.992 3.164-5.832 4.665-9.802 3.865-3.41-.688-6.054-3.5-6.694-7.128-.138-.78-.26-1.56-.206-2.173zm14.678-.536c-.03-1.558-.4-3.28-1.48-4.783-1.965-2.735-5.97-2.832-8.065-.202-2.205 2.766-2.21 7.736-.012 10.483 2.07 2.587 5.748 2.605 7.836.03 1.243-1.532 1.702-3.33 1.722-5.526zM200.66 118.703c-1.888 0-3.776.03-5.663-.016-.725-.018-.855.223-.783.896.38 3.57 3.018 5.793 6.642 5.548 1.438-.097 2.874-.205 4.23-.754.4-.164.622-.106.72.353.498 2.326.956 1.833-1.347 2.52-2.022.602-4.11.78-6.218.44-3.463-.56-5.846-2.443-6.883-5.825-1.014-3.305-.703-6.532 1.053-9.528 2.007-3.425 6.162-4.927 9.912-3.62 2.827.983 4.12 3.236 4.747 5.992.247 1.082.193 2.182.22 3.28.017.65-.253.8-.86.79-1.922-.034-3.847-.013-5.77-.013-.002-.02-.002-.043-.002-.064zm-1.534-2.49c1.408 0 2.817.002 4.225 0 .298-.002.582.072.64-.42.224-1.9-1.416-4.36-3.3-4.83-3.414-.854-5.792 1.5-6.403 4.732-.104.55.253.52.613.52 1.41-.004 2.818 0 4.226-.002zM466.7 118.703c-1.924 0-3.847.022-5.77-.014-.608-.012-.74.185-.687.762.343 3.683 3.03 5.94 6.74 5.666 1.408-.104 2.81-.2 4.134-.74.482-.198.64-.005.77.43.573 1.915.58 1.943-1.348 2.447-1.974.515-3.973.757-6.016.464-3.972-.57-6.565-2.912-7.393-6.815-.532-2.515-.307-4.992.712-7.367 1.692-3.944 5.36-5.86 9.63-5.06 3.347.628 5.69 3.767 5.866 7.86.104 2.43.104 2.43-2.31 2.43h-4.33c.002-.02 0-.043 0-.065zm-1.286-7.912c-2.526 0-4.988 2.393-5.083 4.91-.016.433.15.52.53.52 2.885-.01 5.77-.01 8.654 0 .398.003.553-.117.518-.53-.202-2.363-1.385-4.888-4.618-4.9zM392.802 112.207c-1.01-2.324-.92-2.556 1.494-3.28 1.86-.56 3.76-.757 5.696-.447 3.087.493 5.085 2.842 5.275 6.306.07 1.303.035 2.61.048 3.917.025 2.712-.11 5.43.2 8.135.056.497-.042.624-.56.642-2.346.08-2.346.1-2.784-2.18-.312-.07-.354.235-.5.378-2.1 2.07-4.597 2.69-7.386 1.85-2.014-.607-3.187-2.073-3.504-4.165-.35-2.293.362-4.203 2.208-5.634 1.684-1.31 3.684-1.773 5.747-2.018.85-.1 1.71-.153 2.566-.168.457-.008.573-.17.58-.603.043-2.348-1.42-3.923-3.76-4.01-1.94-.07-2.82.14-5.318 1.277zm9.175 7.763v-1.542c0-.245.026-.49-.346-.486-2.134.024-4.272.077-6.11 1.362-1.305.913-1.75 2.72-1.134 4.243.504 1.247 1.76 1.885 3.398 1.725 2.732-.266 4.193-2.113 4.193-5.302zM150.32 124.42c-1.437 2.12-3.207 3.19-5.455 3.423-3.83.397-6.672-1.972-7.05-6.09-.382-4.145-.08-8.313-.155-12.47-.008-.467.2-.61.622-.56.068.007.138 0 .207 0 2.62-.05 2.59-.05 2.63 2.565.047 3.228-.23 6.466.147 9.682.328 2.792 1.82 4.128 4.26 4.013 2.34-.11 4.358-2.153 4.404-4.61.068-3.54.055-7.08.028-10.62-.006-.762.12-1.073.99-1.055 2.47.054 2.462.01 2.47 2.442.024 5.26.048 10.517.1 15.775.004.405-.043.517-.458.558-2.58.26-2.578.27-2.707-2.31l-.032-.744zM253.12 111.712c1.63-2.41 3.807-3.51 6.48-3.354 3.656.215 6.07 2.767 6.216 6.662.147 3.945.05 7.9.088 11.85.005.533-.205.59-.658.605-2.8.1-2.79.11-2.803-2.697-.014-3.09.052-6.184-.104-9.267-.143-2.848-1.84-4.428-4.327-4.34-2.394.087-4.508 2.216-4.548 4.73-.057 3.54-.04 7.077 0 10.615.01.754-.154.983-.945.97-2.516-.04-2.5-.003-2.52-2.473-.044-5.22.136-10.44-.14-15.656-.024-.504.17-.623.65-.645 2.334-.106 2.333-.12 2.61 3.002zM439.99 111.69c1.088-1.49 2.29-2.51 3.874-2.997 4.57-1.405 8.624 1.375 8.826 6.23.165 3.978.048 7.97.072 11.953.003.428-.1.57-.56.6-2.823.186-2.793.2-2.83-2.56-.04-3.19.205-6.39-.136-9.574-.302-2.813-1.908-4.29-4.382-4.17-2.385.115-4.48 2.303-4.502 4.785-.032 3.538-.03 7.077.01 10.615.007.707-.142.998-.887.9-.84-.113-1.963.365-2.456-.195-.418-.473-.147-1.563-.15-2.38-.028-5.154-.033-10.307-.088-15.46-.007-.615.163-.724.728-.73 2.32-.022 2.32-.04 2.424 2.28.006.16.023.318.055.704zM96.293 101.472c1.24 0 2.362.027 3.482-.012.524-.018.602.348.765.672 1.854 3.704 3.703 7.41 5.566 11.108.083.164.06.422.33.485l4.698-9.08c.015-.03.02-.064.04-.094.588-.997.795-2.484 1.736-2.935.974-.467 2.346-.104 3.69-.104-.915 1.583-1.796 3.11-2.68 4.634-1.823 3.14-3.634 6.29-5.48 9.416-.328.557-.475 1.103-.47 1.743.02 3.092-.016 6.183.025 9.275.01.725-.19.964-.91.896-.813-.076-1.883.246-2.384-.164-.527-.432-.153-1.54-.16-2.35-.023-2.576-.02-5.153 0-7.73.004-.533-.12-.99-.38-1.456-2.44-4.402-4.864-8.813-7.29-13.224-.18-.32-.348-.647-.577-1.078zM210.12 118.35c-.09-8.275 7.568-11.616 14.038-9.305.492.175.774.333.51.94-.258.59-.21 1.444-.625 1.798-.395.336-1.083-.288-1.664-.428-3.407-.822-6.44.276-7.873 2.896-1.63 2.986-1.126 7.116 1.216 9.225 2.145 1.933 4.682 1.944 7.25 1.115 1.018-.33 1.37-.25 1.523.884.19 1.418.298 1.433-1.132 1.818-3.52.95-6.955.99-9.987-1.388-2.427-1.902-3.243-4.574-3.258-7.553zM428.348 104.31c0 1.27.046 2.437-.017 3.6-.036.706.22.858.866.83 1.1-.05 2.2.008 3.3-.025.496-.015.622.15.643.64.085 2.058.103 2.037-1.983 2.067-.914.013-2.132-.407-2.657.19-.45.51-.145 1.7-.148 2.59-.008 2.473-.007 4.947-.002 7.42.006 2.777 1.042 3.718 3.744 3.285.64-.103.732.073.784.61.185 1.964.102 2.085-1.863 2.317-3.56.42-5.624-1.17-5.964-4.71-.34-3.562-.1-7.14-.124-10.71-.005-.795-.186-1.154-1.01-1.002-.032.007-.067 0-.102 0-1.868-.002-2.154-.37-1.803-2.258.054-.29.15-.436.445-.426.103.003.207.007.31-.002.702-.066 1.666.326 2.04-.196.343-.48.167-1.4.08-2.106-.11-.864.245-1.233 1.036-1.412.793-.182 1.566-.45 2.428-.703zM183.805 104.307c0 1.285.03 2.482-.013 3.677-.02.584.157.775.747.753 1.166-.043 2.337.007 3.505-.02.49-.013.63.155.655.645.102 2.05.12 2.034-1.916 2.057-.954.01-2.188-.404-2.785.163-.607.576-.175 1.82-.186 2.77-.028 2.372-.02 4.743 0 7.115.003.546.056 1.102.175 1.633.346 1.54 1.37 2.15 3.354 1.837.83-.132 1.01-.025 1.024.827.032 1.798.094 1.806-1.67 2.04-1.064.143-2.123.113-3.157-.228-1.682-.556-2.5-1.814-2.863-3.463-.298-1.36-.205-2.737-.21-4.11-.01-2.577-.02-5.155.012-7.732.008-.64-.114-.98-.83-.862-.235.038-.48.006-.722.006-1.35 0-1.35 0-1.35-1.338 0-1.35 0-1.35 1.353-1.35 1.535 0 1.535 0 1.535-1.463 0-1.927 0-1.927 1.875-2.5.454-.14.907-.283 1.465-.456zM295.872 113.746c0 4.26-.02 8.52.02 12.78.008.775-.185 1.035-.964.953-.778-.083-1.828.253-2.286-.143-.543-.468-.17-1.544-.173-2.354-.017-7.97 0-15.942-.027-23.913-.002-.773.143-1.05.99-1.03 2.44.054 2.44.01 2.44 2.47v11.236zM162.167 112.084c.99-2.102 2.422-3.447 4.682-3.728 1.26-.156 1.418-.024 1.418 1.238v.207c-.004.55.18 1.208-.06 1.62-.287.494-.997.11-1.52.165-2.195.23-4.024 2.047-4.15 4.534-.16 3.08-.09 6.172-.107 9.26-.01 2.083 0 2.083-2.062 2.084-1.385 0-1.368 0-1.388-1.4-.08-5.558.22-11.118-.126-16.672-.03-.48.087-.65.6-.682 2.43-.148 2.43-.165 2.49 2.266.006.337-.046.685.223 1.108zM413.703 112.062c1.125-2.068 2.604-3.45 4.96-3.714 1.138-.128 1.298.012 1.296 1.16 0 .653.21 1.43-.073 1.923-.296.517-1.123.08-1.717.183-2.255.39-3.944 2.412-4.003 5.053-.073 3.296-.06 6.593-.033 9.89.006.69-.12.998-.883.92-.81-.08-1.903.26-2.387-.152-.57-.488-.17-1.61-.18-2.454-.07-5.147.117-10.295-.076-15.44-.02-.526.102-.703.662-.72 2.346-.076 2.347-.097 2.43 2.257.013.364.003.73.003 1.095zM480.584 112.34c1.032-2.304 2.488-3.703 4.827-3.983 1.25-.15 1.377-.05 1.373 1.176-.003.65.198 1.432-.093 1.913-.298.494-1.128.063-1.725.168-2.225.39-3.902 2.355-3.972 4.96-.09 3.293-.065 6.59-.035 9.883.008.77-.14 1.05-.988 1.03-2.473-.055-2.466-.012-2.475-2.513-.02-5.18-.032-10.362-.086-15.543-.008-.62.188-.715.74-.72 2.158-.017 2.157-.036 2.316 2.117.032.408.065.817.118 1.514z"/></svg>