<svg id="svg21997" xmlns="http://www.w3.org/2000/svg" width="991.997" height="521.699" viewBox="228.105 158.644 991.997 521.699"><style>.st0{fill:#8E9BCE;} .st1{fill:#296CAC;} .st2{fill:#004281;}</style><path id="path21145" class="st0" d="M753.114 367.948l-13.48-4.332V351.86h58.63v11.756l-15.037 7.426-43.253 50.317 50.534 50.44 13.242 4.125v12.634h-66.375v-12.635l13.48-4.125-49.432-53.133 51.69-50.72zm376.79 107.618l16.686-4.054V368.03h-14.665l-7.21 16.687h-22.09v-32.703h117.477v32.703h-21.895l-7.21-16.687h-14.644v103.48l16.676 4.055v13.087h-63.127v-13.086zm-155.46 0l13.52-4.054V369.145l-13.52-4.28v-12.85h101.676v32.702h-22.75l-7.684-16.687h-27.97v42.15h23.01l5.64-13.76h19.162v43.522h-19.16l-5.643-13.52h-23.01v45.996l16.915 3.146v13.087h-60.188v-13.084zm-53.784-55.238c0-35.168-21.038-53.205-41.778-53.205-20.06 0-41.324 18.037-41.324 53.205 0 35.405 20.802 53.226 41.552 53.226 20.965 0 41.55-17.605 41.55-53.226m-115.125 3.383c0-46.223 36.59-74.388 75.595-74.388 36.767 0 71.336 25.463 71.336 67.406 0 45.997-35.26 74.626-73.357 75.08-39.232 0-73.575-25.69-73.575-68.097m-318.2-58.846v-12.85h57.03v12.85l-13.746 4.28v70.346c0 22.327 6.774 33.373 27.06 33.373 20.06 0 25.928-9.91 25.928-31.56v-72.16l-13.552-4.28v-12.85h52.092v12.85l-13.51 4.28v68.778c0 16.234-.68 27.28-7.673 35.85-9.24 11.51-24.576 18.038-46.213 18.038-40.604 0-53.907-15.79-53.907-51.174v-71.49l-13.51-4.28zm-112.34 110.702l13.54-4.054V369.145l-13.54-4.28v-12.85h56.824v12.85l-13.532 4.28v102.367h26.154l7.446-17.81h23.225v34.95h-100.12v-13.086z"/><path id="path21928-0" class="st1" d="M299.05 350.2l46.13.023-69.377 68.84 66.88 69.562-46.697.066-67.88-69.81 70.943-68.674v-.007zM405.23 547.56v45.895l84.052 86.888 84.31-82.247V551.43l-84.052 83.278-84.31-87.147zm83.02-388.803l-83.277 82.505v46.925l83.536-81.732 84.826 84.052.257-45.636-85.34-86.113z"/><path id="path22025-8" class="st2" d="M489.573 634.594l84.04-83.124v46.697l-84.226 82.113.186-45.686zm-1.3-475.95l85.196 86.32-.166 45.46-84.856-84.082-.175-47.698zM739.975 421.36l-52.782-54 15.53-4.064v-11.438l-69.364.04 67.085 69.326L633.1 488.62l74.275-.058v-12.82l-18.73-4.176 51.33-50.204v-.003z"/></svg>