<?xml version="1.0" encoding="utf-8"?>
<!-- Generator: Adobe Illustrator 19.1.0, SVG Export Plug-In . SVG Version: 6.00 Build 0)  -->
<svg version="1.1" id="Layer_1" xmlns="http://www.w3.org/2000/svg" xmlns:xlink="http://www.w3.org/1999/xlink" x="0px" y="0px"
	 width="487.16px" height="135.918px" viewBox="0 0 487.16 135.918" style="enable-background:new 0 0 487.16 135.918;"
	 xml:space="preserve">
<style type="text/css">
	.st0{fill-rule:evenodd;clip-rule:evenodd;fill:#215FA8;}
	.st1{fill-rule:evenodd;clip-rule:evenodd;fill:#181819;}
</style>
<g>
	<path class="st0" d="M0,58.368c0.467-1.489,0.673-3.049,1.303-4.495c2.23-5.115,6.261-8.32,11.185-10.566
		c3.795-1.73,7.889-2.536,11.864-3.698c4.474-1.309,8.976-2.523,13.462-3.789c0.368-0.104,0.771-0.131,0.767-0.747
		c-0.032-4.328,0.302-8.671-0.174-12.979c-0.902-8.152-4.985-12.047-13.133-12.447c-6.33-0.311-12.193,1.233-17.259,5.226
		c-1.819,1.434-3.389,3.11-4.587,5.109c-0.211,0.352-0.393,0.834-0.906,0.593c-0.445-0.209-0.236-0.66-0.14-1.012
		c2.31-8.467,9.03-17.116,20.729-18.757c5.076-0.712,10.085-0.462,14.934,1.273c6.684,2.393,10.343,7.298,11.458,14.206
		c0.545,3.374,0.352,6.787,0.399,10.184c0.114,8.279,0.164,16.559,0.253,24.838c0.042,3.848,0.106,7.694,0.175,11.541
		c0.02,1.067,0.183,2.124,0.477,3.149c1.329,4.649,5.612,6.633,10.282,4.798c0.485-0.19,1.103-0.781,1.489-0.334
		c0.44,0.511-0.254,1.048-0.539,1.511c-2.271,3.687-5.696,5.437-9.918,5.763c-3.08,0.238-6.053-0.107-8.637-2.004
		c-2.766-2.029-4.088-4.907-4.693-8.186c-0.029-0.157-0.054-0.314-0.103-0.601c-1.367,1.094-2.623,2.139-3.919,3.132
		c-3.952,3.028-8.145,5.608-13.074,6.734c-3.673,0.838-7.373,0.971-10.993-0.172c-6.134-1.938-9.363-6.388-10.49-12.553
		C0.163,63.825,0.236,63.529,0,63.318C0,61.668,0,60.018,0,58.368z M38.863,51.096c-0.03,0-0.06,0-0.089,0
		c0-1.271,0.004-2.542-0.001-3.814c-0.008-1.993,0-3.987-0.048-5.979c-0.011-0.463,0.158-1.227-0.832-0.962
		c-5.031,1.347-10.136,2.431-15.102,4.005c-6.181,1.959-10.352,5.696-10.983,12.623c-0.495,5.42,1.773,9.593,6.685,11.642
		c6.768,2.82,16.286-0.345,20.04-6.658c0.258-0.435,0.334-0.883,0.333-1.375C38.858,57.418,38.863,54.256,38.863,51.096z"/>
	<path class="st0" d="M487.16,57.543c-0.428,0.797-0.382,1.709-0.616,2.555c-2.425,8.724-7.599,14.815-16.595,17.119
		c-4.951,1.267-9.877,0.608-14.761-0.598c-2.795-0.69-5.476-1.801-8.334-2.249c-1.915-0.301-2.933,0.215-3.626,2.031
		c-0.327,0.858-0.93,0.502-1.441,0.516c-0.677,0.019-0.378-0.545-0.37-0.837c0.178-7.002,0.379-14.003,0.57-21.004
		c0.01-0.363-0.015-0.721,0.511-0.656c0.455,0.058,0.983-0.231,1.2,0.57c0.617,2.283,1.33,4.542,2.24,6.729
		c1.617,3.888,3.731,7.486,7.708,9.294c6.391,2.906,12.795,3.368,18.801-1.092c6.729-4.997,5.663-13.545,1.08-18.502
		c-2.657-2.874-5.984-4.793-9.366-6.636c-3.975-2.166-8.072-4.121-11.748-6.803c-4.39-3.203-7.521-7.226-8.671-12.683
		c-2.441-11.571,5.31-23.152,16.892-25.116c0.118-0.02,0.222-0.119,0.333-0.181c2.27,0,4.537,0,6.806,0
		c0.041,0.051,0.077,0.146,0.12,0.149c3.33,0.263,6.566,1.066,9.839,1.66c1.371,0.249,2.76,0.234,3.746-1.072
		c0.406-0.538,1.038-0.339,1.534-0.241c0.484,0.096,0.253,0.639,0.254,0.975c0.015,6.119,0.017,12.237-0.006,18.355
		c-0.002,0.347,0.355,0.998-0.449,0.995c-0.595-0.001-1.228,0.256-1.465-0.765c-0.678-2.911-1.685-5.709-3.081-8.376
		c-4.213-8.052-15.088-8.754-20.073-5.105c-5.804,4.248-7.651,13.044-2.606,18.578c2.182,2.394,4.935,3.886,7.847,5.175
		c4.713,2.086,9.326,4.367,13.545,7.361c3.542,2.513,6.64,5.429,8.565,9.428c0.811,1.683,1.13,3.498,1.618,5.27
		C487.16,54.105,487.16,55.825,487.16,57.543z"/>
	<path class="st1" d="M343.404,135.918c-0.252-0.887-0.839-1.848-0.662-2.638c0.172-0.77,1.447-0.806,2.151-1.339
		c1.57-1.188,2.736-2.672,3.581-4.441c0.311-0.651,0.064-1.193-0.164-1.765c-2.142-5.374-4.283-10.748-6.424-16.122
		c-0.1-0.251-0.194-0.505-0.341-0.889c1.164,0,2.241,0.015,3.317-0.006c0.669-0.013,0.637,0.559,0.771,0.926
		c1.656,4.497,3.284,9.002,4.927,13.522c0.352-0.034,0.26-0.396,0.334-0.618c1.457-4.351,2.914-8.702,4.332-13.065
		c0.194-0.6,0.462-0.836,1.082-0.768c0.903,0.098,1.824-0.129,2.724,0.125c-0.293,0.833-0.559,1.677-0.884,2.499
		c-2.157,5.478-4.038,11.066-6.465,16.437c-1.165,2.577-2.504,5.063-4.944,6.702c-0.799,0.535-1.671,0.962-2.51,1.439
		C343.955,135.918,343.679,135.918,343.404,135.918z"/>
	<path class="st0" d="M109.042,58.424c1.093-2.604,2.128-5.062,3.159-7.522c6.705-16.002,13.414-32.003,20.098-48.015
		c0.269-0.645,0.579-0.847,1.271-0.843c5.809,0.031,11.617,0.017,17.426,0.019c0.494,0,1.035-0.166,1.005,0.716
		c-0.023,0.677-0.149,0.915-0.886,0.978c-2.766,0.236-5.049,1.396-6.705,3.707c-1.362,1.9-1.154,4.025-1.014,6.153
		c0.464,7.059,0.93,14.118,1.4,21.177c0.516,7.744,1.029,15.487,1.562,23.23c0.212,3.082,0.203,6.186,0.692,9.239
		c0.626,3.916,3.217,7.135,7.726,7.388c1.041,0.058,0.431,0.804,0.549,1.226c0.162,0.58-0.227,0.651-0.71,0.649
		c-2.749-0.016-5.499-0.008-8.248-0.008c-5.774,0-11.549,0.008-17.323-0.014c-0.442-0.002-1.17,0.37-1.155-0.642
		c0.012-0.732-0.021-1.191,1.011-1.265c3.842-0.273,6.004-2.867,6.422-7.261c0.263-2.764-0.122-5.486-0.299-8.22
		c-0.334-5.174-0.769-10.342-1.155-15.512c-0.529-7.089-1.053-14.178-1.578-21.268c-0.124-1.673-0.243-3.348-0.366-5.04
		c-0.448,0.023-0.411,0.428-0.513,0.664c-8.34,19.41-16.667,38.825-24.999,58.239c-0.219,0.509-0.296,1.103-1.135,1.082
		c-0.681-0.017-1.032-0.19-1.294-0.845c-5.78-14.417-11.58-28.827-17.381-43.236c-2.036-5.058-4.085-10.11-6.129-15.165
		c-0.097-0.241-0.194-0.481-0.438-0.693c-0.209,3.479-0.42,6.958-0.627,10.438c-0.466,7.85-0.99,15.697-1.374,23.55
		c-0.243,4.971-0.892,9.931-0.671,14.914c0.186,4.217,2.539,7.152,6.248,8.098c0.628,0.161,1.291,0.319,1.927,0.283
		c0.923-0.053,0.822,0.478,0.867,1.084c0.055,0.741-0.29,0.822-0.907,0.82c-6.977-0.018-13.954-0.013-20.931-0.007
		c-0.508,0-0.991,0.044-0.875-0.712c0.077-0.502-0.271-1.097,0.73-1.201c3.775-0.391,5.821-2.882,7.142-6.167
		c1-2.486,0.832-5.135,1.019-7.724c0.576-7.98,1.088-15.965,1.616-23.949c0.437-6.613,0.86-13.228,1.29-19.841
		c0.098-1.508,0.159-3.02,0.307-4.523c0.443-4.508-1.914-7.668-6.371-8.459c-0.641-0.113-1.297-0.236-1.941-0.211
		c-0.709,0.029-0.829-0.242-0.857-0.885c-0.034-0.776,0.341-0.8,0.928-0.799c6.118,0.014,12.235,0.024,18.353-0.012
		c0.752-0.004,1.058,0.251,1.322,0.924c7.006,17.875,14.035,35.742,21.062,53.61C108.512,57.138,108.746,57.696,109.042,58.424z"/>
	<path class="st0" d="M245.021,76.519c-6.392,0-12.784,0.001-19.175-0.003c-0.449,0-1.039,0.175-0.947-0.643
		c0.061-0.542-0.28-1.169,0.78-1.274c2.454-0.242,3.989-1.844,5.062-3.924c1.573-3.051,2.088-6.373,2.312-9.743
		c0.34-5.114,0.159-10.237,0.173-15.357c0.024-8.868,0.026-17.736-0.005-26.603c-0.01-2.919-0.167-5.837-1.02-8.663
		c-0.46-1.521-1.092-2.962-2.151-4.179c-1.129-1.299-2.523-2.146-4.261-2.215c-0.951-0.038-0.878-0.567-0.9-1.222
		c-0.029-0.837,0.537-0.628,0.973-0.628c9.864,0.005,19.732-0.126,29.592,0.067c9.588,0.187,18.845,1.996,27.163,7.111
		c9.062,5.574,14.446,13.689,16.251,24.159c1.199,6.96,0.797,13.848-1.537,20.526c-3.494,10.001-10.571,16.482-20.376,20.136
		c-4.873,1.816-9.932,2.635-15.129,2.63c-5.603-0.006-11.203,0-16.805,0C245.021,76.635,245.021,76.577,245.021,76.519z
		 M244.647,34.558c-0.022,0-0.045,0-0.067,0c0,8.177,0.002,16.354-0.002,24.531c-0.001,1.824,0.143,3.634,0.448,5.433
		c0.713,4.208,2.653,6.334,6.863,7.098c4.222,0.766,8.488,0.675,12.71-0.063c8.852-1.549,15.494-6.16,19.17-14.498
		c3.212-7.288,4.042-14.987,2.665-22.783c-1.795-10.168-7.205-18.004-16.295-23.064c-7.669-4.268-16.029-5.164-24.635-4.605
		c-0.551,0.036-0.781,0.288-0.782,0.847c-0.003,1.236-0.07,2.471-0.071,3.707C244.644,18.96,244.647,26.759,244.647,34.558z"/>
	<path class="st0" d="M414.114,68.596c-1.853,1.591-3.54,2.993-5.364,4.223c-5.139,3.467-10.795,4.911-16.973,4.58
		c-4.814-0.257-9.389-1.274-13.515-3.838c-6.049-3.762-9.307-9.442-10.915-16.209c-0.671-2.818-0.954-5.687-0.956-8.58
		c-0.01-11.515-0.003-23.03-0.005-34.544c0-1.723-0.13-3.43-0.709-5.074c-1.122-3.187-3.332-5.055-6.709-5.424
		c-0.689-0.075-0.712-0.379-0.732-0.919c-0.023-0.689,0.409-0.573,0.81-0.573c8.387-0.002,16.774-0.005,25.161,0.004
		c0.326,0,0.846-0.195,0.815,0.447c-0.017,0.391,0.237,0.896-0.485,1.035c-4.027,0.772-5.768,3.598-6.495,7.314
		c-0.186,0.949-0.228,1.907-0.228,2.871c0.002,11.584-0.03,23.167,0.017,34.751c0.02,4.933,1.249,9.582,3.839,13.814
		c3.294,5.382,8.19,8.194,14.418,8.635c6,0.426,11.133-1.641,15.37-5.869c2.073-2.07,3.135-4.565,3.124-7.582
		c-0.049-14.574-0.022-29.149-0.02-43.722c0-1.377-0.064-2.751-0.327-4.102c-0.737-3.787-2.661-5.612-6.476-6.09
		c-0.644-0.081-0.858-0.237-0.854-0.908c0.004-0.764,0.479-0.598,0.892-0.598c8.56-0.003,17.118-0.004,25.678,0.001
		c0.401,0,0.902-0.196,0.909,0.582c0.006,0.657-0.187,0.837-0.843,0.922c-4.577,0.592-7.064,3.267-7.461,7.901
		c-0.103,1.2-0.143,2.398-0.143,3.602c0.005,15.434-0.018,30.867,0.02,46.3c0.007,2.847,0.173,5.7,1.188,8.422
		c1.083,2.903,3.201,4.408,6.256,4.48c0.999,0.023,0.946,0.475,0.985,1.185c0.044,0.805-0.318,0.868-0.97,0.865
		c-6.117-0.019-12.236-0.026-18.355,0.008c-0.788,0.004-0.982-0.22-0.966-0.982C414.146,73.298,414.114,71.073,414.114,68.596z"/>
	<path class="st0" d="M198.515,67.028c-2.033,1.679-4.073,3.35-6.247,4.848c-4.728,3.256-9.82,5.461-15.663,5.568
		c-9.561,0.173-15.633-5.768-16.548-14.327c-1.017-9.503,4.102-15.864,11.881-19.578c3.926-1.874,8.194-2.704,12.335-3.915
		c4.44-1.3,8.905-2.521,13.367-3.746c0.688-0.189,0.981-0.455,0.966-1.239c-0.082-4.224,0.23-8.456-0.198-12.671
		c-0.463-4.564-2.152-8.453-6.425-10.733c-2.651-1.415-5.554-1.702-8.502-1.625c-6.014,0.159-11.489,1.838-16.139,5.798
		c-1.554,1.324-2.89,2.839-3.955,4.584c-0.199,0.327-0.361,0.782-0.81,0.615c-0.519-0.192-0.306-0.717-0.211-1.075
		c0.795-2.979,2.077-5.743,3.845-8.263c5.83-8.31,14.073-11.295,23.893-10.732c3.914,0.225,7.696,1.006,11.119,3.015
		c5.026,2.949,7.573,7.522,8.315,13.167c0.512,3.89,0.318,7.819,0.374,11.73c0.145,9.963,0.165,19.928,0.317,29.891
		c0.034,2.224-0.105,4.464,0.324,6.679c1.034,5.344,5.415,7.75,10.526,5.769c0.483-0.187,1.108-0.776,1.484-0.303
		c0.384,0.483-0.27,1.04-0.561,1.507c-2.283,3.677-5.702,5.428-9.925,5.749c-1.578,0.12-3.162,0.109-4.715-0.272
		c-5.014-1.231-7.487-4.742-8.533-9.53c-0.051-0.233-0.088-0.471-0.145-0.704C198.671,67.177,198.604,67.133,198.515,67.028z
		 M198.841,51.013c-0.064,0-0.128,0-0.192,0c0-3.296-0.005-6.592,0.005-9.888c0.002-0.617-0.062-0.978-0.868-0.763
		c-5.031,1.342-10.137,2.427-15.097,4.014c-5.777,1.847-9.993,5.25-10.795,11.747c-0.749,6.064,1.087,10.367,7.136,12.685
		c6.611,2.534,15.655-0.702,19.395-6.763c0.277-0.447,0.432-0.9,0.428-1.446C198.829,57.403,198.841,54.208,198.841,51.013z"/>
	<path class="st0" d="M326.44,76.519c-7.938,0-15.878,0.001-23.818-0.003c-0.48,0-1.063,0.191-1.015-0.694
		c0.038-0.677-0.051-1.137,0.954-1.226c3.569-0.316,5.622-2.57,6.799-5.766c0.647-1.756,0.924-3.587,0.925-5.456
		c0.004-17.391,0.009-34.781-0.002-52.172c-0.003-4.079-2.792-6.945-7.02-7.286c-0.273-0.022-0.552-0.073-0.822-0.05
		c-0.82,0.069-0.812-0.429-0.836-1.039c-0.026-0.676,0.248-0.778,0.845-0.778c16.052,0.015,32.102,0.017,48.151-0.005
		c0.722-0.001,0.832,0.256,0.828,0.889c-0.024,4.227-0.008,8.455-0.024,12.682c-0.001,0.346,0.252,0.926-0.461,0.904
		c-0.577-0.018-1.246,0.305-1.478-0.722c-0.717-3.163-2.237-5.827-5.178-7.462c-1.898-1.055-3.967-1.538-6.123-1.55
		c-5.19-0.029-10.38,0.002-15.569-0.024c-0.708-0.003-0.949,0.191-0.948,0.924c0.02,9.383,0.014,18.766,0.01,28.148
		c0,0.479-0.017,0.868,0.675,0.854c5.084-0.103,10.174,0.208,15.251-0.186c4.37-0.34,7.576-2.874,8.569-6.681
		c0.156-0.595,0.296-1.217,0.289-1.824c-0.009-0.705,0.327-0.74,0.885-0.758c0.713-0.023,0.653,0.401,0.653,0.863
		c-0.004,6.942-0.004,13.885-0.002,20.828c0.001,0.426,0.059,0.841-0.6,0.787c-0.474-0.039-0.858,0.088-0.943-0.679
		c-0.409-3.679-2.696-6.171-6.418-7.157c-1.47-0.389-2.97-0.58-4.482-0.588c-4.296-0.024-8.592,0.019-12.888-0.03
		c-0.868-0.01-1,0.308-0.998,1.062c0.022,6.909,0.009,13.817,0.014,20.725c0.004,4.618,1.79,7.144,6.265,8.314
		c4.96,1.297,9.985,1.448,14.931-0.153c4.042-1.309,6.528-4.27,8.16-8.057c0.217-0.504,0.438-1.008,0.632-1.521
		c0.195-0.513,0.622-0.319,0.969-0.332c0.449-0.018,0.342,0.308,0.312,0.579c-0.493,4.712-0.992,9.423-1.469,14.137
		c-0.042,0.423-0.227,0.517-0.584,0.504c-0.275-0.01-0.55-0.001-0.824-0.001C342.181,76.519,334.31,76.519,326.44,76.519z"/>
	<path class="st1" d="M335.483,111.41c0.048-0.259,0.076-0.351,0.08-0.444c0.07-2.308,0.069-2.286,2.381-2.258
		c0.587,0.007,0.752,0.165,0.727,0.749c-0.223,5.044-0.043,10.092-0.111,15.138c-0.021,1.575-0.109,3.144-0.483,4.693
		c-0.771,3.199-2.782,5.091-5.947,5.834c-2.86,0.672-5.643,0.425-8.367-0.658c-0.725-0.288-0.964-0.607-0.647-1.444
		c0.61-1.609,0.532-1.616,2.08-1.01c1.685,0.66,3.423,0.955,5.236,0.661c2.508-0.408,4.067-1.906,4.518-4.386
		c0.093-0.505,0.17-1.018,0.191-1.53c0.032-0.742,0.009-1.486,0.009-2.32c-3.484,4.356-9.2,3.326-11.641,0.387
		c-1.416-1.704-2.134-3.659-2.246-5.841c-0.168-3.251,0.574-6.198,3.023-8.527C327.279,107.606,332.913,107.389,335.483,111.41z
		 M335.117,117.851c0-0.584,0.005-1.167-0.001-1.751c-0.022-2.305-1.504-4.364-3.523-4.903c-2.321-0.62-4.611,0.287-5.786,2.44
		c-1.457,2.667-1.511,5.454-0.252,8.203c0.908,1.985,2.999,3.112,5.025,2.892c2.111-0.23,3.753-1.632,4.331-3.707
		C335.201,119.982,335.108,118.912,335.117,117.851z"/>
	<path class="st1" d="M373.378,111.564c1.129-1.283,2.357-2.289,3.935-2.814c3.982-1.33,7.987,0.373,9.659,4.229
		c1.528,3.526,1.436,7.11-0.288,10.544c-1.9,3.785-6.483,5.382-10.284,3.725c-1.026-0.446-1.841-1.154-2.529-2.048
		c-0.274,0.282-0.137,0.603-0.138,0.884c-0.013,2.748-0.023,5.495,0.005,8.244c0.006,0.582-0.163,0.739-0.746,0.749
		c-2.744,0.048-2.737,0.067-2.744-2.671c-0.02-7.624-0.032-15.248-0.089-22.873c-0.005-0.718,0.214-0.83,0.852-0.826
		c2.218,0.016,2.218-0.008,2.33,2.16C373.352,111.101,373.366,111.332,373.378,111.564z M384.488,117.734
		c0.02-0.436-0.062-1.25-0.249-2.056c-0.714-3.1-2.989-4.848-5.892-4.52c-2.624,0.296-4.598,2.72-4.621,5.682
		c-0.008,1.063-0.015,2.126,0.002,3.189c0.034,2.271,1.558,4.295,3.682,4.915c2.264,0.661,4.537-0.165,5.837-2.129
		C384.189,121.394,384.475,119.795,384.488,117.734z"/>
	<path class="st1" d="M232.067,111.698c1.233-1.826,2.709-2.835,4.56-3.2c3.978-0.783,7.253,1.672,7.773,5.807
		c0.382,3.045,0.107,6.109,0.176,9.164c0.025,1.099-0.021,2.201,0.016,3.299c0.018,0.525-0.113,0.746-0.678,0.707
		c-0.685-0.047-1.38-0.064-2.06,0.004c-0.689,0.069-0.768-0.228-0.763-0.817c0.026-3.333,0.008-6.667,0.017-10.001
		c0.002-0.656-0.052-1.302-0.196-1.943c-0.359-1.603-1.116-2.884-2.815-3.342c-1.79-0.483-3.33,0.026-4.602,1.325
		c-1.007,1.029-1.438,2.302-1.432,3.744c0.014,3.369-0.014,6.736,0.019,10.104c0.006,0.669-0.081,1.023-0.861,0.926
		c-0.809-0.101-1.88,0.334-2.377-0.165c-0.495-0.496-0.144-1.561-0.145-2.375c-0.011-7.939,0.007-15.878-0.026-23.817
		c-0.004-0.842,0.182-1.104,1.059-1.08c2.334,0.063,2.335,0.019,2.335,2.358C232.067,105.384,232.067,108.371,232.067,111.698z"/>
	<path class="st1" d="M133.552,118.047c-0.003,5.443-3.256,9.288-8.286,9.793c-5.472,0.549-9.796-3.399-9.943-9.076
		c-0.046-1.77,0.186-3.493,0.906-5.122c1.76-3.983,5.906-6.017,10.385-5.109c4.076,0.827,6.802,4.28,6.937,8.793
		C133.558,117.566,133.552,117.807,133.552,118.047z M130,118.377c-0.006-1.904-0.324-3.399-1.101-4.774
		c-1.984-3.515-6.826-3.625-8.857-0.131c-1.71,2.942-1.752,6.052-0.131,9.032c1.991,3.663,6.692,3.693,8.886,0.146
		C129.67,121.238,130,119.679,130,118.377z"/>
	<path class="st1" d="M288.215,117.492c0.04,3.577-0.856,6.789-4.039,8.836c-3.053,1.962-6.325,2.136-9.581,0.469
		c-2.416-1.237-3.763-3.356-4.34-5.953c-0.525-2.366-0.365-4.71,0.534-6.977c1.572-3.962,5.489-6.039,10.139-5.389
		c3.834,0.536,6.838,3.823,7.203,7.885C288.165,116.739,288.188,117.116,288.215,117.492z M284.661,117.792
		c0.033-1.137-0.259-2.507-0.891-3.782c-0.878-1.775-2.234-2.931-4.299-3.044c-2.253-0.125-3.955,0.828-4.959,2.818
		c-1.469,2.912-1.507,5.901,0.083,8.771c1.933,3.485,6.358,3.653,8.661,0.388C284.279,121.494,284.651,119.838,284.661,117.792z"/>
	<path class="st1" d="M300.09,118.359c0.012-5.107,2.611-8.679,6.968-9.758c5.753-1.423,10.868,2.363,11.223,8.283
		c0.146,2.449-0.158,4.794-1.489,6.91c-1.992,3.164-5.832,4.665-9.802,3.865c-3.41-0.687-6.054-3.5-6.694-7.127
		C300.158,119.753,300.036,118.973,300.09,118.359z M314.768,117.824c-0.029-1.558-0.399-3.279-1.479-4.783
		c-1.966-2.736-5.97-2.833-8.066-0.203c-2.205,2.766-2.211,7.736-0.012,10.483c2.07,2.586,5.747,2.604,7.835,0.03
		C314.289,121.818,314.748,120.02,314.768,117.824z"/>
	<path class="st1" d="M200.66,118.703c-1.888,0-3.776,0.031-5.663-0.016c-0.725-0.018-0.855,0.223-0.783,0.896
		c0.379,3.571,3.018,5.793,6.642,5.548c1.438-0.098,2.874-0.206,4.229-0.755c0.402-0.164,0.623-0.106,0.722,0.353
		c0.497,2.327,0.955,1.834-1.348,2.521c-2.021,0.602-4.11,0.781-6.217,0.441c-3.463-0.56-5.846-2.444-6.883-5.826
		c-1.013-3.305-0.702-6.532,1.054-9.528c2.007-3.425,6.162-4.927,9.912-3.621c2.827,0.984,4.12,3.237,4.747,5.993
		c0.247,1.083,0.193,2.183,0.22,3.281c0.017,0.649-0.253,0.801-0.859,0.79c-1.923-0.034-3.848-0.013-5.772-0.013
		C200.66,118.746,200.66,118.724,200.66,118.703z M199.126,116.213c1.408,0,2.817,0.002,4.225-0.001
		c0.297-0.001,0.581,0.073,0.64-0.418c0.223-1.9-1.417-4.361-3.302-4.832c-3.413-0.853-5.791,1.5-6.402,4.733
		c-0.104,0.549,0.253,0.52,0.613,0.52C196.309,116.211,197.718,116.214,199.126,116.213z"/>
	<path class="st1" d="M466.699,118.703c-1.923,0-3.846,0.022-5.768-0.014c-0.609-0.011-0.742,0.186-0.688,0.763
		c0.343,3.683,3.031,5.941,6.741,5.666c1.407-0.104,2.81-0.2,4.133-0.741c0.482-0.197,0.64-0.004,0.771,0.431
		c0.572,1.915,0.58,1.943-1.349,2.447c-1.973,0.515-3.972,0.757-6.015,0.464c-3.972-0.568-6.565-2.911-7.393-6.814
		c-0.533-2.515-0.308-4.992,0.711-7.367c1.692-3.944,5.36-5.861,9.63-5.06c3.347,0.628,5.689,3.767,5.866,7.861
		c0.104,2.428,0.104,2.428-2.31,2.428c-1.443,0-2.887,0-4.33,0C466.7,118.747,466.699,118.725,466.699,118.703z M465.414,110.791
		c-2.526,0-4.988,2.392-5.083,4.909c-0.017,0.433,0.15,0.52,0.529,0.519c2.885-0.009,5.77-0.01,8.654,0.002
		c0.398,0.002,0.553-0.118,0.518-0.53C469.83,113.327,468.647,110.802,465.414,110.791z"/>
	<path class="st1" d="M392.802,112.207c-1.01-2.324-0.92-2.556,1.494-3.281c1.859-0.558,3.759-0.756,5.696-0.446
		c3.087,0.493,5.085,2.842,5.275,6.306c0.071,1.303,0.035,2.611,0.048,3.917c0.025,2.712-0.111,5.431,0.199,8.135
		c0.057,0.497-0.041,0.624-0.56,0.642c-2.345,0.079-2.345,0.099-2.783-2.179c-0.313-0.072-0.355,0.234-0.501,0.377
		c-2.1,2.07-4.597,2.691-7.386,1.85c-2.014-0.607-3.187-2.073-3.504-4.165c-0.35-2.293,0.362-4.203,2.208-5.634
		c1.684-1.308,3.684-1.772,5.747-2.017c0.85-0.101,1.709-0.153,2.566-0.168c0.456-0.008,0.572-0.169,0.58-0.603
		c0.042-2.349-1.422-3.924-3.762-4.01C396.181,110.859,395.299,111.071,392.802,112.207z M401.977,119.97c0-0.514,0-1.028,0-1.542
		c0-0.245,0.026-0.489-0.346-0.486c-2.135,0.024-4.273,0.077-6.111,1.362c-1.305,0.913-1.749,2.72-1.134,4.243
		c0.504,1.247,1.761,1.885,3.398,1.725C400.516,125.006,401.977,123.159,401.977,119.97z"/>
	<path class="st1" d="M150.321,124.419c-1.438,2.121-3.208,3.19-5.456,3.424c-3.831,0.397-6.672-1.972-7.051-6.091
		c-0.381-4.144-0.08-8.312-0.154-12.469c-0.008-0.467,0.201-0.609,0.622-0.56c0.068,0.007,0.138,0.001,0.207,0
		c2.622-0.05,2.591-0.049,2.63,2.565c0.048,3.228-0.23,6.466,0.148,9.682c0.328,2.792,1.821,4.128,4.261,4.013
		c2.338-0.11,4.357-2.153,4.403-4.611c0.067-3.539,0.054-7.08,0.027-10.62c-0.006-0.761,0.119-1.072,0.99-1.054
		c2.469,0.054,2.462,0.009,2.471,2.442c0.023,5.259,0.047,10.517,0.099,15.775c0.004,0.405-0.043,0.517-0.458,0.558
		c-2.579,0.259-2.578,0.271-2.707-2.311C150.346,125.004,150.339,124.844,150.321,124.419z"/>
	<path class="st1" d="M253.119,111.712c1.631-2.411,3.808-3.511,6.48-3.354c3.657,0.215,6.071,2.767,6.217,6.662
		c0.147,3.945,0.051,7.899,0.088,11.849c0.005,0.534-0.205,0.591-0.658,0.606c-2.801,0.1-2.791,0.111-2.803-2.697
		c-0.014-3.089,0.052-6.184-0.104-9.267c-0.142-2.849-1.84-4.429-4.326-4.34c-2.394,0.086-4.508,2.215-4.548,4.73
		c-0.057,3.538-0.04,7.076,0.001,10.614c0.01,0.754-0.155,0.983-0.946,0.971c-2.516-0.041-2.499-0.004-2.52-2.474
		c-0.044-5.219,0.136-10.439-0.139-15.656c-0.025-0.504,0.168-0.623,0.649-0.645C252.844,108.604,252.843,108.589,253.119,111.712z"
		/>
	<path class="st1" d="M439.989,111.691c1.089-1.49,2.291-2.511,3.875-2.998c4.569-1.405,8.624,1.375,8.826,6.23
		c0.165,3.978,0.048,7.969,0.072,11.953c0.003,0.428-0.1,0.571-0.56,0.601c-2.823,0.185-2.793,0.199-2.829-2.561
		c-0.042-3.191,0.204-6.391-0.137-9.574c-0.302-2.813-1.908-4.29-4.382-4.171c-2.385,0.116-4.48,2.304-4.502,4.786
		c-0.032,3.538-0.029,7.077,0.01,10.615c0.007,0.707-0.142,0.998-0.887,0.899c-0.839-0.112-1.963,0.366-2.456-0.194
		c-0.417-0.473-0.146-1.563-0.149-2.381c-0.028-5.153-0.033-10.306-0.088-15.459c-0.007-0.615,0.163-0.724,0.728-0.729
		c2.319-0.023,2.319-0.042,2.424,2.28C439.94,111.148,439.957,111.305,439.989,111.691z"/>
	<path class="st1" d="M96.293,101.472c1.241,0,2.362,0.027,3.482-0.012c0.524-0.018,0.602,0.348,0.765,0.672
		c1.854,3.704,3.703,7.409,5.566,11.108c0.083,0.164,0.059,0.422,0.329,0.485c1.567-3.028,3.133-6.053,4.699-9.079
		c0.015-0.03,0.021-0.065,0.039-0.095c0.589-0.998,0.796-2.485,1.737-2.936c0.974-0.467,2.346-0.104,3.691-0.104
		c-0.916,1.582-1.797,3.108-2.682,4.633c-1.822,3.141-3.633,6.289-5.478,9.416c-0.329,0.557-0.476,1.103-0.472,1.743
		c0.02,3.092-0.015,6.183,0.026,9.275c0.009,0.725-0.191,0.964-0.911,0.896c-0.812-0.076-1.882,0.246-2.383-0.164
		c-0.528-0.432-0.154-1.54-0.161-2.351c-0.023-2.575-0.019-5.152,0-7.728c0.004-0.534-0.121-0.991-0.379-1.457
		c-2.442-4.402-4.865-8.813-7.292-13.224C96.69,102.23,96.522,101.903,96.293,101.472z"/>
	<path class="st1" d="M210.119,118.351c-0.088-8.276,7.569-11.617,14.039-9.306c0.492,0.175,0.774,0.333,0.509,0.94
		c-0.257,0.59-0.21,1.444-0.624,1.798c-0.395,0.336-1.083-0.288-1.664-0.428c-3.406-0.822-6.44,0.276-7.872,2.896
		c-1.631,2.985-1.126,7.115,1.216,9.224c2.145,1.933,4.682,1.944,7.249,1.115c1.019-0.329,1.372-0.25,1.524,0.884
		c0.189,1.418,0.298,1.433-1.132,1.818c-3.521,0.951-6.955,0.989-9.987-1.388C210.95,124.002,210.134,121.33,210.119,118.351z"/>
	<path class="st1" d="M428.348,104.309c0,1.27,0.046,2.438-0.017,3.6c-0.037,0.707,0.22,0.859,0.865,0.83
		c1.099-0.05,2.2,0.009,3.299-0.024c0.497-0.015,0.623,0.15,0.644,0.639c0.086,2.059,0.104,2.038-1.982,2.068
		c-0.914,0.013-2.132-0.407-2.657,0.189c-0.449,0.512-0.145,1.7-0.148,2.59c-0.008,2.474-0.007,4.948-0.002,7.422
		c0.006,2.776,1.042,3.717,3.744,3.284c0.641-0.103,0.732,0.073,0.784,0.611c0.185,1.963,0.102,2.084-1.863,2.316
		c-3.561,0.421-5.624-1.169-5.964-4.711c-0.341-3.561-0.102-7.139-0.125-10.71c-0.005-0.794-0.186-1.153-1.01-1.001
		c-0.032,0.007-0.067,0.001-0.102,0.001c-1.868-0.003-2.154-0.371-1.803-2.259c0.053-0.29,0.148-0.436,0.444-0.426
		c0.103,0.003,0.207,0.007,0.309-0.002c0.703-0.066,1.667,0.326,2.041-0.196c0.343-0.481,0.167-1.399,0.079-2.106
		c-0.108-0.864,0.246-1.233,1.037-1.412C426.713,104.83,427.486,104.561,428.348,104.309z"/>
	<path class="st1" d="M183.805,104.307c0,1.285,0.029,2.482-0.013,3.677c-0.021,0.584,0.157,0.775,0.747,0.753
		c1.167-0.043,2.338,0.007,3.506-0.021c0.491-0.012,0.63,0.156,0.655,0.646c0.102,2.05,0.12,2.034-1.916,2.057
		c-0.954,0.01-2.188-0.403-2.785,0.164c-0.606,0.576-0.174,1.82-0.185,2.77c-0.028,2.372-0.02,4.743-0.001,7.115
		c0.004,0.546,0.057,1.102,0.176,1.633c0.347,1.538,1.371,2.15,3.355,1.836c0.829-0.132,1.009-0.025,1.024,0.827
		c0.032,1.798,0.094,1.806-1.669,2.041c-1.065,0.142-2.124,0.112-3.158-0.229c-1.683-0.556-2.502-1.814-2.864-3.463
		c-0.298-1.36-0.205-2.737-0.209-4.109c-0.01-2.578-0.022-5.156,0.011-7.733c0.009-0.642-0.113-0.981-0.83-0.863
		c-0.234,0.038-0.48,0.006-0.721,0.006c-1.351,0-1.351,0-1.351-1.338c0-1.35,0-1.35,1.354-1.35c1.534,0,1.534,0,1.534-1.463
		c0-1.927,0-1.927,1.875-2.5C182.794,104.622,183.247,104.48,183.805,104.307z"/>
	<path class="st1" d="M295.872,113.746c0,4.26-0.021,8.521,0.02,12.781c0.008,0.774-0.185,1.034-0.964,0.952
		c-0.778-0.082-1.828,0.254-2.286-0.142c-0.543-0.468-0.171-1.544-0.173-2.354c-0.016-7.971,0.002-15.942-0.026-23.913
		c-0.002-0.773,0.143-1.05,0.99-1.031c2.439,0.055,2.439,0.012,2.439,2.472C295.872,106.256,295.872,110,295.872,113.746z"/>
	<path class="st1" d="M162.167,112.084c0.989-2.102,2.422-3.447,4.682-3.728c1.261-0.156,1.419-0.024,1.419,1.238
		c0.001,0.069,0.001,0.138,0,0.207c-0.004,0.549,0.18,1.207-0.06,1.619c-0.287,0.494-0.997,0.111-1.519,0.165
		c-2.196,0.23-4.025,2.047-4.152,4.534c-0.159,3.081-0.089,6.173-0.106,9.262c-0.012,2.082-0.002,2.082-2.063,2.083
		c-1.385,0-1.368,0-1.388-1.401c-0.08-5.557,0.221-11.117-0.126-16.671c-0.03-0.48,0.087-0.65,0.6-0.682
		c2.431-0.148,2.43-0.165,2.49,2.266C161.95,111.313,161.898,111.661,162.167,112.084z"/>
	<path class="st1" d="M413.703,112.062c1.125-2.068,2.604-3.449,4.96-3.714c1.138-0.128,1.298,0.012,1.296,1.161
		c0,0.652,0.21,1.429-0.072,1.922c-0.296,0.516-1.123,0.079-1.717,0.182c-2.255,0.39-3.944,2.412-4.003,5.053
		c-0.073,3.296-0.059,6.593-0.033,9.889c0.006,0.692-0.12,0.999-0.883,0.922c-0.812-0.081-1.904,0.26-2.388-0.153
		c-0.57-0.488-0.17-1.61-0.181-2.454c-0.069-5.147,0.118-10.295-0.075-15.441c-0.02-0.525,0.102-0.702,0.662-0.72
		c2.347-0.075,2.348-0.096,2.432,2.258C413.713,111.331,413.703,111.696,413.703,112.062z"/>
	<path class="st1" d="M480.584,112.341c1.032-2.305,2.488-3.704,4.827-3.984c1.248-0.149,1.376-0.051,1.372,1.176
		c-0.003,0.65,0.198,1.432-0.093,1.913c-0.298,0.494-1.128,0.063-1.725,0.168c-2.225,0.389-3.902,2.355-3.972,4.961
		c-0.089,3.292-0.065,6.588-0.035,9.882c0.008,0.771-0.141,1.049-0.988,1.031c-2.473-0.056-2.466-0.013-2.475-2.514
		c-0.019-5.181-0.032-10.362-0.086-15.543c-0.007-0.621,0.189-0.716,0.741-0.721c2.158-0.017,2.157-0.036,2.316,2.117
		C480.498,111.235,480.531,111.644,480.584,112.341z"/>
</g>
</svg>
