<?xml version="1.0" encoding="utf-8"?>
<!-- Generator: Adobe Illustrator 19.1.0, SVG Export Plug-In . SVG Version: 6.00 Build 0)  -->
<svg version="1.1" id="svg21997" xmlns="http://www.w3.org/2000/svg" xmlns:xlink="http://www.w3.org/1999/xlink" x="0px" y="0px"
	 width="991.997px" height="521.699px" viewBox="228.105 158.644 991.997 521.699"
	 style="enable-background:new 228.105 158.644 991.997 521.699;" xml:space="preserve">
<style type="text/css">
	.st0{fill:#8E9BCE;}
	.st1{fill:#296CAC;}
	.st2{fill:#004281;}
</style>
<path id="path21145" class="st0" d="M753.114,367.948l-13.48-4.332v-11.757h58.63v11.757l-15.037,7.426l-43.253,50.317
	l50.534,50.441l13.242,4.125v12.634h-66.375v-12.634l13.479-4.125l-49.431-53.133L753.114,367.948z M1129.903,475.566l16.687-4.054
	V368.03h-14.665l-7.209,16.687h-22.091v-32.703h117.477v32.703h-21.895l-7.209-16.687h-14.645v103.481l16.676,4.054v13.087h-63.126
	V475.566L1129.903,475.566z M974.443,475.566l13.521-4.054V369.145l-13.521-4.28v-12.851h101.677v32.703h-22.751l-7.683-16.687
	h-27.97v42.149h23.009l5.642-13.758h19.161v43.521h-19.161l-5.642-13.521h-23.009v45.997l16.914,3.146v13.087h-60.188
	L974.443,475.566L974.443,475.566z M920.66,420.328c0-35.168-21.038-53.205-41.778-53.205c-20.059,0-41.324,18.037-41.324,53.205
	c0,35.405,20.802,53.226,41.552,53.226C900.075,473.554,920.66,455.949,920.66,420.328 M805.535,423.711
	c0-46.224,36.591-74.389,75.595-74.389c36.767,0,71.336,25.463,71.336,67.406c0,45.997-35.261,74.626-73.357,75.08
	C839.878,491.809,805.535,466.118,805.535,423.711 M487.335,364.864v-12.851h57.031v12.851l-13.747,4.28v70.346
	c0,22.327,6.775,33.373,27.062,33.373c20.059,0,25.927-9.911,25.927-31.559v-72.16l-13.552-4.28v-12.851h52.092v12.851l-13.51,4.28
	v68.777c0,16.233-0.681,27.278-7.673,35.849c-9.241,11.51-24.576,18.038-46.213,18.038c-40.604,0-53.907-15.79-53.907-51.174v-71.49
	L487.335,364.864z M374.994,475.566l13.541-4.054V369.145l-13.541-4.28v-12.851h56.825v12.851l-13.531,4.28v102.367h26.154
	l7.446-17.811h23.225v34.951h-100.12v-13.086H374.994z"/>
<path id="path21928-0" class="st1" d="M299.049,350.199l46.13,0.024l-69.376,68.84l66.88,69.562l-46.697,0.066l-67.881-69.81
	l70.944-68.675V350.199z M405.232,547.561v45.894l84.052,86.888l84.31-82.247v-46.667l-84.052,83.279L405.232,547.561z
	 M488.253,158.757l-83.278,82.505v46.925l83.536-81.732l84.825,84.052l0.257-45.636L488.253,158.757L488.253,158.757z"/>
<path id="path22025-8" class="st2" d="M489.573,634.594l84.041-83.124v46.697l-84.227,82.113L489.573,634.594z M488.273,158.644
	l85.196,86.321l-0.165,45.46l-84.856-84.083L488.273,158.644z M739.975,421.359l-52.782-53.999l15.531-4.064v-11.438l-69.365,0.041
	l67.086,69.325l-67.344,67.396l74.274-0.058v-12.819l-18.729-4.177l51.328-50.204L739.975,421.359L739.975,421.359z"/>
</svg>
