<?xml version="1.0" encoding="utf-8"?>
<!-- Generator: Adobe Illustrator 19.1.0, SVG Export Plug-In . SVG Version: 6.00 Build 0)  -->
<svg version="1.1" id="Layer_1" xmlns="http://www.w3.org/2000/svg" xmlns:xlink="http://www.w3.org/1999/xlink" x="0px" y="0px"
	 width="237.854px" height="113.088px" viewBox="0 0 237.854 113.088" style="enable-background:new 0 0 237.854 113.088;"
	 xml:space="preserve">
<style type="text/css">
	.st0{fill-rule:evenodd;clip-rule:evenodd;fill:#030303;}
	.st1{fill-rule:evenodd;clip-rule:evenodd;fill:#1D439A;}
</style>
<g>
	<path class="st0" d="M6.822,91.231c4.342-5.55,12.234-4.273,14.195,0.384c0.478-0.518,0.903-1.043,1.393-1.498
		c2.74-2.541,5.956-3.241,9.427-1.999c3.478,1.244,4.811,4.234,5.077,7.612c0.423,5.381,0.083,10.786,0.175,16.179
		c0.012,0.678-0.35,0.662-0.825,0.658c-1.919-0.012-3.839-0.048-5.756,0.016c-0.801,0.027-0.898-0.287-0.893-0.969
		c0.027-4.198,0.011-8.395,0.016-12.593c0.002-0.965-0.08-1.92-0.388-2.835c-0.451-1.341-1.276-2.32-2.78-2.445
		c-1.489-0.124-2.634,0.512-3.415,1.779c-0.539,0.874-0.697,1.848-0.695,2.864c0.007,4.397-0.013,8.795,0.019,13.192
		c0.006,0.742-0.127,1.041-0.957,1.008c-1.796-0.07-3.599-0.071-5.395-0.001c-0.874,0.034-1.144-0.167-1.134-1.097
		c0.045-4.396-0.003-8.794-0.01-13.191c-0.001-0.851-0.171-1.667-0.482-2.451c-0.917-2.312-3.584-2.856-5.364-1.101
		c-1.066,1.051-1.404,2.361-1.398,3.818c0.015,4.317-0.017,8.635,0.025,12.952c0.008,0.819-0.166,1.105-1.036,1.07
		c-1.796-0.072-3.598-0.067-5.395-0.001c-0.828,0.03-1.062-0.178-1.055-1.035c0.044-5.437,0.037-10.873,0.015-16.31
		c-0.008-2.076-0.054-4.154-0.178-6.225c-0.047-0.795,0.204-0.934,0.917-0.911c1.557,0.05,3.119,0.047,4.676,0.001
		c0.649-0.02,0.915,0.144,0.93,0.832C6.545,89.672,6.709,90.404,6.822,91.231z"/>
	<path class="st0" d="M222.337,90.906c1.412-1.491,2.858-2.588,4.682-3.049c5.27-1.334,9.71,1.708,10.573,7.217
		c0.168,1.068,0.253,2.137,0.25,3.221c-0.016,4.437-0.028,8.875,0.013,13.312c0.007,0.793-0.211,0.999-0.986,0.975
		c-1.878-0.058-3.759-0.062-5.635,0.001c-0.828,0.027-1.073-0.187-1.064-1.043c0.048-4.117,0.021-8.235,0.022-12.352
		c0.001-0.881-0.037-1.755-0.29-2.61c-0.559-1.889-1.754-2.796-3.676-2.774c-1.781,0.021-3.342,1.216-3.755,2.942
		c-0.138,0.576-0.185,1.185-0.187,1.78c-0.015,4.357-0.028,8.714,0.011,13.071c0.007,0.781-0.193,1.009-0.981,0.985
		c-1.917-0.059-3.837-0.041-5.756-0.007c-0.632,0.011-0.906-0.102-0.904-0.83c0.023-11.274,0.021-22.547,0.002-33.82
		c-0.001-0.698,0.233-0.874,0.896-0.86c1.918,0.04,3.839,0.055,5.756-0.006c0.808-0.025,0.994,0.232,0.986,1.007
		c-0.039,3.837-0.02,7.675-0.016,11.513C222.278,89.957,222.31,90.336,222.337,90.906z"/>
	<path class="st0" d="M115.595,112.562c-2.136,0-4.248-0.012-6.36,0.01c-0.424,0.004-0.535-0.173-0.593-0.543
		c-0.091-0.584-0.238-1.161-0.393-1.895c-1.965,2.073-4.295,2.966-7.004,2.953c-3.855-0.018-6.723-2.031-7.68-5.431
		c-0.996-3.539,0.417-7.17,3.595-9.12c2.814-1.726,5.972-2.144,9.186-2.292c1.304-0.061,1.543-0.442,0.932-1.623
		c-0.646-1.246-1.813-1.622-3.085-1.737c-2.445-0.22-4.767,0.271-6.948,1.378c-0.644,0.326-0.923,0.361-1.086-0.487
		c-0.224-1.169-0.599-2.314-0.982-3.445c-0.172-0.507-0.042-0.718,0.407-0.909c4.592-1.955,9.318-2.644,14.102-0.964
		c3.654,1.284,5.246,4.303,5.476,7.989c0.181,2.907,0.07,5.832,0.071,8.749C115.233,107.623,115.324,110.044,115.595,112.562z
		 M107.79,102.974c0-0.478-0.012-0.956,0.004-1.434c0.012-0.342-0.098-0.511-0.469-0.501c-1.842,0.049-3.674,0.168-5.244,1.281
		c-1.212,0.859-1.603,2.472-1.002,3.841c0.499,1.14,1.895,1.771,3.33,1.506C106.709,107.242,107.791,105.74,107.79,102.974z"/>
	<path class="st0" d="M166.088,102.763c-2.319,0-4.639,0.042-6.956-0.02c-0.945-0.026-0.996,0.351-0.723,1.049
		c0.963,2.466,3.05,3.256,5.415,3.473c2.4,0.22,4.798,0.047,7.111-0.694c0.715-0.229,0.962-0.072,1.061,0.653
		c0.146,1.064,0.295,2.144,0.61,3.165c0.291,0.946,0.065,1.312-0.884,1.58c-3.864,1.091-7.765,1.52-11.714,0.65
		c-5.07-1.116-8.104-4.282-8.876-9.427c-0.748-4.99,0.33-9.488,4.256-12.937c4.034-3.542,10.98-3.638,14.955-0.273
		c2.254,1.908,3.217,4.508,3.64,7.339c0.224,1.504,0.208,3.015,0.063,4.536c-0.069,0.725-0.283,0.935-1.003,0.921
		C170.725,102.735,168.406,102.763,166.088,102.763z M162.502,97.559c1.277,0,2.554-0.001,3.831,0c0.362,0,0.68,0.047,0.714-0.517
		c0.091-1.528-1.158-3.6-2.633-4.103c-3.042-1.039-5.595,0.861-6.212,4.151c-0.099,0.526,0.277,0.465,0.59,0.465
		C160.029,97.559,161.265,97.558,162.502,97.559z"/>
	<path class="st0" d="M128.592,100.081c0-1.759-0.034-3.519,0.016-5.276c0.021-0.75-0.142-1.031-0.97-1.024
		c-2.326,0.021-2.327-0.021-2.327-2.375c0-0.12-0.002-0.24,0-0.36c0.019-0.916-0.28-2.043,0.147-2.688
		c0.43-0.649,1.629-0.191,2.488-0.223c0.549-0.021,0.664-0.235,0.653-0.726c-0.026-1.239,0.029-2.48-0.024-3.717
		c-0.027-0.621,0.141-0.932,0.771-1.064c1.99-0.418,3.979-0.852,5.952-1.341c0.609-0.151,0.757-0.031,0.748,0.576
		c-0.029,1.798,0.018,3.598-0.024,5.396c-0.016,0.661,0.152,0.907,0.851,0.876c1.236-0.055,2.479,0.017,3.716-0.028
		c0.655-0.023,0.93,0.143,0.903,0.854c-0.05,1.317-0.06,2.64,0.003,3.956c0.038,0.788-0.281,0.933-0.977,0.903
		c-1.197-0.052-2.399,0.015-3.597-0.027c-0.627-0.021-0.917,0.083-0.903,0.822c0.054,2.837-0.009,5.676,0.06,8.512
		c0.075,3.085,1.118,3.983,4.214,3.603c0.885-0.109,1.087,0.074,1.043,0.928c-0.069,1.355-0.025,2.717-0.015,4.077
		c0.003,0.431-0.031,0.749-0.575,0.862c-2.734,0.564-5.463,0.844-8.12-0.29c-2.83-1.207-3.747-3.686-3.962-6.473
		c-0.146-1.906-0.028-3.834-0.028-5.752C128.621,100.081,128.606,100.081,128.592,100.081z"/>
	<path class="st0" d="M198.121,113.062c-4.8-0.009-8.388-0.854-11.015-3.866c-3.452-3.956-3.829-8.617-2.227-13.387
		c1.569-4.668,5.182-7.121,9.926-7.961c2.746-0.486,5.477-0.341,8.188,0.374c0.728,0.192,0.886,0.496,0.726,1.166
		c-0.323,1.357-0.642,2.717-0.89,4.09c-0.109,0.606-0.319,0.723-0.871,0.514c-1.136-0.431-2.331-0.515-3.533-0.504
		c-4.05,0.036-6.786,2.996-6.525,7.053c0.3,4.67,3.569,7.168,8.415,6.426c0.276-0.042,0.549-0.104,0.823-0.157
		c1.831-0.349,1.829-0.349,2.112,1.471c0.146,0.946,0.256,1.9,0.464,2.832c0.157,0.704-0.083,1.014-0.746,1.184
		C201.065,112.781,199.141,113.081,198.121,113.062z"/>
	<path class="st0" d="M76.385,92.265c0.667-0.836,1.138-1.742,1.862-2.497c1.605-1.674,3.558-2.328,5.842-2.183
		c0.53,0.034,0.678,0.216,0.674,0.715c-0.019,1.957-0.025,3.915,0.003,5.872c0.008,0.546-0.165,0.721-0.69,0.607
		c-0.271-0.059-0.553-0.078-0.831-0.091c-3.714-0.178-5.803,1.752-5.838,5.471c-0.037,3.795-0.036,7.59,0.013,11.384
		c0.011,0.858-0.247,1.068-1.068,1.038c-1.756-0.062-3.518-0.078-5.271,0.004c-0.998,0.047-1.337-0.149-1.321-1.261
		c0.074-5.152,0.052-10.306,0.024-15.458c-0.013-2.273-0.103-4.546-0.203-6.817c-0.031-0.702,0.116-0.984,0.899-0.951
		c1.595,0.068,3.196,0.046,4.793,0.008c0.641-0.016,0.94,0.13,0.942,0.841C76.217,90.053,76.322,91.159,76.385,92.265z"/>
	<path class="st0" d="M49.549,100.327c0-3.715,0.023-7.43-0.018-11.144c-0.009-0.809,0.165-1.117,1.042-1.086
		c1.915,0.069,3.834,0.041,5.751,0.01c0.619-0.01,0.932,0.08,0.929,0.825c-0.025,7.629-0.021,15.259-0.004,22.888
		c0.001,0.566-0.142,0.765-0.734,0.756c-2.077-0.034-4.155-0.052-6.231,0.006c-0.857,0.023-0.737-0.472-0.736-0.99
		C49.55,107.836,49.549,104.082,49.549,100.327z"/>
	<path class="st0" d="M129.315,31.102c0.001-4.128,3.212-7.359,7.334-7.379c4.173-0.02,7.449,3.227,7.462,7.396
		c0.013,4.129-3.317,7.488-7.417,7.48C132.585,38.59,129.314,35.267,129.315,31.102z"/>
	<path class="st0" d="M114.272,31.129c0.003,4.13-3.344,7.492-7.438,7.47c-4.082-0.022-7.485-3.456-7.439-7.506
		c0.046-4.078,3.347-7.355,7.419-7.369C110.984,23.711,114.268,26.972,114.272,31.129z"/>
	<path class="st1" d="M77.121,23.722c4.128,0.044,7.41,3.421,7.336,7.55c-0.072,4.042-3.455,7.356-7.484,7.332
		c-4.148-0.025-7.434-3.434-7.38-7.658C69.644,26.891,72.992,23.678,77.121,23.722z"/>
	<path class="st1" d="M84.464,54.779c0.026,4.11-3.278,7.448-7.424,7.5c-4.04,0.05-7.418-3.276-7.448-7.334
		c-0.031-4.171,3.208-7.504,7.34-7.555C81.04,47.341,84.438,50.674,84.464,54.779z"/>
	<path class="st1" d="M136.709,0c4.118,0,7.44,3.351,7.416,7.48c-0.025,4.1-3.293,7.381-7.372,7.401
		c-4.164,0.02-7.438-3.245-7.439-7.416C129.313,3.281,132.562,0,136.709,0z"/>
	<path class="st1" d="M173.994,54.833c0.003,4.1-3.354,7.444-7.478,7.449c-4.093,0.005-7.419-3.368-7.403-7.508
		c0.015-4.068,3.314-7.358,7.402-7.381C170.618,47.369,173.99,50.724,173.994,54.833z"/>
	<path class="st0" d="M114.272,54.973c-0.061,4.069-3.45,7.384-7.466,7.301c-4.15-0.085-7.494-3.478-7.41-7.52
		c0.085-4.137,3.477-7.428,7.573-7.349C111.131,47.485,114.334,50.805,114.272,54.973z"/>
	<path class="st1" d="M69.593,7.458C69.59,3.316,72.905-0.007,77.031,0c4.104,0.007,7.459,3.39,7.433,7.493
		c-0.026,4.109-3.393,7.414-7.527,7.389C72.871,14.858,69.594,11.544,69.593,7.458z"/>
	<path class="st1" d="M129.313,54.735c0.012-4.097,3.325-7.374,7.424-7.344c4.147,0.031,7.432,3.384,7.386,7.537
		c-0.045,4.078-3.403,7.39-7.458,7.356C132.516,62.25,129.301,58.948,129.313,54.735z"/>
	<path class="st1" d="M166.566,14.882c-4.121,0.017-7.455-3.312-7.453-7.443c0.001-4.074,3.283-7.396,7.348-7.439
		c4.115-0.043,7.504,3.282,7.533,7.394C174.022,11.507,170.691,14.866,166.566,14.882z"/>
	<path class="st1" d="M53.301,86.162c-2.275-0.032-4.096-1.895-4.071-4.163c0.026-2.31,1.971-4.193,4.257-4.124
		c2.278,0.068,4.096,1.942,4.067,4.192C57.526,84.415,55.676,86.196,53.301,86.162z"/>
</g>
</svg>
