<?xml version="1.0" encoding="UTF-8" standalone="no"?>
<svg width="27px" height="21px" viewBox="0 0 27 21" version="1.1" xmlns="http://www.w3.org/2000/svg" xmlns:xlink="http://www.w3.org/1999/xlink" xmlns:sketch="http://www.bohemiancoding.com/sketch/ns">
    <!-- Generator: Sketch 3.3.3 (12072) - http://www.bohemiancoding.com/sketch -->
    <title>check</title>
    <desc>Created with Sketch.</desc>
    <defs></defs>
    <g id="Page-1" stroke="none" stroke-width="1" fill="none" fill-rule="evenodd" sketch:type="MSPage">
        <path d="M26.4841368,4.14300962 C26.4841368,4.5919434 26.32701,4.97353712 26.0127563,5.28779076 L11.5346418,19.7659052 C11.2203882,20.0801589 10.8387945,20.2372857 10.3898607,20.2372857 C9.9409269,20.2372857 9.55933318,20.0801589 9.24507953,19.7659052 L0.861241151,11.3820669 C0.546987503,11.0678132 0.38986068,10.6862195 0.38986068,10.2372857 C0.38986068,9.78835193 0.546987503,9.40675822 0.861241151,9.09250457 L3.15080344,6.80294228 C3.46505709,6.48868863 3.8466508,6.33156181 4.29558459,6.33156181 C4.74451837,6.33156181 5.12611208,6.48868863 5.44036573,6.80294228 L10.3898607,11.7692722 L21.4336317,0.708666186 C21.7478854,0.394412538 22.1294791,0.237285714 22.5784129,0.237285714 C23.0273467,0.237285714 23.4089404,0.394412538 23.723194,0.708666186 L26.0127563,2.99822848 C26.32701,3.31248212 26.4841368,3.69407584 26.4841368,4.14300962 L26.4841368,4.14300962 Z" id="check" fill="#000000" sketch:type="MSShapeGroup"></path>
    </g>
</svg>