<?xml version="1.0" encoding="UTF-8" standalone="no"?>
<svg width="51px" height="66px" viewBox="0 0 51 66" version="1.1" xmlns="http://www.w3.org/2000/svg" xmlns:xlink="http://www.w3.org/1999/xlink" xmlns:sketch="http://www.bohemiancoding.com/sketch/ns">
    <!-- Generator: Sketch 3.3.3 (12072) - http://www.bohemiancoding.com/sketch -->
    <title>checklist</title>
    <desc>Created with Sketch.</desc>
    <defs></defs>
    <g id="Page-1" stroke="none" stroke-width="1" fill="none" fill-rule="evenodd" sketch:type="MSPage">
        <path d="M50.8178607,63.4699188 C50.8178607,65.1839188 50.2548607,65.7539188 48.5488607,65.7539188 C33.2548607,65.7559188 17.9608607,65.7569188 2.66686068,65.7569188 C0.95986068,65.7569188 0.39086068,65.1869188 0.39086068,63.4799188 C0.38986068,44.5259188 0.38986068,25.5739188 0.38986068,6.61991884 C0.38986068,5.15691884 1.06686068,4.49291884 2.55186068,4.49191884 C5.17986068,4.49191884 7.80686068,4.49091884 10.4338607,4.49091884 L11.1988607,4.49091884 C11.1988607,4.00091884 11.1978607,3.58391884 11.1988607,3.16791884 C11.2068607,1.49291884 11.7738607,0.91191884 13.4278607,0.91091884 C20.3708607,0.90791884 27.3148607,0.90991884 34.2578607,0.90891884 C35.5008607,0.90891884 36.7448607,0.90191884 37.9868607,0.91191884 C39.3628607,0.92391884 39.9918607,1.56191884 40.0108607,2.95091884 C40.0168607,3.43791884 40.0108607,3.92591884 40.0108607,4.49391884 L40.9058607,4.49391884 C43.5098607,4.49391884 46.1138607,4.48991884 48.7178607,4.49391884 C50.1488607,4.49791884 50.8198607,5.17591884 50.8198607,6.60991884 C50.8198607,25.5639188 50.8188607,44.5159188 50.8178607,63.4699188 L50.8178607,63.4699188 Z M47.1848607,8.12091884 L46.4378607,8.12091884 C43.8118607,8.12091884 41.1848607,8.12291884 38.5578607,8.11891884 C37.0818607,8.11591884 36.4318607,7.45591884 36.4268607,5.96391884 C36.4248607,5.48491884 36.4268607,5.00591884 36.4268607,4.53191884 L14.7838607,4.53191884 C14.7838607,5.10191884 14.7918607,5.63491884 14.7818607,6.16791884 C14.7588607,7.39191884 14.0828607,8.08691884 12.8648607,8.11591884 C12.0218607,8.13491884 11.1768607,8.11991884 10.3318607,8.11991884 L4.04386068,8.11991884 L4.04386068,62.1329188 L47.1848607,62.1329188 L47.1848607,8.12091884 L47.1848607,8.12091884 Z M9.10586068,11.6979188 C10.5368607,11.6979188 11.9678607,11.6989188 13.3988607,11.7009188 C13.5858607,11.7029188 13.7768607,11.6919188 13.9608607,11.7179188 C14.5598607,11.8029188 14.9728607,12.2359188 14.9118607,12.7379188 C14.8398607,13.3279188 14.4368607,13.5829188 13.8858607,13.5909188 C12.7128607,13.6079188 11.5408607,13.5969188 10.3678607,13.5979188 L9.47286068,13.5979188 L9.47286068,56.7719188 L41.8538607,56.7719188 L41.8538607,13.6339188 C41.6068607,13.6219188 41.3798607,13.6009188 41.1528607,13.5989188 C40.0028607,13.5969188 38.8538607,13.6049188 37.7048607,13.5979188 C36.8658607,13.5929188 36.4188607,13.2449188 36.4298607,12.6269188 C36.4408607,12.0319188 36.8688607,11.7119188 37.6738607,11.6999188 L37.7438607,11.6999188 C39.2918607,11.6999188 40.8398607,11.6979188 42.3888607,11.7009188 C43.3838607,11.7039188 43.6908607,11.9999188 43.6918607,13.0069188 C43.6988607,18.7999188 43.6978607,24.5949188 43.6978607,30.3879188 C43.6978607,39.2789188 43.6958607,48.1679188 43.6938607,57.0589188 C43.6938607,58.4289188 43.4778607,58.6409188 42.1008607,58.6409188 C31.0988607,58.6419188 20.0978607,58.6419188 9.09686068,58.6409188 C7.81986068,58.6409188 7.58786068,58.4049188 7.58786068,57.1219188 L7.58486068,13.2109188 C7.58486068,11.9329188 7.82286068,11.6979188 9.10586068,11.6979188 L9.10586068,11.6979188 Z M37.7188607,22.6539188 C37.9638607,22.9409188 38.2408607,23.3479188 38.2178607,23.6849188 C38.1808607,24.2189188 37.6888607,24.3959188 37.1688607,24.3949188 C35.1788607,24.3929188 33.1878607,24.3959188 31.1968607,24.3959188 L23.5378607,24.3959188 C23.3498607,24.3959188 23.1618607,24.4009188 22.9758607,24.3879188 C22.4058607,24.3499188 22.0498607,24.0559188 22.0098607,23.4759188 C21.9738607,22.9519188 22.3958607,22.5339188 23.0058607,22.5199188 C24.1538607,22.4949188 25.3018607,22.5089188 26.4488607,22.5089188 C27.6668607,22.5079188 28.8848607,22.5079188 30.1028607,22.5079188 L30.1028607,22.5109188 C32.3978607,22.5109188 34.6938607,22.5069188 36.9888607,22.5169188 C37.2398607,22.5169188 37.5928607,22.5059188 37.7188607,22.6539188 L37.7188607,22.6539188 Z M23.1378607,38.6749188 C25.9978607,38.6699188 28.8578607,38.6709188 31.7178607,38.6749188 C32.4338607,38.6749188 32.8878607,39.0489188 32.8858607,39.6049188 C32.8848607,40.1589188 32.4308607,40.5239188 31.7108607,40.5279188 C30.2808607,40.5329188 28.8508607,40.5289188 27.4208607,40.5289188 C25.9908607,40.5289188 24.5608607,40.5339188 23.1308607,40.5259188 C22.4468607,40.5219188 22.0248607,40.1749188 22.0038607,39.6329188 C21.9828607,39.0689188 22.4298607,38.6759188 23.1378607,38.6749188 L23.1378607,38.6749188 Z M23.1468607,29.7149188 C22.4208607,29.7129188 21.9848607,29.3329188 22.0028607,28.7659188 C22.0198607,28.2059188 22.4628607,27.8559188 23.1928607,27.8519188 C24.6228607,27.8459188 26.0528607,27.8509188 27.4828607,27.8509188 C28.8888607,27.8509188 30.2958607,27.8459188 31.7018607,27.8519188 C32.4158607,27.8549188 32.8748607,28.2229188 32.8858607,28.7759188 C32.8958607,29.3349188 32.4498607,29.7139188 31.7268607,29.7149188 C28.8668607,29.7229188 26.0068607,29.7229188 23.1468607,29.7149188 L23.1468607,29.7149188 Z M38.2648607,34.1649188 C38.3798607,34.7529188 37.9038607,35.1879188 37.1548607,35.1899188 C34.8128607,35.1979188 32.4708607,35.1939188 30.1288607,35.1939188 C27.8338607,35.1939188 25.5388607,35.1959188 23.2438607,35.1919188 C22.4468607,35.1899188 22.0068607,34.8559188 22.0028607,34.2719188 C21.9998607,33.6909188 22.4578607,33.3349188 23.2318607,33.3349188 C27.8448607,33.3319188 32.4588607,33.3379188 37.0728607,33.3289188 C37.6888607,33.3279188 38.1398607,33.5299188 38.2648607,34.1649188 L38.2648607,34.1649188 Z M31.7038607,49.5399188 C32.4258607,49.5419188 32.8748607,49.9099188 32.8838607,50.4699188 C32.8938607,51.0309188 32.4548607,51.4109188 31.7268607,51.4189188 C30.2968607,51.4319188 28.8658607,51.4219188 27.4358607,51.4229188 C26.0288607,51.4229188 24.6218607,51.4289188 23.2148607,51.4199188 C22.4378607,51.4159188 21.9848607,51.0449188 22.0028607,50.4589188 C22.0198607,49.8969188 22.4618607,49.5419188 23.1918607,49.5399188 C26.0288607,49.5349188 28.8668607,49.5339188 31.7038607,49.5399188 L31.7038607,49.5399188 Z M22.0158607,44.7769188 C22.1728607,44.4889188 22.6138607,44.1839188 22.9288607,44.1829188 C27.6898607,44.1449188 32.4508607,44.1559188 37.2128607,44.1579188 C37.7978607,44.1579188 38.1448607,44.4639188 38.2008607,45.0369188 C38.2508607,45.5489188 37.7598607,45.9999188 37.1268607,46.0049188 C34.9448607,46.0199188 32.7638607,46.0129188 30.5828607,46.0129188 L30.0198607,46.0129188 L30.0198607,46.0119188 L30.0198607,46.0109188 C27.6978607,46.0109188 25.3758607,46.0159188 23.0538607,46.0079188 C22.2408607,46.0049188 21.6858607,45.3779188 22.0158607,44.7769188 L22.0158607,44.7769188 Z M11.3888607,26.4479188 C11.7438607,26.0399188 12.2728607,26.0519188 12.7548607,26.4659188 C12.9498607,26.6339188 13.1298607,26.8189188 13.3188607,26.9939188 C13.5058607,27.1649188 13.6958607,27.3349188 13.7988607,27.4279188 C15.3058607,25.9899188 16.7458607,24.6159188 18.1848607,23.2409188 C18.3368607,23.0959188 18.4738607,22.9329188 18.6358607,22.7979188 C19.0568607,22.4439188 19.5138607,22.4339188 19.8978607,22.8159188 C20.2838607,23.1999188 20.2778607,23.6729188 19.9188607,24.0789188 C19.5158607,24.5329188 19.0688607,24.9489188 18.6378607,25.3809188 C17.3138607,26.7049188 15.9928607,28.0339188 14.6618607,29.3529188 C14.0458607,29.9629188 13.6748607,29.9579188 13.0508607,29.3519188 C12.5138607,28.8289188 11.9858607,28.2979188 11.4628607,27.7599188 C11.0628607,27.3499188 10.9968607,26.8999188 11.3888607,26.4479188 L11.3888607,26.4479188 Z M11.5098607,37.2099188 C11.9588607,36.8259188 12.4268607,36.8769188 12.8258607,37.2839188 C13.1688607,37.6349188 13.4648607,38.0279188 13.7358607,38.3489188 C15.3808607,36.7589188 16.8688607,35.3289188 18.3478607,33.8909188 C18.9898607,33.2689188 19.4678607,33.1819188 19.9158607,33.6369188 C20.3458607,34.0719188 20.2658607,34.6349188 19.6728607,35.2289188 C18.0498607,36.8569188 16.4248607,38.4819188 14.7968607,40.1049188 C14.1168607,40.7819188 13.7548607,40.7859188 13.0788607,40.1239188 C12.5598607,39.6159188 12.0388607,39.1079188 11.5398607,38.5789188 C11.1138607,38.1259188 11.1038607,37.5589188 11.5098607,37.2099188 L11.5098607,37.2099188 Z M19.0108607,51.2319188 C18.5958607,51.6239188 18.1318607,51.5789188 17.6018607,51.0539188 C16.9718607,50.4269188 16.3628607,49.7799188 15.6508607,49.0459188 C14.9708607,49.7529188 14.3518607,50.4139188 13.7128607,51.0569188 C13.1738607,51.5969188 12.6788607,51.6249188 12.2558607,51.1779188 C11.8648607,50.7619188 11.9088607,50.2779188 12.4238607,49.7619188 C13.0518607,49.1349188 13.7018607,48.5289188 14.4218607,47.8369188 C13.7258607,47.1549188 13.0918607,46.5449188 12.4698607,45.9219188 C11.9078607,45.3599188 11.8498607,44.8959188 12.2608607,44.4579188 C12.6788607,44.0159188 13.2088607,44.0699188 13.7738607,44.6449188 C14.3778607,45.2619188 14.9588607,45.9009188 15.6358607,46.6189188 C16.3858607,45.8419188 16.9938607,45.1929188 17.6228607,44.5659188 C18.1178607,44.0739188 18.6428607,44.0399188 19.0388607,44.4349188 C19.4348607,44.8299188 19.3848607,45.3149188 18.8618607,45.8329188 C18.2318607,46.4579188 17.5838607,47.0629188 16.7328607,47.8769188 C17.5158607,48.5569188 18.2268607,49.1329188 18.8898607,49.7609188 C19.4138607,50.2569188 19.4298607,50.8349188 19.0108607,51.2319188 L19.0108607,51.2319188 Z M25.0048607,18.0219188 C20.8398607,17.7609188 17.3308607,14.5679188 16.7288607,10.4179188 C16.5788607,9.38091884 16.6088607,8.31491884 16.6058607,7.26391884 C16.6048607,6.62691884 17.0118607,6.30991884 17.7358607,6.30891884 C20.3608607,6.30291884 22.9858607,6.30691884 25.6108607,6.30691884 C28.1888607,6.30791884 30.7668607,6.30591884 33.3458607,6.30891884 C34.2978607,6.30991884 34.6528607,6.61991884 34.6018607,7.56091884 C34.5318607,8.88791884 34.5648607,10.2599188 34.2288607,11.5259188 C33.1438607,15.6239188 29.2598607,18.2909188 25.0048607,18.0219188 L25.0048607,18.0219188 Z M32.7608607,8.14891884 L18.4558607,8.14891884 C18.1808607,11.2919188 19.6258607,14.0209188 22.2518607,15.4119188 C24.8008607,16.7619188 27.9498607,16.4619188 30.1578607,14.6089188 C32.1648607,12.9239188 32.9928607,10.7519188 32.7608607,8.14891884 L32.7608607,8.14891884 Z" id="checklist" fill="#4A4A4A" sketch:type="MSShapeGroup"></path>
    </g>
</svg>