<?xml version="1.0" encoding="UTF-8" standalone="no"?>
<svg width="32px" height="21px" viewBox="0 0 32 21" version="1.1" xmlns="http://www.w3.org/2000/svg" xmlns:xlink="http://www.w3.org/1999/xlink" xmlns:sketch="http://www.bohemiancoding.com/sketch/ns">
    <!-- Generator: Sketch 3.3.3 (12072) - http://www.bohemiancoding.com/sketch -->
    <title>chevron-down</title>
    <desc>Created with Sketch.</desc>
    <defs></defs>
    <g id="Page-1" stroke="none" stroke-width="1" fill="none" fill-rule="evenodd" sketch:type="MSPage">
        <path d="M30.8466555,5.98879538 L16.5084912,20.307636 C16.2637247,20.5524025 15.9738697,20.6747857 15.638926,20.6747857 C15.3039824,20.6747857 15.0141273,20.5524025 14.7693608,20.307636 L0.431196546,5.98879538 C0.18643004,5.74402887 0.0640467874,5.45095319 0.0640467874,5.10956832 C0.0640467874,4.76818346 0.18643004,4.47510778 0.431196546,4.23034127 L3.63892601,1.04193547 C3.88369252,0.797168967 4.17354759,0.674785714 4.50849123,0.674785714 C4.84343487,0.674785714 5.13328994,0.797168967 5.37805645,1.04193547 L15.638926,11.302805 L25.8997956,1.04193547 C26.1445621,0.797168967 26.4344172,0.674785714 26.7693608,0.674785714 C27.1043044,0.674785714 27.3941595,0.797168967 27.638926,1.04193547 L30.8466555,4.23034127 C31.091422,4.47510778 31.2138052,4.76818346 31.2138052,5.10956832 C31.2138052,5.45095319 31.091422,5.74402887 30.8466555,5.98879538 L30.8466555,5.98879538 Z" id="chevron-down" fill="#000000" sketch:type="MSShapeGroup"></path>
    </g>
</svg>