<?xml version="1.0" encoding="UTF-8" standalone="no"?>
<svg width="32px" height="21px" viewBox="0 0 32 21" version="1.1" xmlns="http://www.w3.org/2000/svg" xmlns:xlink="http://www.w3.org/1999/xlink" xmlns:sketch="http://www.bohemiancoding.com/sketch/ns">
    <!-- Generator: Sketch 3.3.3 (12072) - http://www.bohemiancoding.com/sketch -->
    <title>chevron-up</title>
    <desc>Created with Sketch.</desc>
    <defs></defs>
    <g id="Page-1" stroke="none" stroke-width="1" fill="none" fill-rule="evenodd" sketch:type="MSPage">
        <path d="M31.2826087,17.1192302 L28.0748792,20.307636 C27.8301127,20.5524025 27.5402576,20.6747857 27.205314,20.6747857 C26.8703704,20.6747857 26.5805153,20.5524025 26.3357488,20.307636 L16.0748792,10.0467664 L5.81400966,20.307636 C5.56924316,20.5524025 5.27938808,20.6747857 4.94444444,20.6747857 C4.60950081,20.6747857 4.31964573,20.5524025 4.07487923,20.307636 L0.867149758,17.1192302 C0.622383253,16.8744637 0.5,16.581388 0.5,16.2400031 C0.5,15.8986182 0.622383253,15.6055426 0.867149758,15.3607761 L15.205314,1.04193547 C15.4500805,0.797168967 15.7399356,0.674785714 16.0748792,0.674785714 C16.4098229,0.674785714 16.6996779,0.797168967 16.9444444,1.04193547 L31.2826087,15.3607761 C31.5273752,15.6055426 31.6497585,15.8986182 31.6497585,16.2400031 C31.6497585,16.581388 31.5273752,16.8744637 31.2826087,17.1192302 L31.2826087,17.1192302 Z" id="chevron-up" fill="#000000" sketch:type="MSShapeGroup"></path>
    </g>
</svg>