<?xml version="1.0" encoding="UTF-8" standalone="no"?>
<svg width="21px" height="21px" viewBox="0 0 21 21" version="1.1" xmlns="http://www.w3.org/2000/svg" xmlns:xlink="http://www.w3.org/1999/xlink" xmlns:sketch="http://www.bohemiancoding.com/sketch/ns">
    <!-- Generator: Sketch 3.3.3 (12072) - http://www.bohemiancoding.com/sketch -->
    <title>close</title>
    <desc>Created with Sketch.</desc>
    <defs></defs>
    <g id="Page-1" stroke="none" stroke-width="1" fill="none" fill-rule="evenodd" sketch:type="MSPage">
        <path d="M20.2276786,16.3315618 C20.2276786,16.7804956 20.0705517,17.1620893 19.7562981,17.476343 L17.4667358,19.7659052 C17.1524822,20.0801589 16.7708884,20.2372857 16.3219547,20.2372857 C15.8730209,20.2372857 15.4914272,20.0801589 15.1771735,19.7659052 L10.2276786,14.8164103 L5.27818362,19.7659052 C4.96392997,20.0801589 4.58233626,20.2372857 4.13340248,20.2372857 C3.68446869,20.2372857 3.30287498,20.0801589 2.98862133,19.7659052 L0.699059043,17.476343 C0.384805395,17.1620893 0.227678571,16.7804956 0.227678571,16.3315618 C0.227678571,15.882628 0.384805395,15.5010343 0.699059043,15.1867807 L5.64855399,10.2372857 L0.699059043,5.28779076 C0.384805395,4.97353712 0.227678571,4.5919434 0.227678571,4.14300962 C0.227678571,3.69407584 0.384805395,3.31248212 0.699059043,2.99822848 L2.98862133,0.708666186 C3.30287498,0.394412538 3.68446869,0.237285714 4.13340248,0.237285714 C4.58233626,0.237285714 4.96392997,0.394412538 5.27818362,0.708666186 L10.2276786,5.65816114 L15.1771735,0.708666186 C15.4914272,0.394412538 15.8730209,0.237285714 16.3219547,0.237285714 C16.7708884,0.237285714 17.1524822,0.394412538 17.4667358,0.708666186 L19.7562981,2.99822848 C20.0705517,3.31248212 20.2276786,3.69407584 20.2276786,4.14300962 C20.2276786,4.5919434 20.0705517,4.97353712 19.7562981,5.28779076 L14.8068032,10.2372857 L19.7562981,15.1867807 C20.0705517,15.5010343 20.2276786,15.882628 20.2276786,16.3315618 L20.2276786,16.3315618 Z" id="close" fill="#000000" sketch:type="MSShapeGroup"></path>
    </g>
</svg>