<?xml version="1.0" encoding="UTF-8" standalone="no"?>
<svg width="18px" height="18px" viewBox="0 0 18 18" version="1.1" xmlns="http://www.w3.org/2000/svg" xmlns:xlink="http://www.w3.org/1999/xlink" xmlns:sketch="http://www.bohemiancoding.com/sketch/ns">
    <!-- Generator: Sketch 3.3.3 (12072) - http://www.bohemiancoding.com/sketch -->
    <title>linkedin</title>
    <desc>Created with Sketch.</desc>
    <defs></defs>
    <g id="Page-1" stroke="none" stroke-width="1" fill="none" fill-rule="evenodd" sketch:type="MSPage">
        <path d="M3.89508929,5.99844643 L3.89508929,17.0587143 L0.212053571,17.0587143 L0.212053571,5.99844643 L3.89508929,5.99844643 L3.89508929,5.99844643 Z M4.12946429,2.58326786 C4.13690476,3.12642262 3.94903274,3.58029167 3.56584821,3.944875 C3.18266369,4.30945833 2.67857143,4.49175 2.05357143,4.49175 L2.03125,4.49175 C1.42113095,4.49175 0.930059524,4.30945833 0.558035714,3.944875 C0.186011905,3.58029167 0,3.12642262 0,2.58326786 C0,2.03267262 0.191592262,1.57694345 0.574776786,1.21608036 C0.95796131,0.855217262 1.45833333,0.674785714 2.07589286,0.674785714 C2.69345238,0.674785714 3.18824405,0.855217262 3.56026786,1.21608036 C3.93229167,1.57694345 4.12202381,2.03267262 4.12946429,2.58326786 L4.12946429,2.58326786 Z M17.1428571,10.7194286 L17.1428571,17.0587143 L13.4709821,17.0587143 L13.4709821,11.1435357 C13.4709821,10.3622857 13.3203125,9.75030655 13.0189732,9.30759821 C12.7176339,8.86488988 12.2470238,8.64353571 11.6071429,8.64353571 C11.1383929,8.64353571 10.7459077,8.77188393 10.4296875,9.02858036 C10.1134673,9.28527679 9.87723214,9.60335714 9.72098214,9.98282143 C9.6391369,10.2060357 9.59821429,10.507375 9.59821429,10.8868393 L9.59821429,17.0587143 L5.92633929,17.0587143 C5.94122024,14.0899643 5.94866071,11.6829702 5.94866071,9.83773214 C5.94866071,7.99249405 5.94494048,6.89130357 5.9375,6.53416071 L5.92633929,5.99844643 L9.59821429,5.99844643 L9.59821429,7.60558929 L9.57589286,7.60558929 C9.72470238,7.36749405 9.87723214,7.15916071 10.0334821,6.98058929 C10.1897321,6.80201786 10.3999256,6.60856548 10.6640625,6.40023214 C10.9281994,6.19189881 11.2518601,6.03006845 11.6350446,5.91474107 C12.0182292,5.79941369 12.4441964,5.74175 12.9129464,5.74175 C14.1852679,5.74175 15.2083333,6.16399702 15.9821429,7.00849107 C16.7559524,7.85298512 17.1428571,9.08996429 17.1428571,10.7194286 L17.1428571,10.7194286 Z" id="linkedin" fill="#000000" sketch:type="MSShapeGroup"></path>
    </g>
</svg>