<?xml version="1.0" encoding="UTF-8" standalone="no"?>
<svg width="84px" height="68px" viewBox="0 0 84 68" version="1.1" xmlns="http://www.w3.org/2000/svg" xmlns:xlink="http://www.w3.org/1999/xlink" xmlns:sketch="http://www.bohemiancoding.com/sketch/ns">
    <!-- Generator: Sketch 3.3.3 (12072) - http://www.bohemiancoding.com/sketch -->
    <title>qa</title>
    <desc>Created with Sketch.</desc>
    <defs></defs>
    <g id="Page-1" stroke="none" stroke-width="1" fill="none" fill-rule="evenodd" sketch:type="MSPage">
        <path d="M82.9201775,43.1527468 C80.2071775,43.1527468 77.4951775,43.1507468 74.7821775,43.1567468 C74.6041775,43.1567468 74.5301775,43.1107468 74.4731775,42.9377468 C73.6181775,40.3327468 72.7531775,37.7317468 71.8981775,35.1267468 C71.8471775,34.9737468 71.7791775,34.9367468 71.6261775,34.9367468 C66.6021775,34.9407468 61.5781775,34.9407468 56.5541775,34.9347468 C56.3931775,34.9347468 56.3331775,34.9857468 56.2871775,35.1337468 C55.4671775,37.7347468 54.6391775,40.3347468 53.8201775,42.9357468 C53.7661775,43.1117468 53.6881775,43.1567468 53.5101775,43.1567468 C50.7781775,43.1507468 48.0461775,43.1527468 45.3131775,43.1527468 L45.0761775,43.1527468 C45.2051775,42.7867468 45.3261775,42.4417468 45.4491775,42.0967468 C49.2211775,31.5027468 52.9941775,20.9067468 56.7671775,10.3127468 C57.5861775,8.0107468 58.4051775,5.7087468 59.2201775,3.4057468 C59.2651775,3.2787468 59.3151775,3.2247468 59.4611775,3.2247468 C62.5111775,3.2297468 65.5601775,3.2307468 68.6101775,3.2237468 C68.7861775,3.2237468 68.8191775,3.3147468 68.8651775,3.4417468 C71.4631775,10.6607468 74.0641775,17.8797468 76.6631775,25.0977468 C78.8071775,31.0527468 80.9491775,37.0067468 83.0921775,42.9607468 C83.1121775,43.0137468 83.1311775,43.0677468 83.1611775,43.1527468 L82.9201775,43.1527468 L82.9201775,43.1527468 Z M64.0651775,11.2447468 C62.2071775,16.9307468 60.3661775,22.5657468 58.5221775,28.2097468 L69.6051775,28.2097468 C67.7621775,22.5647468 65.9231775,16.9337468 64.0651775,11.2447468 L64.0651775,11.2447468 Z M35.7631775,44.7857468 C35.4761775,44.9337468 35.1871775,45.0807468 34.8901775,45.2067468 C34.7461775,45.2677468 34.7351775,45.3337468 34.7811775,45.4677468 C35.2511775,46.8307468 35.7101775,48.1957468 36.1791775,49.5577468 C37.7381775,54.0787468 39.2981775,58.5977468 40.8601775,63.1167468 C41.1471775,63.9447468 40.9141775,64.6717468 40.4291775,65.3427468 C39.9821775,65.9617468 39.3981775,66.4117468 38.6621775,66.6437468 C38.2261775,66.7797468 37.7931775,66.9647468 37.3451775,67.0237468 C36.3591775,67.1547468 35.4371775,66.9657468 34.6711775,66.2727468 C34.4321775,66.0567468 34.2711775,65.7867468 34.1631775,65.4817468 C32.0421775,59.4837468 29.9191775,53.4887468 27.8001775,47.4907468 C27.7501775,47.3507468 27.6961775,47.2897468 27.5421775,47.3157468 C26.2141775,47.5427468 24.8761775,47.5217468 23.5371775,47.4717468 C21.7001775,47.4037468 19.8981775,47.1147468 18.1331775,46.6107468 C14.3271775,45.5267468 10.9901775,43.6147468 8.14917754,40.8597468 C7.39317754,40.1277468 6.68317754,39.3407468 6.01717754,38.5247468 C3.58717754,35.5517468 2.05317754,32.1507468 1.29517754,28.3937468 C0.977177544,26.8207468 0.817177544,25.2307468 0.841177544,23.6287468 C0.927177544,17.7147468 2.88917754,12.5057468 6.79317754,8.0567468 C9.60917754,4.8477468 13.0651775,2.5847468 17.1131775,1.2327468 C19.1051775,0.566746798 21.1531775,0.184746798 23.2521775,0.0747467983 C27.4701775,-0.145253202 31.4731775,0.675746798 35.2501775,2.5737468 C37.4221775,3.6657468 39.3761775,5.0697468 41.1181775,6.7667468 C42.5121775,8.1237468 43.7331775,9.6207468 44.7431775,11.2827468 C46.3251775,13.8817468 47.4211775,16.6697468 47.9351775,19.6787468 C48.1461775,20.9107468 48.2781775,22.1507468 48.2811775,23.4017468 C48.2811775,23.5307468 48.2931775,23.6607468 48.2991775,23.7887468 C48.2811775,27.4697468 47.5481775,30.9947468 45.9481775,34.3177468 C43.7221775,38.9407468 40.3211775,42.4287468 35.7631775,44.7857468 L35.7631775,44.7857468 Z M42.2501775,19.6417468 C39.9571775,10.5957468 31.0141775,4.9007468 21.7421775,6.4387468 C17.3211775,7.1707468 13.5941775,9.2327468 10.7641775,12.7157468 C6.72817754,17.6827468 5.58417754,23.3167468 7.48117754,29.4367468 C9.79917754,36.9137468 16.8251775,41.9407468 24.2371775,41.9417468 C25.8021775,41.9437468 26.8791775,41.8557468 27.9431775,41.6577468 C32.2631775,40.8477468 35.9081775,38.8237468 38.6921775,35.4157468 C42.4881775,30.7707468 43.7251775,25.4637468 42.2501775,19.6417468 L42.2501775,19.6417468 Z M37.2101775,19.5117468 C36.7011775,19.0767468 36.1881775,18.6447468 35.6781775,18.2097468 C35.4731775,18.0357468 35.2751775,17.8527468 35.0661775,17.6847468 C35.0311775,17.6577468 34.9351775,17.6577468 34.8981775,17.6867468 C34.3771775,18.0827468 33.8601775,18.4847468 33.3421775,18.8857468 C33.0111775,19.1407468 32.5361775,18.9487468 32.4231775,18.5757468 C32.3371775,18.2917468 32.4331775,18.0657468 32.6701775,17.8837468 C33.3171775,17.3887468 33.9551775,16.8837468 34.6011775,16.3867468 C34.8981775,16.1587468 35.1961775,16.1747468 35.4781775,16.4187468 C36.1361775,16.9867468 36.7961775,17.5537468 37.4521775,18.1227468 C37.9791775,18.5807468 38.5011775,19.0437468 39.0271775,19.5007468 C39.1611775,19.6177468 39.3221775,19.7127468 39.4341775,19.8467468 C39.5331775,19.9647468 39.5811775,20.1267468 39.6521775,20.2697468 C39.6171775,20.5537468 39.4901775,20.7357468 39.2591775,20.8357468 C39.0461775,20.9277468 38.8301775,20.9077468 38.6481775,20.7527468 C38.1671775,20.3417468 37.6911775,19.9237468 37.2101775,19.5117468 L37.2101775,19.5117468 Z M34.2331775,12.2767468 C33.8161775,12.2827468 33.3981775,12.2567468 32.9801775,12.2517468 C32.5301775,12.2457468 32.0801775,12.2507468 31.6131775,12.2507468 C31.2541775,13.2247468 30.8851775,14.2317468 30.5131775,15.2387468 C30.3961775,15.5587468 30.2781775,15.8797468 30.1551775,16.1977468 C30.0521775,16.4667468 29.8151775,16.6557468 29.5661775,16.6377468 C29.3041775,16.6187468 29.0721775,16.5017468 29.0021775,16.2307468 C28.9621775,16.0747468 28.9621775,15.8817468 29.0171775,15.7307468 C29.4681775,14.4767468 29.9371775,13.2287468 30.4011775,11.9787468 C30.4801775,11.7647468 30.5491775,11.5467468 30.6431775,11.3397468 C30.7401775,11.1237468 30.9161775,10.9717468 31.1601775,10.9717468 C31.8241775,10.9737468 32.4881775,10.9927468 33.1521775,11.0087468 C33.4921775,11.0157468 33.8321775,11.0377468 34.1731775,11.0447468 C34.4661775,11.0507468 34.7231775,11.2057468 34.8121775,11.4397468 C34.8991775,11.6697468 34.8221775,11.9677468 34.5961775,12.1427468 C34.4981775,12.2197468 34.3561775,12.2747468 34.2331775,12.2767468 L34.2331775,12.2767468 Z M30.6251775,17.3707468 C30.4351775,17.1207468 30.5231775,16.6907468 30.8221775,16.4987468 C31.7391775,15.9097468 32.6341775,15.2867468 33.5441775,14.6887468 C33.7361775,14.5627468 33.9511775,14.4477468 34.1711775,14.3977468 C34.4851775,14.3267468 34.8221775,14.6827468 34.7891775,15.0147468 C34.8161775,15.3587468 34.5521775,15.4957468 34.3211775,15.6497468 C33.8031775,15.9937468 33.2811775,16.3297468 32.7621775,16.6687468 C32.3391775,16.9477468 31.9171775,17.2287468 31.4941775,17.5077468 C31.1841775,17.7117468 30.8321775,17.6407468 30.6251775,17.3707468 L30.6251775,17.3707468 Z M32.1571775,19.1307468 C32.7081775,19.6037468 33.2431775,20.1037468 33.7371775,20.6357468 C34.4631775,21.4157468 35.0801775,22.2807468 35.5261775,23.2547468 C35.8301775,23.9207468 36.0611775,24.6087468 36.1111775,25.3477468 C36.1241775,25.5387468 36.1471775,25.7307468 36.1651775,25.9217468 C36.1451775,26.9627468 35.8691775,27.9257468 35.3451775,28.8257468 C35.0291775,29.3687468 34.6531775,29.8577468 34.2301775,30.3227468 C33.3681775,31.2697468 32.3661775,32.0387468 31.2741775,32.6937468 C30.6051775,33.0947468 29.9261775,33.4827468 29.2301775,33.8337468 C28.1991775,34.3527468 27.1121775,34.7407468 25.9701775,34.9347468 C25.4491775,35.0227468 24.9121775,35.0677468 24.3841775,35.0527468 C23.5411775,35.0287468 22.7251775,34.8337468 21.9701775,34.4387468 C21.5131775,34.1987468 21.0921775,33.9067468 20.7081775,33.5557468 C19.7131775,32.6457468 19.0781775,31.5107468 18.5811775,30.2757468 C18.2411775,29.4317468 18.0111775,28.5587468 17.8231775,27.6747468 C17.6871775,27.0367468 17.6181775,26.3817468 17.5441775,25.7317468 C17.4841775,25.1997468 17.4571775,24.6607468 17.4261775,24.1237468 C17.4121775,23.8967468 17.4021775,23.6667468 17.4321775,23.4437468 C17.4641775,23.2047468 17.7251775,22.9967468 17.9971775,22.9807468 C18.7401775,22.9387468 19.4411775,22.7227468 20.1401775,22.4917468 C21.3581775,22.0897468 22.5371775,21.5887468 23.6621775,20.9757468 C24.1101775,20.7317468 24.5231775,20.4147468 24.9311775,20.1037468 C25.5281775,19.6487468 26.1271775,19.1907468 26.6861775,18.6917468 C27.2461775,18.1917468 27.7701775,17.6497468 28.2061775,17.0297468 C28.3731775,16.7927468 28.7011775,16.7037468 28.9471775,16.8517468 C29.4571775,17.1587468 29.9681775,17.4667468 30.4521775,17.8127468 C31.0371775,18.2297468 31.6121775,18.6627468 32.1571775,19.1307468 L32.1571775,19.1307468 Z M28.8731775,18.1837468 C27.6951775,19.6027468 26.2451775,20.6697468 24.7681775,21.7217468 C25.1761775,22.4267468 25.5771775,23.1237468 25.9821775,23.8187468 C26.3291775,24.4167468 26.6791775,25.0127468 27.0271775,25.6097468 C27.4111775,26.2667468 27.7951775,26.9237468 28.1771775,27.5817468 C28.5341775,28.1947468 28.8921775,28.8077468 29.2461775,29.4227468 C29.3721775,29.6437468 29.5371775,29.8537468 29.4671775,30.1377468 C29.4041775,30.3947468 29.1851775,30.5847468 28.8981775,30.6277468 C28.7551775,30.6497468 28.4601775,30.4977468 28.3791775,30.3577468 C27.9781775,29.6737468 27.5741775,28.9917468 27.1771775,28.3057468 C26.5901775,27.2917468 26.0111775,26.2717468 25.4221775,25.2567468 C24.8971775,24.3517468 24.3581775,23.4557468 23.8391775,22.5467468 C23.7411775,22.3757468 23.6651775,22.3457468 23.4881775,22.4277468 C22.8491775,22.7207468 22.2101775,23.0137468 21.5581775,23.2777468 C20.7851775,23.5907468 19.9971775,23.8697468 19.1731775,24.0287468 C19.0251775,24.0587468 18.8771775,24.0947468 18.7341775,24.1437468 C18.4851775,24.2307468 18.6751775,24.4117468 18.6761775,24.5367468 C18.6771775,24.9277468 18.6971775,25.3197468 18.7501775,25.7067468 C18.8341775,26.3217468 18.9451775,26.9347468 19.0561775,27.5467468 C19.2471775,28.6107468 19.5701775,29.6357468 20.0381775,30.6107468 C20.4141775,31.3927468 20.8961775,32.1047468 21.5551775,32.6937468 C22.2831775,33.3447468 23.1251775,33.7317468 24.0871775,33.8067468 C24.6141775,33.8477468 25.1531775,33.7957468 25.6821775,33.7367468 C26.6611775,33.6257468 27.5751775,33.2787468 28.4571775,32.8587468 C29.1321775,32.5367468 29.7921775,32.1757468 30.4351775,31.7937468 C31.5341775,31.1417468 32.5591775,30.3887468 33.4181775,29.4267468 C33.9381775,28.8457468 34.3651775,28.2137468 34.6481775,27.4887468 C34.9271775,26.7747468 35.0221775,26.0287468 34.8981775,25.2717468 C34.7921775,24.6207468 34.5671775,24.0047468 34.2541775,23.4177468 C33.8501775,22.6567468 33.3371775,21.9797468 32.7541775,21.3557468 C32.4021775,20.9787468 32.0241775,20.6257468 31.6411775,20.2797468 C31.3141775,19.9857468 30.9741775,19.7037468 30.6221775,19.4417468 C30.0481775,19.0137468 29.4601775,18.6047468 28.8731775,18.1837468 L28.8731775,18.1837468 Z M25.7431775,18.8337468 C25.3111775,19.1687468 24.8991775,19.5367468 24.4371775,19.8237468 C23.5961775,20.3427468 22.7401775,20.8437468 21.8601775,21.2937468 C21.0131775,21.7267468 20.1081775,22.0267468 19.1681775,22.1937468 C18.5161775,22.3097468 17.8631775,22.2907468 17.2181775,22.1177468 C16.6771775,21.9717468 16.4041775,21.6047468 16.2971775,21.0737468 C16.1741775,20.4607468 16.0261775,19.8527468 16.0661775,19.2547468 C16.0291775,18.2727468 16.2651775,17.3867468 16.6931775,16.5557468 C17.1041775,15.7587468 17.6821775,15.0887468 18.3681775,14.5067468 C18.9011775,14.0537468 19.4851775,13.6837468 20.1161775,13.3947468 C20.7161775,13.1197468 21.3411775,12.9087468 22.0021775,12.8357468 C22.4151775,12.7927468 22.8341775,12.7467468 23.2481775,12.7637468 C23.9611775,12.7917468 24.6561775,12.9427468 25.3101775,13.2427468 C25.9741775,13.5477468 26.5851775,13.9347468 27.1051775,14.4547468 C27.2941775,14.6447468 27.4951775,14.8237468 27.6701775,15.0267468 C27.8221775,15.2037468 27.8491775,15.4297468 27.8261775,15.6577468 C27.7571775,16.3547468 27.4361775,16.9477468 27.0321775,17.4987468 C26.6641775,18.0007468 26.2361775,18.4497468 25.7431775,18.8337468 L25.7431775,18.8337468 Z M26.4881775,15.5427468 C25.9801775,15.0647468 25.4341775,14.6437468 24.7911775,14.3587468 C23.9151775,13.9707468 23.0031775,13.8777468 22.0671775,14.0507468 C21.3851775,14.1767468 20.7421775,14.4127468 20.1341775,14.7567468 C19.4521775,15.1427468 18.8591775,15.6227468 18.3601775,16.2267468 C17.6341775,17.1047468 17.2891775,18.1157468 17.2611775,19.3197468 C17.2711775,19.4187468 17.2801775,19.5917468 17.3091775,19.7627468 C17.3681775,20.1117468 17.4351775,20.4597468 17.5071775,20.8057468 C17.5191775,20.8607468 17.5711775,20.9337468 17.6181775,20.9477468 C17.7701775,20.9897468 17.9281775,21.0237468 18.0851775,21.0307468 C18.6761775,21.0537468 19.2491775,20.9397468 19.8131775,20.7697468 C21.1861775,20.3547468 22.4251775,19.6667468 23.6191775,18.8917468 C24.4231775,18.3707468 25.1871775,17.7947468 25.8091775,17.0537468 C26.1191775,16.6837468 26.4081775,16.2987468 26.5541775,15.8257468 C26.5901775,15.7087468 26.5851775,15.6327468 26.4881775,15.5427468 L26.4881775,15.5427468 Z M16.9181775,23.5617468 C16.9571775,23.9177468 16.8341775,24.1927468 16.5311775,24.2637468 C16.3171775,24.3127468 16.0751775,24.2787468 15.8511775,24.2457468 C15.2621775,24.1567468 14.6761775,24.0497468 14.0901775,23.9477468 C13.5091775,23.8477468 12.9291775,23.7447468 12.3491775,23.6437468 C12.2501775,23.6267468 12.1491775,23.6187468 12.0431775,23.6057468 C11.7141775,24.2237468 11.3861775,24.8467468 11.0501775,25.4647468 C10.9411775,25.6637468 10.8291775,25.8687468 10.6811775,26.0387468 C10.4871775,26.2637468 10.1671775,26.2627468 9.90317754,26.0767468 C9.70517754,25.9357468 9.60817754,25.5957468 9.72917754,25.3667468 C10.1081775,24.6397468 10.4981775,23.9207468 10.8841775,23.1997468 C10.9941775,22.9917468 11.0921775,22.7777468 11.2131775,22.5777468 C11.3331775,22.3767468 11.6071775,22.2767468 11.8331775,22.3187468 C12.3321775,22.4107468 12.8291775,22.5027468 13.3301775,22.5867468 C13.8361775,22.6717468 14.3451775,22.7417468 14.8521775,22.8247468 C15.3711775,22.9097468 15.8881775,23.0057468 16.4061775,23.0937468 C16.6741775,23.1377468 16.8931775,23.3347468 16.9181775,23.5617468 L16.9181775,23.5617468 Z M15.8301775,25.1927468 C15.9821775,25.1147468 16.1321775,25.0307468 16.2861775,24.9597468 C16.5701775,24.8287468 16.9421775,25.0127468 17.0521775,25.3017468 C17.1631775,25.5927468 17.0641775,25.9057468 16.7721775,26.0567468 C15.7741775,26.5757468 14.7721775,27.0857468 13.7741775,27.6027468 C13.5741775,27.7057468 13.3901775,27.8347468 13.1451775,27.7997468 C12.8021775,27.7507468 12.6071775,27.5407468 12.6041775,27.1967468 C12.6031775,26.9307468 12.7521775,26.7537468 12.9741775,26.6397468 C13.9241775,26.1537468 14.8781775,25.6737468 15.8301775,25.1927468 L15.8301775,25.1927468 Z M16.4451775,27.3177468 C16.5361775,27.2807468 16.6361775,27.2607468 16.7321775,27.2327468 C17.0411775,27.2507468 17.2721775,27.4257468 17.3391775,27.7057468 C17.4021775,27.9657468 17.2771775,28.2547468 17.0141775,28.3797468 C16.6601775,28.5467468 16.2961775,28.6917468 15.9341775,28.8437468 C15.6841775,28.9497468 15.4291775,29.0477468 15.1831775,29.1607468 C15.1391775,29.1817468 15.0921775,29.2737468 15.1011775,29.3217468 C15.3781775,30.7197468 15.6621775,32.1147468 15.9451775,33.5097468 C15.9711775,33.6407468 15.9981775,33.7707468 16.0221775,33.9027468 C16.0851775,34.2357468 15.8131775,34.5817468 15.4521775,34.6317468 C15.1831775,34.6687468 14.8751775,34.4007468 14.8191775,34.1027468 C14.6661775,33.3007468 14.5031775,32.4997468 14.3441775,31.6977468 C14.1921775,30.9347468 14.0401775,30.1717468 13.8891775,29.4057468 C13.8591775,29.2577468 13.8381775,29.1067468 13.8071775,28.9577468 C13.7461775,28.6627468 13.8791775,28.4017468 14.1531775,28.2857468 C14.9171775,27.9627468 15.6801775,27.6377468 16.4451775,27.3177468 L16.4451775,27.3177468 Z" id="qa" fill="#4A4A4A" sketch:type="MSShapeGroup"></path>
    </g>
</svg>