<?xml version="1.0" encoding="UTF-8" standalone="no"?>
<svg width="22px" height="24px" viewBox="0 0 22 24" version="1.1" xmlns="http://www.w3.org/2000/svg" xmlns:xlink="http://www.w3.org/1999/xlink" xmlns:sketch="http://www.bohemiancoding.com/sketch/ns">
    <!-- Generator: Sketch 3.3.3 (12072) - http://www.bohemiancoding.com/sketch -->
    <title>refresh</title>
    <desc>Created with Sketch.</desc>
    <defs></defs>
    <g id="Page-1" stroke="none" stroke-width="1" fill="none" fill-rule="evenodd" sketch:type="MSPage">
        <path d="M18.503,3.77878571 C16.544,2.13278571 14.02,1.13978571 11.268,1.13978571 C5.055,1.13978571 0,6.19378571 0,12.4067857 C0,18.6197857 5.055,23.6747857 11.268,23.6747857 C14.369,23.6747857 17.182,22.4147857 19.221,20.3817857 L17.907,19.0667857 C16.204,20.7657857 13.857,21.8157857 11.268,21.8157857 C6.08,21.8157857 1.859,17.5957857 1.859,12.4067857 C1.859,7.21978571 6.08,2.99878571 11.268,2.99878571 C13.507,2.99878571 15.566,3.78678571 17.183,5.09778571 L13.939,8.34078571 L19.752,8.34078571 L21.773,8.34078571 L21.838,8.34078571 L21.838,0.442785714 L18.503,3.77878571 L18.503,3.77878571 Z" id="refresh" fill="#4A4A4A" sketch:type="MSShapeGroup"></path>
    </g>
</svg>