<?xml version="1.0" encoding="UTF-8" standalone="no"?>
<svg width="59px" height="69px" viewBox="0 0 59 69" version="1.1" xmlns="http://www.w3.org/2000/svg" xmlns:xlink="http://www.w3.org/1999/xlink" xmlns:sketch="http://www.bohemiancoding.com/sketch/ns">
    <!-- Generator: Sketch 3.3.3 (12072) - http://www.bohemiancoding.com/sketch -->
    <title>timer-list</title>
    <desc>Created with Sketch.</desc>
    <defs></defs>
    <g id="Page-1" stroke="none" stroke-width="1" fill="none" fill-rule="evenodd" sketch:type="MSPage">
        <path d="M57.4675674,39.7049188 C56.8295674,40.3249188 56.2305674,40.9879188 55.5685674,41.5799188 C55.1715674,41.9369188 55.2025674,42.1789188 55.5005674,42.5889188 C57.5895674,45.4619188 58.5745674,48.6879188 58.5345674,52.2419188 C58.4515674,59.5579188 52.9915674,66.1089188 45.7905674,67.5029188 C37.3135674,69.1449188 29.2075674,64.0009188 27.1955674,55.5889188 C26.0735674,50.8989188 26.9645674,46.5249188 29.7825674,42.5859188 C30.0755674,42.1769188 30.1285674,41.9519188 29.7175674,41.5969188 C29.1005674,41.0629188 28.5605674,40.4419188 27.9705674,39.8769188 C27.7205674,39.6369188 27.6395674,39.4699188 27.9415674,39.1869188 C28.6245674,38.5469188 29.2855674,37.8789188 29.9285674,37.1959188 C30.1945674,36.9129188 30.3605674,36.9349188 30.6155674,37.2059188 C31.2255674,37.8529188 31.8745674,38.4619188 32.4855674,39.1079188 C32.7135674,39.3499188 32.8655674,39.3619188 33.1375674,39.1569188 C35.3525674,37.4889188 37.8385674,36.4639188 40.5965674,36.1569188 C41.2785674,36.0809188 41.1405674,35.6489188 41.1615674,35.2379188 C41.1865674,34.7209188 40.8135674,34.8199188 40.5165674,34.8179188 C39.8675674,34.8109188 39.2175674,34.8329188 38.5695674,34.8099188 C37.4195674,34.7699188 36.8525674,34.1859188 36.8365674,33.0559188 C36.8305674,32.6939188 36.8355674,32.3349188 36.8335674,31.9749188 C36.8305674,30.7269188 37.3055674,30.2389188 38.5755674,30.2269188 C39.8975674,30.2149188 41.2195674,30.2249188 42.5425674,30.2249188 L42.5425674,30.2149188 C43.8645674,30.2149188 45.1865674,30.2109188 46.5085674,30.2179188 C47.6225674,30.2239188 48.0855674,30.6819188 48.0955674,31.8009188 C48.1005674,32.3769188 48.1085674,32.9589188 48.0385674,33.5279188 C47.9325674,34.3809188 47.4425674,34.7889188 46.5825674,34.8109188 C45.9575674,34.8279188 45.3315674,34.8309188 44.7065674,34.8189188 C44.3765674,34.8119188 44.1175674,34.8479188 44.1735674,35.2709188 C44.2215674,35.6319188 43.9765674,36.1099188 44.6575674,36.1809188 C46.5915674,36.3859188 48.4025674,37.0119188 50.1075674,37.9299188 C50.7825674,38.2929188 51.4275674,38.7189188 52.0535674,39.1619188 C52.3345674,39.3619188 52.4795674,39.3349188 52.7075674,39.1049188 C53.4015674,38.4049188 54.1305674,37.7389188 54.8225674,37.0379188 C55.0795674,36.7779188 55.2465674,36.7439188 55.5155674,37.0269188 C56.1595674,37.7079188 56.8205674,38.3739188 57.5045674,39.0139188 C57.8125674,39.3009188 57.7085674,39.4709188 57.4675674,39.7049188 L57.4675674,39.7049188 Z M42.6645674,41.6439188 C36.9685674,41.6339188 32.3955674,46.1789188 32.3795674,51.8689188 C32.3625674,57.5599188 36.9245674,62.1729188 42.5825674,62.1879188 C48.2985674,62.2039188 52.9105674,57.6179188 52.9155674,51.9169188 C52.9205674,46.2379188 48.3475674,41.6549188 42.6645674,41.6439188 L42.6645674,41.6439188 Z M42.8015674,53.5389188 C41.8215674,53.6069188 41.0355674,52.9979188 40.9755674,52.0199188 C40.9485674,51.5819188 40.7715674,51.3199188 40.4895674,51.0419188 C39.3085674,49.8789188 38.1525674,48.6929188 36.9605674,47.5429188 C36.6375674,47.2309188 36.6485674,47.0639188 36.9635674,46.7529188 C37.9155674,45.8129188 37.9005674,45.7979188 38.8215674,46.7219188 C39.6685674,47.5729188 40.5135674,48.4239188 41.3635674,49.2729188 C41.8455674,49.7529188 42.2635674,50.2429188 43.0765674,50.2809188 C43.8245674,50.3159188 44.3145674,51.1199188 44.3045674,51.9109188 C44.2935674,52.7919188 43.6575674,53.4799188 42.8015674,53.5389188 L42.8015674,53.5389188 Z M7.68856739,41.1929188 C7.08656739,41.1959188 6.91656739,41.0399188 6.93756739,40.4359188 C6.98556739,39.0269188 6.95356739,39.0169188 8.38656739,39.0169188 C13.6945674,39.0129188 19.0015674,39.0149188 24.3095674,39.0169188 C24.5145674,39.0169188 24.7205674,39.0419188 24.9285674,39.0559188 C24.3645674,40.2249188 25.8055674,40.3069188 25.9465674,41.1869188 L24.1885674,41.1869188 C18.6885674,41.1839188 13.1875674,41.1719188 7.68856739,41.1929188 L7.68856739,41.1929188 Z M33.6425674,34.6909188 C29.4115674,34.6929188 25.1795674,34.6909188 20.9485674,34.6909188 C16.5255674,34.6909188 12.1015674,34.6829188 7.67756739,34.7029188 C7.13356739,34.7049188 6.92456739,34.5919188 6.93756739,33.9969188 C6.96956739,32.5209188 6.93856739,32.5199188 8.40056739,32.5199188 C16.8875674,32.5199188 25.3735674,32.5259188 33.8605674,32.5069188 C34.4685674,32.5059188 34.7805674,32.6199188 34.6675674,33.2829188 C34.6515674,33.3749188 34.6805674,33.4739188 34.6915674,33.5689188 C34.8245674,34.6849188 34.8245674,34.6909188 33.6425674,34.6909188 L33.6425674,34.6909188 Z M8.33056739,45.5029188 C11.0225674,45.5039188 13.7145674,45.5039188 16.4065674,45.5039188 L16.4065674,45.5089188 C19.3145674,45.5089188 22.2225674,45.5189188 25.1315674,45.4989188 C25.6755674,45.4959188 25.7405674,45.6379188 25.5345674,46.1119188 C25.3255674,46.5899188 25.3485674,47.2839188 25.0085674,47.5629188 C24.5985674,47.8989188 23.9005674,47.6759188 23.3285674,47.6769188 C18.1365674,47.6839188 12.9455674,47.6679188 7.75356739,47.6879188 C7.15456739,47.6909188 6.90956739,47.5879188 6.92656739,46.9169188 C6.96556739,45.4999188 6.92656739,45.5019188 8.33056739,45.5029188 L8.33056739,45.5029188 Z M7.75356739,54.9119188 C7.14956739,54.9189188 6.91156739,54.8079188 6.93556739,54.1369188 C6.98656739,52.7289188 6.94656739,52.7279188 8.32056739,52.7279188 C13.5095674,52.7249188 18.6985674,52.7299188 23.8875674,52.7109188 C24.4065674,52.7089188 24.7225674,52.7819188 24.6395674,53.3959188 C24.5745674,53.8869188 25.0355674,54.5109188 24.6495674,54.8249188 C24.3575674,55.0619188 23.7275674,54.8909188 23.2465674,54.8909188 C20.7975674,54.8929188 18.3465674,54.8919188 15.8965674,54.8919188 L15.8965674,54.8979188 C13.1815674,54.8979188 10.4675674,54.8799188 7.75356739,54.9119188 L7.75356739,54.9119188 Z M43.4365674,28.1879188 C31.5625674,28.1919188 19.6885674,28.1849188 7.81456739,28.2059188 C7.13756739,28.2069188 6.90256739,28.0659188 6.93356739,27.3479188 C6.99156739,26.0209188 6.94456739,26.0239188 8.26456739,26.0239188 C14.1295674,26.0259188 19.9945674,26.0249188 25.8605674,26.0249188 C31.8935674,26.0249188 37.9265674,26.0379188 43.9595674,26.0079188 C44.6465674,26.0039188 44.7995674,26.2109188 44.7715674,26.8539188 C44.7145674,28.1779188 44.7485674,28.1879188 43.4365674,28.1879188 L43.4365674,28.1879188 Z M43.5245674,15.1999188 C40.1355674,15.1979188 36.7465674,15.1989188 33.3575674,15.1989188 C29.7995674,15.1989188 26.2425674,15.1889188 22.6845674,15.2089188 C22.1475674,15.2139188 21.9255674,15.1069188 21.9345674,14.5109188 C21.9565674,13.0279188 21.9285674,13.0279188 23.4105674,13.0279188 C30.2125674,13.0279188 37.0155674,13.0369188 43.8175674,13.0129188 C44.5345674,13.0109188 44.8215674,13.1539188 44.7765674,13.9449188 C44.7055674,15.1999188 44.7615674,15.2009188 43.5245674,15.1999188 L43.5245674,15.1999188 Z M43.4455674,21.7019188 C40.0565674,21.6989188 36.6685674,21.7009188 33.2795674,21.7009188 L33.2795674,21.6949188 C29.7715674,21.6949188 26.2615674,21.6809188 22.7535674,21.7079188 C22.1445674,21.7129188 21.9195674,21.5949188 21.9405674,20.9289188 C21.9855674,19.5219188 21.9445674,19.5279188 23.3405674,19.5279188 C30.1905674,19.5299188 37.0395674,19.5399188 43.8885674,19.5139188 C44.5595674,19.5119188 44.8085674,19.6429188 44.7805674,20.3659188 C44.7295674,21.7079188 44.7745674,21.7029188 43.4455674,21.7019188 L43.4455674,21.7019188 Z M50.5995674,28.9319188 C49.0665674,28.8979188 49.0795674,28.9269188 49.0805674,27.3529188 C49.0855674,19.6559188 49.0845674,11.9599188 49.0785674,4.26391884 C49.0775674,2.83891884 48.3845674,2.21191884 46.8135674,2.21091884 C41.8125674,2.20491884 36.8125674,2.20991884 31.8115674,2.20991884 C27.3395674,2.20991884 22.8675674,2.22491884 18.3965674,2.18991884 C17.7365674,2.18591884 17.6085674,2.37491884 17.6155674,2.99491884 C17.6475674,6.21591884 17.6255674,9.43891884 17.6355674,12.6619188 C17.6435674,15.4439188 15.8925674,17.2189188 13.1025674,17.2219188 C9.85656739,17.2259188 6.61056739,17.2359188 3.36556739,17.2049188 C2.76656739,17.1989188 2.60956739,17.3549188 2.61056739,17.9569188 C2.62756739,33.2059188 2.62256739,48.4539188 2.62456739,63.7009188 C2.62456739,65.6009188 3.61056739,66.5839188 5.51256739,66.5839188 C14.1185674,66.5849188 22.7255674,66.5859188 31.3315674,66.5779188 C31.7805674,66.5779188 32.1615674,66.6619188 32.5375674,66.9299188 C33.4495674,67.5849188 34.4525674,68.0879188 35.4695674,68.5649188 C35.4575674,68.6289188 35.4465674,68.6919188 35.4345674,68.7559188 L31.1295674,68.7559188 C22.5225674,68.7559188 13.9155674,68.7549188 5.30856739,68.7569188 C2.52556739,68.7569188 0.46756739,66.7459188 0.46556739,63.9549188 C0.45356739,51.6179188 0.45756739,39.2799188 0.45656739,26.9429188 C0.45656739,23.7679188 0.47656739,20.5929188 0.45156739,17.4189188 C0.44056739,16.0849188 0.89956739,15.0119188 1.84856739,14.0749188 C6.10756739,9.86691884 10.3615674,5.65091884 14.5725674,1.39591884 C15.5115674,0.44691884 16.5685674,0.0419188399 17.8525674,0.0429188399 C23.1895674,0.0449188399 28.5275674,0.0399188399 33.8645674,0.0399188399 C38.1925674,0.0399188399 42.5195674,0.0489188399 46.8475674,0.0409188399 C47.9915674,0.0389188399 49.0435674,0.28591884 49.9205674,1.05191884 C50.8925674,1.90091884 51.2535674,3.00691884 51.2525674,4.27291884 C51.2465674,10.5249188 51.2525674,16.7779188 51.2545674,23.0309188 C51.2545674,24.7629188 51.2375674,26.4949188 51.2665674,28.2259188 C51.2755674,28.7399188 51.1685674,28.9439188 50.5995674,28.9319188 L50.5995674,28.9319188 Z" id="timer-list" fill="#4A4A4A" sketch:type="MSShapeGroup"></path>
    </g>
</svg>