<?xml version="1.0" encoding="UTF-8" standalone="no"?>
<svg width="25px" height="21px" viewBox="0 0 25 21" version="1.1" xmlns="http://www.w3.org/2000/svg" xmlns:xlink="http://www.w3.org/1999/xlink" xmlns:sketch="http://www.bohemiancoding.com/sketch/ns">
    <!-- Generator: Sketch 3.3.3 (12072) - http://www.bohemiancoding.com/sketch -->
    <title>twitter</title>
    <desc>Created with Sketch.</desc>
    <defs></defs>
    <g id="Page-1" stroke="none" stroke-width="1" fill="none" fill-rule="evenodd" sketch:type="MSPage">
        <path d="M24.5372517,3.04978571 C23.839335,4.07061905 22.995585,4.94041071 22.0060017,5.65916071 C22.0164183,5.80499405 22.0216267,6.02374405 22.0216267,6.31541071 C22.0216267,7.66957738 21.82371,9.02113988 21.4278767,10.3700982 C21.0320433,11.7190565 20.4304808,13.0133274 19.6231892,14.2529107 C18.8158975,15.492494 17.85496,16.5888482 16.7403767,17.5419732 C15.6257933,18.4950982 14.2820433,19.2555149 12.7091267,19.8232232 C11.13621,20.3909315 9.45391834,20.6747857 7.66225168,20.6747857 C4.83933501,20.6747857 2.25600168,19.9195774 -0.087748324,18.4091607 C0.276835009,18.4508274 0.683085009,18.4716607 1.13100168,18.4716607 C3.47475168,18.4716607 5.56329334,17.7529107 7.39662668,16.3154107 C6.30287668,16.2945774 5.32371001,15.9586399 4.45912668,15.3075982 C3.59454334,14.6565565 3.00079334,13.8258274 2.67787668,12.8154107 C3.02162668,12.867494 3.33933501,12.8935357 3.63100168,12.8935357 C4.07891834,12.8935357 4.52162668,12.836244 4.95912668,12.7216607 C3.79246001,12.4820774 2.82631418,11.9013482 2.06068918,10.9794732 C1.29506418,10.0575982 0.912251676,8.98728571 0.912251676,7.76853571 L0.912251676,7.70603571 C1.62058501,8.10186905 2.38100168,8.31541071 3.19350168,8.34666071 C2.50600168,7.88832738 1.95912668,7.28936905 1.55287668,6.54978571 C1.14662668,5.81020238 0.943501676,5.00811905 0.943501676,4.14353571 C0.943501676,3.22686905 1.17266834,2.37791071 1.63100168,1.59666071 C2.89141834,3.14874405 4.42527251,4.39093155 6.23256418,5.32322321 C8.03985584,6.25551488 9.97475168,6.77374405 12.0372517,6.87791071 C11.9539183,6.48207738 11.9122517,6.09666071 11.9122517,5.72166071 C11.9122517,4.32582738 12.4044392,3.13572321 13.3888142,2.15134821 C14.3731892,1.16697321 15.5632933,0.674785714 16.9591267,0.674785714 C18.41746,0.674785714 19.6466267,1.20603571 20.6466267,2.26853571 C21.7820433,2.04978571 22.8497517,1.64353571 23.8497517,1.04978571 C23.464335,2.24770238 22.7247517,3.17478571 21.6310017,3.83103571 C22.5997517,3.72686905 23.5685017,3.46645238 24.5372517,3.04978571 L24.5372517,3.04978571 Z" id="twitter" fill="#000000" sketch:type="MSShapeGroup"></path>
    </g>
</svg>