<?xml version="1.0" encoding="UTF-8" standalone="no"?>
<svg width="36px" height="21px" viewBox="0 0 36 21" version="1.1" xmlns="http://www.w3.org/2000/svg" xmlns:xlink="http://www.w3.org/1999/xlink" xmlns:sketch="http://www.bohemiancoding.com/sketch/ns">
    <!-- Generator: Sketch 3.3.3 (12072) - http://www.bohemiancoding.com/sketch -->
    <title>vk</title>
    <desc>Created with Sketch.</desc>
    <defs></defs>
    <g id="Page-1" stroke="none" stroke-width="1" fill="none" fill-rule="evenodd" sketch:type="MSPage">
        <path d="M35.830963,2.11924947 C36.110817,2.89797362 35.1982496,4.68660563 33.0932609,7.48514553 C32.8012394,7.8745076 32.4057935,8.3916291 31.9069234,9.03651003 C30.9578533,10.2532665 30.4103129,11.050242 30.2643021,11.4274365 C30.0574535,11.9263067 30.1426265,12.419093 30.519821,12.9057956 C30.7266696,13.1613145 31.219456,13.6601846 31.9981801,14.4024061 L32.0164315,14.4024061 L32.0894368,14.4754115 C33.8050635,16.0693625 34.9670659,17.4138784 35.5754441,18.5089592 C35.6119468,18.569797 35.6514914,18.6458443 35.6940779,18.737101 C35.7366644,18.8283578 35.7792509,18.989578 35.8218373,19.2207617 C35.8644238,19.4519455 35.8613819,19.6587941 35.8127117,19.8413075 C35.7640414,20.023821 35.6119468,20.191125 35.356428,20.3432196 C35.1009091,20.4953141 34.741966,20.5713614 34.2795985,20.5713614 L29.6072536,20.6443668 C29.3152321,20.7052046 28.9745403,20.6747857 28.5851782,20.5531101 C28.1958161,20.4314344 27.8794594,20.2975912 27.6361082,20.1515804 L27.2710812,19.9325643 C26.9060543,19.6770454 26.4801895,19.2876833 25.9934869,18.764478 C25.5067843,18.2412728 25.0900452,17.7697796 24.7432696,17.3499986 C24.396494,16.9302177 24.0253833,16.5773583 23.6299375,16.2914205 C23.2344916,16.0054827 22.8907579,15.9111841 22.5987363,16.0085246 C22.5622337,16.0206922 22.5135634,16.0419854 22.4527256,16.0724043 C22.3918877,16.1028233 22.2884634,16.1910381 22.1424527,16.3370489 C21.9964419,16.4830597 21.8656406,16.6625312 21.7500487,16.8754636 C21.6344568,17.088396 21.5310325,17.4047527 21.4397758,17.8245337 C21.3485191,18.2443147 21.3089745,18.7158078 21.321142,19.2390131 C21.321142,19.4215265 21.2998488,19.5888306 21.2572623,19.7409251 C21.2146759,19.8930197 21.1690475,20.0055697 21.1203772,20.078575 L21.0473718,20.1698318 C20.8283557,20.4010155 20.5059152,20.5348587 20.0800504,20.5713614 L17.9811455,20.5713614 C17.1172484,20.6200317 16.2290162,20.5196493 15.3164488,20.2702142 C14.4038815,20.0207791 13.6038641,19.6983386 12.9163967,19.3028928 C12.2289293,18.9074469 11.6022997,18.5059173 11.0365079,18.0983039 C10.4707162,17.6906905 10.0418095,17.340873 9.74978797,17.0488514 L9.29350429,16.6108191 C9.17182864,16.4891434 9.00452463,16.30663 8.79159225,16.0632787 C8.57865986,15.8199274 8.14366942,15.2663032 7.48662093,14.4024061 C6.82957243,13.538509 6.1846915,12.6198579 5.55197813,11.6464527 C4.91926477,10.6730475 4.17400142,9.38936941 3.31618811,7.79541843 C2.45837479,6.20146745 1.66444119,4.54667864 0.93438731,2.83105201 C0.861381921,2.63637097 0.824879227,2.47210885 0.824879227,2.33826564 C0.824879227,2.20442243 0.843130574,2.10708191 0.879633268,2.04624408 L0.952638657,1.936736 C1.13515213,1.70555227 1.48192772,1.58996041 1.99296544,1.58996041 L6.99383455,1.55345771 C7.13984533,1.57779284 7.27977233,1.61733743 7.41361554,1.67209147 C7.54745875,1.72684551 7.64479927,1.77855766 7.70563709,1.82722792 L7.79689383,1.88198196 C7.99157486,2.01582517 8.13758564,2.21050621 8.23492616,2.46602507 C8.47827745,3.07440331 8.75813144,3.70407478 9.07448813,4.35503949 C9.39084481,5.00600421 9.64027989,5.50183247 9.82279336,5.84252429 L10.1148149,6.37181335 C10.4676743,7.10186724 10.8083661,7.7345806 11.1368904,8.26995345 C11.4654146,8.8053263 11.760478,9.22206539 12.0220807,9.52017073 C12.2836833,9.81827607 12.5361603,10.0525017 12.7795116,10.2228476 C13.0228629,10.3931935 13.2297115,10.4783665 13.4000574,10.4783665 C13.5704033,10.4783665 13.7346654,10.4479475 13.8928438,10.3871097 C13.9171789,10.3749422 13.9475978,10.3445232 13.9841005,10.295853 C14.0206032,10.2471827 14.0936086,10.1133395 14.2031167,9.89432335 C14.3126248,9.67530718 14.3947558,9.38936941 14.4495099,9.03651003 C14.5042639,8.68365065 14.5620598,8.19086428 14.6228977,7.55815092 C14.6837355,6.92543755 14.6837355,6.16496475 14.6228977,5.27673252 C14.5985625,4.79002993 14.5438085,4.34591382 14.4586355,3.94438418 C14.3734626,3.54285455 14.2882896,3.26300056 14.2031167,3.10482222 L14.0936086,2.88580605 C13.7894195,2.47210885 13.272298,2.21050621 12.5422441,2.10099813 C12.3840657,2.076663 12.4144847,1.93065222 12.6335008,1.66296579 C12.8403494,1.43178206 13.0715331,1.24926859 13.327052,1.11542538 C13.9719329,0.799068697 15.4259569,0.65305792 17.689124,0.67739305 C18.6868643,0.689560614 19.5081749,0.768649785 20.1530558,0.914660562 C20.3964071,0.975498386 20.6002138,1.05762945 20.764476,1.16105375 C20.9287381,1.26447805 21.0534556,1.41048883 21.1386286,1.59908608 C21.2238015,1.78768333 21.2876812,1.98236437 21.3302677,2.18312919 C21.3728542,2.38389401 21.3941474,2.6607061 21.3941474,3.01356548 C21.3941474,3.36642486 21.3880637,3.70103289 21.3758961,4.01738957 C21.3637285,4.33374626 21.3485191,4.76265291 21.3302677,5.30410955 C21.3120164,5.84556618 21.3028907,6.34747822 21.3028907,6.80984568 C21.3028907,6.9436889 21.2968069,7.19920775 21.2846394,7.57640226 C21.2724718,7.95359677 21.2694299,8.24561832 21.2755137,8.45246692 C21.2815975,8.65931552 21.3028907,8.90570871 21.3393934,9.19164648 C21.3758961,9.47758425 21.4458596,9.71485177 21.5492839,9.90344902 C21.6527082,10.0920463 21.7895933,10.2410989 21.9599392,10.350607 C22.0572797,10.3749422 22.160704,10.3992773 22.2702121,10.4236124 C22.3797202,10.4479475 22.5378985,10.3810259 22.7447471,10.2228476 C22.9515957,10.0646693 23.1827795,9.85477876 23.4382983,9.59317612 C23.6938172,9.33157348 24.0101739,8.92396006 24.3873684,8.37033586 C24.7645629,7.81671167 25.1782601,7.16270506 25.62846,6.40831605 C26.3585139,5.14288931 27.0094786,3.77403828 27.5813541,2.30176294 C27.6300244,2.1800873 27.6908622,2.0736211 27.7638676,1.98236437 C27.836873,1.89110763 27.9037946,1.82722792 27.9646324,1.79072522 L28.0376378,1.73597118 L28.1288945,1.69034281 C28.1288945,1.69034281 28.2079837,1.67209147 28.366162,1.63558877 C28.5243404,1.59908608 28.646016,1.59604419 28.731189,1.6264631 L33.9875769,1.58996041 C34.462112,1.52912258 34.851474,1.54433204 35.1556632,1.63558877 C35.4598523,1.72684551 35.6484495,1.82722792 35.7214549,1.936736 L35.830963,2.11924947 Z" id="vk" fill="#000000" sketch:type="MSShapeGroup"></path>
    </g>
</svg>