<?xml version="1.0" encoding="UTF-8" standalone="no"?>
<svg width="62px" height="62px" viewBox="0 0 62 62" version="1.1" xmlns="http://www.w3.org/2000/svg" xmlns:xlink="http://www.w3.org/1999/xlink" xmlns:sketch="http://www.bohemiancoding.com/sketch/ns">
    <!-- Generator: Sketch 3.3.3 (12072) - http://www.bohemiancoding.com/sketch -->
    <title>xmind</title>
    <desc>Created with Sketch.</desc>
    <defs></defs>
    <g id="Page-1" stroke="none" stroke-width="1" fill="none" fill-rule="evenodd" sketch:type="MSPage">
        <path d="M61.4146435,50.5749873 C61.4296435,52.1549873 60.3686435,53.4169873 58.8716435,53.6809873 C50.3616435,55.1799873 41.8506435,56.6729873 33.3396435,58.1709873 C26.2516435,59.4189873 19.1636435,60.6699873 12.0756435,61.9249873 C10.3796435,62.2259873 8.83164353,61.1619873 8.52864353,59.4469873 C7.02864353,50.9369873 5.53664353,42.4259873 4.03764353,33.9149873 C2.78964353,26.8269873 1.53864353,19.7389873 0.285643526,12.6509873 C-0.0143564735,10.9469873 1.04364353,9.40798728 2.76364353,9.10398728 C10.5616435,7.72798728 18.3626435,6.36398728 26.1616435,4.98898728 C33.7776435,3.64498728 41.3946435,2.30398728 49.0056435,0.933987277 C50.3396435,0.692987277 51.5756435,0.760987277 52.4186435,1.90898728 C52.8366435,2.47698728 53.0756435,3.23898728 53.2016435,3.94898728 C55.1836435,15.0759873 57.1316435,26.2089873 59.0906435,37.3389873 C59.8446435,41.6249873 60.6056435,45.9089873 61.3626435,50.1939873 C61.3916435,50.3569873 61.4076435,50.5199873 61.4146435,50.5749873 L61.4146435,50.5749873 Z M50.1026435,20.4489873 C50.0906435,20.3049873 50.0776435,20.1619873 50.0676435,20.0169873 C49.8926435,17.6509873 49.3736435,17.2179873 47.0066435,17.5939873 C44.6856435,17.9619873 42.3726435,18.3839873 40.0576435,18.7919873 C39.3896435,18.9089873 38.7116435,19.0079873 38.0656435,19.2049873 C37.3716435,19.4159873 37.2636435,19.6889873 37.4456435,20.3749873 C37.6106435,20.9919873 37.7986435,21.6039873 37.9516435,22.2229873 C38.3486435,23.8269873 37.8016435,25.0039873 36.2696435,25.6249873 C34.4876435,26.3449873 32.6226435,26.5479873 30.7456435,26.0819873 C27.7316435,25.3339873 25.7886435,23.3199873 24.5276435,20.5809873 C24.1056435,19.6659873 23.8056435,18.6949873 23.4216435,17.7619873 C23.1246435,17.0399873 22.8956435,16.9259873 22.1236435,17.0579873 C19.0556435,17.5859873 15.9866435,18.1099873 12.9216435,18.6579873 C12.0726435,18.8109873 11.2196435,18.9879873 10.3996435,19.2529873 C9.67564353,19.4849873 9.54064353,19.8559873 9.68864353,20.5929873 C10.0856435,22.5649873 11.0656435,24.2009873 12.5316435,25.5569873 C13.9606435,26.8799873 15.6396435,27.8029873 17.4236435,28.5379873 C19.0436435,29.2049873 20.7036435,29.7759873 22.3086435,30.4759873 C22.7966435,30.6879873 23.1596435,31.1869873 23.5806435,31.5549873 C23.1716435,31.9009873 22.8116435,32.3489873 22.3446435,32.5739873 C21.0996435,33.1699873 19.8036435,33.6579873 18.5366435,34.2089873 C16.4286435,35.1289873 14.3906435,36.1669873 12.7386435,37.8209873 C11.0586435,39.5019873 10.3066435,41.5079873 10.5806435,43.8919873 C10.6466435,44.4659873 10.9156435,44.7339873 11.4606435,44.6689873 C12.2786435,44.5739873 13.0936435,44.4449873 13.9036435,44.2999873 C16.3596435,43.8599873 18.8156435,43.4249873 21.2646435,42.9479873 C22.3026435,42.7449873 22.4386435,42.5459873 22.5576435,41.5239873 C22.5996435,41.1539873 22.6396435,40.7829873 22.6516435,40.4139873 C22.7676435,36.9279873 24.9226435,34.5969873 28.3976435,34.2789873 C33.4126435,33.8189873 39.5176435,36.3389873 41.2416435,42.6299873 C41.6336435,44.0609873 42.1026435,44.2749873 43.5806435,44.0049873 C45.3446435,43.6829873 47.1116435,43.3709873 48.8776435,43.0559873 C50.7246435,42.7249873 52.5736435,42.4059873 54.4166435,42.0579873 C55.3956435,41.8739873 55.5736435,41.5889873 55.4106435,40.6639873 C55.0446435,38.5809873 54.0416435,36.8359873 52.5896435,35.3279873 C51.3316435,34.0219873 49.8776435,32.9619873 48.2716435,32.1409873 C46.4536435,31.2119873 44.5856435,30.3859873 42.7456435,29.5019873 C42.3196435,29.2979873 41.8966435,29.0689873 41.5176435,28.7909873 C41.0806435,28.4689873 41.1086435,28.0669873 41.5876435,27.8109873 C41.9836435,27.6009873 42.4266435,27.4769873 42.8526435,27.3249873 C44.3236435,26.7969873 45.8626435,26.4109873 47.2516435,25.7209873 C49.3696435,24.6679873 50.2256435,22.7869873 50.1026435,20.4489873 L50.1026435,20.4489873 Z" id="xmind" fill="#4A4A4A" sketch:type="MSShapeGroup"></path>
    </g>
</svg>