<?xml version="1.0" encoding="UTF-8" standalone="no"?>
<svg width="18px" height="21px" viewBox="0 0 18 21" version="1.1" xmlns="http://www.w3.org/2000/svg" xmlns:xlink="http://www.w3.org/1999/xlink" xmlns:sketch="http://www.bohemiancoding.com/sketch/ns">
    <!-- Generator: Sketch 3.3.3 (12072) - http://www.bohemiancoding.com/sketch -->
    <title>youtube</title>
    <desc>Created with Sketch.</desc>
    <defs></defs>
    <g id="Page-1" stroke="none" stroke-width="1" fill="none" fill-rule="evenodd" sketch:type="MSPage">
        <path d="M11.1485306,14.5587143 L11.1485306,16.913625 C11.1485306,17.4121369 11.0034413,17.6613929 10.7132627,17.6613929 C10.5421318,17.6613929 10.3747211,17.5795476 10.2110306,17.4158571 L10.2110306,14.0564821 C10.3747211,13.8927917 10.5421318,13.8109464 10.7132627,13.8109464 C11.0034413,13.8109464 11.1485306,14.0602024 11.1485306,14.5587143 L11.1485306,14.5587143 Z M14.920852,14.569875 L14.920852,15.0832679 L13.9163877,15.0832679 L13.9163877,14.569875 C13.9163877,14.0639226 14.0837984,13.8109464 14.4186199,13.8109464 C14.7534413,13.8109464 14.920852,14.0639226 14.920852,14.569875 L14.920852,14.569875 Z M4.139602,12.1368393 L5.33379843,12.1368393 L5.33379843,11.0877321 L1.85165558,11.0877321 L1.85165558,12.1368393 L3.02353058,12.1368393 L3.02353058,18.4872857 L4.139602,18.4872857 L4.139602,12.1368393 L4.139602,12.1368393 Z M7.35388772,18.4872857 L8.34719129,18.4872857 L8.34719129,12.9738929 L7.35388772,12.9738929 L7.35388772,17.1926429 C7.13067343,17.5051429 6.91861986,17.6613929 6.717727,17.6613929 C6.58379843,17.6613929 6.50567343,17.5832679 6.483352,17.4270179 C6.47591153,17.4046964 6.47219129,17.2744881 6.47219129,17.0363929 L6.47219129,12.9738929 L5.47888772,12.9738929 L5.47888772,17.3377321 C5.47888772,17.7023155 5.50864962,17.9738929 5.56817343,18.1524643 C5.65745915,18.4277619 5.87323296,18.5654107 6.21549486,18.5654107 C6.57263772,18.5654107 6.952102,18.3384762 7.35388772,17.8846071 L7.35388772,18.4872857 L7.35388772,18.4872857 Z M12.1418341,16.8355 L12.1418341,14.6368393 C12.1418341,14.0936845 12.108352,13.725381 12.0413877,13.5319286 C11.9148996,13.1152619 11.6507627,12.9069286 11.248977,12.9069286 C10.8769532,12.9069286 10.5309711,13.1078214 10.2110306,13.5096071 L10.2110306,11.0877321 L9.217727,11.0877321 L9.217727,18.4872857 L10.2110306,18.4872857 L10.2110306,17.9515714 C10.545852,18.3607976 10.8918341,18.5654107 11.248977,18.5654107 C11.6507627,18.5654107 11.9148996,18.3607976 12.0413877,17.9515714 C12.108352,17.7506786 12.1418341,17.3786548 12.1418341,16.8355 L12.1418341,16.8355 Z M15.9141556,16.7238929 L15.9141556,16.5788036 L14.8985306,16.5788036 C14.8985306,16.9582679 14.8910901,17.1852024 14.8762091,17.2596071 C14.8241258,17.5274643 14.6753163,17.6613929 14.4297806,17.6613929 C14.0875187,17.6613929 13.9163877,17.4046964 13.9163877,16.8913036 L13.9163877,15.9203214 L15.9141556,15.9203214 L15.9141556,14.7707679 C15.9141556,14.1829702 15.8137091,13.7514226 15.6128163,13.476125 C15.3226377,13.0966607 14.9282925,12.9069286 14.4297806,12.9069286 C13.9238282,12.9069286 13.5257627,13.0966607 13.2355841,13.476125 C13.0272508,13.7514226 12.9230841,14.1829702 12.9230841,14.7707679 L12.9230841,16.7015714 C12.9230841,17.289369 13.0309711,17.7209167 13.2467449,17.9962143 C13.5369234,18.3756786 13.9387091,18.5654107 14.452102,18.5654107 C14.9878163,18.5654107 15.389602,18.3682381 15.6574591,17.9738929 C15.7913877,17.773 15.8695127,17.5721071 15.8918341,17.3712143 C15.9067151,17.30425 15.9141556,17.0884762 15.9141556,16.7238929 L15.9141556,16.7238929 Z M9.12844129,6.53416071 L9.12844129,4.19041071 C9.12844129,3.67701786 8.96847105,3.42032143 8.64853058,3.42032143 C8.3285901,3.42032143 8.16861986,3.67701786 8.16861986,4.19041071 L8.16861986,6.53416071 C8.16861986,7.05499405 8.3285901,7.31541071 8.64853058,7.31541071 C8.96847105,7.31541071 9.12844129,7.05499405 9.12844129,6.53416071 L9.12844129,6.53416071 Z M17.1529949,14.9158571 C17.1529949,16.6569286 17.0562687,17.9590119 16.8628163,18.8221071 C16.7586496,19.2610952 16.5428758,19.6293988 16.2154949,19.9270179 C15.8881139,20.2246369 15.5086496,20.3957679 15.077102,20.4404107 C13.7080544,20.5966607 11.6433222,20.6747857 8.88290558,20.6747857 C6.12248891,20.6747857 4.05775677,20.5966607 2.68870915,20.4404107 C2.25716153,20.3957679 1.87583712,20.2246369 1.54473593,19.9270179 C1.21363474,19.6293988 0.999721052,19.2610952 0.902994861,18.8221071 C0.70954248,17.9887738 0.61281629,16.6866905 0.61281629,14.9158571 C0.61281629,13.1747857 0.70954248,11.8727024 0.902994861,11.0096071 C1.00716153,10.570619 1.22293534,10.2023155 1.55031629,9.90469643 C1.87769724,9.60707738 2.26088177,9.43222619 2.69986986,9.38014286 C4.061477,9.23133333 6.12248891,9.15692857 8.88290558,9.15692857 C11.6433222,9.15692857 13.7080544,9.23133333 15.077102,9.38014286 C15.5086496,9.43222619 15.889974,9.60707738 16.2210752,9.90469643 C16.5521764,10.2023155 16.7660901,10.570619 16.8628163,11.0096071 C17.0562687,11.8429405 17.1529949,13.1450238 17.1529949,14.9158571 L17.1529949,14.9158571 Z M6.014602,0.674785714 L7.15299486,0.674785714 L5.80254843,5.12791071 L5.80254843,8.15246429 L4.686477,8.15246429 L4.686477,5.12791071 C4.58231034,4.57731548 4.35537581,3.788625 4.00567343,2.76183929 C3.73037581,1.99547024 3.48856034,1.29978571 3.280227,0.674785714 L4.46326272,0.674785714 L5.25567343,3.61005357 L6.014602,0.674785714 Z M10.1440663,4.39130357 L10.1440663,6.34442857 C10.1440663,6.94710714 10.0398996,7.38609524 9.83156629,7.66139286 C9.55626867,8.04085714 9.16192343,8.23058929 8.64853058,8.23058929 C8.15001867,8.23058929 7.75939367,8.04085714 7.47665558,7.66139286 C7.26832224,7.37865476 7.16415558,6.93966667 7.16415558,6.34442857 L7.16415558,4.39130357 C7.16415558,3.79606548 7.26832224,3.36079762 7.47665558,3.0855 C7.75939367,2.70603571 8.15001867,2.51630357 8.64853058,2.51630357 C9.16192343,2.51630357 9.55626867,2.70603571 9.83156629,3.0855 C10.0398996,3.36079762 10.1440663,3.79606548 10.1440663,4.39130357 L10.1440663,4.39130357 Z M13.8829056,2.58326786 L13.8829056,8.15246429 L12.8672806,8.15246429 L12.8672806,7.538625 C12.4729353,7.99993452 12.0897508,8.23058929 11.717727,8.23058929 C11.3754651,8.23058929 11.1559711,8.09294048 11.0592449,7.81764286 C10.9997211,7.63907143 10.9699591,7.36005357 10.9699591,6.98058929 L10.9699591,2.58326786 L11.9855841,2.58326786 L11.9855841,6.67925 C11.9855841,6.92478571 11.9893044,7.05499405 11.9967449,7.069875 C12.0190663,7.23356548 12.0971913,7.31541071 12.2311199,7.31541071 C12.4320127,7.31541071 12.6440663,7.15544048 12.8672806,6.8355 L12.8672806,2.58326786 L13.8829056,2.58326786 L13.8829056,2.58326786 Z" id="youtube" fill="#000000" sketch:type="MSShapeGroup"></path>
    </g>
</svg>