<svg xmlns="http://www.w3.org/2000/svg" preserveAspectRatio="xMidYMid" width="38.56" height="57.9" viewBox="0 0 38.56 57.9"><defs><style>.cls-1 { fill: url(#linear-gradient-1); fill-rule: evenodd; }</style><linearGradient id="linear-gradient-1" gradientUnits="userSpaceOnUse" x1="8.743" y1="57.9" x2="29.817"><stop offset="0" stop-color="#20d8a2"/><stop offset="1" stop-color="#21e0c7"/></linearGradient></defs><path d="M28.92 19.29c0 5.312-4.33 9.643-9.64 9.643-5.312 0-9.643-4.33-9.643-9.642 0-5.31 4.33-9.64 9.642-9.64 5.31 0 9.64 4.33 9.64 9.64zm9.642 0C38.562 8.633 29.937.01 19.28.01 8.62.008-.006 8.632-.006 19.29c0 2.3.23 4.334 1.243 6.743 3.933 9.18 18.04 31.825 18.04 31.825s14.667-24.536 18.04-31.825c1.16-2.373 1.244-4.444 1.244-6.742z" class="cls-1"/></svg>