<svg xmlns="http://www.w3.org/2000/svg" preserveAspectRatio="xMidYMid" width="109" height="8.563" viewBox="0 0 109 8.563"><defs><style>.cls-1 { fill: #fff; fill-rule: evenodd; }</style></defs><path d="M105.658 6.07h-1.667v2.4h-1.894V.073h3.562c2.135 0 3.36 1.055 3.36 2.914 0 1.955-1.225 3.083-3.36 3.083zm-.096-4.425h-1.57v2.842h1.57c1.056 0 1.656-.48 1.656-1.44 0-.935-.6-1.402-1.656-1.402zM89.434 8.553c-2.326 0-3.813-1.38-3.813-3.598V.075h1.895v4.88c0 1.21.792 1.943 1.92 1.943 1.127 0 1.87-.732 1.87-1.943V.075H93.2v4.88c0 2.22-1.45 3.598-3.766 3.598zm-24.54-.084H63V1.68h-2.555V.074h7.016V1.68h-2.565v6.79zm-14.352 0l-1.33-2.4H47.28v2.4h-1.896V.073h3.647c2.195 0 3.443 1.055 3.443 2.914 0 1.296-.552 2.23-1.57 2.71l1.785 2.77h-2.146zm-1.51-6.825H47.28v2.842h1.75c1.044 0 1.644-.48 1.644-1.44 0-.935-.6-1.402-1.643-1.402zm-16.345.408L30.072 8.47h-1.955L31.763.073h1.955l3.586 8.395h-2.027l-2.59-6.417zM19.163 8.47h-1.895V1.68h-2.555V.074h7.016V1.68h-2.567v6.79zM3.72 8.53C2.34 8.53.96 8 .012 7.197L.77 5.65c.862.768 2.086 1.26 2.973 1.26.78 0 1.248-.288 1.248-.803 0-1.584-4.473-.66-4.473-3.634C.517.95 1.824-.01 3.767-.01c1.175 0 2.35.36 3.19.91l-.73 1.573c-.89-.53-1.944-.864-2.616-.864-.635 0-1.066.227-1.066.682 0 1.548 4.473.684 4.46 3.706C7.005 7.64 5.58 8.53 3.72 8.53z" class="cls-1"/></svg>