<svg xmlns="http://www.w3.org/2000/svg" xmlns:xlink="http://www.w3.org/1999/xlink" preserveAspectRatio="xMidYMid" width="193.24" height="41" viewBox="0 0 193.24 41">
  <defs>
    <style>
      .cls-1 {
        fill: #fff;
        fill-rule: evenodd;
      }
    </style>
  </defs>
  <path d="M193.078,35.758 C192.893,35.827 192.741,35.748 192.605,35.613 C192.100,35.115 191.722,34.517 191.303,33.952 C189.825,31.958 188.352,29.962 186.880,27.964 C186.656,27.659 186.451,27.341 186.235,27.030 C186.168,26.933 186.141,26.755 185.975,26.810 C185.840,26.855 185.900,27.001 185.900,27.106 C185.903,29.841 185.906,32.574 185.910,35.309 C185.910,35.527 185.987,35.791 185.630,35.792 C185.269,35.794 185.306,35.545 185.307,35.291 C185.315,33.692 185.311,32.093 185.312,30.493 C185.313,28.894 185.313,27.295 185.313,25.697 C185.313,25.532 185.214,25.336 185.468,25.260 C185.690,25.195 185.847,25.313 185.966,25.464 C186.318,25.911 186.661,26.364 186.995,26.823 C187.722,27.818 188.446,28.814 189.162,29.817 C189.903,30.856 190.710,31.845 191.424,32.906 C191.699,33.317 192.022,33.709 192.320,34.113 C192.372,34.183 192.423,34.294 192.542,34.245 C192.652,34.201 192.630,34.090 192.629,33.996 C192.624,31.230 192.620,28.464 192.609,25.698 C192.609,25.468 192.550,25.233 192.908,25.241 C193.244,25.248 193.213,25.460 193.213,25.703 C193.205,28.917 193.208,32.131 193.209,35.345 C193.209,35.498 193.282,35.683 193.078,35.758 ZM192.762,6.547 C191.387,6.535 190.011,6.553 188.636,6.530 C188.257,6.524 188.146,6.626 188.150,7.012 C188.169,9.187 188.159,11.362 188.158,13.537 C188.158,15.729 188.149,17.920 188.167,20.111 C188.169,20.443 188.076,20.531 187.764,20.515 C187.333,20.493 186.900,20.500 186.469,20.514 C186.175,20.524 186.057,20.461 186.059,20.115 C186.077,15.732 186.071,11.349 186.086,6.967 C186.087,6.566 185.893,6.532 185.582,6.534 C184.158,6.542 182.734,6.527 181.311,6.548 C180.975,6.553 180.843,6.480 180.876,6.127 C180.906,5.794 180.897,5.455 180.876,5.121 C180.859,4.835 180.934,4.733 181.249,4.734 C185.087,4.747 188.926,4.746 192.764,4.737 C193.088,4.736 193.242,4.807 193.206,5.166 C193.175,5.483 193.172,5.808 193.206,6.124 C193.246,6.492 193.076,6.550 192.762,6.547 ZM172.321,18.765 C174.528,18.753 176.734,18.768 178.941,18.747 C179.360,18.744 179.534,18.830 179.461,19.277 C179.418,19.542 179.421,19.824 179.458,20.091 C179.513,20.463 179.342,20.516 179.026,20.515 C176.100,20.507 173.173,20.509 170.247,20.512 C169.981,20.512 169.802,20.509 169.804,20.138 C169.822,17.628 169.813,15.117 169.814,12.607 C169.815,10.112 169.821,7.617 169.807,5.122 C169.805,4.814 169.914,4.736 170.194,4.736 C173.152,4.740 176.111,4.740 179.068,4.736 C179.341,4.735 179.488,4.804 179.462,5.118 C179.436,5.452 179.425,5.792 179.462,6.124 C179.502,6.477 179.339,6.524 179.049,6.522 C176.858,6.514 174.667,6.526 172.477,6.504 C172.032,6.500 171.880,6.590 171.895,7.080 C171.938,8.438 171.925,9.798 171.898,11.157 C171.890,11.599 171.983,11.761 172.469,11.752 C174.164,11.719 175.860,11.746 177.554,11.732 C177.947,11.728 178.076,11.828 178.048,12.252 C177.971,13.415 177.994,13.417 176.835,13.417 C175.364,13.417 173.892,13.433 172.421,13.406 C171.976,13.398 171.894,13.556 171.901,13.964 C171.926,15.418 171.927,16.875 171.901,18.329 C171.895,18.682 171.988,18.767 172.321,18.765 ZM172.025,25.184 C173.272,25.158 174.413,25.396 175.382,26.225 C176.184,26.911 176.686,27.767 176.937,28.798 C177.074,29.361 177.183,29.916 177.160,30.458 C177.200,31.821 176.847,33.040 176.072,34.109 C175.580,34.788 174.903,35.247 174.101,35.551 C173.073,35.938 172.011,35.934 170.992,35.733 C169.550,35.448 168.391,34.608 167.816,33.223 C167.159,31.642 167.085,29.960 167.650,28.347 C168.345,26.367 169.833,25.229 172.025,25.184 ZM168.139,30.591 C168.050,31.295 168.194,32.079 168.524,32.812 C169.061,34.007 169.941,34.797 171.263,35.088 C172.788,35.426 174.124,35.102 175.187,33.974 C176.670,32.400 176.713,29.605 175.781,27.880 C174.494,25.496 171.399,25.170 169.553,26.791 C168.460,27.750 168.061,29.042 168.139,30.591 ZM166.759,20.504 C166.440,20.526 166.117,20.488 165.800,20.516 C165.319,20.558 164.959,20.332 164.671,20.005 C163.330,18.483 161.987,16.962 160.685,15.407 C160.116,14.728 159.550,14.055 158.875,13.479 C158.693,13.323 157.427,13.197 157.257,13.327 C157.120,13.432 157.162,13.587 157.162,13.728 C157.161,15.839 157.150,17.952 157.172,20.063 C157.175,20.432 157.086,20.544 156.721,20.517 C156.291,20.486 155.858,20.504 155.426,20.517 C155.135,20.526 155.051,20.420 155.052,20.120 C155.066,17.624 155.060,15.129 155.061,12.633 C155.061,10.137 155.068,7.641 155.053,5.145 C155.052,4.815 155.163,4.724 155.468,4.736 C155.899,4.752 156.332,4.762 156.762,4.736 C157.087,4.715 157.169,4.827 157.167,5.144 C157.153,7.144 157.171,9.144 157.147,11.144 C157.142,11.597 157.286,11.706 157.724,11.703 C158.253,11.701 158.682,11.542 159.028,11.164 C160.009,10.094 161.010,9.042 161.891,7.884 C162.214,7.459 162.658,7.141 163.009,6.728 C163.437,6.225 163.846,5.700 164.332,5.243 C164.655,4.939 164.995,4.752 165.433,4.745 C165.881,4.737 166.329,4.736 166.777,4.735 C166.884,4.735 167.014,4.702 167.064,4.841 C167.106,4.956 166.997,4.999 166.936,5.069 C166.240,5.852 165.546,6.637 164.853,7.423 C164.081,8.300 163.335,9.201 162.532,10.048 C161.905,10.711 161.407,11.494 160.675,12.053 C160.465,12.213 160.476,12.324 160.662,12.451 C161.486,13.014 162.008,13.856 162.648,14.588 C163.442,15.498 164.218,16.423 164.993,17.349 C165.698,18.191 166.388,19.046 167.085,19.895 C167.095,19.907 167.104,19.921 167.110,19.935 C167.186,20.143 167.603,20.192 167.478,20.420 C167.348,20.654 167.005,20.488 166.759,20.504 ZM148.936,11.825 C150.044,12.252 151.128,12.764 151.692,13.889 C152.083,14.673 152.243,15.512 152.052,16.424 C151.880,17.246 151.678,18.028 151.179,18.715 C150.661,19.428 150.000,19.923 149.174,20.255 C147.829,20.795 146.453,20.777 145.094,20.487 C143.920,20.237 142.859,19.666 141.970,18.825 C141.859,18.721 141.855,18.592 141.909,18.475 C141.978,18.326 142.064,18.177 142.171,18.053 C142.889,17.224 142.875,17.253 143.851,17.865 C144.664,18.374 145.520,18.827 146.502,18.921 C148.164,19.078 150.021,18.019 150.104,16.168 C150.154,15.061 149.693,14.668 148.753,14.085 C147.684,13.421 146.425,13.261 145.270,12.827 C143.830,12.289 142.682,11.190 142.592,9.383 C142.545,8.450 142.645,7.558 143.125,6.769 C143.595,5.996 144.231,5.353 145.103,5.011 C145.867,4.712 146.660,4.561 147.491,4.616 C148.812,4.533 149.998,4.974 151.124,5.620 C151.326,5.736 151.421,5.986 151.669,6.071 C151.777,6.107 151.730,6.286 151.690,6.373 C151.552,6.669 151.410,6.967 151.229,7.238 C150.939,7.674 150.746,7.690 150.283,7.402 C149.349,6.822 148.419,6.219 147.242,6.337 C146.163,6.445 145.206,6.833 144.747,7.867 C144.302,8.869 144.502,9.903 145.671,10.574 C146.698,11.162 147.848,11.406 148.936,11.825 ZM140.872,20.523 C140.648,20.522 140.425,20.522 140.201,20.522 C140.201,20.518 140.201,20.514 140.201,20.510 C140.105,20.510 140.007,20.496 139.913,20.512 C139.286,20.619 138.873,20.304 138.689,19.764 C138.361,18.806 137.856,17.918 137.605,16.932 C137.427,16.231 137.341,16.173 136.640,16.173 C134.673,16.171 132.705,16.172 130.737,16.163 C130.361,16.162 130.207,16.314 130.084,16.689 C129.785,17.602 129.398,18.486 129.047,19.382 C128.988,19.529 128.942,19.682 128.876,19.826 C128.709,20.193 128.470,20.488 128.033,20.506 C127.585,20.524 127.137,20.511 126.689,20.514 C126.445,20.517 126.379,20.430 126.477,20.193 C126.805,19.398 127.052,18.567 127.469,17.813 C127.727,17.346 127.800,16.819 128.032,16.344 C128.289,15.818 128.460,15.250 128.710,14.720 C129.052,13.993 129.238,13.211 129.551,12.472 C129.763,11.973 130.009,11.487 130.221,10.989 C130.347,10.693 130.337,10.373 130.518,10.076 C130.821,9.582 130.996,9.008 131.211,8.462 C131.503,7.719 131.804,6.978 132.059,6.222 C132.214,5.761 132.477,5.344 132.570,4.856 C132.600,4.701 132.802,4.736 132.945,4.736 C133.473,4.740 134.001,4.753 134.528,4.731 C134.783,4.721 134.900,4.815 134.990,5.041 C135.367,5.994 135.757,6.941 136.145,7.890 C136.436,8.601 136.737,9.309 137.020,10.024 C137.389,10.954 137.740,11.893 138.105,12.824 C138.464,13.738 138.827,14.649 139.194,15.559 C139.586,16.530 139.983,17.498 140.378,18.466 C140.610,19.034 140.832,19.606 141.081,20.164 C141.196,20.420 141.150,20.523 140.872,20.523 ZM136.593,14.252 C136.245,13.336 135.869,12.432 135.515,11.519 C135.030,10.266 134.564,9.006 134.071,7.757 C133.982,7.531 134.001,7.137 133.757,7.120 C133.525,7.105 133.683,7.505 133.548,7.679 C133.529,7.704 133.513,7.733 133.503,7.763 C133.182,8.704 132.820,9.628 132.444,10.548 C131.944,11.776 131.503,13.027 131.015,14.260 C130.884,14.592 130.955,14.696 131.299,14.692 C132.130,14.683 132.960,14.690 133.791,14.690 C133.791,14.690 133.791,14.692 133.791,14.693 C134.622,14.693 135.453,14.676 136.283,14.701 C136.676,14.713 136.687,14.501 136.593,14.252 ZM119.904,20.506 C118.097,20.515 116.290,20.499 114.483,20.519 C114.064,20.523 113.954,20.408 113.959,19.978 C113.983,17.532 113.971,15.085 113.971,12.639 C113.970,12.639 113.967,12.639 113.967,12.639 C113.967,10.145 113.973,7.650 113.959,5.156 C113.958,4.827 114.082,4.736 114.377,4.738 C116.296,4.750 118.219,4.672 120.130,4.791 C121.476,4.873 122.787,5.247 123.761,6.334 C124.259,6.891 124.429,7.561 124.545,8.260 C124.725,9.354 124.414,10.332 123.737,11.172 C123.367,11.633 122.863,11.970 122.288,12.179 C122.167,12.223 121.947,12.200 121.945,12.380 C121.943,12.594 122.159,12.496 122.279,12.535 C123.376,12.885 124.352,13.423 124.836,14.524 C125.076,15.071 125.198,15.683 125.134,16.301 C124.965,17.925 124.212,19.182 122.718,19.888 C121.841,20.302 120.883,20.500 119.904,20.506 ZM122.388,8.690 C122.219,7.443 121.383,6.641 120.140,6.524 C118.962,6.413 117.784,6.452 116.606,6.427 C116.246,6.419 116.135,6.544 116.148,6.901 C116.173,7.635 116.156,8.370 116.156,9.104 C116.154,9.104 116.152,9.104 116.151,9.104 C116.151,9.870 116.163,10.636 116.145,11.402 C116.138,11.678 116.227,11.772 116.495,11.769 C117.596,11.757 118.698,11.759 119.800,11.749 C120.271,11.745 120.707,11.565 121.106,11.351 C122.169,10.785 122.549,9.874 122.388,8.690 ZM122.658,14.690 C122.118,13.694 121.130,13.421 120.114,13.348 C118.953,13.264 117.784,13.313 116.619,13.282 C116.272,13.273 116.134,13.364 116.147,13.736 C116.173,14.501 116.154,15.268 116.154,16.036 C116.157,16.036 116.158,16.036 116.160,16.036 C116.160,16.803 116.186,17.571 116.149,18.336 C116.130,18.701 116.252,18.767 116.576,18.763 C117.614,18.746 118.652,18.751 119.691,18.756 C120.251,18.759 120.788,18.707 121.327,18.503 C122.996,17.873 123.339,15.947 122.658,14.690 ZM116.959,25.265 C118.817,25.342 120.243,26.225 121.035,27.900 C121.606,29.109 121.680,30.434 121.435,31.774 C121.216,32.969 120.724,33.997 119.775,34.760 C118.855,35.501 117.766,35.783 116.594,35.780 C115.476,35.778 114.357,35.771 113.239,35.789 C112.904,35.795 112.844,35.667 112.847,35.364 C112.861,33.734 112.853,32.103 112.853,30.473 C112.852,28.859 112.861,27.245 112.844,25.631 C112.842,25.330 112.926,25.242 113.220,25.245 C114.466,25.259 115.715,25.212 116.959,25.265 ZM113.627,26.367 C113.642,27.759 113.633,29.151 113.633,30.543 C113.633,31.934 113.631,33.326 113.634,34.717 C113.635,34.933 113.580,35.205 113.940,35.181 C115.182,35.100 116.430,35.281 117.669,35.013 C119.314,34.657 120.227,33.438 120.572,32.130 C120.905,30.865 120.871,29.585 120.372,28.347 C119.850,27.050 118.906,26.249 117.530,26.015 C116.389,25.820 115.231,25.991 114.083,25.920 C113.690,25.896 113.623,26.021 113.627,26.367 ZM109.066,20.049 C109.066,20.566 108.893,20.670 108.432,20.398 C107.861,20.062 107.559,19.479 107.202,18.960 C106.788,18.355 106.333,17.785 105.892,17.203 C105.316,16.446 104.800,15.641 104.189,14.909 C103.272,13.810 102.481,12.617 101.609,11.484 C100.543,10.097 99.500,8.688 98.488,7.259 C98.368,7.091 98.268,6.912 98.054,6.964 C97.811,7.022 97.916,7.252 97.916,7.412 C97.916,11.652 97.914,15.891 97.930,20.131 C97.931,20.521 97.686,20.414 97.488,20.448 C97.216,20.494 97.177,20.362 97.178,20.120 C97.186,15.224 97.184,10.329 97.186,5.434 C97.187,5.302 97.103,5.093 97.305,5.075 C97.579,5.050 97.869,4.997 98.086,5.292 C98.850,6.329 99.636,7.348 100.406,8.380 C102.314,10.939 104.207,13.508 106.129,16.057 C106.664,16.768 107.204,17.475 107.715,18.203 C107.796,18.317 107.852,18.543 108.060,18.470 C108.251,18.403 108.194,18.203 108.194,18.050 C108.192,15.394 108.188,12.739 108.186,10.083 C108.186,8.548 108.186,7.012 108.189,5.476 C108.189,5.291 108.087,4.989 108.451,5.077 C108.681,5.132 109.093,4.823 109.082,5.459 C109.042,7.907 109.066,10.354 109.066,12.802 C109.066,15.218 109.066,17.634 109.066,20.049 ZM101.485,31.783 C102.030,32.527 102.624,33.233 103.097,34.028 C103.143,34.105 103.163,34.221 103.301,34.152 C103.397,34.104 103.441,34.040 103.432,33.927 C103.314,32.572 103.398,31.214 103.382,29.858 C103.367,28.451 103.385,27.044 103.372,25.638 C103.370,25.372 103.378,25.220 103.715,25.242 C103.988,25.260 104.151,25.257 104.147,25.620 C104.125,27.235 104.137,28.850 104.137,30.465 C104.136,30.465 104.134,30.465 104.133,30.465 C104.133,32.079 104.133,33.694 104.132,35.308 C104.132,35.487 104.225,35.707 103.948,35.782 C103.711,35.846 103.559,35.718 103.418,35.555 C102.606,34.617 101.919,33.587 101.197,32.580 C100.315,31.350 99.346,30.178 98.499,28.924 C98.049,28.257 97.410,27.727 97.100,26.965 C97.069,26.888 96.990,26.834 96.906,26.858 C96.729,26.909 96.794,27.062 96.794,27.180 C96.795,28.267 96.801,29.354 96.803,30.441 C96.805,32.087 96.796,33.734 96.814,35.381 C96.817,35.685 96.705,35.774 96.435,35.792 C96.112,35.812 96.128,35.612 96.128,35.387 C96.132,32.158 96.131,28.928 96.134,25.699 C96.135,25.538 96.031,25.306 96.281,25.259 C96.472,25.224 96.671,25.284 96.809,25.463 C97.212,25.989 97.632,26.501 98.024,27.035 C99.183,28.613 100.328,30.202 101.485,31.783 ZM91.630,20.448 C90.954,20.398 90.952,20.423 90.952,19.745 C90.952,17.379 90.952,15.014 90.952,12.648 C90.952,10.154 90.957,7.660 90.945,5.167 C90.944,4.897 90.990,4.815 91.281,4.825 C92.067,4.848 92.068,4.830 92.068,5.634 C92.068,10.430 92.063,15.224 92.077,20.020 C92.078,20.387 91.995,20.476 91.630,20.448 ZM86.905,20.192 C86.573,19.688 86.440,19.096 86.200,18.552 C85.806,17.658 85.476,16.735 85.108,15.828 C85.021,15.614 84.828,15.550 84.596,15.550 C82.278,15.554 79.959,15.552 77.640,15.551 C77.389,15.551 77.243,15.653 77.135,15.898 C76.601,17.096 76.281,18.383 75.642,19.538 C75.543,19.716 75.543,19.920 75.436,20.111 C75.206,20.522 74.860,20.445 74.520,20.438 C74.293,20.433 74.393,20.288 74.419,20.166 C74.575,19.457 74.923,18.824 75.212,18.167 C75.616,17.243 76.042,16.326 76.400,15.384 C76.684,14.631 77.024,13.898 77.288,13.143 C77.723,11.903 78.411,10.768 78.750,9.491 C78.978,8.635 79.460,7.884 79.790,7.069 C79.989,6.574 80.110,6.056 80.391,5.582 C80.669,5.111 80.600,5.071 81.214,5.071 C81.934,4.874 81.858,5.599 82.016,5.962 C82.760,7.668 83.445,9.399 84.145,11.123 C84.637,12.335 85.085,13.564 85.612,14.759 C86.286,16.287 86.824,17.872 87.549,19.378 C87.615,19.515 87.604,19.682 87.687,19.830 C87.785,20.004 87.993,20.205 87.823,20.410 C87.690,20.573 87.042,20.399 86.905,20.192 ZM84.566,14.533 C84.152,13.492 83.720,12.459 83.294,11.424 C83.013,10.741 82.739,10.056 82.446,9.377 C82.053,8.466 81.736,7.522 81.386,6.592 C81.337,6.462 81.248,6.376 81.097,6.391 C80.970,6.404 80.901,6.491 80.868,6.605 C80.821,6.773 80.797,6.940 80.723,7.105 C80.148,8.385 79.652,9.699 79.119,10.996 C78.653,12.132 78.182,13.270 77.748,14.420 C77.581,14.861 77.626,14.953 78.111,14.956 C79.103,14.962 80.095,14.958 81.087,14.957 C82.110,14.957 83.134,14.957 84.158,14.957 C84.441,14.957 84.722,14.926 84.566,14.533 ZM71.619,18.155 C72.207,18.878 72.775,19.618 73.404,20.418 C72.735,20.488 72.273,20.444 71.802,19.848 C70.799,18.577 69.744,17.343 68.764,16.053 C68.246,15.370 67.732,14.685 67.207,14.007 C66.906,13.616 66.552,13.394 66.025,13.434 C65.469,13.477 64.906,13.460 64.347,13.438 C63.967,13.422 63.813,13.524 63.818,13.946 C63.839,15.976 63.800,18.008 63.843,20.036 C63.855,20.598 63.533,20.398 63.273,20.445 C62.867,20.520 62.931,20.262 62.931,20.016 C62.934,15.172 62.937,10.328 62.926,5.483 C62.925,5.157 62.975,5.051 63.336,5.059 C64.583,5.088 65.831,5.101 67.077,5.061 C68.150,5.026 69.181,5.221 70.136,5.653 C71.026,6.057 71.626,6.778 71.870,7.780 C71.992,8.280 72.111,8.767 72.063,9.278 C71.923,10.783 71.279,11.971 69.882,12.667 C69.312,12.951 68.704,13.118 68.073,13.195 C67.960,13.208 67.842,13.197 67.794,13.327 C67.747,13.453 67.827,13.535 67.906,13.619 C69.253,15.042 70.385,16.638 71.619,18.155 ZM68.804,12.326 C69.887,11.886 70.621,11.201 70.981,10.047 C71.402,8.697 70.868,6.986 69.493,6.287 C68.983,6.029 68.416,5.920 67.854,5.830 C66.712,5.647 65.558,5.807 64.412,5.741 C63.962,5.715 63.814,5.894 63.820,6.319 C63.834,7.295 63.825,8.269 63.825,9.244 C63.825,9.244 63.826,9.244 63.826,9.244 C63.826,10.188 63.845,11.132 63.818,12.074 C63.806,12.525 63.944,12.715 64.417,12.695 C65.135,12.665 65.855,12.686 66.574,12.686 C67.337,12.686 68.077,12.622 68.804,12.326 ZM67.314,25.203 C69.386,25.375 70.691,26.559 71.336,28.472 C71.556,29.122 71.755,29.817 71.646,30.387 C71.652,31.820 71.360,33.030 70.583,34.058 C70.098,34.701 69.485,35.202 68.688,35.523 C67.599,35.961 66.496,35.903 65.426,35.721 C64.243,35.520 63.307,34.851 62.629,33.773 C61.697,32.293 61.697,30.696 61.914,29.098 C62.097,27.754 62.826,26.648 63.996,25.873 C65.017,25.198 66.153,25.108 67.314,25.203 ZM62.614,31.026 C62.715,33.172 63.949,34.736 65.809,35.119 C67.126,35.391 68.348,35.153 69.378,34.249 C70.498,33.269 70.831,31.957 70.850,31.230 C70.865,28.210 69.722,26.401 67.675,25.913 C66.136,25.545 64.256,26.185 63.388,27.516 C62.691,28.586 62.556,29.766 62.614,31.026 ZM56.119,19.971 C53.868,20.746 51.540,20.343 49.244,20.433 C48.447,20.465 48.446,20.438 48.446,19.623 C48.446,17.336 48.446,15.048 48.446,12.761 C48.445,10.329 48.452,7.897 48.437,5.466 C48.435,5.123 48.517,5.054 48.861,5.059 C50.524,5.084 52.189,5.030 53.851,5.084 C54.976,5.121 56.078,5.400 56.939,6.174 C57.658,6.821 57.896,7.718 57.942,8.672 C58.019,10.294 57.216,11.372 55.867,12.134 C55.716,12.220 55.552,12.182 55.404,12.231 C55.243,12.282 55.120,12.391 55.134,12.581 C55.149,12.772 55.302,12.802 55.449,12.802 C56.239,12.803 56.871,13.194 57.469,13.640 C58.209,14.192 58.497,14.979 58.577,15.869 C58.676,16.976 58.422,17.985 57.744,18.867 C57.328,19.407 56.767,19.749 56.119,19.971 ZM55.247,11.803 C57.107,10.969 57.416,8.631 56.511,7.209 C55.780,6.061 54.551,5.860 53.344,5.766 C52.248,5.679 51.139,5.764 50.037,5.741 C49.586,5.732 49.447,5.922 49.454,6.341 C49.469,7.236 49.459,8.131 49.460,9.026 C49.460,9.936 49.476,10.849 49.453,11.758 C49.442,12.184 49.605,12.315 50.016,12.306 C50.991,12.284 51.966,12.280 52.941,12.304 C53.756,12.324 54.509,12.132 55.247,11.803 ZM57.535,15.381 C57.048,13.807 55.794,13.207 54.302,13.026 C52.874,12.853 51.431,12.994 49.995,12.955 C49.606,12.944 49.449,13.090 49.455,13.486 C49.472,14.428 49.460,15.370 49.460,16.313 C49.460,17.239 49.479,18.167 49.452,19.092 C49.438,19.563 49.621,19.706 50.073,19.694 C51.015,19.670 51.957,19.693 52.900,19.685 C53.805,19.679 54.691,19.613 55.569,19.313 C57.210,18.754 58.003,16.894 57.535,15.381 ZM48.777,25.246 C50.537,25.262 52.297,25.251 54.056,25.257 C54.274,25.257 54.577,25.162 54.567,25.565 C54.557,25.940 54.305,25.926 54.032,25.925 C52.576,25.918 51.120,25.932 49.664,25.913 C49.278,25.907 49.130,25.996 49.141,26.420 C49.173,27.556 49.171,28.692 49.142,29.827 C49.133,30.187 49.251,30.261 49.575,30.258 C50.871,30.245 52.166,30.262 53.462,30.247 C53.761,30.243 53.891,30.292 53.897,30.632 C53.902,30.980 53.765,31.014 53.469,31.010 C52.189,30.993 50.909,31.012 49.629,30.996 C49.273,30.991 49.130,31.052 49.141,31.469 C49.179,32.780 49.146,34.092 49.165,35.404 C49.171,35.755 49.010,35.780 48.729,35.792 C48.399,35.806 48.369,35.650 48.370,35.384 C48.378,33.752 48.374,32.120 48.375,30.489 C48.375,28.872 48.385,27.257 48.367,25.642 C48.364,25.311 48.464,25.244 48.777,25.246 ZM35.501,25.682 C35.004,26.439 34.395,27.133 33.939,27.915 C33.671,28.376 33.525,28.941 33.452,29.476 C33.318,30.452 33.172,31.447 33.225,32.423 C33.308,33.962 33.240,35.529 33.646,37.029 C33.889,37.928 34.068,38.842 34.344,39.731 C34.448,40.065 34.374,40.434 34.550,40.759 C34.586,40.826 34.543,40.925 34.457,40.954 C34.162,41.055 33.855,40.985 33.553,41.000 C33.087,41.025 33.161,40.664 33.095,40.374 C32.847,39.277 32.608,38.174 32.299,37.092 C32.102,36.400 32.140,35.700 32.076,35.004 C32.003,34.213 31.979,33.415 31.858,32.631 C31.765,32.026 31.927,31.455 31.983,30.875 C32.106,29.606 32.126,28.316 32.789,27.144 C33.271,26.289 33.956,25.594 34.471,24.766 C35.285,23.456 35.944,22.087 36.414,20.613 C37.017,18.720 37.262,16.778 37.201,14.816 C37.148,13.089 36.816,11.410 35.958,9.842 C35.266,8.578 34.499,7.393 33.450,6.412 C32.464,5.491 31.463,4.549 30.237,3.976 C28.882,3.342 27.562,2.631 26.090,2.230 C23.880,1.626 21.645,1.303 19.365,1.306 C17.475,1.309 15.620,1.633 13.866,2.334 C11.702,3.199 9.863,4.573 8.396,6.377 C7.288,7.738 6.394,9.242 5.853,10.946 C5.538,11.938 5.314,12.936 5.171,13.961 C5.088,14.559 5.263,15.133 5.317,15.717 C5.432,16.962 5.394,18.202 5.104,19.405 C4.827,20.554 4.082,21.474 3.243,22.279 C2.588,22.909 2.022,23.603 1.499,24.335 C1.231,24.710 1.336,24.973 1.832,25.220 C2.462,25.535 3.065,25.905 3.564,26.390 C4.301,27.108 4.574,28.010 4.230,29.010 C4.057,29.512 4.251,29.774 4.649,29.994 C4.895,30.131 5.116,30.285 5.233,30.568 C5.343,30.836 5.251,31.027 5.078,31.210 C5.025,31.266 4.953,31.303 4.897,31.356 C4.367,31.859 4.381,31.842 4.973,32.296 C5.528,32.723 6.042,33.193 6.126,33.963 C6.162,34.288 6.156,34.573 5.972,34.872 C5.758,35.220 5.611,35.610 5.456,35.990 C5.289,36.401 5.558,36.808 6.002,36.999 C6.641,37.273 7.321,37.223 7.979,37.324 C9.580,37.570 11.203,37.599 12.805,37.447 C14.351,37.301 15.809,36.758 17.007,35.718 C17.923,34.924 18.696,33.978 19.045,32.805 C19.272,32.042 19.501,31.274 19.482,30.428 C19.419,27.774 19.458,25.117 19.460,22.461 C19.460,22.302 19.474,22.142 19.482,21.984 C18.701,21.983 17.962,22.328 17.171,22.256 C15.639,22.118 14.307,21.587 13.397,20.277 C13.210,20.007 13.036,19.980 12.755,20.074 C11.616,20.454 10.510,20.310 9.408,19.876 C7.760,19.225 6.970,17.941 6.525,16.298 C5.961,14.212 7.212,11.687 9.070,10.806 C9.323,10.686 9.380,10.539 9.383,10.293 C9.404,8.054 10.582,6.543 12.514,5.624 C13.290,5.256 14.202,5.147 15.089,5.286 C15.362,5.329 15.533,5.257 15.720,5.069 C17.077,3.706 18.756,3.504 20.539,3.818 C21.008,3.901 21.488,4.097 21.869,4.418 C22.171,4.674 22.440,4.621 22.736,4.444 C23.898,3.754 25.111,3.626 26.437,3.932 C28.020,4.299 29.158,5.209 29.764,6.646 C30.094,7.429 30.555,7.600 31.289,7.801 C32.676,8.179 33.777,9.045 34.377,10.419 C34.696,11.148 34.923,11.897 34.893,12.717 C34.858,13.649 34.578,14.497 34.115,15.287 C33.975,15.527 33.958,15.671 34.139,15.906 C34.778,16.737 35.086,17.727 35.099,18.743 C35.118,20.285 34.523,21.619 33.377,22.692 C32.630,23.390 31.725,23.694 30.744,23.810 C30.395,23.852 30.140,23.999 29.948,24.271 C29.579,24.793 29.139,25.245 28.594,25.580 C27.662,26.151 26.634,26.391 25.551,26.304 C23.624,26.150 22.171,25.176 21.091,23.609 C21.014,23.496 20.907,23.501 20.817,23.445 C20.810,25.571 20.788,27.698 20.802,29.825 C20.808,30.884 20.773,31.927 20.409,32.938 C19.933,34.262 19.265,35.467 18.236,36.438 C17.356,37.269 16.331,37.907 15.185,38.270 C14.253,38.566 13.295,38.786 12.296,38.847 C10.538,38.954 8.812,38.719 7.076,38.541 C6.414,38.472 5.772,38.346 5.159,38.079 C4.360,37.734 3.704,36.508 4.209,35.610 C4.443,35.195 4.625,34.731 4.753,34.280 C4.876,33.842 4.442,33.535 4.114,33.347 C3.138,32.786 2.914,32.259 3.359,31.255 C3.473,30.999 3.518,30.806 3.240,30.621 C2.701,30.263 2.718,29.701 2.907,29.211 C3.263,28.292 2.952,27.545 2.129,27.028 C1.473,26.616 0.718,26.330 0.263,25.627 C0.055,25.305 -0.070,25.008 0.011,24.625 C0.185,23.788 0.644,23.104 1.180,22.471 C1.602,21.974 2.058,21.502 2.532,21.055 C3.423,20.212 3.847,19.196 3.990,17.973 C4.127,16.796 3.947,15.658 3.870,14.503 C3.802,13.492 4.031,12.514 4.281,11.542 C4.429,10.967 4.532,10.378 4.762,9.829 C5.676,7.646 6.920,5.679 8.658,4.054 C9.723,3.057 10.914,2.208 12.225,1.585 C13.903,0.786 15.700,0.325 17.552,0.115 C19.349,-0.090 21.140,-0.065 22.936,0.195 C25.345,0.544 27.669,1.139 29.836,2.278 C30.680,2.720 31.514,3.166 32.294,3.730 C33.455,4.569 34.556,5.475 35.451,6.583 C36.332,7.674 37.069,8.857 37.609,10.181 C38.372,12.051 38.617,13.986 38.531,15.958 C38.457,17.639 38.201,19.304 37.709,20.937 C37.197,22.634 36.464,24.215 35.501,25.682 ZM13.119,13.808 C12.617,13.008 11.941,12.536 11.015,12.426 C10.839,12.405 10.660,12.504 10.640,12.720 C10.622,12.919 10.746,13.011 10.935,13.014 C11.134,13.018 11.302,13.116 11.481,13.184 C12.514,13.569 12.771,14.247 12.657,15.354 C12.593,15.987 11.792,16.672 11.027,16.738 C10.770,16.761 10.473,16.815 10.504,17.098 C10.540,17.431 10.865,17.462 11.149,17.397 C11.815,17.244 12.410,16.938 12.823,16.388 C13.075,16.053 13.173,16.150 13.370,16.423 C13.850,17.095 14.450,17.633 15.246,17.917 C15.461,17.993 15.789,17.812 15.783,17.602 C15.723,17.462 15.627,17.336 15.462,17.292 C14.525,17.036 14.016,16.359 13.584,15.539 C13.291,14.983 13.460,14.351 13.119,13.808 ZM18.407,6.305 C18.032,6.197 18.016,6.672 17.932,6.935 C17.727,7.576 17.343,8.021 16.722,8.313 C15.878,8.709 15.105,8.405 14.323,8.158 C14.146,8.102 14.007,8.052 13.921,8.235 C13.837,8.416 13.817,8.643 14.052,8.722 C14.350,8.824 14.626,8.975 14.957,9.013 C15.554,9.081 16.143,9.232 16.731,8.971 C16.951,8.940 17.077,9.022 17.187,9.227 C17.740,10.261 17.517,11.300 17.227,12.336 C17.151,12.607 17.083,12.878 17.395,12.982 C17.716,13.089 17.804,12.776 17.851,12.556 C17.955,12.062 18.111,11.579 18.130,11.062 C18.160,10.259 18.200,9.467 17.674,8.780 C17.557,8.628 17.645,8.530 17.746,8.409 C18.064,8.031 18.379,7.646 18.539,7.169 C18.643,6.857 18.835,6.427 18.407,6.305 ZM30.032,9.304 C29.853,9.243 29.687,9.314 29.522,9.374 C29.058,9.543 28.603,9.561 28.121,9.400 C27.435,9.168 27.007,8.684 26.694,8.072 C26.498,7.689 26.191,7.502 25.795,7.637 C24.761,7.990 23.390,7.342 23.141,6.348 C23.087,6.133 22.985,5.975 22.749,6.039 C22.469,6.115 22.523,6.344 22.572,6.552 C22.894,7.924 24.490,8.488 25.623,8.319 C25.943,8.270 26.074,8.284 26.255,8.587 C26.819,9.536 27.684,10.049 28.871,10.134 C29.156,10.083 29.520,10.036 29.875,9.948 C30.045,9.906 30.190,9.784 30.191,9.572 C30.191,9.455 30.156,9.346 30.032,9.304 ZM26.009,16.978 C26.492,15.970 27.277,15.584 28.387,15.760 C29.095,15.873 29.127,15.860 29.130,16.608 C29.162,16.851 29.123,17.132 29.274,17.406 C29.838,18.427 30.795,18.734 31.851,18.862 C32.013,18.881 32.231,18.802 32.239,18.588 C32.246,18.405 32.132,18.280 31.914,18.245 C31.556,18.187 31.201,18.101 30.852,18.002 C30.489,17.900 30.174,17.689 29.977,17.374 C29.784,17.067 29.616,16.691 29.759,16.335 C29.899,15.982 30.281,16.124 30.572,16.104 C30.619,16.101 30.668,16.106 30.715,16.102 C31.995,15.999 32.672,15.266 32.856,14.351 C32.913,14.068 32.779,13.841 32.534,13.790 C32.272,13.736 32.218,14.022 32.169,14.211 C31.912,15.199 31.468,15.545 30.448,15.545 C29.864,15.545 29.287,15.388 28.776,15.191 C27.440,14.679 26.097,15.453 25.446,16.672 C25.354,16.843 25.243,17.089 25.486,17.227 C25.737,17.371 25.900,17.207 26.009,16.978 ZM21.880,21.057 C22.440,21.305 23.022,21.438 23.626,21.299 C23.973,21.219 24.204,21.282 24.385,21.600 C24.688,22.133 24.901,22.681 24.882,23.309 C24.871,23.651 25.081,23.925 25.401,23.941 C25.658,23.954 25.882,23.690 25.827,23.410 C25.679,22.633 25.569,21.825 25.080,21.174 C24.877,20.903 24.932,20.788 25.129,20.591 C25.517,20.205 25.796,19.751 25.884,19.201 C25.920,18.933 25.810,18.740 25.556,18.692 C25.331,18.649 25.169,18.770 25.100,19.009 C25.062,19.145 24.975,19.266 24.925,19.399 C24.658,20.092 24.104,20.485 23.366,20.513 C22.959,20.530 22.582,20.442 22.204,20.291 C22.013,20.216 21.732,20.159 21.640,20.459 C21.566,20.700 21.598,20.932 21.880,21.057 ZM20.542,15.478 C20.973,15.562 21.255,15.352 21.385,14.970 C21.695,14.063 22.380,13.354 23.591,13.484 C24.024,13.530 24.350,13.393 24.679,13.128 C25.138,12.757 25.621,12.456 26.276,12.498 C26.775,12.531 27.198,12.675 27.606,12.936 C27.846,13.090 28.107,13.094 28.289,12.842 C28.482,12.572 28.297,12.414 28.083,12.261 C26.952,11.450 25.467,11.450 24.403,12.301 C24.145,12.507 23.894,12.589 23.574,12.582 C22.335,12.556 21.391,13.047 20.826,14.186 C20.693,14.454 20.534,14.590 20.158,14.539 C18.674,14.336 17.382,15.438 17.367,16.855 C17.367,16.903 17.370,16.951 17.366,16.999 C17.345,17.277 17.371,17.531 17.731,17.544 C18.113,17.559 18.139,17.321 18.144,17.005 C18.156,16.174 18.700,15.594 19.510,15.404 C19.877,15.316 20.201,15.410 20.542,15.478 ZM80.026,25.241 C80.354,25.242 80.419,25.347 80.416,25.662 C80.399,27.758 80.374,29.854 80.415,31.949 C80.457,34.054 82.036,35.464 84.038,35.189 C85.064,35.048 85.774,34.407 86.299,33.476 C86.755,32.668 86.710,31.838 86.714,30.993 C86.723,29.201 86.722,27.409 86.702,25.618 C86.699,25.280 86.868,25.254 87.113,25.246 C87.340,25.239 87.465,25.301 87.462,25.571 C87.439,27.889 87.494,30.211 87.387,32.526 C87.323,33.909 86.566,34.981 85.249,35.537 C83.975,36.075 82.721,36.027 81.485,35.339 C80.578,34.836 80.074,34.105 79.822,33.109 C79.646,32.412 79.634,31.722 79.632,31.020 C79.631,30.316 79.632,29.613 79.632,28.908 C79.631,27.821 79.646,26.732 79.623,25.645 C79.615,25.317 79.711,25.241 80.026,25.241 ZM129.306,32.303 C129.515,31.582 129.891,30.909 130.194,30.216 C130.602,29.284 130.960,28.334 131.303,27.376 C131.543,26.705 131.837,26.047 132.164,25.412 C132.280,25.189 132.602,25.353 132.827,25.327 C132.992,25.309 133.056,25.405 133.119,25.565 C133.593,26.781 134.087,27.988 134.572,29.199 C135.097,30.507 135.621,31.815 136.145,33.123 C136.453,33.892 136.765,34.660 137.072,35.430 C137.163,35.658 137.209,35.875 136.690,35.880 C136.394,35.915 136.210,35.572 136.143,35.258 C135.970,34.446 135.520,33.746 135.299,32.956 C135.220,32.671 135.023,32.501 134.626,32.513 C133.253,32.557 131.876,32.537 130.501,32.520 C130.160,32.516 129.994,32.627 129.876,32.958 C129.563,33.825 129.201,34.675 128.863,35.533 C128.726,35.883 128.410,35.835 128.192,35.746 C127.946,35.645 128.063,35.412 128.144,35.192 C128.503,34.218 129.015,33.310 129.306,32.303 ZM130.713,31.987 C131.333,31.964 131.956,31.981 132.578,31.981 C132.578,31.979 132.578,31.977 132.578,31.975 C133.216,31.975 133.854,31.977 134.492,31.974 C134.668,31.974 134.932,31.964 134.800,31.719 C134.677,31.489 134.627,31.247 134.532,31.015 C134.137,30.051 133.749,29.085 133.363,28.117 C133.163,27.619 132.974,27.115 132.770,26.619 C132.724,26.508 132.668,26.370 132.517,26.366 C132.411,26.362 132.418,26.469 132.399,26.542 C132.119,27.577 131.633,28.533 131.257,29.531 C130.996,30.221 130.691,30.893 130.420,31.578 C130.320,31.833 130.361,32.000 130.713,31.987 ZM142.801,25.255 C145.201,25.256 147.600,25.256 150.000,25.253 C150.212,25.253 150.435,25.209 150.423,25.541 C150.412,25.838 150.300,25.943 149.976,25.932 C149.065,25.902 148.153,25.930 147.242,25.913 C146.907,25.907 146.793,26.022 146.796,26.359 C146.809,27.862 146.802,29.367 146.802,30.870 C146.805,30.870 146.807,30.870 146.810,30.870 C146.810,32.374 146.801,33.877 146.818,35.382 C146.821,35.685 146.710,35.779 146.437,35.789 C146.154,35.800 146.046,35.697 146.048,35.396 C146.059,32.404 146.049,29.413 146.067,26.422 C146.070,26.033 145.944,25.907 145.578,25.913 C144.651,25.925 143.722,25.899 142.795,25.934 C142.452,25.947 142.377,25.808 142.369,25.528 C142.360,25.188 142.597,25.255 142.801,25.255 ZM158.572,25.251 C158.856,25.276 159.161,25.134 159.149,25.668 C159.111,27.328 159.135,28.990 159.135,30.651 C159.136,30.651 159.136,30.651 159.137,30.651 C159.137,32.312 159.125,33.973 159.146,35.633 C159.151,35.991 159.007,36.044 158.719,36.003 C158.459,35.966 158.115,36.173 158.119,35.614 C158.143,32.292 158.138,28.970 158.120,25.648 C158.118,25.266 158.265,25.224 158.572,25.251 Z" class="cls-1"/>
</svg>
