<svg xmlns="http://www.w3.org/2000/svg" xmlns:xlink="http://www.w3.org/1999/xlink" preserveAspectRatio="xMidYMid" width="133.15" height="47.2" viewBox="0 0 133.15 47.2">
  <defs>
    <style>
      .cls-1 {
        fill: #fff;
        fill-rule: evenodd;
      }
    </style>
  </defs>
  <path d="M133.058,21.707 C133.058,19.989 133.058,18.272 133.058,16.556 C133.087,16.555 133.116,16.554 133.144,16.554 C133.144,18.271 133.144,19.988 133.144,21.706 C133.116,21.707 133.087,21.707 133.058,21.707 ZM132.443,22.197 C128.394,25.994 124.361,29.807 120.320,33.612 C120.177,33.748 119.998,33.849 119.712,34.055 C119.712,31.803 119.690,29.728 119.737,27.656 C119.743,27.343 120.012,26.975 120.260,26.738 C122.883,24.251 125.526,21.787 128.162,19.313 C128.228,19.252 128.281,19.174 128.377,19.062 C128.273,18.940 128.185,18.815 128.076,18.711 C125.448,16.195 122.809,13.691 120.202,11.155 C119.940,10.899 119.750,10.442 119.741,10.074 C119.696,8.118 119.720,6.160 119.720,4.062 C119.954,4.223 120.143,4.320 120.291,4.461 C124.309,8.290 128.318,12.129 132.344,15.949 C132.784,16.366 132.998,16.783 132.970,17.406 C132.917,18.595 132.931,19.789 132.967,20.980 C132.982,21.495 132.816,21.846 132.443,22.197 ZM112.571,37.531 C111.288,37.484 110.000,37.479 108.718,37.532 C108.100,37.558 107.978,37.339 107.980,36.777 C107.994,27.363 107.994,17.949 107.983,8.534 C107.982,7.934 107.892,7.327 107.780,6.735 C107.614,5.849 106.989,5.291 106.108,5.205 C104.239,5.021 102.645,5.742 101.174,6.789 C100.999,6.914 100.922,7.278 100.922,7.531 C100.909,17.248 100.903,26.965 100.927,36.683 C100.928,37.384 100.712,37.558 100.050,37.532 C98.814,37.484 97.573,37.485 96.337,37.533 C95.696,37.559 95.491,37.374 95.498,36.716 C95.530,33.586 95.514,30.456 95.514,27.326 C95.514,20.855 95.466,14.383 95.538,7.915 C95.565,5.551 94.249,4.980 92.336,5.232 C91.031,5.402 89.916,6.036 88.844,6.734 C88.644,6.863 88.500,7.235 88.500,7.495 C88.482,17.212 88.478,26.930 88.503,36.647 C88.505,37.352 88.346,37.576 87.620,37.536 C86.386,37.468 85.144,37.485 83.906,37.531 C83.306,37.554 83.161,37.347 83.162,36.775 C83.178,27.594 83.174,18.414 83.175,9.233 C83.175,6.547 83.191,3.861 83.162,1.175 C83.155,0.638 83.311,0.483 83.832,0.495 C85.187,0.525 86.542,0.521 87.896,0.497 C88.351,0.489 88.533,0.616 88.493,1.092 C88.453,1.570 88.484,2.054 88.484,2.543 C89.619,1.870 90.603,1.152 91.692,0.672 C93.855,-0.281 97.700,-0.157 99.315,1.829 C99.606,2.187 99.874,2.566 100.122,2.896 C101.147,2.251 102.094,1.521 103.151,1.019 C105.474,-0.084 107.907,-0.332 110.293,0.784 C112.283,1.715 113.162,3.514 113.180,5.599 C113.247,13.564 113.216,21.530 113.222,29.496 C113.224,31.948 113.212,34.401 113.232,36.853 C113.236,37.356 113.128,37.551 112.571,37.531 ZM79.177,37.531 C77.871,37.487 76.561,37.498 75.254,37.530 C74.748,37.542 74.587,37.351 74.612,36.877 C74.636,36.424 74.618,35.969 74.618,35.546 C73.457,36.200 72.450,36.957 71.317,37.367 C69.075,38.176 66.782,38.233 64.666,36.919 C63.252,36.041 62.482,34.646 62.416,33.021 C62.288,29.875 62.249,26.720 62.289,23.572 C62.314,21.622 62.764,19.701 64.442,18.485 C65.530,17.696 66.809,17.123 68.071,16.631 C70.036,15.866 72.057,15.251 74.056,14.578 C74.488,14.432 74.645,14.187 74.635,13.699 C74.597,11.877 74.574,10.053 74.634,8.233 C74.689,6.557 73.670,4.968 71.664,5.039 C70.815,5.071 69.943,5.111 69.127,5.320 C68.089,5.585 67.584,6.425 67.536,7.458 C67.453,9.229 67.422,11.002 67.417,12.774 C67.415,13.342 67.267,13.576 66.665,13.558 C65.427,13.523 64.189,13.539 62.951,13.556 C62.475,13.562 62.196,13.450 62.214,12.894 C62.286,10.749 62.243,8.597 62.412,6.462 C62.640,3.583 64.467,1.154 67.424,0.500 C69.910,-0.051 72.423,-0.093 74.895,0.533 C77.736,1.252 79.276,3.297 79.740,6.048 C79.937,7.211 79.987,8.410 79.989,9.592 C80.009,18.634 79.992,27.676 80.015,36.717 C80.017,37.385 79.810,37.553 79.177,37.531 ZM74.621,20.116 C74.621,19.841 74.621,19.568 74.621,19.192 C73.009,19.786 71.524,20.307 70.059,20.882 C68.640,21.439 67.633,22.390 67.602,24.019 C67.560,26.211 67.576,28.406 67.596,30.600 C67.608,31.889 68.468,32.701 69.750,32.775 C71.355,32.869 72.743,32.311 74.079,31.494 C74.497,31.236 74.633,30.955 74.631,30.479 C74.612,27.024 74.621,23.570 74.621,20.116 ZM69.575,-0.089 C70.623,-0.089 71.673,-0.089 72.722,-0.089 C72.722,-0.083 72.722,-0.078 72.722,-0.073 C71.683,-0.073 70.644,-0.073 69.606,-0.073 C69.595,-0.078 69.585,-0.083 69.575,-0.089 ZM51.835,37.857 C49.913,37.697 48.195,36.987 46.762,35.658 C46.711,35.610 46.657,35.563 46.597,35.532 C46.561,35.512 46.509,35.520 46.374,35.508 C46.374,39.302 46.374,43.088 46.374,46.967 C44.986,46.967 43.688,46.967 42.391,46.967 C40.959,46.967 40.959,46.967 40.959,45.537 C40.959,30.800 40.962,16.062 40.943,1.324 C40.942,0.667 41.141,0.473 41.780,0.492 C43.110,0.533 44.443,0.521 45.773,0.497 C46.236,0.488 46.401,0.631 46.359,1.100 C46.318,1.573 46.350,2.051 46.350,2.494 C47.473,1.842 48.427,1.081 49.511,0.695 C52.153,-0.243 54.813,-0.297 57.114,1.582 C58.486,2.702 59.113,4.327 59.189,6.086 C59.282,8.206 59.277,10.332 59.281,12.456 C59.292,18.482 59.295,24.507 59.281,30.533 C59.277,32.679 58.877,34.694 57.214,36.256 C55.683,37.694 53.816,38.020 51.835,37.857 ZM53.990,8.097 C53.969,6.500 53.350,5.481 51.959,5.265 C49.904,4.943 48.102,5.558 46.553,6.917 C46.413,7.039 46.359,7.320 46.359,7.528 C46.347,11.333 46.350,15.138 46.350,18.943 C46.350,22.257 46.350,25.572 46.350,28.887 C46.350,31.205 46.348,31.209 48.413,32.246 C48.701,32.390 49.016,32.551 49.327,32.569 C50.341,32.626 51.388,32.777 52.367,32.594 C53.436,32.395 54.001,31.233 54.003,29.806 C54.007,26.188 54.004,22.570 54.004,18.952 C54.004,15.334 54.037,11.715 53.990,8.097 ZM33.355,25.353 C34.638,25.385 35.924,25.378 37.209,25.352 C37.646,25.344 37.806,25.519 37.797,25.923 C37.751,27.906 37.897,29.918 37.615,31.867 C37.205,34.703 35.597,36.807 32.288,37.576 C30.361,38.023 28.421,38.000 26.510,37.774 C23.744,37.446 21.485,36.189 20.503,33.388 C20.172,32.442 20.026,31.388 20.010,30.380 C19.954,26.619 19.988,22.857 19.988,19.094 C20.009,19.094 20.029,19.094 20.050,19.094 C20.050,15.194 19.936,11.288 20.091,7.394 C20.197,4.743 21.153,2.335 23.737,1.072 C24.731,0.586 25.885,0.311 26.993,0.202 C28.402,0.062 29.848,0.088 31.262,0.220 C34.874,0.557 37.456,2.844 37.631,6.520 C37.857,11.229 37.738,15.953 37.783,20.671 C37.788,21.185 37.496,21.155 37.147,21.155 C33.455,21.150 29.765,21.167 26.073,21.136 C25.456,21.132 25.279,21.279 25.287,21.909 C25.323,24.501 25.293,27.096 25.304,29.689 C25.310,31.226 26.034,32.419 27.116,32.696 C28.336,33.010 29.560,33.019 30.781,32.692 C31.696,32.446 32.474,31.558 32.550,30.643 C32.598,30.062 32.622,29.478 32.629,28.895 C32.641,27.961 32.647,27.024 32.622,26.091 C32.608,25.555 32.793,25.339 33.355,25.353 ZM25.894,16.007 C27.927,15.995 29.959,15.991 31.991,16.008 C32.420,16.011 32.556,15.879 32.546,15.443 C32.517,14.158 32.536,12.873 32.536,11.588 C32.521,11.588 32.508,11.588 32.494,11.588 C32.494,10.305 32.526,9.019 32.482,7.736 C32.454,6.892 32.106,6.157 31.394,5.649 C30.301,4.869 27.710,4.828 26.567,5.542 C25.518,6.196 25.328,7.249 25.312,8.336 C25.277,10.695 25.320,13.055 25.290,15.414 C25.284,15.910 25.462,16.011 25.894,16.007 ZM27.254,-0.085 C28.336,-0.085 29.419,-0.085 30.501,-0.085 C30.501,-0.082 30.501,-0.080 30.501,-0.078 C29.419,-0.078 28.336,-0.078 27.255,-0.078 C27.254,-0.080 27.254,-0.082 27.254,-0.085 ZM13.004,26.833 C13.231,27.049 13.445,27.411 13.451,27.709 C13.490,29.760 13.472,31.812 13.472,34.020 C13.218,33.854 13.024,33.765 12.877,33.625 C8.751,29.741 4.644,25.835 0.484,21.987 C0.072,21.607 0.003,21.289 0.006,20.828 C0.015,19.614 0.007,18.398 0.010,17.183 C0.011,16.872 0.067,16.664 0.359,16.392 C3.395,13.563 6.383,10.681 9.381,7.814 C10.562,6.684 11.738,5.551 12.922,4.426 C13.051,4.303 13.217,4.216 13.468,4.042 C13.468,6.232 13.491,8.281 13.444,10.330 C13.436,10.641 13.155,11.001 12.906,11.241 C10.304,13.751 7.685,16.242 5.070,18.738 C4.989,18.817 4.913,18.902 4.793,19.029 C4.929,19.179 5.041,19.319 5.169,19.440 C7.782,21.902 10.405,24.356 13.004,26.833 ZM46.217,47.210 C44.520,47.210 42.825,47.210 41.129,47.210 C41.129,47.184 41.129,47.159 41.128,47.134 C42.832,47.134 44.536,47.134 46.239,47.134 C46.232,47.159 46.224,47.184 46.217,47.210 Z" class="cls-1"/>
</svg>
