<svg xmlns="http://www.w3.org/2000/svg" xmlns:xlink="http://www.w3.org/1999/xlink" preserveAspectRatio="xMidYMid" width="116.1" height="77.6" viewBox="0 0 116.1 77.6">
  <defs>
    <style>
      .cls-1 {
        fill: #fff;
        fill-rule: evenodd;
      }
    </style>
  </defs>
  <path d="M116.096,71.396 C116.096,72.214 116.096,72.959 116.096,73.777 C115.820,72.955 115.763,72.206 116.096,71.396 ZM112.864,74.478 C112.099,74.235 111.392,73.894 110.809,73.274 C110.153,72.577 110.343,71.117 111.190,70.597 C112.674,69.684 114.510,70.136 115.631,71.341 C115.944,71.677 115.815,72.170 115.859,72.592 C115.891,73.209 115.836,73.808 115.224,74.131 C114.487,74.522 113.687,74.740 112.864,74.478 ZM114.707,58.186 C114.421,59.935 114.139,61.688 114.063,63.466 C114.023,64.396 113.870,65.319 114.122,66.244 C114.198,66.520 113.963,66.719 113.778,66.852 C112.845,67.527 111.828,67.016 111.649,65.898 C111.198,63.072 111.232,60.219 111.070,57.377 C111.015,56.422 111.074,55.459 111.104,54.499 C111.120,53.981 111.392,53.605 111.804,53.279 C112.595,52.654 113.494,52.378 114.478,52.324 C114.633,52.331 114.790,52.326 114.943,52.348 C115.571,52.437 115.813,52.772 115.686,53.389 C115.359,54.988 114.970,56.577 114.707,58.186 ZM109.808,70.947 C109.110,72.508 108.310,74.000 106.846,75.000 C106.035,75.554 105.148,75.450 104.298,75.179 C102.999,74.764 102.020,73.862 101.129,72.868 C100.750,72.445 100.679,72.452 100.316,72.874 C99.448,73.881 98.641,74.945 97.652,75.847 C97.261,76.202 96.798,76.228 96.337,76.099 C96.019,76.010 95.846,75.742 95.814,75.392 C95.791,75.137 95.814,74.879 95.971,74.697 C97.013,73.489 98.023,72.257 99.005,71.000 C99.314,70.604 99.338,70.284 99.114,69.922 C98.949,69.653 98.785,69.395 98.685,69.095 C98.637,68.948 98.540,68.782 98.358,68.802 C98.147,68.825 98.140,69.025 98.087,69.191 C97.479,71.122 96.745,72.978 95.264,74.447 C93.656,76.041 91.552,75.399 90.540,73.860 C90.402,73.650 90.530,73.208 90.133,73.250 C89.890,73.275 89.775,73.605 89.595,73.787 C88.837,74.558 88.006,75.173 86.838,75.150 C86.039,75.134 85.197,74.752 84.855,73.768 C84.298,72.167 84.439,70.565 84.833,68.960 C84.892,68.718 85.137,68.387 84.874,68.244 C84.545,68.066 84.497,68.503 84.369,68.690 C83.621,69.789 82.902,70.906 82.329,72.112 C81.886,73.045 81.231,73.768 80.221,74.136 C79.538,74.385 78.885,74.028 78.806,73.269 C78.704,72.279 78.699,71.283 78.746,70.287 C78.755,70.095 78.767,69.903 78.771,69.711 C78.773,69.591 78.695,69.513 78.591,69.482 C78.468,69.446 78.387,69.533 78.347,69.631 C78.096,70.236 77.840,70.840 77.607,71.452 C77.238,72.422 76.958,73.415 76.721,74.429 C76.517,75.303 75.670,75.738 74.645,75.696 C73.782,75.661 73.177,75.255 73.067,74.696 C73.007,74.390 73.126,74.109 73.105,73.811 C73.021,72.607 72.932,71.403 72.882,70.197 C72.825,68.819 72.817,67.441 72.858,66.061 C72.892,64.919 73.506,64.194 74.434,63.681 C75.065,63.332 75.756,63.147 76.489,63.216 C77.172,63.279 77.335,63.525 77.169,64.182 C76.812,65.593 76.561,67.024 76.410,68.471 C76.372,68.837 76.317,69.194 76.200,69.544 C76.122,69.780 76.104,70.024 76.355,70.216 C76.845,69.448 77.160,68.601 77.594,67.814 C78.358,66.429 79.467,65.655 81.040,65.637 C81.372,65.632 81.789,65.715 82.069,66.027 C82.298,66.282 82.406,66.484 82.173,66.841 C81.903,67.255 82.024,67.792 81.928,68.269 C81.911,68.357 81.955,68.488 82.091,68.496 C82.201,68.501 82.303,68.453 82.357,68.357 C82.969,67.249 83.828,66.321 84.567,65.306 C85.313,64.281 86.283,63.665 87.585,63.683 C88.650,63.697 89.084,64.160 88.957,65.194 C88.828,66.244 88.568,67.269 88.345,68.302 C88.125,69.321 88.002,70.362 87.845,71.395 C87.785,71.790 87.745,72.188 87.706,72.586 C87.688,72.760 87.679,72.954 87.862,73.050 C88.051,73.148 88.174,73.016 88.308,72.887 C89.019,72.207 89.567,71.396 89.953,70.515 C90.156,70.052 90.062,69.454 90.079,68.916 C90.102,68.185 90.107,67.455 90.111,66.723 C90.117,65.748 90.616,65.180 91.627,65.014 C92.607,64.852 93.574,65.353 93.860,66.141 C93.966,66.433 93.828,66.665 93.785,66.930 C93.491,68.744 93.134,70.555 93.348,72.412 C93.389,72.766 93.487,73.094 93.837,73.195 C94.153,73.286 94.308,72.982 94.476,72.764 C95.115,71.938 95.468,70.966 95.892,70.028 C95.942,69.918 95.935,69.763 96.014,69.689 C96.384,69.339 96.228,69.198 95.831,69.044 C95.428,68.887 95.367,68.373 95.649,67.869 C95.929,67.368 96.090,66.821 96.291,66.289 C96.570,65.549 96.881,64.821 97.146,64.076 C97.377,63.423 97.906,63.112 98.498,62.993 C99.541,62.784 100.546,62.946 101.393,63.662 C101.627,63.862 101.736,64.123 101.707,64.452 C101.660,64.978 101.754,65.495 101.889,66.003 C101.926,66.142 101.869,66.342 102.099,66.365 C102.313,66.386 102.390,66.223 102.490,66.074 C102.866,65.515 103.240,64.953 103.642,64.412 C104.058,63.851 104.600,63.532 105.337,63.551 C106.045,63.571 106.757,63.470 107.384,63.950 C107.656,64.158 107.646,64.292 107.440,64.529 C106.070,66.102 104.711,67.683 103.347,69.262 C103.152,69.487 103.125,69.740 103.270,69.988 C103.733,70.776 104.138,71.600 104.741,72.300 C105.044,72.652 105.450,72.875 105.862,73.028 C106.311,73.196 106.564,72.774 106.782,72.484 C107.466,71.571 107.941,70.541 108.382,69.492 C108.615,68.935 108.818,68.369 109.037,67.807 C109.192,67.409 109.990,67.181 110.362,67.385 C110.935,67.698 110.948,67.931 110.702,68.573 C110.399,69.361 110.153,70.174 109.808,70.947 ZM94.586,62.834 C93.842,63.222 93.034,63.434 92.174,63.350 C91.404,63.292 90.639,63.322 89.889,62.976 C88.873,62.509 88.541,61.250 89.527,60.455 C90.083,60.006 90.728,59.700 91.442,59.584 C92.450,59.417 93.453,59.246 94.464,59.620 C95.225,59.901 96.065,60.536 95.903,61.390 C95.763,62.127 95.182,62.523 94.586,62.834 ZM88.660,39.419 C87.599,39.997 86.605,40.698 85.598,41.369 C83.692,42.638 81.722,43.800 79.736,44.939 C77.662,46.128 75.595,47.330 73.501,48.484 C72.217,49.190 70.889,49.818 69.579,50.476 C68.339,51.098 67.062,51.656 65.866,52.353 C65.017,52.847 64.144,53.288 63.268,53.721 C62.938,53.884 62.819,54.216 62.737,54.456 C62.395,55.461 61.892,56.391 61.508,57.374 C61.099,58.417 60.614,59.429 60.190,60.468 C59.756,61.534 59.372,62.622 58.934,63.689 C58.653,64.375 58.395,65.070 58.121,65.759 C57.912,66.289 57.724,66.821 57.557,67.365 C57.517,67.497 57.496,67.666 57.343,67.694 C57.182,67.724 57.109,67.567 57.038,67.450 C56.521,66.593 56.096,65.688 55.649,64.794 C55.114,63.726 54.736,62.596 54.309,61.487 C53.976,60.620 53.747,59.713 53.472,58.825 C53.354,58.443 53.234,58.062 53.115,57.682 C53.041,57.446 52.846,57.444 52.650,57.431 C50.092,57.251 47.903,56.182 45.893,54.659 C44.885,53.896 44.201,52.875 43.492,51.856 C43.030,51.192 42.551,50.538 42.103,49.862 C41.068,48.303 40.013,46.761 39.116,45.110 C38.186,43.396 37.198,41.713 36.427,39.920 C35.828,38.525 35.222,37.130 34.778,35.672 C34.605,35.101 34.246,34.603 34.003,34.054 C33.631,33.213 33.379,32.336 33.082,31.475 C32.768,30.561 32.494,29.617 32.355,28.664 C32.172,27.403 32.159,26.121 32.296,24.848 C32.484,23.090 32.939,21.407 33.761,19.835 C34.438,18.539 35.522,17.645 36.714,16.854 C37.891,16.073 39.049,15.259 40.232,14.486 C41.656,13.554 43.083,12.626 44.535,11.740 C46.153,10.753 47.788,9.793 49.441,8.864 C50.807,8.097 52.202,7.377 53.598,6.664 C55.090,5.903 56.576,5.123 58.106,4.448 C59.603,3.786 61.099,3.119 62.612,2.489 C63.980,1.920 65.375,1.410 66.720,0.786 C68.476,-0.028 70.317,0.066 72.152,0.271 C73.574,0.430 74.855,1.049 76.125,1.701 C77.956,2.641 79.464,3.950 80.750,5.525 C81.700,6.687 82.589,7.899 83.486,9.104 C84.487,10.446 85.416,11.837 86.298,13.253 C86.991,14.363 87.656,15.497 88.276,16.656 C88.844,17.715 89.412,18.776 89.949,19.851 C90.357,20.668 90.677,21.528 91.072,22.355 C91.611,23.484 92.121,24.635 92.544,25.812 C93.065,27.263 93.461,28.756 93.342,30.293 C93.451,31.954 93.091,33.517 92.537,35.012 C91.818,36.951 90.503,38.415 88.660,39.419 ZM51.671,42.598 C51.718,42.998 51.939,43.194 52.303,43.081 C53.594,42.678 54.960,42.838 56.265,42.495 C57.143,42.265 57.165,42.345 57.078,41.444 C57.066,41.305 57.043,41.166 57.044,41.027 C57.045,40.694 57.015,40.361 56.821,40.087 C56.539,39.688 56.219,40.062 55.919,40.086 C55.512,40.118 55.354,39.983 55.432,39.610 C55.584,38.879 55.717,38.746 56.461,38.717 C56.842,38.703 57.198,38.585 57.569,38.538 C57.952,38.490 58.586,39.082 58.575,39.459 C58.569,39.669 58.453,39.783 58.255,39.805 C58.100,39.822 57.941,39.808 57.785,39.821 C57.481,39.846 57.316,39.933 57.399,40.318 C57.500,40.790 57.507,41.283 57.540,41.769 C57.576,42.294 57.783,42.449 58.295,42.309 C58.514,42.250 58.727,42.146 58.948,42.130 C60.649,42.008 62.329,41.719 64.020,41.515 C65.383,41.351 65.219,41.458 64.992,40.104 C64.810,39.023 64.790,38.981 63.736,39.114 C63.170,39.186 62.899,38.926 62.679,38.515 C62.251,37.714 61.856,36.896 61.423,36.097 C60.723,34.806 60.026,33.514 59.278,32.251 C59.111,31.969 59.064,31.409 58.536,31.525 C57.579,31.736 56.609,31.777 55.641,31.867 C55.232,31.905 55.004,32.148 54.915,32.613 C54.663,33.922 54.336,35.218 54.037,36.517 C53.847,37.346 53.604,38.166 53.474,39.003 C53.284,40.213 53.187,40.348 51.961,40.514 C51.858,40.528 51.753,40.550 51.658,40.591 C51.494,40.660 51.395,40.826 51.456,40.970 C51.680,41.497 51.607,42.056 51.671,42.598 ZM44.252,33.876 C44.307,34.394 44.333,34.917 44.371,35.438 C44.404,35.894 44.601,36.042 45.067,35.925 C45.393,35.843 45.721,35.840 46.051,35.829 C46.309,35.820 46.441,35.945 46.450,36.200 C46.491,37.344 46.756,38.460 46.870,39.530 C46.829,39.930 46.927,40.268 46.668,40.586 C46.169,41.197 44.774,41.586 44.045,41.266 C43.829,41.170 43.692,41.018 43.573,40.806 C43.251,40.234 42.924,39.663 42.316,39.321 C41.752,39.005 40.965,39.221 40.685,39.733 C40.155,40.704 40.382,41.705 40.775,42.563 C41.370,43.861 42.615,44.398 44.015,44.149 C45.553,43.876 47.102,43.672 48.654,43.541 C50.159,43.414 50.679,42.589 50.850,41.263 C51.055,39.667 50.572,38.124 50.400,36.560 C50.256,35.249 50.159,35.256 51.492,35.129 C51.846,35.096 52.027,34.996 51.960,34.573 C51.872,34.011 51.732,33.455 51.671,32.892 C51.631,32.523 51.507,32.461 51.183,32.495 C49.026,32.719 46.894,33.134 44.730,33.296 C44.357,33.323 44.213,33.501 44.252,33.876 ZM54.920,17.862 C55.364,17.705 55.805,17.569 56.273,17.509 C56.677,17.456 56.798,17.227 56.670,16.841 C56.396,16.020 56.122,15.199 56.003,14.338 C55.961,14.037 55.810,13.907 55.588,13.929 C55.186,13.922 54.970,14.216 54.646,14.238 C53.897,14.287 53.190,14.564 52.476,14.756 C50.790,15.211 49.101,15.664 47.409,16.100 C46.997,16.207 46.874,16.432 46.993,16.775 C47.269,17.579 47.510,18.390 47.658,19.228 C47.718,19.569 47.953,19.812 48.286,19.627 C48.590,19.457 48.907,19.424 49.220,19.341 C49.872,19.168 50.023,19.271 50.183,19.948 C50.331,20.573 50.477,21.199 50.643,21.819 C50.973,23.055 51.322,24.284 51.651,25.520 C51.790,26.041 51.662,26.209 51.119,26.301 C50.862,26.345 50.601,26.373 50.349,26.436 C49.919,26.541 49.690,26.757 49.840,27.262 C50.086,28.092 50.278,28.939 50.503,29.776 C50.575,30.042 50.747,30.103 51.024,30.024 C52.340,29.649 53.668,29.322 54.986,28.951 C56.349,28.569 57.730,28.249 59.088,27.842 C59.446,27.736 59.498,27.585 59.427,27.242 C59.283,26.548 58.967,25.900 58.891,25.188 C58.874,25.037 58.787,24.894 58.735,24.746 C58.632,24.451 58.462,24.343 58.133,24.443 C57.769,24.555 57.393,24.615 57.036,24.767 C56.827,24.856 56.524,24.961 56.421,24.619 C56.043,23.361 55.740,22.082 55.381,20.818 C55.147,19.993 54.939,19.157 54.702,18.330 C54.637,18.107 54.632,17.963 54.920,17.862 ZM74.230,15.032 C73.940,14.576 73.940,14.040 73.792,13.546 C73.437,12.360 73.090,11.172 72.855,9.957 C72.796,9.658 72.659,9.480 72.247,9.489 C71.869,9.595 71.411,9.740 70.945,9.853 C69.383,10.230 67.835,10.669 66.282,11.080 C65.084,11.398 63.881,11.710 62.690,12.060 C60.927,12.577 59.140,13.008 57.363,13.475 C57.072,13.551 56.982,13.693 57.067,14.011 C57.514,15.680 57.936,17.355 58.367,19.029 C58.452,19.358 58.670,19.490 58.992,19.403 C59.746,19.199 60.491,18.960 61.249,18.778 C61.662,18.679 61.679,18.465 61.576,18.133 C61.427,17.651 61.324,17.155 61.152,16.684 C60.995,16.253 61.143,16.069 61.539,15.900 C61.951,15.724 62.434,15.827 62.795,15.593 C63.248,15.299 63.428,15.496 63.545,15.890 C63.742,16.554 63.919,17.225 64.099,17.895 C64.284,18.579 64.464,19.266 64.644,19.952 C64.845,20.721 65.042,21.491 65.241,22.260 C65.284,22.426 65.276,22.648 65.100,22.647 C64.653,22.644 64.312,22.986 63.862,22.959 C63.426,22.935 63.083,23.240 63.169,23.526 C63.394,24.288 63.671,25.036 63.792,25.826 C63.824,26.037 63.935,26.216 64.072,26.379 C64.154,26.478 64.218,26.549 64.374,26.502 C65.168,26.265 65.973,26.069 66.772,25.851 C68.556,25.366 70.337,24.871 72.134,24.432 C72.446,24.356 72.794,24.258 73.025,24.055 C73.275,23.834 72.837,23.612 72.873,23.350 C72.878,23.316 72.875,23.278 72.866,23.245 C72.688,22.574 72.505,21.903 72.330,21.229 C72.220,20.804 71.952,20.763 71.586,20.886 C71.180,21.022 70.765,21.130 70.358,21.266 C70.044,21.372 69.881,21.264 69.754,20.965 C69.523,20.420 69.415,19.829 69.278,19.270 C68.900,17.727 68.425,16.210 68.067,14.663 C68.009,14.412 68.055,14.279 68.284,14.159 C68.892,13.842 69.603,13.901 70.219,13.596 C70.443,13.486 70.629,13.673 70.645,13.920 C70.683,14.527 71.054,15.050 71.063,15.668 C71.068,15.972 71.285,16.167 71.598,16.084 C72.415,15.866 73.254,15.723 74.038,15.393 C74.191,15.327 74.341,15.208 74.230,15.032 ZM82.742,38.698 C82.651,38.290 82.714,37.852 82.531,37.466 C82.392,37.175 82.611,36.741 82.256,36.573 C81.940,36.424 81.575,36.596 81.233,36.626 C80.611,36.681 80.582,36.629 80.509,36.001 C80.354,34.659 80.175,33.321 79.965,31.986 C79.904,31.596 80.076,31.466 80.377,31.413 C80.681,31.360 80.989,31.353 81.294,31.285 C81.609,31.215 81.708,31.035 81.654,30.761 C81.577,30.369 81.580,29.968 81.434,29.582 C81.327,29.298 81.464,28.911 81.235,28.689 C80.934,28.396 80.622,28.780 80.312,28.786 C78.850,28.811 77.432,29.209 75.977,29.280 C75.486,29.304 75.014,29.416 74.533,29.496 C74.135,29.562 73.974,29.736 73.945,30.137 C73.912,30.587 73.802,31.031 73.729,31.477 C73.707,31.609 73.661,31.722 73.517,31.738 C73.372,31.757 73.264,31.653 73.252,31.534 C73.220,31.188 72.965,30.952 72.846,30.648 C72.526,29.828 72.360,29.769 71.471,29.892 C70.561,30.019 69.647,30.136 68.736,30.233 C67.525,30.362 66.327,30.575 65.115,30.686 C64.817,30.714 64.662,30.845 64.722,31.164 C64.822,31.696 64.865,32.233 64.871,32.773 C64.876,33.148 65.080,33.317 65.437,33.299 C65.748,33.286 66.058,33.242 66.369,33.213 C66.688,33.183 66.926,33.266 66.940,33.639 C66.990,35.099 67.338,36.524 67.450,37.976 C67.476,38.304 67.374,38.456 67.024,38.471 C66.697,38.485 66.363,38.507 66.052,38.634 C65.822,38.729 65.633,38.875 65.733,39.146 C65.918,39.651 65.877,40.178 65.926,40.694 C65.978,41.231 66.161,41.395 66.667,41.216 C66.954,41.116 67.241,41.089 67.532,41.055 C68.754,40.911 69.975,40.769 71.195,40.619 C71.469,40.585 71.745,40.506 71.628,40.137 C71.454,39.582 71.430,39.006 71.377,38.438 C71.344,38.092 71.175,37.980 70.866,38.001 C70.709,38.011 70.553,38.040 70.397,38.055 C69.619,38.129 69.622,38.128 69.495,37.373 C69.466,37.202 69.414,37.036 69.374,36.867 C69.108,35.735 69.293,34.531 68.829,33.429 C68.787,33.333 68.835,33.203 68.940,33.159 C69.065,33.106 69.127,33.221 69.168,33.313 C69.310,33.627 69.538,33.882 69.667,34.216 C69.884,34.780 70.228,35.294 70.519,35.828 C70.950,36.620 71.384,37.410 71.812,38.203 C72.166,38.857 72.503,39.518 72.866,40.166 C73.023,40.448 73.293,40.306 73.529,40.288 C73.731,40.275 73.959,40.263 73.985,40.031 C74.031,39.615 74.223,39.245 74.306,38.838 C74.740,36.725 75.443,34.673 75.785,32.537 C75.812,32.373 75.840,32.157 76.035,32.051 C76.201,32.281 76.214,32.551 76.263,32.817 C76.493,34.063 76.435,35.347 76.781,36.580 C76.937,37.133 76.796,37.268 76.193,37.295 C75.983,37.304 75.774,37.354 75.568,37.340 C75.170,37.310 75.103,37.533 75.095,37.858 C75.080,38.455 75.223,39.031 75.318,39.612 C75.365,39.894 75.552,40.051 75.888,39.992 C76.896,39.813 77.919,39.733 78.933,39.598 C80.065,39.447 81.198,39.256 82.340,39.165 C82.634,39.142 82.813,39.016 82.742,38.698 ZM56.738,35.953 C56.817,36.105 56.852,36.280 56.936,36.429 C57.393,37.240 57.286,37.430 56.351,37.447 C56.134,37.452 56.051,37.353 56.043,36.988 C56.177,36.693 56.304,36.306 56.396,35.903 C56.435,35.730 56.651,35.784 56.738,35.953 ZM67.900,-0.006 C69.537,-0.006 71.173,-0.006 72.810,-0.006 C71.163,0.085 69.531,0.127 67.900,-0.006 ZM33.074,36.970 C33.282,37.634 33.511,38.302 33.834,38.913 C34.057,39.335 34.177,39.786 34.315,40.219 C34.728,41.521 35.441,42.671 36.086,43.849 C36.619,44.823 37.072,45.842 37.679,46.776 C38.462,47.981 39.252,49.182 40.052,50.376 C40.695,51.338 41.358,52.287 42.010,53.242 C42.153,53.453 42.150,53.675 41.993,53.874 C41.796,54.123 41.843,54.318 42.023,54.571 C42.822,55.696 43.280,56.993 43.842,58.238 C43.913,58.397 43.949,58.622 43.829,58.740 C43.692,58.875 43.568,58.644 43.432,58.611 C42.619,58.414 41.897,57.983 41.087,57.758 C39.809,57.401 38.572,56.901 37.323,56.446 C37.035,56.341 36.811,56.366 36.540,56.517 C35.801,56.931 35.021,57.249 34.184,57.421 C33.679,57.524 33.197,57.749 32.729,57.930 C31.955,58.231 31.162,58.467 30.376,58.712 C28.886,59.177 27.374,59.565 25.865,59.961 C24.863,60.225 23.855,60.466 22.842,60.683 C21.260,61.021 19.917,60.521 18.693,59.510 C17.813,58.784 17.331,57.836 16.843,56.843 C16.299,55.741 15.904,54.585 15.525,53.435 C15.126,52.223 14.776,50.978 14.596,49.699 C14.451,48.665 14.224,47.639 14.251,46.858 C14.225,44.726 14.915,43.174 16.248,41.894 C16.767,41.397 17.470,41.242 18.092,40.947 C19.157,40.444 20.250,39.995 21.350,39.574 C22.824,39.011 24.300,38.450 25.815,37.995 C26.423,37.813 27.040,37.667 27.636,37.425 C28.203,37.196 28.834,37.134 29.428,36.950 C30.240,36.700 31.081,36.549 31.899,36.319 C32.669,36.103 32.834,36.202 33.074,36.970 ZM15.435,67.065 C15.285,67.833 15.164,68.608 14.980,69.367 C14.619,70.855 14.319,72.351 14.160,73.875 C14.141,74.063 14.128,74.228 14.315,74.329 C14.483,74.420 14.626,74.332 14.733,74.217 C15.396,73.503 16.119,72.849 16.152,71.738 C16.210,69.785 16.861,68.013 18.031,66.448 C18.798,65.423 19.758,64.687 21.132,64.802 C21.969,64.872 22.676,65.254 23.291,65.831 C24.149,66.638 24.675,67.581 24.674,68.795 C24.674,69.403 24.474,69.865 23.977,70.222 C22.940,70.966 21.758,71.245 20.516,71.315 C19.536,71.370 19.476,71.396 19.446,72.365 C19.428,72.951 19.388,73.548 19.466,74.125 C19.674,75.667 20.649,76.276 22.138,75.485 C23.571,74.726 24.596,73.526 25.444,72.171 C25.784,71.626 25.573,70.977 25.727,70.391 C26.248,68.408 26.967,66.544 28.735,65.297 C29.637,64.661 30.968,64.700 31.929,65.292 C33.139,66.036 33.901,67.061 34.105,68.463 C34.265,69.561 33.891,70.055 32.863,70.611 C31.841,71.164 30.724,71.367 29.569,71.364 C29.137,71.363 28.945,71.537 28.934,71.992 C28.914,72.705 28.864,73.415 28.927,74.130 C29.081,75.881 30.257,76.220 31.612,75.519 C32.992,74.806 33.894,73.579 34.838,72.397 C35.192,71.954 35.232,71.499 35.229,70.974 C35.221,69.424 35.582,67.902 35.636,66.354 C35.652,65.905 35.560,65.718 35.076,65.745 C34.431,65.779 33.783,65.757 33.249,65.292 C32.971,65.052 32.878,64.864 33.245,64.596 C33.466,64.434 33.681,64.318 33.943,64.294 C34.203,64.268 34.466,64.248 34.727,64.257 C36.044,64.306 35.901,64.256 35.926,63.176 C35.939,62.646 36.180,62.309 36.613,62.048 C37.409,61.567 38.504,61.634 39.192,62.223 C39.603,62.574 39.684,62.993 39.447,63.539 C39.246,64.005 39.284,64.067 39.804,64.063 C40.342,64.059 40.876,64.046 41.395,64.244 C41.580,64.315 41.732,64.406 41.885,64.525 C42.212,64.783 42.233,64.998 41.881,65.264 C41.228,65.756 40.469,65.689 39.740,65.656 C39.216,65.632 39.046,65.863 38.985,66.299 C38.865,67.174 38.883,68.066 38.767,68.938 C38.566,70.461 38.487,71.984 38.520,73.516 C38.529,73.915 38.529,74.317 38.719,74.691 C38.909,75.068 39.102,75.075 39.383,74.770 C39.881,74.231 40.283,73.622 40.645,72.996 C41.211,72.015 41.798,71.044 42.226,69.986 C42.444,69.447 43.299,69.231 43.744,69.579 C44.125,69.878 44.000,70.271 43.854,70.634 C43.528,71.446 43.234,72.274 42.842,73.053 C42.030,74.669 41.079,76.180 39.384,77.045 C38.064,77.718 36.446,77.147 35.845,75.779 C35.782,75.636 35.687,75.505 35.642,75.358 C35.590,75.186 35.666,74.938 35.408,74.896 C35.169,74.857 35.120,75.109 34.987,75.236 C33.643,76.526 32.160,77.502 30.183,77.387 C29.643,77.354 29.101,77.360 28.560,77.351 C27.574,77.335 26.951,76.733 26.461,75.984 C26.300,75.737 26.094,75.502 26.016,75.179 C25.937,74.854 25.725,74.999 25.555,75.169 C25.042,75.686 24.480,76.134 23.854,76.520 C23.019,77.036 22.142,77.359 21.156,77.357 C20.527,77.355 19.897,77.356 19.269,77.346 C18.151,77.327 17.451,76.652 16.923,75.774 C16.761,75.505 16.533,75.257 16.495,74.895 C16.462,74.581 16.247,74.671 16.103,74.852 C15.764,75.280 15.357,75.633 14.888,75.896 C13.802,76.504 12.557,76.717 11.614,75.413 C11.286,74.960 11.130,74.422 11.085,73.866 C11.005,72.871 11.102,71.890 11.364,70.926 C11.405,70.774 11.436,70.622 11.470,70.468 C11.497,70.346 11.523,70.218 11.370,70.159 C11.218,70.101 11.137,70.229 11.075,70.321 C10.700,70.879 10.330,71.443 9.971,72.012 C9.485,72.781 9.037,73.574 8.524,74.323 C8.082,74.968 7.427,75.292 6.642,75.371 C6.174,75.417 5.937,75.228 5.820,74.786 C5.583,73.895 5.592,72.992 5.641,72.083 C5.645,72.014 5.669,71.944 5.666,71.875 C5.655,71.649 5.841,71.315 5.527,71.235 C5.146,71.138 5.197,71.538 5.104,71.759 C4.853,72.365 4.599,72.970 4.347,73.575 C4.066,74.248 3.851,74.943 3.724,75.658 C3.611,76.295 2.528,76.795 1.855,76.760 C1.634,76.749 1.410,76.708 1.199,76.644 C0.443,76.414 0.313,76.210 0.317,75.396 C0.324,74.142 0.319,72.887 0.319,71.632 C0.305,71.632 0.292,71.632 0.278,71.632 C0.278,70.427 0.312,69.222 0.267,68.020 C0.233,67.091 0.596,66.467 1.406,66.034 C2.138,65.643 2.874,65.349 3.723,65.492 C4.091,65.553 4.311,65.881 4.225,66.233 C3.908,67.532 3.636,68.839 3.480,70.170 C3.446,70.460 3.357,70.744 3.313,71.034 C3.286,71.205 3.264,71.432 3.458,71.496 C3.694,71.573 3.705,71.312 3.771,71.174 C4.218,70.229 4.711,69.321 5.465,68.570 C6.216,67.821 7.149,67.626 8.140,67.682 C8.793,67.718 9.060,68.215 8.897,68.848 C8.789,69.268 8.780,69.711 8.616,70.122 C8.574,70.227 8.518,70.378 8.659,70.451 C8.794,70.520 8.891,70.394 8.958,70.300 C9.386,69.711 9.780,69.097 10.268,68.553 C10.908,67.837 11.369,66.927 12.240,66.460 C13.098,65.999 14.031,65.680 15.001,66.201 C15.327,66.377 15.513,66.664 15.435,67.065 ZM20.224,69.542 C21.190,69.630 22.116,69.196 22.014,68.177 C21.993,67.730 22.029,67.378 21.816,67.073 C21.702,66.912 21.729,66.615 21.460,66.607 C21.183,66.601 21.050,66.848 20.917,67.048 C20.470,67.716 20.329,68.514 20.005,69.235 C19.921,69.422 20.025,69.524 20.224,69.542 ZM29.622,69.580 C30.633,69.823 31.485,69.176 31.461,68.169 C31.473,67.799 31.425,67.444 31.240,67.114 C31.145,66.944 31.191,66.662 30.897,66.652 C30.651,66.645 30.545,66.847 30.422,67.015 C29.935,67.680 29.795,68.499 29.444,69.224 C29.382,69.351 29.395,69.525 29.622,69.580 ZM0.013,67.015 C0.463,70.055 -0.077,73.095 0.013,76.135 C0.013,73.095 0.013,70.055 0.013,67.015 ZM22.364,77.529 C21.052,77.529 19.739,77.529 18.426,77.529 C19.755,77.410 21.059,77.454 22.364,77.529 ZM32.012,77.535 C30.601,77.535 29.190,77.535 27.779,77.535 C29.202,77.394 30.607,77.437 32.012,77.535 ZM39.134,77.507 C38.401,77.603 37.788,77.557 37.188,77.515 C37.804,77.455 38.408,77.434 39.134,77.507 ZM50.218,68.340 C50.249,68.358 50.290,68.361 50.314,68.383 C50.728,68.781 51.146,68.905 51.769,68.782 C52.553,68.628 53.074,69.410 52.878,70.189 C52.624,71.199 52.671,72.236 52.680,73.267 C52.681,73.389 52.695,73.521 52.841,73.566 C52.978,73.609 53.070,73.537 53.154,73.433 C53.601,72.880 53.831,72.286 53.840,71.538 C53.848,70.797 53.656,70.028 54.038,69.295 C54.366,68.666 54.852,68.377 55.344,68.352 C56.236,68.355 56.500,68.686 56.431,69.363 C56.381,69.861 56.187,70.306 56.056,70.774 C56.007,70.954 55.942,71.232 56.116,71.305 C56.386,71.419 56.370,71.091 56.445,70.945 C56.875,70.108 57.461,69.492 58.477,69.491 C59.162,69.490 59.442,69.913 59.213,70.551 C58.967,71.235 58.971,71.943 59.054,72.651 C59.101,73.058 59.308,73.129 59.601,72.841 C60.036,72.413 60.363,71.979 60.405,71.287 C60.538,69.143 62.667,67.452 64.756,68.430 C65.010,68.550 65.119,68.496 65.114,68.223 C65.091,66.892 65.562,65.615 65.516,64.278 C65.496,63.699 66.201,63.163 66.782,63.225 C67.515,63.303 67.933,63.765 67.802,64.472 C67.446,66.393 67.385,68.347 67.136,70.280 C67.005,71.302 66.942,72.369 67.303,73.388 C67.361,73.551 67.386,73.751 67.600,73.767 C67.775,73.780 67.859,73.637 67.952,73.498 C68.512,72.665 68.926,71.768 69.190,70.801 C69.314,70.350 69.705,70.052 70.051,70.157 C70.403,70.264 70.495,70.640 70.406,71.102 C70.253,71.894 69.955,72.641 69.554,73.310 C69.012,74.217 68.328,75.044 67.181,75.258 C66.608,75.366 65.769,74.960 65.493,74.252 C65.309,73.781 65.227,73.766 64.903,74.170 C63.921,75.394 61.893,75.372 61.020,73.979 C60.649,73.387 60.611,73.381 60.114,73.882 C59.515,74.485 58.754,74.456 58.109,74.213 C57.505,73.985 57.184,73.364 57.174,72.641 C57.171,72.403 57.398,71.979 57.029,71.932 C56.727,71.895 56.732,72.348 56.649,72.596 C56.471,73.121 56.383,73.681 56.171,74.192 C55.881,74.894 54.830,75.093 54.259,74.554 C53.982,74.293 53.863,74.319 53.593,74.561 C52.998,75.094 52.246,75.321 51.325,74.599 C50.971,74.321 50.796,74.411 50.595,74.749 C50.095,75.590 49.315,76.096 48.367,76.034 C47.498,75.978 46.858,75.394 46.459,74.588 C45.549,72.755 45.822,70.994 46.881,69.351 C47.513,68.369 49.040,67.696 50.218,68.340 ZM62.517,73.284 C62.641,73.696 62.884,73.994 63.302,74.013 C63.632,74.026 63.902,73.789 64.098,73.512 C64.616,72.778 64.887,71.968 64.832,71.065 C64.832,70.803 64.846,70.540 64.828,70.279 C64.800,69.858 64.595,69.526 64.182,69.424 C63.838,69.338 63.536,69.481 63.267,69.748 C62.768,70.244 62.694,70.884 62.498,71.511 C62.300,72.144 62.338,72.689 62.517,73.284 ZM48.391,74.562 C48.619,74.847 48.853,75.009 49.211,74.692 C49.544,74.397 49.757,74.056 49.947,73.654 C50.463,72.560 50.622,71.435 50.382,70.258 C50.266,69.691 49.824,69.354 49.394,69.527 C49.121,69.636 48.865,69.832 48.703,70.109 C48.200,70.966 47.949,71.886 47.993,72.804 C47.989,73.858 48.049,74.135 48.391,74.562 ZM70.360,59.127 C70.514,58.065 70.681,57.002 71.096,56.006 C71.241,55.656 71.207,55.417 70.935,55.170 C70.375,54.664 70.006,54.014 69.674,53.353 C69.468,52.942 69.694,52.637 70.089,52.487 C71.517,51.944 72.823,51.152 74.170,50.451 C75.853,49.575 77.483,48.598 79.132,47.659 C81.042,46.572 82.959,45.496 84.850,44.378 C85.772,43.833 86.641,43.199 87.540,42.614 C88.092,42.255 88.656,41.913 89.212,41.558 C89.383,41.448 89.510,41.446 89.669,41.601 C90.433,42.346 90.954,43.212 91.113,44.282 C91.168,44.652 91.289,45.014 91.326,45.385 C91.503,47.148 91.444,48.906 91.159,50.654 C91.122,50.881 91.097,51.106 91.107,51.330 C91.140,51.986 90.968,52.597 90.757,53.208 C90.602,53.660 90.663,54.148 90.422,54.611 C89.868,55.679 89.219,56.552 88.063,57.105 C87.258,57.490 86.500,57.231 85.858,57.372 C84.603,57.372 83.483,57.279 82.353,57.127 C81.457,57.006 80.522,57.028 79.604,56.968 C78.267,56.882 76.945,56.681 75.637,56.415 C75.165,56.320 74.858,56.583 74.567,56.764 C73.262,57.575 72.002,58.459 70.727,59.320 C70.643,59.377 70.580,59.495 70.465,59.448 C70.321,59.391 70.343,59.241 70.360,59.127 Z" class="cls-1"/>
</svg>
