<svg xmlns="http://www.w3.org/2000/svg" xmlns:xlink="http://www.w3.org/1999/xlink" preserveAspectRatio="xMidYMid" width="152.94" height="55" viewBox="0 0 152.94 55">
  <defs>
    <style>
      .cls-1 {
        fill: #fff;
        fill-rule: evenodd;
      }
    </style>
  </defs>
  <path d="M152.067,54.570 C151.764,54.759 151.420,54.853 151.034,54.853 C150.582,54.853 150.228,54.747 149.973,54.535 C149.718,54.322 149.563,54.002 149.506,53.572 C148.538,54.426 147.668,54.853 146.899,54.853 C146.446,54.853 146.070,54.705 145.769,54.408 C145.469,54.111 145.319,53.738 145.319,53.290 C145.319,52.685 145.579,52.140 146.100,51.657 C146.621,51.172 147.756,50.528 149.506,49.724 L149.506,48.926 C149.506,48.326 149.473,47.947 149.408,47.792 C149.343,47.637 149.220,47.501 149.039,47.385 C148.858,47.268 148.654,47.210 148.428,47.210 C148.059,47.210 147.756,47.292 147.519,47.457 C147.372,47.559 147.298,47.677 147.298,47.813 C147.298,47.932 147.378,48.080 147.536,48.255 C147.751,48.499 147.858,48.733 147.858,48.960 C147.858,49.237 147.755,49.474 147.549,49.668 C147.341,49.864 147.072,49.961 146.737,49.961 C146.381,49.961 146.082,49.854 145.841,49.639 C145.600,49.424 145.481,49.172 145.481,48.884 C145.481,48.476 145.642,48.086 145.964,47.716 C146.287,47.345 146.737,47.061 147.315,46.862 C147.893,46.664 148.493,46.564 149.115,46.564 C149.868,46.564 150.464,46.725 150.903,47.045 C151.342,47.364 151.626,47.711 151.757,48.085 C151.836,48.323 151.875,48.869 151.875,49.724 L151.875,52.807 C151.875,53.169 151.889,53.397 151.918,53.491 C151.946,53.585 151.989,53.653 152.046,53.698 C152.102,53.743 152.167,53.766 152.241,53.766 C152.388,53.766 152.538,53.662 152.691,53.452 L152.946,53.656 C152.662,54.074 152.370,54.379 152.067,54.570 ZM149.506,50.293 C148.821,50.695 148.311,51.126 147.977,51.584 C147.756,51.889 147.647,52.198 147.647,52.509 C147.647,52.770 147.739,52.999 147.927,53.198 C148.068,53.350 148.266,53.426 148.521,53.426 C148.804,53.426 149.132,53.268 149.506,52.951 L149.506,50.293 ZM140.742,53.682 C140.362,54.134 139.983,54.465 139.604,54.672 C139.224,54.877 138.800,54.981 138.330,54.981 C137.882,54.981 137.485,54.843 137.137,54.570 C136.788,54.295 136.555,53.973 136.436,53.606 C136.317,53.237 136.257,52.595 136.257,51.678 L136.257,48.526 C136.257,47.926 136.202,47.553 136.092,47.405 C135.982,47.258 135.751,47.162 135.400,47.117 L135.400,46.802 L138.635,46.802 L138.635,52.229 C138.635,52.795 138.662,53.161 138.716,53.325 C138.770,53.489 138.855,53.614 138.971,53.698 C139.087,53.783 139.221,53.826 139.374,53.826 C139.578,53.826 139.762,53.772 139.926,53.664 C140.153,53.517 140.425,53.221 140.742,52.773 L140.742,48.526 C140.742,47.926 140.686,47.553 140.576,47.405 C140.466,47.258 140.235,47.162 139.884,47.117 L139.884,46.802 L143.119,46.802 L143.119,53.018 C143.119,53.625 143.176,54.003 143.289,54.153 C143.403,54.303 143.632,54.398 143.977,54.437 L143.977,54.743 L140.742,54.743 L140.742,53.682 ZM132.691,54.955 C132.300,54.955 131.967,54.819 131.693,54.544 C131.418,54.269 131.281,53.936 131.281,53.546 C131.281,53.154 131.418,52.821 131.693,52.543 C131.967,52.266 132.300,52.127 132.691,52.127 C133.087,52.127 133.422,52.266 133.697,52.543 C133.972,52.821 134.109,53.154 134.109,53.546 C134.109,53.936 133.970,54.269 133.692,54.544 C133.415,54.819 133.081,54.955 132.691,54.955 ZM125.964,54.437 C126.287,54.409 126.525,54.285 126.678,54.063 C126.780,53.911 126.830,53.560 126.830,53.010 L126.830,49.597 C126.830,48.889 126.803,48.439 126.746,48.247 C126.689,48.054 126.600,47.911 126.478,47.818 C126.357,47.724 126.213,47.677 126.050,47.677 C125.806,47.677 125.560,47.766 125.311,47.945 C125.061,48.124 124.810,48.391 124.555,48.748 L124.555,53.010 C124.555,53.583 124.603,53.942 124.699,54.090 C124.829,54.298 125.079,54.414 125.447,54.437 L125.447,54.743 L121.336,54.743 L121.336,54.437 C121.557,54.426 121.731,54.370 121.858,54.272 C121.986,54.173 122.070,54.054 122.113,53.915 C122.156,53.777 122.177,53.475 122.177,53.010 L122.177,49.597 C122.177,48.877 122.149,48.428 122.092,48.247 C122.035,48.065 121.940,47.924 121.807,47.821 C121.674,47.719 121.531,47.669 121.379,47.669 C121.152,47.669 120.945,47.729 120.759,47.847 C120.492,48.023 120.209,48.323 119.910,48.748 L119.910,53.010 C119.910,53.572 119.964,53.941 120.075,54.118 C120.185,54.298 120.416,54.403 120.767,54.437 L120.767,54.743 L116.674,54.743 L116.674,54.437 C117.008,54.403 117.246,54.296 117.387,54.115 C117.483,53.990 117.531,53.622 117.531,53.010 L117.531,48.526 C117.531,47.926 117.476,47.553 117.366,47.405 C117.255,47.258 117.025,47.162 116.674,47.117 L116.674,46.802 L119.910,46.802 L119.910,47.847 C120.345,47.371 120.749,47.039 121.120,46.849 C121.490,46.660 121.897,46.564 122.338,46.564 C122.848,46.564 123.275,46.684 123.621,46.922 C123.966,47.159 124.232,47.522 124.419,48.009 C124.872,47.499 125.306,47.131 125.722,46.904 C126.139,46.678 126.573,46.564 127.026,46.564 C127.575,46.564 128.012,46.691 128.338,46.943 C128.664,47.195 128.890,47.514 129.018,47.902 C129.146,48.290 129.209,48.909 129.209,49.758 L129.209,53.010 C129.209,53.622 129.264,54.002 129.374,54.149 C129.485,54.296 129.716,54.392 130.066,54.437 L130.066,54.743 L125.964,54.743 L125.964,54.437 ZM75.580,34.461 C53.117,34.461 34.907,26.751 34.907,17.240 C34.907,7.729 53.117,0.019 75.580,0.019 C98.041,0.019 116.252,7.729 116.252,17.240 C116.252,26.751 98.041,34.461 75.580,34.461 ZM66.986,18.122 C65.946,17.023 63.939,15.858 60.959,14.623 C58.829,13.734 57.472,13.118 56.885,12.769 C56.085,12.283 55.503,11.793 55.138,11.297 C54.876,10.927 54.745,10.505 54.745,10.030 C54.745,9.281 55.114,8.618 55.860,8.044 C56.607,7.468 57.617,7.181 58.893,7.181 C60.545,7.181 62.082,7.726 63.503,8.819 C64.921,9.912 65.816,11.355 66.180,13.150 L66.948,13.150 L66.740,5.992 L66.180,5.992 C66.015,6.637 65.841,7.042 65.652,7.212 C65.465,7.380 65.209,7.465 64.882,7.465 C64.546,7.465 63.955,7.294 63.108,6.950 C62.265,6.608 61.549,6.372 60.959,6.246 C60.182,6.076 59.383,5.992 58.556,5.992 C56.290,5.992 54.415,6.595 52.923,7.797 C51.433,9.001 50.689,10.458 50.689,12.168 C50.689,13.171 50.962,14.089 51.507,14.922 C52.051,15.757 52.829,16.512 53.844,17.186 C54.857,17.864 56.522,18.682 58.836,19.642 C60.489,20.329 61.642,20.884 62.293,21.312 C62.941,21.740 63.429,22.191 63.746,22.666 C64.064,23.141 64.228,23.633 64.228,24.139 C64.228,24.993 63.811,25.743 62.979,26.388 C62.147,27.032 61.029,27.352 59.623,27.352 C57.812,27.352 56.120,26.754 54.546,25.557 C52.975,24.357 51.915,22.619 51.365,20.337 L50.669,20.337 L50.669,28.445 L51.365,28.445 C51.589,28.012 51.887,27.692 52.248,27.480 C52.611,27.267 52.954,27.163 53.279,27.163 C53.668,27.163 54.163,27.267 54.763,27.480 C55.839,27.860 56.733,28.119 57.448,28.255 C58.160,28.394 58.920,28.462 59.718,28.462 C62.272,28.462 64.381,27.814 66.038,26.522 C67.697,25.229 68.525,23.684 68.525,21.890 C68.525,20.475 68.012,19.219 66.986,18.122 ZM100.985,27.368 L100.289,27.368 C99.686,27.368 99.206,27.265 98.848,27.060 C98.490,26.854 98.250,26.614 98.135,26.340 C98.018,26.065 97.960,25.379 97.960,24.281 L97.960,10.125 C97.960,9.059 98.018,8.399 98.135,8.146 C98.293,7.797 98.505,7.550 98.767,7.402 C99.149,7.181 99.655,7.070 100.289,7.070 L100.985,7.070 L100.985,6.484 L92.246,6.484 L86.416,20.639 L80.383,6.484 L71.612,6.484 L71.612,7.070 L72.294,7.070 C72.894,7.070 73.376,7.173 73.735,7.378 C74.094,7.584 74.331,7.820 74.445,8.091 C74.563,8.360 74.621,9.038 74.621,10.125 L74.621,23.712 C74.621,24.672 74.610,25.210 74.587,25.327 C74.472,25.822 74.311,26.208 74.099,26.483 C73.885,26.757 73.575,26.975 73.165,27.140 C72.753,27.303 72.308,27.379 71.831,27.368 L71.612,27.368 L71.612,27.955 L78.960,27.955 L78.960,27.368 C77.977,27.368 77.257,27.202 76.798,26.870 C76.340,26.538 76.041,26.107 75.905,25.580 C75.850,25.337 75.824,24.687 75.824,23.633 L75.824,8.510 L84.186,27.955 L84.566,27.955 L92.798,8.367 L92.798,24.281 C92.798,25.358 92.740,26.023 92.624,26.276 C92.465,26.636 92.255,26.889 91.990,27.037 C91.612,27.258 91.105,27.368 90.470,27.368 L89.774,27.368 L89.774,27.955 L100.985,27.955 L100.985,27.368 ZM35.068,47.847 C35.504,47.371 35.908,47.039 36.279,46.849 C36.649,46.660 37.056,46.564 37.497,46.564 C38.007,46.564 38.434,46.684 38.779,46.922 C39.125,47.159 39.392,47.522 39.578,48.009 C40.031,47.499 40.465,47.131 40.882,46.904 C41.298,46.678 41.732,46.564 42.186,46.564 C42.735,46.564 43.172,46.691 43.497,46.943 C43.823,47.195 44.049,47.514 44.177,47.902 C44.304,48.290 44.368,48.909 44.368,49.758 L44.368,53.010 C44.368,53.622 44.423,54.002 44.533,54.149 C44.644,54.296 44.875,54.392 45.226,54.437 L45.226,54.743 L41.123,54.743 L41.123,54.437 C41.447,54.409 41.684,54.285 41.837,54.063 C41.939,53.911 41.990,53.560 41.990,53.010 L41.990,49.597 C41.990,48.889 41.961,48.439 41.905,48.247 C41.848,48.054 41.759,47.911 41.638,47.818 C41.516,47.724 41.373,47.677 41.209,47.677 C40.965,47.677 40.719,47.766 40.469,47.945 C40.221,48.124 39.968,48.391 39.714,48.748 L39.714,53.010 C39.714,53.583 39.762,53.942 39.858,54.090 C39.989,54.298 40.237,54.414 40.606,54.437 L40.606,54.743 L36.495,54.743 L36.495,54.437 C36.716,54.426 36.890,54.370 37.017,54.272 C37.145,54.173 37.230,54.054 37.272,53.915 C37.315,53.777 37.336,53.475 37.336,53.010 L37.336,49.597 C37.336,48.877 37.308,48.428 37.251,48.247 C37.194,48.065 37.099,47.924 36.966,47.821 C36.834,47.719 36.691,47.669 36.538,47.669 C36.311,47.669 36.104,47.729 35.918,47.847 C35.652,48.023 35.369,48.323 35.068,48.748 L35.068,53.010 C35.068,53.572 35.124,53.941 35.234,54.118 C35.345,54.298 35.575,54.403 35.927,54.437 L35.927,54.743 L31.833,54.743 L31.833,54.437 C32.166,54.403 32.405,54.296 32.547,54.115 C32.642,53.990 32.690,53.622 32.690,53.010 L32.690,48.526 C32.690,47.926 32.636,47.553 32.525,47.405 C32.414,47.258 32.184,47.162 31.833,47.117 L31.833,46.802 L35.068,46.802 L35.068,47.847 ZM27.391,53.682 C27.012,54.134 26.632,54.465 26.253,54.672 C25.874,54.877 25.449,54.981 24.979,54.981 C24.532,54.981 24.134,54.843 23.786,54.570 C23.438,54.295 23.204,53.973 23.085,53.606 C22.967,53.237 22.907,52.595 22.907,51.678 L22.907,48.526 C22.907,47.926 22.852,47.553 22.741,47.405 C22.631,47.258 22.400,47.162 22.049,47.117 L22.049,46.802 L25.285,46.802 L25.285,52.229 C25.285,52.795 25.312,53.161 25.366,53.325 C25.419,53.489 25.504,53.614 25.621,53.698 C25.736,53.783 25.871,53.826 26.024,53.826 C26.228,53.826 26.412,53.772 26.575,53.664 C26.803,53.517 27.074,53.221 27.391,52.773 L27.391,48.526 C27.391,47.926 27.336,47.553 27.226,47.405 C27.115,47.258 26.885,47.162 26.533,47.117 L26.533,46.802 L29.769,46.802 L29.769,53.018 C29.769,53.625 29.825,54.003 29.939,54.153 C30.052,54.303 30.282,54.398 30.627,54.437 L30.627,54.743 L27.391,54.743 L27.391,53.682 ZM20.308,48.884 C20.008,48.884 19.748,48.787 19.527,48.594 C19.306,48.402 19.176,48.295 19.136,48.272 C19.080,48.238 19.015,48.220 18.941,48.220 C18.777,48.220 18.621,48.284 18.474,48.408 C18.242,48.601 18.066,48.874 17.948,49.232 C17.766,49.780 17.675,50.387 17.675,51.048 L17.675,52.875 L17.684,53.350 C17.684,53.674 17.704,53.880 17.743,53.970 C17.812,54.123 17.912,54.235 18.045,54.306 C18.178,54.377 18.403,54.421 18.720,54.437 L18.720,54.743 L14.432,54.743 L14.432,54.437 C14.776,54.409 15.010,54.314 15.132,54.153 C15.254,53.992 15.315,53.566 15.315,52.875 L15.315,48.485 C15.315,48.031 15.292,47.742 15.247,47.618 C15.190,47.459 15.108,47.344 15.000,47.270 C14.893,47.197 14.704,47.145 14.432,47.117 L14.432,46.802 L17.675,46.802 L17.675,48.603 C18.202,47.782 18.664,47.237 19.060,46.969 C19.456,46.699 19.838,46.564 20.207,46.564 C20.523,46.564 20.777,46.663 20.966,46.858 C21.156,47.053 21.251,47.329 21.251,47.685 C21.251,48.065 21.159,48.360 20.975,48.569 C20.792,48.779 20.569,48.884 20.308,48.884 ZM10.363,53.266 C10.675,53.508 11.043,53.630 11.468,53.630 C11.745,53.630 12.008,53.566 12.257,53.435 C12.506,53.305 12.801,53.059 13.140,52.696 L13.404,52.901 C13.030,53.602 12.565,54.125 12.007,54.467 C11.449,54.809 10.856,54.981 10.228,54.981 C9.169,54.981 8.323,54.581 7.688,53.783 C7.054,52.985 6.737,52.025 6.737,50.905 C6.737,49.823 7.026,48.872 7.603,48.051 C8.300,47.061 9.260,46.564 10.483,46.564 C11.303,46.564 11.956,46.772 12.440,47.185 C12.924,47.598 13.166,48.059 13.166,48.569 C13.166,48.892 13.068,49.149 12.873,49.341 C12.678,49.534 12.422,49.631 12.104,49.631 C11.770,49.631 11.495,49.520 11.276,49.300 C11.059,49.078 10.924,48.685 10.873,48.119 C10.839,47.762 10.757,47.514 10.627,47.371 C10.496,47.230 10.344,47.159 10.168,47.159 C9.896,47.159 9.665,47.304 9.472,47.593 C9.178,48.028 9.030,48.697 9.030,49.597 C9.030,50.345 9.149,51.059 9.386,51.741 C9.625,52.423 9.950,52.931 10.363,53.266 ZM4.190,54.641 C3.787,54.867 3.343,54.981 2.856,54.981 C2.477,54.981 1.970,54.862 1.336,54.625 C1.166,54.562 1.050,54.531 0.987,54.531 C0.801,54.531 0.645,54.672 0.521,54.955 L0.240,54.955 L0.105,52.102 L0.393,52.102 C0.648,52.849 0.997,53.410 1.442,53.783 C1.887,54.157 2.307,54.344 2.704,54.344 C2.975,54.344 3.197,54.261 3.370,54.094 C3.543,53.926 3.629,53.724 3.629,53.486 C3.629,53.214 3.544,52.980 3.374,52.782 C3.204,52.583 2.825,52.283 2.236,51.882 C1.370,51.281 0.809,50.822 0.555,50.505 C0.181,50.041 -0.006,49.529 -0.006,48.968 C-0.006,48.357 0.205,47.804 0.627,47.308 C1.049,46.812 1.659,46.564 2.457,46.564 C2.887,46.564 3.304,46.669 3.705,46.879 C3.859,46.964 3.983,47.006 4.079,47.006 C4.181,47.006 4.263,46.985 4.325,46.943 C4.388,46.900 4.487,46.780 4.623,46.582 L4.911,46.582 L5.039,49.291 L4.750,49.291 C4.404,48.487 4.046,47.937 3.676,47.644 C3.305,47.348 2.936,47.202 2.567,47.202 C2.335,47.202 2.137,47.280 1.972,47.435 C1.809,47.591 1.726,47.771 1.726,47.975 C1.726,48.127 1.783,48.274 1.896,48.417 C2.078,48.648 2.584,49.045 3.416,49.609 C4.249,50.173 4.797,50.651 5.060,51.045 C5.323,51.438 5.455,51.878 5.455,52.365 C5.455,52.807 5.345,53.240 5.124,53.664 C4.903,54.090 4.591,54.414 4.190,54.641 ZM49.557,47.847 C49.993,47.371 50.396,47.039 50.767,46.849 C51.138,46.660 51.544,46.564 51.986,46.564 C52.496,46.564 52.923,46.684 53.268,46.922 C53.614,47.159 53.880,47.522 54.066,48.009 C54.519,47.499 54.954,47.131 55.370,46.904 C55.786,46.678 56.220,46.564 56.674,46.564 C57.223,46.564 57.660,46.691 57.986,46.943 C58.311,47.195 58.538,47.514 58.665,47.902 C58.792,48.290 58.856,48.909 58.856,49.758 L58.856,53.010 C58.856,53.622 58.912,54.002 59.022,54.149 C59.132,54.296 59.363,54.392 59.714,54.437 L59.714,54.743 L55.612,54.743 L55.612,54.437 C55.935,54.409 56.173,54.285 56.325,54.063 C56.427,53.911 56.478,53.560 56.478,53.010 L56.478,49.597 C56.478,48.889 56.450,48.439 56.394,48.247 C56.337,48.054 56.247,47.911 56.126,47.818 C56.004,47.724 55.861,47.677 55.697,47.677 C55.453,47.677 55.207,47.766 54.958,47.945 C54.709,48.124 54.457,48.391 54.202,48.748 L54.202,53.010 C54.202,53.583 54.250,53.942 54.347,54.090 C54.477,54.298 54.726,54.414 55.093,54.437 L55.093,54.743 L50.983,54.743 L50.983,54.437 C51.204,54.426 51.379,54.370 51.505,54.272 C51.633,54.173 51.718,54.054 51.760,53.915 C51.803,53.777 51.824,53.475 51.824,53.010 L51.824,49.597 C51.824,48.877 51.796,48.428 51.739,48.247 C51.683,48.065 51.588,47.924 51.455,47.821 C51.322,47.719 51.178,47.669 51.026,47.669 C50.799,47.669 50.593,47.729 50.406,47.847 C50.140,48.023 49.856,48.323 49.557,48.748 L49.557,53.010 C49.557,53.572 49.612,53.941 49.723,54.118 C49.833,54.298 50.064,54.403 50.414,54.437 L50.414,54.743 L46.321,54.743 L46.321,54.437 C46.656,54.403 46.893,54.296 47.035,54.115 C47.131,53.990 47.179,53.622 47.179,53.010 L47.179,48.526 C47.179,47.926 47.124,47.553 47.013,47.405 C46.903,47.258 46.673,47.162 46.321,47.117 L46.321,46.802 L49.557,46.802 L49.557,47.847 ZM65.132,49.724 L65.132,48.926 C65.132,48.326 65.100,47.947 65.035,47.792 C64.969,47.637 64.846,47.501 64.665,47.385 C64.484,47.268 64.280,47.210 64.054,47.210 C63.686,47.210 63.382,47.292 63.145,47.457 C62.998,47.559 62.924,47.677 62.924,47.813 C62.924,47.932 63.003,48.080 63.162,48.255 C63.377,48.499 63.484,48.733 63.484,48.960 C63.484,49.237 63.382,49.474 63.175,49.668 C62.968,49.864 62.698,49.961 62.363,49.961 C62.007,49.961 61.708,49.854 61.468,49.639 C61.227,49.424 61.106,49.172 61.106,48.884 C61.106,48.476 61.269,48.086 61.591,47.716 C61.914,47.345 62.363,47.061 62.941,46.862 C63.519,46.664 64.119,46.564 64.741,46.564 C65.494,46.564 66.090,46.725 66.529,47.045 C66.968,47.364 67.253,47.711 67.383,48.085 C67.462,48.323 67.502,48.869 67.502,49.724 L67.502,52.807 C67.502,53.169 67.516,53.397 67.544,53.491 C67.572,53.585 67.615,53.653 67.672,53.698 C67.728,53.743 67.793,53.766 67.867,53.766 C68.014,53.766 68.164,53.662 68.316,53.452 L68.571,53.656 C68.289,54.074 67.995,54.379 67.693,54.570 C67.390,54.759 67.046,54.853 66.661,54.853 C66.208,54.853 65.854,54.747 65.600,54.535 C65.345,54.322 65.189,54.002 65.132,53.572 C64.164,54.426 63.295,54.853 62.525,54.853 C62.071,54.853 61.696,54.705 61.396,54.408 C61.095,54.111 60.945,53.738 60.945,53.290 C60.945,52.685 61.205,52.140 61.727,51.657 C62.247,51.172 63.382,50.528 65.132,49.724 ZM63.552,53.198 C63.694,53.350 63.892,53.426 64.147,53.426 C64.430,53.426 64.759,53.268 65.132,52.951 L65.132,50.293 C64.447,50.695 63.937,51.126 63.604,51.584 C63.382,51.889 63.273,52.198 63.273,52.509 C63.273,52.770 63.366,52.999 63.552,53.198 ZM71.790,51.882 C70.924,51.281 70.364,50.822 70.109,50.505 C69.735,50.041 69.548,49.529 69.548,48.968 C69.548,48.357 69.759,47.804 70.181,47.308 C70.603,46.812 71.213,46.564 72.011,46.564 C72.442,46.564 72.858,46.669 73.260,46.879 C73.412,46.964 73.537,47.006 73.633,47.006 C73.735,47.006 73.817,46.985 73.879,46.943 C73.942,46.900 74.041,46.780 74.176,46.582 L74.465,46.582 L74.593,49.291 L74.304,49.291 C73.958,48.487 73.601,47.937 73.230,47.644 C72.859,47.348 72.490,47.202 72.122,47.202 C71.889,47.202 71.691,47.280 71.527,47.435 C71.363,47.591 71.281,47.771 71.281,47.975 C71.281,48.127 71.338,48.274 71.450,48.417 C71.632,48.648 72.139,49.045 72.971,49.609 C73.803,50.173 74.351,50.651 74.615,51.045 C74.878,51.438 75.009,51.878 75.009,52.365 C75.009,52.807 74.899,53.240 74.677,53.664 C74.457,54.090 74.145,54.414 73.744,54.641 C73.341,54.867 72.897,54.981 72.411,54.981 C72.031,54.981 71.524,54.862 70.890,54.625 C70.721,54.562 70.604,54.531 70.542,54.531 C70.355,54.531 70.199,54.672 70.075,54.955 L69.794,54.955 L69.659,52.102 L69.948,52.102 C70.203,52.849 70.552,53.410 70.996,53.783 C71.440,54.157 71.861,54.344 72.257,54.344 C72.529,54.344 72.751,54.261 72.924,54.094 C73.096,53.926 73.183,53.724 73.183,53.486 C73.183,53.214 73.098,52.980 72.929,52.782 C72.759,52.583 72.380,52.283 71.790,51.882 ZM79.085,43.898 L79.366,43.898 L79.366,46.802 L81.251,46.802 L81.251,47.644 L79.366,47.644 L79.366,52.543 C79.366,53.003 79.387,53.299 79.430,53.431 C79.472,53.564 79.547,53.672 79.654,53.754 C79.762,53.836 79.861,53.877 79.952,53.877 C80.319,53.877 80.668,53.596 80.997,53.036 L81.251,53.222 C80.793,54.310 80.048,54.853 79.018,54.853 C78.514,54.853 78.087,54.714 77.740,54.434 C77.391,54.153 77.169,53.840 77.073,53.494 C77.016,53.302 76.988,52.782 76.988,51.932 L76.988,47.644 L75.951,47.644 L75.951,47.346 C76.665,46.842 77.272,46.313 77.773,45.758 C78.275,45.204 78.712,44.583 79.085,43.898 ZM85.684,46.564 C86.488,46.564 87.186,46.894 87.778,47.554 C88.369,48.214 88.688,49.192 88.733,50.488 L84.377,50.488 C84.428,51.542 84.708,52.373 85.217,52.985 C85.607,53.455 86.078,53.690 86.627,53.690 C86.967,53.690 87.275,53.595 87.553,53.405 C87.830,53.216 88.127,52.875 88.445,52.383 L88.733,52.569 C88.303,53.447 87.827,54.068 87.307,54.434 C86.786,54.798 86.183,54.981 85.497,54.981 C84.320,54.981 83.428,54.528 82.823,53.622 C82.335,52.892 82.092,51.986 82.092,50.905 C82.092,49.580 82.450,48.525 83.166,47.741 C83.883,46.957 84.722,46.564 85.684,46.564 ZM84.334,49.919 L86.644,49.919 C86.644,49.008 86.594,48.382 86.496,48.042 C86.396,47.703 86.242,47.445 86.032,47.270 C85.914,47.168 85.755,47.117 85.557,47.117 C85.262,47.117 85.022,47.261 84.835,47.550 C84.501,48.054 84.334,48.745 84.334,49.621 L84.334,49.919 ZM93.022,48.603 C93.548,47.782 94.010,47.237 94.406,46.969 C94.802,46.699 95.185,46.564 95.553,46.564 C95.870,46.564 96.123,46.663 96.312,46.858 C96.502,47.053 96.597,47.329 96.597,47.685 C96.597,48.065 96.505,48.360 96.321,48.569 C96.137,48.779 95.915,48.884 95.655,48.884 C95.355,48.884 95.094,48.787 94.873,48.594 C94.652,48.402 94.522,48.295 94.483,48.272 C94.426,48.238 94.361,48.220 94.287,48.220 C94.123,48.220 93.967,48.284 93.820,48.408 C93.588,48.601 93.413,48.874 93.293,49.232 C93.112,49.780 93.022,50.387 93.022,51.048 L93.022,52.875 L93.030,53.350 C93.030,53.674 93.050,53.880 93.089,53.970 C93.158,54.123 93.258,54.235 93.391,54.306 C93.524,54.377 93.750,54.421 94.066,54.437 L94.066,54.743 L89.778,54.743 L89.778,54.437 C90.123,54.409 90.357,54.314 90.478,54.153 C90.600,53.992 90.661,53.566 90.661,52.875 L90.661,48.485 C90.661,48.031 90.639,47.742 90.593,47.618 C90.536,47.459 90.454,47.344 90.347,47.270 C90.239,47.197 90.049,47.145 89.778,47.117 L89.778,46.802 L93.022,46.802 L93.022,48.603 ZM97.438,52.127 C97.834,52.127 98.170,52.266 98.445,52.543 C98.719,52.821 98.856,53.154 98.856,53.546 C98.856,53.936 98.717,54.269 98.440,54.544 C98.163,54.819 97.828,54.955 97.438,54.955 C97.047,54.955 96.715,54.819 96.440,54.544 C96.165,54.269 96.028,53.936 96.028,53.546 C96.028,53.154 96.165,52.821 96.440,52.543 C96.715,52.266 97.047,52.127 97.438,52.127 ZM104.020,46.564 C104.841,46.564 105.493,46.772 105.977,47.185 C106.461,47.598 106.704,48.059 106.704,48.569 C106.704,48.892 106.606,49.149 106.410,49.341 C106.215,49.534 105.959,49.631 105.642,49.631 C105.308,49.631 105.032,49.520 104.814,49.300 C104.596,49.078 104.461,48.685 104.410,48.119 C104.377,47.762 104.294,47.514 104.164,47.371 C104.034,47.230 103.881,47.159 103.706,47.159 C103.433,47.159 103.201,47.304 103.010,47.593 C102.714,48.028 102.568,48.697 102.568,49.597 C102.568,50.345 102.687,51.059 102.924,51.741 C103.162,52.423 103.488,52.931 103.901,53.266 C104.212,53.508 104.580,53.630 105.005,53.630 C105.283,53.630 105.546,53.566 105.794,53.435 C106.044,53.305 106.338,53.059 106.678,52.696 L106.941,52.901 C106.567,53.602 106.102,54.125 105.544,54.467 C104.986,54.809 104.393,54.981 103.765,54.981 C102.706,54.981 101.860,54.581 101.226,53.783 C100.591,52.985 100.274,52.025 100.274,50.905 C100.274,49.823 100.563,48.872 101.140,48.051 C101.837,47.061 102.797,46.564 104.020,46.564 ZM111.663,46.564 C112.354,46.564 112.996,46.744 113.591,47.100 C114.186,47.457 114.637,47.963 114.945,48.620 C115.254,49.277 115.408,49.996 115.408,50.777 C115.408,51.904 115.122,52.847 114.550,53.606 C113.860,54.523 112.906,54.981 111.689,54.981 C110.494,54.981 109.574,54.562 108.928,53.724 C108.283,52.886 107.960,51.915 107.960,50.811 C107.960,49.673 108.290,48.681 108.950,47.834 C109.609,46.988 110.514,46.564 111.663,46.564 ZM110.568,53.164 C110.629,53.566 110.763,53.871 110.967,54.081 C111.171,54.290 111.403,54.395 111.663,54.395 C111.918,54.395 112.130,54.324 112.300,54.183 C112.521,53.990 112.668,53.721 112.742,53.376 C112.855,52.838 112.911,51.750 112.911,50.115 C112.911,49.152 112.858,48.491 112.750,48.132 C112.643,47.773 112.484,47.510 112.275,47.346 C112.127,47.228 111.935,47.168 111.697,47.168 C111.408,47.168 111.161,47.277 110.954,47.494 C110.747,47.713 110.612,48.143 110.546,48.785 C110.481,49.428 110.448,50.322 110.448,51.465 C110.448,52.071 110.488,52.637 110.568,53.164 Z" class="cls-1"/>
</svg>
