<svg xmlns="http://www.w3.org/2000/svg" xmlns:xlink="http://www.w3.org/1999/xlink" preserveAspectRatio="xMidYMid" width="140.88" height="56.5" viewBox="0 0 140.88 56.5">
  <defs>
    <style>
      .cls-1 {
        fill: #fff;
        fill-rule: evenodd;
      }
    </style>
  </defs>
  <path d="M140.849,39.894 C140.849,38.615 140.849,37.335 140.849,36.055 C140.860,36.059 140.872,36.062 140.883,36.066 C140.883,37.341 140.883,38.618 140.883,39.894 C140.872,39.894 140.860,39.894 140.849,39.894 ZM140.337,40.105 C138.191,41.226 136.029,42.318 133.868,43.411 C131.630,44.545 129.414,45.724 127.182,46.870 C124.937,48.021 122.683,49.155 120.435,50.299 C118.670,51.198 116.908,52.101 115.144,53.000 C113.031,54.077 110.917,55.152 108.803,56.227 C108.744,56.257 108.625,56.291 108.627,56.305 C108.682,56.576 108.475,56.466 108.383,56.458 C108.197,56.444 108.267,56.272 108.266,56.174 C108.256,55.457 108.261,54.738 108.261,54.020 C108.263,54.020 108.265,54.020 108.267,54.020 C108.267,53.387 108.302,52.752 108.254,52.122 C108.224,51.720 108.413,51.531 108.716,51.382 C109.962,50.769 111.212,50.164 112.455,49.546 C114.470,48.541 116.466,47.494 118.501,46.530 C120.475,45.595 122.415,44.591 124.376,43.630 C126.721,42.480 129.051,41.300 131.390,40.139 C132.683,39.499 133.981,38.869 135.279,38.242 C135.403,38.183 135.559,38.167 135.567,37.999 C135.575,37.825 135.420,37.804 135.296,37.743 C133.326,36.766 131.361,35.781 129.393,34.802 C127.406,33.813 125.417,32.831 123.430,31.842 C121.455,30.860 119.483,29.870 117.507,28.890 C115.503,27.895 113.493,26.912 111.489,25.918 C110.488,25.421 109.498,24.902 108.493,24.413 C108.297,24.317 108.263,24.200 108.264,24.015 C108.268,22.613 108.271,21.210 108.264,19.807 C108.263,19.467 108.392,19.420 108.671,19.563 C111.578,21.059 114.484,22.558 117.395,24.047 C120.619,25.696 123.850,27.334 127.075,28.982 C129.712,30.330 132.343,31.691 134.981,33.039 C136.746,33.941 138.517,34.831 140.286,35.725 C140.535,35.850 140.666,36.016 140.661,36.325 C140.641,37.403 140.649,38.481 140.654,39.558 C140.656,39.812 140.614,39.961 140.337,40.105 ZM95.967,35.933 C94.482,35.958 92.995,35.975 91.514,35.824 C91.057,35.778 90.601,35.721 90.144,35.686 C89.828,35.662 89.817,35.466 89.819,35.221 C89.827,34.229 89.824,33.237 89.824,32.245 C89.824,29.150 89.824,26.054 89.824,22.958 C89.823,22.958 89.822,22.958 89.820,22.958 C89.820,18.854 89.823,14.750 89.813,10.645 C89.813,10.392 89.871,10.292 90.125,10.229 C91.252,9.947 92.405,9.826 93.556,9.766 C95.141,9.684 96.734,9.644 98.318,9.796 C100.475,10.002 102.426,10.686 103.917,12.362 C104.607,13.137 105.002,14.065 105.142,15.064 C105.426,17.084 104.925,18.884 103.393,20.311 C102.810,20.854 102.165,21.322 101.404,21.599 C101.286,21.642 101.166,21.690 101.166,21.830 C101.166,22.010 101.326,22.015 101.456,22.056 C103.622,22.762 105.227,24.127 105.882,26.320 C106.947,29.886 105.242,33.591 101.671,34.951 C99.826,35.653 97.915,35.898 95.967,35.933 ZM101.705,17.393 C102.040,16.023 101.584,14.193 100.322,13.350 C99.400,12.733 98.377,12.470 97.308,12.374 C96.169,12.272 95.024,12.284 93.884,12.438 C93.434,12.500 93.216,12.648 93.243,13.185 C93.301,14.345 93.261,15.510 93.261,16.672 C93.261,17.904 93.285,19.136 93.247,20.366 C93.236,20.748 93.375,20.801 93.680,20.798 C94.757,20.791 95.837,20.842 96.911,20.780 C99.004,20.659 101.152,19.653 101.705,17.393 ZM102.261,26.546 C101.624,24.876 100.227,24.101 98.626,23.657 C96.975,23.198 95.267,23.394 93.581,23.360 C93.331,23.354 93.240,23.454 93.243,23.735 C93.263,25.238 93.252,26.742 93.252,28.246 C93.255,28.246 93.258,28.246 93.261,28.246 C93.261,29.683 93.290,31.120 93.246,32.554 C93.230,33.066 93.422,33.201 93.871,33.246 C95.305,33.389 96.733,33.398 98.149,33.115 C99.909,32.763 101.446,32.074 102.203,30.275 C102.724,29.037 102.733,27.787 102.261,26.546 ZM95.844,40.010 C96.377,40.039 96.887,40.159 97.404,40.272 C97.718,40.340 97.818,40.467 97.733,40.756 C97.686,40.918 97.612,41.074 97.563,41.235 C97.480,41.506 97.432,41.577 97.079,41.438 C96.188,41.088 95.243,40.997 94.278,41.199 C93.445,41.371 92.696,41.651 92.079,42.272 C91.080,43.275 90.885,44.522 90.973,45.838 C91.026,46.634 91.241,47.405 91.733,48.070 C92.663,49.325 93.966,49.661 95.435,49.567 C97.081,49.461 96.740,49.370 96.755,48.153 C96.761,47.622 96.738,47.090 96.764,46.562 C96.781,46.236 96.665,46.144 96.352,46.161 C95.909,46.187 95.462,46.152 95.020,46.179 C94.739,46.196 94.666,46.085 94.652,45.831 C94.611,45.049 94.612,45.041 95.386,45.041 C96.139,45.042 96.892,45.055 97.643,45.032 C98.025,45.020 98.164,45.153 98.152,45.536 C98.131,46.236 98.146,46.938 98.146,47.639 C98.146,47.639 98.145,47.639 98.144,47.639 C98.144,48.323 98.131,49.007 98.149,49.691 C98.158,50.049 97.998,50.194 97.669,50.296 C96.863,50.547 96.025,50.671 95.202,50.683 C93.330,50.712 91.538,50.369 90.434,48.630 C89.530,47.208 89.311,45.645 89.703,43.982 C90.052,42.504 90.855,41.404 92.177,40.679 C93.323,40.048 94.565,39.939 95.844,40.010 ZM88.265,50.593 C87.550,50.674 87.234,50.346 86.895,49.784 C85.784,47.948 84.586,46.166 83.467,44.336 C83.057,43.664 82.624,42.991 82.362,42.237 C82.334,42.154 82.318,42.050 82.222,42.050 C82.087,42.052 82.075,42.179 82.077,42.277 C82.091,42.808 82.129,43.337 82.130,43.866 C82.137,45.970 82.125,48.075 82.141,50.179 C82.144,50.506 82.046,50.587 81.734,50.582 C80.843,50.568 80.843,50.580 80.843,49.694 C80.843,48.256 80.843,46.819 80.842,45.382 C80.842,43.791 80.857,42.199 80.831,40.610 C80.824,40.168 80.969,40.023 81.387,40.073 C81.590,40.097 81.800,40.096 82.002,40.068 C82.268,40.034 82.440,40.178 82.553,40.364 C84.059,42.869 85.744,45.264 87.144,47.833 C87.177,47.893 87.200,47.958 87.220,48.022 C87.266,48.168 87.297,48.369 87.497,48.313 C87.718,48.251 87.565,48.057 87.560,47.922 C87.536,47.307 87.483,46.694 87.480,46.080 C87.469,44.250 87.485,42.419 87.469,40.589 C87.465,40.208 87.521,40.037 87.969,40.068 C88.762,40.124 88.764,40.091 88.764,40.902 C88.764,43.964 88.755,47.027 88.775,50.089 C88.777,50.508 88.658,50.548 88.265,50.593 ZM87.632,35.698 C84.538,35.687 81.443,35.687 78.349,35.698 C78.052,35.699 77.965,35.623 77.974,35.325 C77.997,34.643 77.998,33.957 77.974,33.274 C77.961,32.941 78.046,32.840 78.398,32.845 C79.935,32.867 81.475,32.854 83.013,32.854 C83.013,32.855 83.013,32.856 83.013,32.857 C84.535,32.857 86.056,32.869 87.578,32.848 C87.920,32.843 88.020,32.921 88.004,33.270 C87.973,33.952 87.980,34.638 88.002,35.321 C88.011,35.615 87.933,35.699 87.632,35.698 ZM82.400,20.784 C82.400,20.785 82.400,20.786 82.400,20.786 C83.715,20.786 85.030,20.795 86.344,20.781 C86.724,20.776 86.897,20.845 86.858,21.293 C86.803,21.920 86.819,22.557 86.858,23.186 C86.877,23.506 86.793,23.628 86.481,23.627 C83.750,23.625 81.017,23.624 78.286,23.631 C78.030,23.632 77.973,23.532 77.977,23.295 C77.991,22.578 77.997,21.860 77.974,21.144 C77.964,20.839 78.064,20.774 78.354,20.777 C79.703,20.792 81.051,20.784 82.400,20.784 ZM86.905,12.739 C83.722,12.722 80.540,12.734 77.358,12.718 C76.942,12.716 76.837,12.859 76.837,13.257 C76.843,20.574 76.834,27.890 76.839,35.208 C76.840,35.548 76.782,35.703 76.396,35.691 C75.541,35.666 74.685,35.680 73.830,35.692 C73.525,35.696 73.386,35.647 73.387,35.268 C73.406,31.129 73.399,26.988 73.399,22.848 C73.397,22.848 73.395,22.848 73.394,22.848 C73.394,18.691 73.398,14.534 73.386,10.377 C73.385,9.959 73.535,9.861 73.928,9.862 C78.257,9.873 82.585,9.871 86.913,9.860 C87.303,9.858 87.476,9.957 87.453,10.380 C87.422,10.977 87.419,11.578 87.452,12.175 C87.475,12.602 87.338,12.741 86.905,12.739 ZM73.631,49.779 C73.622,49.932 73.612,50.089 73.631,50.239 C73.667,50.524 73.541,50.586 73.278,50.585 C71.585,50.573 69.892,50.568 68.198,50.580 C67.842,50.583 67.744,50.486 67.751,50.112 C67.778,48.522 67.762,46.931 67.762,45.340 C67.758,45.340 67.754,45.340 67.750,45.340 C67.750,43.749 67.761,42.158 67.743,40.567 C67.738,40.188 67.851,40.056 68.238,40.070 C69.267,40.104 69.146,39.959 69.146,40.970 C69.143,43.604 69.151,46.239 69.136,48.872 C69.134,49.278 69.258,49.411 69.666,49.403 C70.846,49.379 72.027,49.408 73.206,49.383 C73.530,49.376 73.650,49.470 73.631,49.779 ZM69.000,33.663 C67.740,35.308 66.069,36.297 64.048,36.772 C62.406,37.158 60.763,37.218 59.119,36.955 C56.530,36.541 54.455,35.292 53.141,32.958 C52.910,32.548 52.822,32.686 52.648,32.963 C51.364,34.999 49.535,36.229 47.190,36.777 C45.528,37.166 43.867,37.224 42.209,36.942 C38.973,36.390 36.724,34.577 35.610,31.463 C34.929,29.558 34.553,27.597 34.606,25.549 C34.664,23.343 34.619,21.136 34.619,18.929 C34.619,18.929 34.618,18.929 34.618,18.929 C34.618,16.089 34.624,13.250 34.611,10.410 C34.609,9.998 34.700,9.832 35.159,9.856 C35.995,9.900 36.835,9.887 37.671,9.858 C38.080,9.844 38.211,9.981 38.210,10.384 C38.199,15.447 38.197,20.510 38.199,25.574 C38.200,27.448 38.392,29.299 39.229,31.003 C40.150,32.876 41.630,34.008 43.771,34.171 C45.272,34.286 46.704,34.101 47.972,33.226 C49.396,32.242 50.132,30.810 50.522,29.171 C50.888,27.631 50.926,26.061 50.927,24.490 C50.930,19.785 50.925,15.082 50.918,10.377 C50.917,10.031 50.998,9.878 51.408,9.853 C52.449,9.791 53.486,9.796 54.527,9.850 C54.931,9.870 55.051,10.017 55.049,10.411 C55.037,13.764 55.044,17.117 55.043,20.469 C55.042,22.197 55.006,23.926 55.044,25.652 C55.085,27.550 55.226,29.441 56.147,31.166 C57.119,32.987 58.597,34.036 60.694,34.176 C62.218,34.279 63.651,34.058 64.920,33.148 C66.104,32.298 66.783,31.099 67.207,29.739 C67.668,28.256 67.738,26.721 67.737,25.180 C67.734,20.253 67.738,15.326 67.728,10.399 C67.727,10.011 67.821,9.840 68.245,9.854 C69.082,9.881 69.921,9.871 70.758,9.856 C71.117,9.850 71.241,9.999 71.240,10.346 C71.233,15.769 71.285,21.192 71.207,26.614 C71.171,29.147 70.591,31.587 69.000,33.663 ZM32.545,2.404 C32.542,2.404 32.539,2.404 32.536,2.404 C32.536,2.883 32.470,3.374 32.550,3.839 C32.693,4.671 32.258,5.042 31.595,5.369 C28.864,6.712 26.149,8.088 23.424,9.445 C21.289,10.507 19.143,11.547 17.013,12.618 C14.208,14.028 11.416,15.462 8.614,16.879 C7.675,17.354 6.722,17.803 5.781,18.273 C5.624,18.351 5.375,18.380 5.383,18.612 C5.390,18.803 5.621,18.767 5.750,18.832 C9.140,20.528 12.535,22.214 15.923,23.913 C19.251,25.581 22.567,27.271 25.899,28.932 C27.990,29.974 30.112,30.953 32.185,32.033 C32.440,32.165 32.522,32.305 32.520,32.580 C32.507,33.931 32.503,35.282 32.524,36.634 C32.531,37.057 32.351,37.062 32.065,36.912 C30.190,35.932 28.323,34.935 26.443,33.964 C24.395,32.905 22.336,31.869 20.282,30.821 C17.234,29.265 14.184,27.714 11.141,26.149 C8.233,24.653 5.335,23.139 2.431,21.638 C1.845,21.335 1.250,21.050 0.661,20.757 C0.341,20.597 0.151,20.402 0.170,19.980 C0.213,19.007 0.195,18.030 0.177,17.056 C0.172,16.738 0.285,16.562 0.567,16.418 C2.530,15.415 4.485,14.397 6.443,13.386 C8.907,12.111 11.370,10.835 13.836,9.565 C16.200,8.348 18.571,7.144 20.933,5.924 C23.869,4.407 26.799,2.878 29.735,1.361 C30.487,0.972 31.251,0.604 32.011,0.231 C32.080,0.196 32.111,0.209 32.109,0.085 C32.106,-0.068 32.324,0.015 32.443,0.017 C32.610,0.019 32.542,0.163 32.543,0.250 C32.547,0.968 32.545,1.687 32.545,2.404 ZM-0.003,16.780 C0.006,16.780 0.015,16.780 0.024,16.780 C0.024,17.979 0.024,19.178 0.024,20.377 C0.015,20.377 0.006,20.377 -0.003,20.377 C-0.003,19.178 -0.003,17.979 -0.003,16.780 ZM41.310,39.977 C41.797,40.035 42.293,40.032 42.751,40.270 C42.953,40.374 43.036,40.397 42.922,40.664 C42.599,41.411 42.629,41.392 41.834,41.206 C40.064,40.793 38.249,41.176 37.284,42.579 C36.488,43.736 36.278,45.040 36.568,46.421 C36.727,47.180 36.976,47.890 37.527,48.460 C38.367,49.327 39.411,49.630 40.472,49.580 C41.136,49.576 41.676,49.542 42.197,49.336 C42.543,49.199 42.805,49.188 42.839,49.711 C42.877,50.292 42.831,50.412 42.248,50.544 C41.018,50.821 39.787,50.905 38.559,50.556 C37.310,50.201 36.285,49.479 35.730,48.313 C34.687,46.121 34.711,43.905 36.185,41.910 C37.439,40.213 39.267,39.732 41.310,39.977 ZM44.172,40.076 C44.290,40.091 44.413,40.090 44.531,40.075 C44.917,40.028 45.039,40.198 45.032,40.577 C45.011,41.705 45.040,42.835 45.009,43.964 C44.999,44.368 45.144,44.458 45.513,44.453 C46.881,44.436 48.250,44.432 49.618,44.451 C50.018,44.458 50.152,44.358 50.139,43.932 C50.103,42.804 50.135,41.674 50.116,40.545 C50.110,40.187 50.232,40.056 50.590,40.070 C51.650,40.113 51.508,39.916 51.510,41.002 C51.514,44.065 51.510,47.127 51.526,50.190 C51.528,50.498 51.426,50.566 51.150,50.578 C50.130,50.622 50.130,50.629 50.130,49.624 C50.130,48.443 50.116,47.262 50.139,46.082 C50.145,45.761 50.044,45.649 49.740,45.650 C48.286,45.653 46.832,45.651 45.378,45.648 C45.089,45.646 45.004,45.769 45.008,46.058 C45.026,47.426 45.010,48.795 45.035,50.162 C45.040,50.456 44.962,50.558 44.678,50.579 C43.627,50.656 43.627,50.662 43.627,49.594 C43.627,48.175 43.627,46.754 43.627,45.334 C43.626,45.334 43.626,45.334 43.625,45.334 C43.625,43.760 43.639,42.186 43.615,40.611 C43.609,40.176 43.752,40.017 44.172,40.076 ZM54.157,44.380 C54.581,43.137 55.052,41.908 55.423,40.648 C55.595,40.067 55.977,39.996 56.386,40.079 C57.326,40.078 57.300,40.086 57.687,41.280 C58.072,42.466 58.469,43.648 58.904,44.818 C59.400,46.151 59.818,47.513 60.272,48.862 C60.418,49.297 60.550,49.739 60.730,50.159 C60.869,50.481 60.820,50.610 60.458,50.585 C60.254,50.572 60.047,50.566 59.843,50.578 C59.506,50.600 59.339,50.493 59.237,50.126 C58.998,49.262 58.676,48.420 58.395,47.565 C58.305,47.293 58.136,47.215 57.855,47.220 C56.897,47.237 55.939,47.237 54.981,47.222 C54.653,47.216 54.483,47.336 54.391,47.652 C54.135,48.532 53.852,49.405 53.590,50.283 C53.532,50.482 53.408,50.571 53.220,50.571 C52.864,50.570 52.404,50.687 52.178,50.510 C51.906,50.296 52.280,49.908 52.377,49.628 C52.979,47.882 53.561,46.128 54.157,44.380 ZM55.183,46.213 C55.594,46.204 56.004,46.211 56.414,46.212 C56.842,46.212 57.269,46.209 57.696,46.214 C57.958,46.217 58.026,46.130 57.926,45.869 C57.435,44.589 56.948,43.308 56.620,41.973 C56.589,41.844 56.579,41.660 56.421,41.651 C56.218,41.639 56.219,41.845 56.187,41.985 C55.891,43.314 55.400,44.581 54.932,45.854 C54.824,46.147 54.903,46.219 55.183,46.213 ZM61.422,45.344 C61.420,45.344 61.418,45.344 61.416,45.344 C61.416,43.754 61.425,42.164 61.409,40.575 C61.405,40.198 61.516,40.053 61.904,40.070 C62.919,40.115 62.802,39.915 62.803,40.971 C62.804,43.603 62.813,46.236 62.793,48.868 C62.790,49.311 62.924,49.416 63.352,49.404 C64.514,49.371 65.677,49.402 66.839,49.381 C67.165,49.376 67.253,49.500 67.262,49.797 C67.287,50.573 67.296,50.570 66.520,50.570 C64.982,50.570 63.443,50.567 61.905,50.579 C61.526,50.583 61.389,50.517 61.403,50.062 C61.452,48.490 61.422,46.917 61.422,45.344 ZM74.678,40.068 C76.251,40.089 77.825,40.088 79.399,40.069 C79.748,40.065 79.843,40.178 79.836,40.509 C79.819,41.464 79.857,41.292 79.083,41.290 C78.057,41.287 77.030,41.294 76.004,41.280 C75.654,41.275 75.524,41.381 75.542,41.756 C75.576,42.491 75.577,43.228 75.543,43.963 C75.521,44.429 75.693,44.550 76.138,44.535 C77.146,44.503 78.157,44.538 79.165,44.510 C79.607,44.499 79.582,44.763 79.562,45.044 C79.543,45.316 79.716,45.684 79.163,45.666 C78.121,45.633 77.077,45.663 76.034,45.648 C75.667,45.642 75.523,45.733 75.541,46.144 C75.580,47.032 75.575,47.923 75.544,48.811 C75.529,49.254 75.646,49.417 76.116,49.404 C77.296,49.371 78.477,49.408 79.656,49.381 C80.030,49.373 80.120,49.538 80.076,49.839 C80.031,50.143 80.327,50.612 79.610,50.585 C78.226,50.532 76.839,50.569 75.454,50.569 C74.167,50.569 74.168,50.569 74.170,49.266 C74.171,47.950 74.170,46.632 74.170,45.315 C74.169,45.315 74.169,45.315 74.168,45.315 C74.168,43.741 74.182,42.167 74.159,40.594 C74.153,40.186 74.270,40.062 74.678,40.068 ZM99.226,40.577 C99.220,40.160 99.345,40.064 99.753,40.070 C101.292,40.096 102.833,40.105 104.372,40.062 C104.953,40.045 104.886,40.360 104.905,40.733 C104.926,41.134 104.839,41.316 104.380,41.302 C103.235,41.268 102.088,41.301 100.942,41.276 C100.632,41.269 100.560,41.366 100.565,41.651 C100.579,42.471 100.578,43.294 100.565,44.114 C100.560,44.440 100.651,44.547 101.008,44.536 C102.051,44.502 103.096,44.544 104.139,44.516 C104.568,44.504 104.654,44.669 104.652,45.055 C104.651,45.454 104.621,45.687 104.110,45.667 C103.068,45.627 102.023,45.669 100.980,45.647 C100.667,45.640 100.558,45.714 100.564,46.039 C100.582,47.031 100.578,48.024 100.566,49.015 C100.562,49.333 100.671,49.410 100.990,49.403 C102.222,49.378 103.454,49.407 104.685,49.385 C105.097,49.377 105.193,49.558 105.157,49.912 C105.127,50.217 105.317,50.599 104.707,50.587 C103.014,50.552 101.320,50.569 99.627,50.582 C99.316,50.584 99.221,50.501 99.225,50.174 C99.245,48.566 99.234,46.958 99.234,45.349 C99.235,43.759 99.248,42.167 99.226,40.577 Z" class="cls-1"/>
</svg>
