<svg id="Layer_1" xmlns="http://www.w3.org/2000/svg" width="237.854" height="113.088" viewBox="0 0 237.854 113.088"><style>.st0{fill-rule:evenodd;clip-rule:evenodd;fill:#030303;} .st1{fill-rule:evenodd;clip-rule:evenodd;fill:#1D439A;}</style><path class="st0" d="M6.822 91.23c4.342-5.55 12.234-4.272 14.195.385.478-.518.903-1.043 1.393-1.498 2.74-2.54 5.956-3.24 9.427-2 3.478 1.245 4.81 4.235 5.077 7.613.423 5.38.083 10.786.175 16.18.01.677-.35.66-.826.657-1.92-.012-3.84-.048-5.756.016-.8.027-.898-.287-.893-.97.027-4.197.01-8.394.016-12.592.003-.964-.08-1.92-.387-2.834-.45-1.34-1.276-2.32-2.78-2.445-1.49-.123-2.634.513-3.415 1.78-.54.874-.697 1.848-.695 2.864.007 4.397-.013 8.795.02 13.192.005.742-.128 1.04-.958 1.008-1.796-.07-3.6-.07-5.395 0-.874.033-1.144-.168-1.134-1.098.045-4.396-.003-8.794-.01-13.19 0-.852-.17-1.668-.482-2.452-.917-2.312-3.584-2.856-5.364-1.1-1.066 1.05-1.404 2.36-1.398 3.817.015 4.318-.017 8.636.025 12.953.008.82-.166 1.105-1.036 1.07-1.795-.072-3.597-.067-5.394 0-.828.03-1.062-.18-1.055-1.036.045-5.437.038-10.873.016-16.31-.008-2.076-.054-4.154-.178-6.225-.047-.795.204-.934.917-.91 1.557.05 3.12.046 4.676 0 .65-.02.916.144.93.832.015.738.18 1.47.292 2.297zM222.337 90.906c1.412-1.49 2.858-2.588 4.682-3.05 5.27-1.333 9.71 1.71 10.572 7.218.168 1.068.253 2.137.25 3.22-.016 4.438-.028 8.876.013 13.313.007.793-.21 1-.986.975-1.88-.058-3.76-.062-5.636 0-.828.028-1.073-.186-1.064-1.042.048-4.117.02-8.235.022-12.352 0-.88-.037-1.755-.29-2.61-.56-1.89-1.754-2.796-3.676-2.774-1.78.02-3.342 1.216-3.755 2.942-.137.576-.184 1.185-.186 1.78-.015 4.357-.028 8.714.01 13.07.008.782-.192 1.01-.98.986-1.917-.06-3.837-.04-5.756-.007-.632.01-.906-.102-.904-.83.023-11.274.02-22.547.002-33.82 0-.698.233-.874.896-.86 1.918.04 3.84.055 5.756-.006.808-.026.994.23.986 1.006-.04 3.837-.02 7.675-.016 11.513 0 .377.032.756.06 1.326zM115.595 112.562c-2.136 0-4.248-.012-6.36.01-.424.004-.535-.173-.593-.543-.09-.585-.238-1.162-.393-1.896-1.966 2.073-4.296 2.966-7.005 2.953-3.855-.018-6.723-2.03-7.68-5.43-.996-3.54.417-7.17 3.595-9.12 2.814-1.727 5.972-2.145 9.186-2.293 1.304-.06 1.543-.442.932-1.623-.646-1.245-1.813-1.62-3.085-1.736-2.445-.22-4.767.27-6.948 1.378-.644.326-.923.36-1.086-.487-.225-1.17-.6-2.314-.983-3.445-.172-.507-.042-.718.407-.91 4.592-1.954 9.318-2.643 14.102-.963 3.654 1.284 5.246 4.303 5.476 7.99.18 2.906.07 5.83.07 8.748 0 2.428.092 4.85.363 7.367zm-7.805-9.588c0-.478-.012-.956.004-1.434.012-.342-.098-.51-.47-.5-1.84.048-3.673.167-5.243 1.28-1.21.86-1.602 2.472-1 3.84.498 1.14 1.894 1.772 3.33 1.507 2.3-.425 3.38-1.927 3.38-4.693zM166.088 102.763c-2.32 0-4.64.042-6.956-.02-.945-.026-.996.35-.723 1.05.962 2.465 3.05 3.255 5.414 3.472 2.4.22 4.798.047 7.11-.694.716-.228.963-.07 1.062.654.146 1.064.295 2.144.61 3.165.29.945.065 1.31-.884 1.58-3.864 1.09-7.765 1.52-11.714.65-5.07-1.117-8.104-4.283-8.876-9.428-.748-4.99.33-9.488 4.256-12.937 4.034-3.542 10.98-3.638 14.955-.273 2.254 1.908 3.217 4.508 3.64 7.34.224 1.503.208 3.014.063 4.535-.07.725-.283.935-1.003.92-2.318-.042-4.637-.014-6.955-.014zm-3.586-5.204c1.277 0 2.554-.002 3.83 0 .363 0 .68.046.715-.518.09-1.528-1.158-3.6-2.633-4.103-3.042-1.04-5.595.86-6.212 4.15-.1.526.277.465.59.465 1.237.004 2.473.003 3.71.004zM128.592 100.08c0-1.758-.034-3.518.016-5.275.02-.75-.142-1.03-.97-1.024-2.326.022-2.327-.02-2.327-2.374v-.36c.02-.916-.28-2.043.148-2.688.43-.65 1.63-.19 2.488-.223.55-.02.664-.235.653-.726-.027-1.24.028-2.48-.025-3.718-.027-.62.14-.932.77-1.064 1.99-.418 3.98-.852 5.953-1.34.61-.152.757-.032.748.575-.03 1.798.018 3.598-.024 5.396-.016.66.152.906.85.875 1.237-.055 2.48.017 3.717-.028.654-.023.93.143.902.854-.05 1.318-.06 2.64.003 3.957.038.788-.28.933-.977.903-1.197-.052-2.4.015-3.597-.027-.626-.02-.916.083-.902.822.054 2.837-.01 5.676.06 8.512.075 3.085 1.118 3.983 4.214 3.603.885-.11 1.087.074 1.043.928-.07 1.355-.025 2.717-.015 4.077.003.43-.03.75-.575.862-2.734.564-5.463.844-8.12-.29-2.83-1.207-3.747-3.686-3.962-6.473-.146-1.906-.028-3.834-.028-5.752h-.043zM198.12 113.062c-4.8-.01-8.387-.854-11.014-3.866-3.452-3.956-3.83-8.617-2.227-13.387 1.568-4.67 5.18-7.122 9.925-7.962 2.746-.486 5.477-.34 8.188.374.728.192.886.496.726 1.166-.324 1.357-.643 2.717-.89 4.09-.11.606-.32.723-.872.514-1.136-.43-2.33-.515-3.533-.504-4.05.036-6.786 2.996-6.525 7.053.3 4.67 3.57 7.17 8.415 6.427.276-.042.55-.104.823-.157 1.83-.35 1.83-.35 2.112 1.47.146.947.256 1.9.464 2.833.157.704-.083 1.014-.746 1.184-1.903.484-3.827.784-4.847.765zM76.385 92.265c.667-.836 1.138-1.742 1.862-2.497 1.605-1.674 3.558-2.328 5.842-2.183.53.034.677.216.673.715-.02 1.957-.025 3.915.003 5.872.008.546-.165.72-.69.607-.27-.06-.553-.08-.83-.092-3.715-.178-5.804 1.752-5.84 5.47-.036 3.796-.035 7.59.014 11.385.01.858-.247 1.068-1.068 1.038-1.756-.06-3.518-.077-5.27.005-1 .047-1.338-.15-1.322-1.26.074-5.153.052-10.307.024-15.46-.013-2.272-.103-4.545-.203-6.816-.03-.703.117-.985.9-.952 1.595.068 3.196.046 4.793.008.64-.016.94.13.942.84.002 1.107.107 2.213.17 3.32zM49.55 100.327c0-3.715.022-7.43-.02-11.144-.008-.81.166-1.117 1.043-1.086 1.915.07 3.834.04 5.75.01.62-.01.933.08.93.825-.025 7.63-.02 15.26-.004 22.888 0 .566-.143.765-.735.756-2.077-.034-4.155-.052-6.23.006-.858.023-.738-.472-.737-.99.002-3.756 0-7.51 0-11.265zM129.315 31.102c0-4.128 3.212-7.36 7.334-7.38 4.172-.02 7.448 3.228 7.46 7.397.014 4.128-3.316 7.487-7.416 7.48-4.11-.01-7.38-3.333-7.38-7.498zM114.272 31.13c.003 4.13-3.344 7.49-7.438 7.47-4.082-.023-7.485-3.457-7.44-7.507.047-4.078 3.348-7.355 7.42-7.37 4.17-.012 7.454 3.25 7.458 7.406z"/><path class="st1" d="M77.12 23.722c4.13.044 7.41 3.42 7.337 7.55-.072 4.042-3.455 7.356-7.484 7.332-4.148-.025-7.434-3.434-7.38-7.658.05-4.055 3.4-7.268 7.528-7.224zM84.464 54.78c.026 4.11-3.278 7.447-7.424 7.5-4.04.05-7.418-3.277-7.448-7.335-.03-4.17 3.208-7.504 7.34-7.555 4.108-.05 7.506 3.284 7.532 7.39zM136.71 0c4.117 0 7.44 3.35 7.415 7.48-.025 4.1-3.293 7.38-7.372 7.4-4.164.02-7.438-3.244-7.44-7.415 0-4.184 3.25-7.465 7.396-7.465zM173.994 54.833c.003 4.1-3.354 7.444-7.478 7.45-4.093.004-7.42-3.37-7.403-7.51.015-4.067 3.314-7.357 7.402-7.38 4.103-.024 7.475 3.33 7.48 7.44z"/><path class="st0" d="M114.272 54.973c-.06 4.07-3.45 7.384-7.466 7.3-4.15-.084-7.494-3.477-7.41-7.52.085-4.136 3.477-7.427 7.573-7.348 4.16.08 7.364 3.4 7.302 7.568z"/><path class="st1" d="M69.593 7.458C69.59 3.316 72.905-.007 77.03 0c4.105.007 7.46 3.39 7.434 7.493-.026 4.11-3.393 7.414-7.527 7.39-4.066-.025-7.343-3.34-7.344-7.425zM129.313 54.735c.012-4.097 3.325-7.374 7.424-7.344 4.147.032 7.432 3.385 7.386 7.538-.045 4.078-3.403 7.39-7.458 7.356-4.15-.034-7.364-3.336-7.352-7.55zM166.566 14.882c-4.12.017-7.455-3.312-7.453-7.443 0-4.075 3.283-7.397 7.348-7.44 4.116-.043 7.505 3.282 7.534 7.394.028 4.113-3.303 7.472-7.428 7.488zM53.3 86.162c-2.274-.032-4.095-1.895-4.07-4.163.026-2.31 1.97-4.194 4.257-4.125 2.278.068 4.096 1.942 4.067 4.192-.028 2.348-1.878 4.13-4.253 4.095z"/></svg>